%TF.GenerationSoftware,KiCad,Pcbnew,9.0.2*%
%TF.CreationDate,2025-06-21T23:14:43+02:00*%
%TF.ProjectId,MOD65,4d4f4436-352e-46b6-9963-61645f706362,2*%
%TF.SameCoordinates,Original*%
%TF.FileFunction,Paste,Bot*%
%TF.FilePolarity,Positive*%
%FSLAX46Y46*%
G04 Gerber Fmt 4.6, Leading zero omitted, Abs format (unit mm)*
G04 Created by KiCad (PCBNEW 9.0.2) date 2025-06-21 23:14:43*
%MOMM*%
%LPD*%
G01*
G04 APERTURE LIST*
G04 Aperture macros list*
%AMRoundRect*
0 Rectangle with rounded corners*
0 $1 Rounding radius*
0 $2 $3 $4 $5 $6 $7 $8 $9 X,Y pos of 4 corners*
0 Add a 4 corners polygon primitive as box body*
4,1,4,$2,$3,$4,$5,$6,$7,$8,$9,$2,$3,0*
0 Add four circle primitives for the rounded corners*
1,1,$1+$1,$2,$3*
1,1,$1+$1,$4,$5*
1,1,$1+$1,$6,$7*
1,1,$1+$1,$8,$9*
0 Add four rect primitives between the rounded corners*
20,1,$1+$1,$2,$3,$4,$5,0*
20,1,$1+$1,$4,$5,$6,$7,0*
20,1,$1+$1,$6,$7,$8,$9,0*
20,1,$1+$1,$8,$9,$2,$3,0*%
%AMFreePoly0*
4,1,18,-0.410000,0.593000,-0.403758,0.624380,-0.385983,0.650983,-0.359380,0.668758,-0.328000,0.675000,0.328000,0.675000,0.359380,0.668758,0.385983,0.650983,0.403758,0.624380,0.410000,0.593000,0.410000,-0.593000,0.403758,-0.624380,0.385983,-0.650983,0.359380,-0.668758,0.328000,-0.675000,0.000000,-0.675000,-0.410000,-0.265000,-0.410000,0.593000,-0.410000,0.593000,$1*%
G04 Aperture macros list end*
%ADD10RoundRect,0.112500X0.112500X-0.187500X0.112500X0.187500X-0.112500X0.187500X-0.112500X-0.187500X0*%
%ADD11RoundRect,0.082000X0.593000X-0.328000X0.593000X0.328000X-0.593000X0.328000X-0.593000X-0.328000X0*%
%ADD12FreePoly0,90.000000*%
%ADD13RoundRect,0.250000X0.450000X-0.262500X0.450000X0.262500X-0.450000X0.262500X-0.450000X-0.262500X0*%
%ADD14RoundRect,0.250000X-1.025000X-1.000000X1.025000X-1.000000X1.025000X1.000000X-1.025000X1.000000X0*%
%ADD15RoundRect,0.250000X-0.250000X-0.475000X0.250000X-0.475000X0.250000X0.475000X-0.250000X0.475000X0*%
%ADD16RoundRect,0.082000X-0.593000X0.328000X-0.593000X-0.328000X0.593000X-0.328000X0.593000X0.328000X0*%
%ADD17FreePoly0,270.000000*%
%ADD18RoundRect,0.250000X0.250000X0.475000X-0.250000X0.475000X-0.250000X-0.475000X0.250000X-0.475000X0*%
%ADD19RoundRect,0.250000X-0.615000X0.435000X-0.615000X-0.435000X0.615000X-0.435000X0.615000X0.435000X0*%
%ADD20RoundRect,0.125000X-0.125000X0.200000X-0.125000X-0.200000X0.125000X-0.200000X0.125000X0.200000X0*%
%ADD21RoundRect,0.250000X0.475000X-0.250000X0.475000X0.250000X-0.475000X0.250000X-0.475000X-0.250000X0*%
%ADD22RoundRect,0.250000X-0.475000X0.250000X-0.475000X-0.250000X0.475000X-0.250000X0.475000X0.250000X0*%
%ADD23RoundRect,0.150000X-0.150000X-0.625000X0.150000X-0.625000X0.150000X0.625000X-0.150000X0.625000X0*%
%ADD24RoundRect,0.250000X-0.350000X-0.650000X0.350000X-0.650000X0.350000X0.650000X-0.350000X0.650000X0*%
%ADD25RoundRect,0.150000X-0.150000X0.512500X-0.150000X-0.512500X0.150000X-0.512500X0.150000X0.512500X0*%
%ADD26R,1.400000X1.200000*%
%ADD27RoundRect,0.250000X-0.450000X0.262500X-0.450000X-0.262500X0.450000X-0.262500X0.450000X0.262500X0*%
%ADD28RoundRect,0.249999X-0.395001X-0.395001X0.395001X-0.395001X0.395001X0.395001X-0.395001X0.395001X0*%
%ADD29RoundRect,0.050000X-0.387500X-0.050000X0.387500X-0.050000X0.387500X0.050000X-0.387500X0.050000X0*%
%ADD30RoundRect,0.050000X-0.050000X-0.387500X0.050000X-0.387500X0.050000X0.387500X-0.050000X0.387500X0*%
G04 APERTURE END LIST*
D10*
%TO.C,D59*%
X47841250Y-114050000D03*
X47841250Y-111950000D03*
%TD*%
D11*
%TO.C,LED51*%
X173487500Y-89500000D03*
X173487500Y-91000000D03*
X178937500Y-89500000D03*
D12*
X178937500Y-91000000D03*
%TD*%
D11*
%TO.C,LED48*%
X116337500Y-89500000D03*
X116337500Y-91000000D03*
X121787500Y-89500000D03*
D12*
X121787500Y-91000000D03*
%TD*%
D13*
%TO.C,R1*%
X168800000Y-112312500D03*
X168800000Y-110487500D03*
%TD*%
D14*
%TO.C,SW39*%
X212147500Y-78740000D03*
X198697500Y-81280000D03*
%TD*%
D10*
%TO.C,D50*%
X164522500Y-95000000D03*
X164522500Y-92900000D03*
%TD*%
D14*
%TO.C,SW55*%
X259772500Y-97790000D03*
X246322500Y-100330000D03*
%TD*%
D10*
%TO.C,D26*%
X245485000Y-56900000D03*
X245485000Y-54800000D03*
%TD*%
D15*
%TO.C,C11*%
X178600000Y-111100000D03*
X180500000Y-111100000D03*
%TD*%
D14*
%TO.C,SW60*%
X71653750Y-116840000D03*
X58203750Y-119380000D03*
%TD*%
D11*
%TO.C,LED45*%
X47281250Y-89500000D03*
X47281250Y-91000000D03*
X52731250Y-89500000D03*
D12*
X52731250Y-91000000D03*
%TD*%
D14*
%TO.C,SW23*%
X188335000Y-59690000D03*
X174885000Y-62230000D03*
%TD*%
%TO.C,SW64*%
X262153750Y-116840000D03*
X248703750Y-119380000D03*
%TD*%
D16*
%TO.C,LED15*%
X326575000Y-38850000D03*
X326575000Y-37350000D03*
X321125000Y-38850000D03*
D17*
X321125000Y-37350000D03*
%TD*%
D10*
%TO.C,D13*%
X274060000Y-37850000D03*
X274060000Y-35750000D03*
%TD*%
D14*
%TO.C,SW37*%
X174047500Y-78740000D03*
X160597500Y-81280000D03*
%TD*%
D16*
%TO.C,LED65*%
X288475000Y-110050000D03*
X288475000Y-108550000D03*
X283025000Y-110050000D03*
D17*
X283025000Y-108550000D03*
%TD*%
D14*
%TO.C,SW44*%
X331210000Y-78740000D03*
X317760000Y-81280000D03*
%TD*%
D16*
%TO.C,LED31*%
X43206250Y-71950000D03*
X43206250Y-70450000D03*
X37756250Y-71950000D03*
D17*
X37756250Y-70450000D03*
%TD*%
D18*
%TO.C,C16*%
X268350000Y-94300000D03*
X266450000Y-94300000D03*
%TD*%
D16*
%TO.C,LED64*%
X257518750Y-110050000D03*
X257518750Y-108550000D03*
X252068750Y-110050000D03*
D17*
X252068750Y-108550000D03*
%TD*%
D16*
%TO.C,LED33*%
X93212500Y-71950000D03*
X93212500Y-70450000D03*
X87762500Y-71950000D03*
D17*
X87762500Y-70450000D03*
%TD*%
D10*
%TO.C,D31*%
X47841250Y-75950000D03*
X47841250Y-73850000D03*
%TD*%
%TO.C,D56*%
X285966250Y-95000000D03*
X285966250Y-92900000D03*
%TD*%
D11*
%TO.C,LED26*%
X235400000Y-51400000D03*
X235400000Y-52900000D03*
X240850000Y-51400000D03*
D12*
X240850000Y-52900000D03*
%TD*%
D11*
%TO.C,LED21*%
X140150000Y-51400000D03*
X140150000Y-52900000D03*
X145600000Y-51400000D03*
D12*
X145600000Y-52900000D03*
%TD*%
D16*
%TO.C,LED6*%
X136075000Y-33850000D03*
X136075000Y-32350000D03*
X130625000Y-33850000D03*
D17*
X130625000Y-32350000D03*
%TD*%
D16*
%TO.C,LED61*%
X90831250Y-110050000D03*
X90831250Y-108550000D03*
X85381250Y-110050000D03*
D17*
X85381250Y-108550000D03*
%TD*%
D10*
%TO.C,D57*%
X312160000Y-95000000D03*
X312160000Y-92900000D03*
%TD*%
%TO.C,D60*%
X71653750Y-114050000D03*
X71653750Y-111950000D03*
%TD*%
D16*
%TO.C,LED13*%
X269425000Y-33850000D03*
X269425000Y-32350000D03*
X263975000Y-33850000D03*
D17*
X263975000Y-32350000D03*
%TD*%
D10*
%TO.C,D34*%
X116897500Y-75950000D03*
X116897500Y-73850000D03*
%TD*%
D14*
%TO.C,SW6*%
X140710000Y-40640000D03*
X127260000Y-43180000D03*
%TD*%
D18*
%TO.C,C8*%
X193700000Y-116350000D03*
X191800000Y-116350000D03*
%TD*%
D10*
%TO.C,D53*%
X221672500Y-95000000D03*
X221672500Y-92900000D03*
%TD*%
D11*
%TO.C,LED30*%
X321125000Y-51400000D03*
X321125000Y-52900000D03*
X326575000Y-51400000D03*
D12*
X326575000Y-52900000D03*
%TD*%
D10*
%TO.C,D58*%
X331210000Y-95000000D03*
X331210000Y-92900000D03*
%TD*%
%TO.C,D51*%
X183572500Y-95000000D03*
X183572500Y-92900000D03*
%TD*%
D16*
%TO.C,LED62*%
X162268750Y-110050000D03*
X162268750Y-108550000D03*
X156818750Y-110050000D03*
D17*
X156818750Y-108550000D03*
%TD*%
D14*
%TO.C,SW16*%
X50222500Y-59690000D03*
X36772500Y-62230000D03*
%TD*%
D10*
%TO.C,D54*%
X240722500Y-95000000D03*
X240722500Y-92900000D03*
%TD*%
D14*
%TO.C,SW9*%
X197860000Y-40640000D03*
X184410000Y-43180000D03*
%TD*%
%TO.C,SW49*%
X145472500Y-97790000D03*
X132022500Y-100330000D03*
%TD*%
D19*
%TO.C,U1*%
X173325000Y-116650000D03*
X171175000Y-116650000D03*
X173325000Y-118350000D03*
X171175000Y-118350000D03*
D20*
X170345000Y-113750000D03*
X171615000Y-113750000D03*
X172885000Y-113750000D03*
X174155000Y-113750000D03*
X174155000Y-121250000D03*
X172885000Y-121250000D03*
X171615000Y-121250000D03*
X170345000Y-121250000D03*
%TD*%
D14*
%TO.C,SW36*%
X154997500Y-78740000D03*
X141547500Y-81280000D03*
%TD*%
D16*
%TO.C,LED60*%
X67018750Y-110050000D03*
X67018750Y-108550000D03*
X61568750Y-110050000D03*
D17*
X61568750Y-108550000D03*
%TD*%
D14*
%TO.C,SW54*%
X240722500Y-97790000D03*
X227272500Y-100330000D03*
%TD*%
D10*
%TO.C,D45*%
X57366250Y-95000000D03*
X57366250Y-92900000D03*
%TD*%
D16*
%TO.C,LED43*%
X295618750Y-71950000D03*
X295618750Y-70450000D03*
X290168750Y-71950000D03*
D17*
X290168750Y-70450000D03*
%TD*%
D11*
%TO.C,LED19*%
X102050000Y-51400000D03*
X102050000Y-52900000D03*
X107500000Y-51400000D03*
D12*
X107500000Y-52900000D03*
%TD*%
D16*
%TO.C,LED34*%
X112262500Y-71950000D03*
X112262500Y-70450000D03*
X106812500Y-71950000D03*
D17*
X106812500Y-70450000D03*
%TD*%
D14*
%TO.C,SW48*%
X126422500Y-97790000D03*
X112972500Y-100330000D03*
%TD*%
D15*
%TO.C,C17*%
X266490000Y-100400000D03*
X268390000Y-100400000D03*
%TD*%
D10*
%TO.C,D18*%
X93085000Y-56900000D03*
X93085000Y-54800000D03*
%TD*%
%TO.C,D16*%
X50222500Y-56900000D03*
X50222500Y-54800000D03*
%TD*%
%TO.C,D62*%
X166903750Y-114050000D03*
X166903750Y-111950000D03*
%TD*%
D14*
%TO.C,SW22*%
X169285000Y-59690000D03*
X155835000Y-62230000D03*
%TD*%
D16*
%TO.C,LED7*%
X155125000Y-33850000D03*
X155125000Y-32350000D03*
X149675000Y-33850000D03*
D17*
X149675000Y-32350000D03*
%TD*%
D14*
%TO.C,SW25*%
X226435000Y-59690000D03*
X212985000Y-62230000D03*
%TD*%
D10*
%TO.C,D42*%
X269297500Y-75950000D03*
X269297500Y-73850000D03*
%TD*%
D14*
%TO.C,SW42*%
X269297500Y-78740000D03*
X255847500Y-81280000D03*
%TD*%
%TO.C,SW3*%
X83560000Y-40640000D03*
X70110000Y-43180000D03*
%TD*%
D11*
%TO.C,LED28*%
X273500000Y-51400000D03*
X273500000Y-52900000D03*
X278950000Y-51400000D03*
D12*
X278950000Y-52900000D03*
%TD*%
D10*
%TO.C,D36*%
X154997500Y-75950000D03*
X154997500Y-73850000D03*
%TD*%
%TO.C,D40*%
X231197500Y-75950000D03*
X231197500Y-73850000D03*
%TD*%
D14*
%TO.C,SW32*%
X78797500Y-78740000D03*
X65347500Y-81280000D03*
%TD*%
D21*
%TO.C,C12*%
X194407135Y-121400000D03*
X194407135Y-119500000D03*
%TD*%
D13*
%TO.C,R3*%
X192435708Y-121362500D03*
X192435708Y-119537500D03*
%TD*%
D14*
%TO.C,SW28*%
X283585000Y-59690000D03*
X270135000Y-62230000D03*
%TD*%
%TO.C,SW62*%
X166903750Y-116840000D03*
X153453750Y-119380000D03*
%TD*%
%TO.C,SW2*%
X64510000Y-40640000D03*
X51060000Y-43180000D03*
%TD*%
D10*
%TO.C,D27*%
X264535000Y-56900000D03*
X264535000Y-54800000D03*
%TD*%
D14*
%TO.C,SW10*%
X216910000Y-40640000D03*
X203460000Y-43180000D03*
%TD*%
%TO.C,SW46*%
X88322500Y-97790000D03*
X74872500Y-100330000D03*
%TD*%
D16*
%TO.C,LED12*%
X250375000Y-33850000D03*
X250375000Y-32350000D03*
X244925000Y-33850000D03*
D17*
X244925000Y-32350000D03*
%TD*%
D21*
%TO.C,C6*%
X198349989Y-121400000D03*
X198349989Y-119500000D03*
%TD*%
D16*
%TO.C,LED41*%
X245612500Y-71950000D03*
X245612500Y-70450000D03*
X240162500Y-71950000D03*
D17*
X240162500Y-70450000D03*
%TD*%
D14*
%TO.C,SW31*%
X47841250Y-78740000D03*
X34391250Y-81280000D03*
%TD*%
%TO.C,SW14*%
X302635000Y-40640000D03*
X289185000Y-43180000D03*
%TD*%
%TO.C,SW13*%
X274060000Y-40640000D03*
X260610000Y-43180000D03*
%TD*%
D16*
%TO.C,LED42*%
X264662500Y-71950000D03*
X264662500Y-70450000D03*
X259212500Y-71950000D03*
D17*
X259212500Y-70450000D03*
%TD*%
D10*
%TO.C,D63*%
X238341250Y-114050000D03*
X238341250Y-111950000D03*
%TD*%
%TO.C,D64*%
X262153750Y-114050000D03*
X262153750Y-111950000D03*
%TD*%
D16*
%TO.C,LED67*%
X326575000Y-110050000D03*
X326575000Y-108550000D03*
X321125000Y-110050000D03*
D17*
X321125000Y-108550000D03*
%TD*%
D10*
%TO.C,D33*%
X97847500Y-75950000D03*
X97847500Y-73850000D03*
%TD*%
%TO.C,D11*%
X235960000Y-37850000D03*
X235960000Y-35750000D03*
%TD*%
%TO.C,D12*%
X255010000Y-37850000D03*
X255010000Y-35750000D03*
%TD*%
D22*
%TO.C,C2*%
X191050000Y-103950000D03*
X191050000Y-105850000D03*
%TD*%
D10*
%TO.C,D48*%
X126422500Y-95000000D03*
X126422500Y-92900000D03*
%TD*%
%TO.C,D67*%
X331210000Y-114050000D03*
X331210000Y-111950000D03*
%TD*%
%TO.C,D46*%
X88322500Y-95000000D03*
X88322500Y-92900000D03*
%TD*%
D23*
%TO.C,J3*%
X54500000Y-83500000D03*
X55500000Y-83500000D03*
X56500000Y-83500000D03*
X57500000Y-83500000D03*
D24*
X53200000Y-79625000D03*
X58800000Y-79625000D03*
%TD*%
D14*
%TO.C,SW33*%
X97847500Y-78740000D03*
X84397500Y-81280000D03*
%TD*%
%TO.C,SW1*%
X45460000Y-40640000D03*
X32010000Y-43180000D03*
%TD*%
D16*
%TO.C,LED37*%
X169412500Y-71950000D03*
X169412500Y-70450000D03*
X163962500Y-71950000D03*
D17*
X163962500Y-70450000D03*
%TD*%
D25*
%TO.C,U2*%
X266487500Y-96212500D03*
X267437500Y-96212500D03*
X268387500Y-96212500D03*
X268387500Y-98487500D03*
X266487500Y-98487500D03*
%TD*%
D10*
%TO.C,D23*%
X188335000Y-56900000D03*
X188335000Y-54800000D03*
%TD*%
D16*
%TO.C,LED38*%
X188462500Y-71950000D03*
X188462500Y-70450000D03*
X183012500Y-71950000D03*
D17*
X183012500Y-70450000D03*
%TD*%
D11*
%TO.C,LED54*%
X230637500Y-89500000D03*
X230637500Y-91000000D03*
X236087500Y-89500000D03*
D12*
X236087500Y-91000000D03*
%TD*%
D10*
%TO.C,D21*%
X150235000Y-56900000D03*
X150235000Y-54800000D03*
%TD*%
D21*
%TO.C,C13*%
X196378562Y-121400000D03*
X196378562Y-119500000D03*
%TD*%
D14*
%TO.C,SW29*%
X307397500Y-59690000D03*
X293947500Y-62230000D03*
%TD*%
D16*
%TO.C,LED2*%
X59875000Y-33850000D03*
X59875000Y-32350000D03*
X54425000Y-33850000D03*
D17*
X54425000Y-32350000D03*
%TD*%
D22*
%TO.C,C7*%
X189062500Y-103950000D03*
X189062500Y-105850000D03*
%TD*%
D14*
%TO.C,SW11*%
X235960000Y-40640000D03*
X222510000Y-43180000D03*
%TD*%
%TO.C,SW61*%
X95466250Y-116840000D03*
X82016250Y-119380000D03*
%TD*%
D10*
%TO.C,D61*%
X95466250Y-114050000D03*
X95466250Y-111950000D03*
%TD*%
D11*
%TO.C,LED46*%
X78237500Y-89500000D03*
X78237500Y-91000000D03*
X83687500Y-89500000D03*
D12*
X83687500Y-91000000D03*
%TD*%
D10*
%TO.C,D38*%
X193097500Y-75950000D03*
X193097500Y-73850000D03*
%TD*%
%TO.C,D30*%
X331210000Y-56900000D03*
X331210000Y-54800000D03*
%TD*%
D14*
%TO.C,SW58*%
X331210000Y-97790000D03*
X317760000Y-100330000D03*
%TD*%
%TO.C,SW65*%
X293110000Y-116840000D03*
X279660000Y-119380000D03*
%TD*%
D16*
%TO.C,LED3*%
X78925000Y-33850000D03*
X78925000Y-32350000D03*
X73475000Y-33850000D03*
D17*
X73475000Y-32350000D03*
%TD*%
D21*
%TO.C,C3*%
X184550000Y-121400000D03*
X184550000Y-119500000D03*
%TD*%
D11*
%TO.C,LED52*%
X192537500Y-89500000D03*
X192537500Y-91000000D03*
X197987500Y-89500000D03*
D12*
X197987500Y-91000000D03*
%TD*%
D11*
%TO.C,LED23*%
X178250000Y-51400000D03*
X178250000Y-52900000D03*
X183700000Y-51400000D03*
D12*
X183700000Y-52900000D03*
%TD*%
D16*
%TO.C,LED63*%
X233706250Y-110050000D03*
X233706250Y-108550000D03*
X228256250Y-110050000D03*
D17*
X228256250Y-108550000D03*
%TD*%
D10*
%TO.C,D35*%
X135947500Y-75950000D03*
X135947500Y-73850000D03*
%TD*%
D15*
%TO.C,C1*%
X165950000Y-121400000D03*
X167850000Y-121400000D03*
%TD*%
D14*
%TO.C,SW53*%
X221672500Y-97790000D03*
X208222500Y-100330000D03*
%TD*%
D11*
%TO.C,LED55*%
X249687500Y-89500000D03*
X249687500Y-91000000D03*
X255137500Y-89500000D03*
D12*
X255137500Y-91000000D03*
%TD*%
D14*
%TO.C,SW67*%
X331210000Y-116840000D03*
X317760000Y-119380000D03*
%TD*%
%TO.C,SW8*%
X178810000Y-40640000D03*
X165360000Y-43180000D03*
%TD*%
D11*
%TO.C,LED47*%
X97287500Y-89500000D03*
X97287500Y-91000000D03*
X102737500Y-89500000D03*
D12*
X102737500Y-91000000D03*
%TD*%
D14*
%TO.C,SW34*%
X116897500Y-78740000D03*
X103447500Y-81280000D03*
%TD*%
D10*
%TO.C,D17*%
X74035000Y-56900000D03*
X74035000Y-54800000D03*
%TD*%
D22*
%TO.C,C14*%
X185087500Y-103950000D03*
X185087500Y-105850000D03*
%TD*%
D10*
%TO.C,D37*%
X174047500Y-75950000D03*
X174047500Y-73850000D03*
%TD*%
%TO.C,D3*%
X83560000Y-37850000D03*
X83560000Y-35750000D03*
%TD*%
D16*
%TO.C,LED66*%
X307525000Y-110050000D03*
X307525000Y-108550000D03*
X302075000Y-110050000D03*
D17*
X302075000Y-108550000D03*
%TD*%
D14*
%TO.C,SW35*%
X135947500Y-78740000D03*
X122497500Y-81280000D03*
%TD*%
D16*
%TO.C,LED8*%
X174175000Y-33850000D03*
X174175000Y-32350000D03*
X168725000Y-33850000D03*
D17*
X168725000Y-32350000D03*
%TD*%
D10*
%TO.C,D65*%
X293110000Y-114050000D03*
X293110000Y-111950000D03*
%TD*%
D14*
%TO.C,SW40*%
X231197500Y-78740000D03*
X217747500Y-81280000D03*
%TD*%
D16*
%TO.C,LED11*%
X231325000Y-33850000D03*
X231325000Y-32350000D03*
X225875000Y-33850000D03*
D17*
X225875000Y-32350000D03*
%TD*%
D23*
%TO.C,J2*%
X287200000Y-66500000D03*
X288200000Y-66500000D03*
X289200000Y-66500000D03*
X290200000Y-66500000D03*
D24*
X285900000Y-62625000D03*
X291500000Y-62625000D03*
%TD*%
D10*
%TO.C,D4*%
X102610000Y-37850000D03*
X102610000Y-35750000D03*
%TD*%
D16*
%TO.C,LED36*%
X150362500Y-71950000D03*
X150362500Y-70450000D03*
X144912500Y-71950000D03*
D17*
X144912500Y-70450000D03*
%TD*%
D14*
%TO.C,SW43*%
X300253750Y-78740000D03*
X286803750Y-81280000D03*
%TD*%
D10*
%TO.C,D28*%
X283585000Y-56900000D03*
X283585000Y-54800000D03*
%TD*%
%TO.C,D8*%
X178810000Y-37850000D03*
X178810000Y-35750000D03*
%TD*%
D16*
%TO.C,LED40*%
X226562500Y-71950000D03*
X226562500Y-70450000D03*
X221112500Y-71950000D03*
D17*
X221112500Y-70450000D03*
%TD*%
D15*
%TO.C,C10*%
X180100000Y-115600000D03*
X182000000Y-115600000D03*
%TD*%
D14*
%TO.C,SW63*%
X238341250Y-116840000D03*
X224891250Y-119380000D03*
%TD*%
D11*
%TO.C,LED50*%
X154437500Y-89500000D03*
X154437500Y-91000000D03*
X159887500Y-89500000D03*
D12*
X159887500Y-91000000D03*
%TD*%
D10*
%TO.C,D52*%
X202622500Y-95000000D03*
X202622500Y-92900000D03*
%TD*%
%TO.C,D32*%
X78797500Y-75950000D03*
X78797500Y-73850000D03*
%TD*%
D26*
%TO.C,Y1*%
X181100000Y-105750000D03*
X178900000Y-105750000D03*
X178900000Y-104050000D03*
X181100000Y-104050000D03*
%TD*%
D21*
%TO.C,C9*%
X188492854Y-121400000D03*
X188492854Y-119500000D03*
%TD*%
D14*
%TO.C,SW4*%
X102610000Y-40640000D03*
X89160000Y-43180000D03*
%TD*%
%TO.C,SW57*%
X312160000Y-97790000D03*
X298710000Y-100330000D03*
%TD*%
D11*
%TO.C,LED22*%
X159200000Y-51400000D03*
X159200000Y-52900000D03*
X164650000Y-51400000D03*
D12*
X164650000Y-52900000D03*
%TD*%
D11*
%TO.C,LED24*%
X197300000Y-51400000D03*
X197300000Y-52900000D03*
X202750000Y-51400000D03*
D12*
X202750000Y-52900000D03*
%TD*%
D16*
%TO.C,LED5*%
X117025000Y-33850000D03*
X117025000Y-32350000D03*
X111575000Y-33850000D03*
D17*
X111575000Y-32350000D03*
%TD*%
D14*
%TO.C,SW24*%
X207385000Y-59690000D03*
X193935000Y-62230000D03*
%TD*%
D10*
%TO.C,D10*%
X216910000Y-37850000D03*
X216910000Y-35750000D03*
%TD*%
D14*
%TO.C,SW56*%
X285966250Y-97790000D03*
X272516250Y-100330000D03*
%TD*%
D21*
%TO.C,C5*%
X186521427Y-121400000D03*
X186521427Y-119500000D03*
%TD*%
D11*
%TO.C,LED58*%
X321125000Y-89500000D03*
X321125000Y-91000000D03*
X326575000Y-89500000D03*
D12*
X326575000Y-91000000D03*
%TD*%
D16*
%TO.C,LED1*%
X40825000Y-33850000D03*
X40825000Y-32350000D03*
X35375000Y-33850000D03*
D17*
X35375000Y-32350000D03*
%TD*%
D10*
%TO.C,D1*%
X45460000Y-37850000D03*
X45460000Y-35750000D03*
%TD*%
D27*
%TO.C,R6*%
X187075000Y-103987500D03*
X187075000Y-105812500D03*
%TD*%
D10*
%TO.C,D20*%
X131185000Y-56900000D03*
X131185000Y-54800000D03*
%TD*%
D14*
%TO.C,SW51*%
X183572500Y-97790000D03*
X170122500Y-100330000D03*
%TD*%
D16*
%TO.C,LED4*%
X97975000Y-33850000D03*
X97975000Y-32350000D03*
X92525000Y-33850000D03*
D17*
X92525000Y-32350000D03*
%TD*%
D11*
%TO.C,LED27*%
X254450000Y-51400000D03*
X254450000Y-52900000D03*
X259900000Y-51400000D03*
D12*
X259900000Y-52900000D03*
%TD*%
D16*
%TO.C,LED39*%
X207512500Y-71950000D03*
X207512500Y-70450000D03*
X202062500Y-71950000D03*
D17*
X202062500Y-70450000D03*
%TD*%
D14*
%TO.C,SW59*%
X47841250Y-116840000D03*
X34391250Y-119380000D03*
%TD*%
D11*
%TO.C,LED56*%
X275881250Y-89500000D03*
X275881250Y-91000000D03*
X281331250Y-89500000D03*
D12*
X281331250Y-91000000D03*
%TD*%
D13*
%TO.C,R2*%
X190464281Y-121362500D03*
X190464281Y-119537500D03*
%TD*%
D10*
%TO.C,D43*%
X300253750Y-75950000D03*
X300253750Y-73850000D03*
%TD*%
D21*
%TO.C,C15*%
X183100000Y-105850000D03*
X183100000Y-103950000D03*
%TD*%
D16*
%TO.C,LED32*%
X74162500Y-71950000D03*
X74162500Y-70450000D03*
X68712500Y-71950000D03*
D17*
X68712500Y-70450000D03*
%TD*%
D14*
%TO.C,SW30*%
X331210000Y-59690000D03*
X317760000Y-62230000D03*
%TD*%
D16*
%TO.C,LED10*%
X212275000Y-33850000D03*
X212275000Y-32350000D03*
X206825000Y-33850000D03*
D17*
X206825000Y-32350000D03*
%TD*%
D16*
%TO.C,LED59*%
X43206250Y-110050000D03*
X43206250Y-108550000D03*
X37756250Y-110050000D03*
D17*
X37756250Y-108550000D03*
%TD*%
D10*
%TO.C,D22*%
X169285000Y-56900000D03*
X169285000Y-54800000D03*
%TD*%
%TO.C,D9*%
X197860000Y-37850000D03*
X197860000Y-35750000D03*
%TD*%
D16*
%TO.C,LED35*%
X131312500Y-71950000D03*
X131312500Y-70450000D03*
X125862500Y-71950000D03*
D17*
X125862500Y-70450000D03*
%TD*%
D10*
%TO.C,D29*%
X307397500Y-56900000D03*
X307397500Y-54800000D03*
%TD*%
D16*
%TO.C,LED9*%
X193225000Y-33850000D03*
X193225000Y-32350000D03*
X187775000Y-33850000D03*
D17*
X187775000Y-32350000D03*
%TD*%
D11*
%TO.C,LED17*%
X63950000Y-51400000D03*
X63950000Y-52900000D03*
X69400000Y-51400000D03*
D12*
X69400000Y-52900000D03*
%TD*%
D18*
%TO.C,C4*%
X195500000Y-111500000D03*
X193600000Y-111500000D03*
%TD*%
D14*
%TO.C,SW47*%
X107372500Y-97790000D03*
X93922500Y-100330000D03*
%TD*%
%TO.C,SW7*%
X159760000Y-40640000D03*
X146310000Y-43180000D03*
%TD*%
%TO.C,SW38*%
X193097500Y-78740000D03*
X179647500Y-81280000D03*
%TD*%
D10*
%TO.C,D55*%
X259772500Y-95000000D03*
X259772500Y-92900000D03*
%TD*%
%TO.C,D25*%
X226435000Y-56900000D03*
X226435000Y-54800000D03*
%TD*%
%TO.C,D14*%
X302635000Y-37850000D03*
X302635000Y-35750000D03*
%TD*%
D23*
%TO.C,J1*%
X273175000Y-86400000D03*
X274175000Y-86400000D03*
X275175000Y-86400000D03*
X276175000Y-86400000D03*
D24*
X271875000Y-82525000D03*
X277475000Y-82525000D03*
%TD*%
D10*
%TO.C,D66*%
X312160000Y-114050000D03*
X312160000Y-111950000D03*
%TD*%
%TO.C,D44*%
X331210000Y-75950000D03*
X331210000Y-73850000D03*
%TD*%
%TO.C,D49*%
X145472500Y-95000000D03*
X145472500Y-92900000D03*
%TD*%
D14*
%TO.C,SW27*%
X264535000Y-59690000D03*
X251085000Y-62230000D03*
%TD*%
%TO.C,SW18*%
X93085000Y-59690000D03*
X79635000Y-62230000D03*
%TD*%
D10*
%TO.C,D41*%
X250247500Y-75950000D03*
X250247500Y-73850000D03*
%TD*%
D14*
%TO.C,SW12*%
X255010000Y-40640000D03*
X241560000Y-43180000D03*
%TD*%
%TO.C,SW20*%
X131185000Y-59690000D03*
X117735000Y-62230000D03*
%TD*%
D27*
%TO.C,R4*%
X129800000Y-119837500D03*
X129800000Y-121662500D03*
%TD*%
D11*
%TO.C,LED20*%
X121100000Y-51400000D03*
X121100000Y-52900000D03*
X126550000Y-51400000D03*
D12*
X126550000Y-52900000D03*
%TD*%
D14*
%TO.C,SW5*%
X121660000Y-40640000D03*
X108210000Y-43180000D03*
%TD*%
D10*
%TO.C,D6*%
X140710000Y-37850000D03*
X140710000Y-35750000D03*
%TD*%
D11*
%TO.C,LED16*%
X40137500Y-51400000D03*
X40137500Y-52900000D03*
X45587500Y-51400000D03*
D12*
X45587500Y-52900000D03*
%TD*%
D11*
%TO.C,LED25*%
X216350000Y-51400000D03*
X216350000Y-52900000D03*
X221800000Y-51400000D03*
D12*
X221800000Y-52900000D03*
%TD*%
D14*
%TO.C,SW26*%
X245485000Y-59690000D03*
X232035000Y-62230000D03*
%TD*%
D10*
%TO.C,D5*%
X121660000Y-37850000D03*
X121660000Y-35750000D03*
%TD*%
%TO.C,D47*%
X107372500Y-95000000D03*
X107372500Y-92900000D03*
%TD*%
D11*
%TO.C,LED49*%
X135387500Y-89500000D03*
X135387500Y-91000000D03*
X140837500Y-89500000D03*
D12*
X140837500Y-91000000D03*
%TD*%
D14*
%TO.C,SW66*%
X312160000Y-116840000D03*
X298710000Y-119380000D03*
%TD*%
D28*
%TO.C,U3*%
X186100000Y-111950000D03*
X186100000Y-113550000D03*
X187700000Y-111950000D03*
X187700000Y-113550000D03*
D29*
X183462500Y-115350000D03*
X183462500Y-114950000D03*
X183462500Y-114550000D03*
X183462500Y-114150000D03*
X183462500Y-113750000D03*
X183462500Y-113350000D03*
X183462500Y-112950000D03*
X183462500Y-112550000D03*
X183462500Y-112150000D03*
X183462500Y-111750000D03*
X183462500Y-111350000D03*
X183462500Y-110950000D03*
X183462500Y-110550000D03*
X183462500Y-110150000D03*
D30*
X184300000Y-109312500D03*
X184700000Y-109312500D03*
X185100000Y-109312500D03*
X185500000Y-109312500D03*
X185900000Y-109312500D03*
X186300000Y-109312500D03*
X186700000Y-109312500D03*
X187100000Y-109312500D03*
X187500000Y-109312500D03*
X187900000Y-109312500D03*
X188300000Y-109312500D03*
X188700000Y-109312500D03*
X189100000Y-109312500D03*
X189500000Y-109312500D03*
D29*
X190337500Y-110150000D03*
X190337500Y-110550000D03*
X190337500Y-110950000D03*
X190337500Y-111350000D03*
X190337500Y-111750000D03*
X190337500Y-112150000D03*
X190337500Y-112550000D03*
X190337500Y-112950000D03*
X190337500Y-113350000D03*
X190337500Y-113750000D03*
X190337500Y-114150000D03*
X190337500Y-114550000D03*
X190337500Y-114950000D03*
X190337500Y-115350000D03*
D30*
X189500000Y-116187500D03*
X189100000Y-116187500D03*
X188700000Y-116187500D03*
X188300000Y-116187500D03*
X187900000Y-116187500D03*
X187500000Y-116187500D03*
X187100000Y-116187500D03*
X186700000Y-116187500D03*
X186300000Y-116187500D03*
X185900000Y-116187500D03*
X185500000Y-116187500D03*
X185100000Y-116187500D03*
X184700000Y-116187500D03*
X184300000Y-116187500D03*
%TD*%
D11*
%TO.C,LED53*%
X211587500Y-89500000D03*
X211587500Y-91000000D03*
X217037500Y-89500000D03*
D12*
X217037500Y-91000000D03*
%TD*%
D14*
%TO.C,SW41*%
X250247500Y-78740000D03*
X236797500Y-81280000D03*
%TD*%
%TO.C,SW21*%
X150235000Y-59690000D03*
X136785000Y-62230000D03*
%TD*%
%TO.C,SW50*%
X164522500Y-97790000D03*
X151072500Y-100330000D03*
%TD*%
D27*
%TO.C,R5*%
X140500000Y-119837500D03*
X140500000Y-121662500D03*
%TD*%
D14*
%TO.C,SW52*%
X202622500Y-97790000D03*
X189172500Y-100330000D03*
%TD*%
D10*
%TO.C,D7*%
X159760000Y-37850000D03*
X159760000Y-35750000D03*
%TD*%
D16*
%TO.C,LED44*%
X326575000Y-71950000D03*
X326575000Y-70450000D03*
X321125000Y-71950000D03*
D17*
X321125000Y-70450000D03*
%TD*%
D11*
%TO.C,LED29*%
X297312500Y-51400000D03*
X297312500Y-52900000D03*
X302762500Y-51400000D03*
D12*
X302762500Y-52900000D03*
%TD*%
D11*
%TO.C,LED57*%
X302075000Y-89500000D03*
X302075000Y-91000000D03*
X307525000Y-89500000D03*
D12*
X307525000Y-91000000D03*
%TD*%
D14*
%TO.C,SW45*%
X57366250Y-97790000D03*
X43916250Y-100330000D03*
%TD*%
D10*
%TO.C,D15*%
X315600000Y-37850000D03*
X315600000Y-35750000D03*
%TD*%
D16*
%TO.C,LED14*%
X298000000Y-33850000D03*
X298000000Y-32350000D03*
X292550000Y-33850000D03*
D17*
X292550000Y-32350000D03*
%TD*%
D10*
%TO.C,D24*%
X207385000Y-56900000D03*
X207385000Y-54800000D03*
%TD*%
D23*
%TO.C,J4*%
X311550000Y-66500000D03*
X312550000Y-66500000D03*
X313550000Y-66500000D03*
D24*
X310250000Y-62625000D03*
X314850000Y-62625000D03*
%TD*%
D11*
%TO.C,LED18*%
X83000000Y-51400000D03*
X83000000Y-52900000D03*
X88450000Y-51400000D03*
D12*
X88450000Y-52900000D03*
%TD*%
D10*
%TO.C,D19*%
X112135000Y-56900000D03*
X112135000Y-54800000D03*
%TD*%
%TO.C,D2*%
X64510000Y-37850000D03*
X64510000Y-35750000D03*
%TD*%
D14*
%TO.C,SW19*%
X112135000Y-59690000D03*
X98685000Y-62230000D03*
%TD*%
%TO.C,SW17*%
X74035000Y-59690000D03*
X60585000Y-62230000D03*
%TD*%
D10*
%TO.C,D39*%
X212147500Y-75950000D03*
X212147500Y-73850000D03*
%TD*%
M02*
