%TF.GenerationSoftware,KiCad,Pcbnew,9.0.2*%
%TF.CreationDate,2025-06-21T23:14:43+02:00*%
%TF.ProjectId,MOD65,4d4f4436-352e-46b6-9963-61645f706362,2*%
%TF.SameCoordinates,Original*%
%TF.FileFunction,Other,User*%
%FSLAX46Y46*%
G04 Gerber Fmt 4.6, Leading zero omitted, Abs format (unit mm)*
G04 Created by KiCad (PCBNEW 9.0.2) date 2025-06-21 23:14:43*
%MOMM*%
%LPD*%
G01*
G04 APERTURE LIST*
%ADD10C,0.120000*%
%ADD11C,0.050000*%
G04 APERTURE END LIST*
D10*
%TO.C,H2*%
X282987500Y-69215000D02*
G75*
G02*
X278987500Y-69215000I-2000000J0D01*
G01*
X278987500Y-69215000D02*
G75*
G02*
X282987500Y-69215000I2000000J0D01*
G01*
X306800000Y-69215000D02*
G75*
G02*
X302800000Y-69215000I-2000000J0D01*
G01*
X302800000Y-69215000D02*
G75*
G02*
X306800000Y-69215000I2000000J0D01*
G01*
%TO.C,H1*%
X40100000Y-88265000D02*
G75*
G02*
X36100000Y-88265000I-2000000J0D01*
G01*
X36100000Y-88265000D02*
G75*
G02*
X40100000Y-88265000I2000000J0D01*
G01*
X63912500Y-88265000D02*
G75*
G02*
X59912500Y-88265000I-2000000J0D01*
G01*
X59912500Y-88265000D02*
G75*
G02*
X63912500Y-88265000I2000000J0D01*
G01*
%TO.C,H3*%
X285368750Y-31115000D02*
G75*
G02*
X281368750Y-31115000I-2000000J0D01*
G01*
X281368750Y-31115000D02*
G75*
G02*
X285368750Y-31115000I2000000J0D01*
G01*
X309181250Y-31115000D02*
G75*
G02*
X305181250Y-31115000I-2000000J0D01*
G01*
X305181250Y-31115000D02*
G75*
G02*
X309181250Y-31115000I2000000J0D01*
G01*
%TO.C,H4*%
X111537500Y-121285000D02*
G75*
G02*
X107537500Y-121285000I-2000000J0D01*
G01*
X107537500Y-121285000D02*
G75*
G02*
X111537500Y-121285000I2000000J0D01*
G01*
X211550000Y-121285000D02*
G75*
G02*
X207550000Y-121285000I-2000000J0D01*
G01*
X207550000Y-121285000D02*
G75*
G02*
X211550000Y-121285000I2000000J0D01*
G01*
D11*
%TO.C,D59*%
X46891250Y-114600000D02*
X46891250Y-111400000D01*
X48791250Y-111400000D02*
X46891250Y-111400000D01*
X48791250Y-114600000D02*
X46891250Y-114600000D01*
X48791250Y-114600000D02*
X48791250Y-111400000D01*
%TO.C,LED51*%
X172412500Y-88249999D02*
X172412500Y-92249999D01*
X172412500Y-92249999D02*
X180012500Y-92249999D01*
X180012500Y-88249999D02*
X172412500Y-88249999D01*
X180012500Y-92249999D02*
X180012500Y-88249999D01*
%TO.C,LED48*%
X115262500Y-88249999D02*
X115262500Y-92249999D01*
X115262500Y-92249999D02*
X122862500Y-92249999D01*
X122862500Y-88249999D02*
X115262500Y-88249999D01*
X122862500Y-92249999D02*
X122862500Y-88249999D01*
%TO.C,R1*%
X167850000Y-109720000D02*
X167850000Y-113080000D01*
X167850000Y-113080000D02*
X169750000Y-113080000D01*
X169750000Y-109720000D02*
X167850000Y-109720000D01*
X169750000Y-113080000D02*
X169750000Y-109720000D01*
%TO.C,SW39*%
X197372676Y-80070220D02*
X197372676Y-82520220D01*
X197372676Y-82520220D02*
X199922676Y-82520220D01*
X199922676Y-78900220D02*
X204987500Y-78900220D01*
X199922676Y-80070220D02*
X197372676Y-80070220D01*
X199922676Y-80070220D02*
X199922676Y-78900220D01*
X199922676Y-82950220D02*
X199922676Y-82520220D01*
X208872676Y-82950220D02*
X199922676Y-82950220D01*
X210872676Y-77060220D02*
X207281822Y-77060220D01*
X210872676Y-77500220D02*
X210872676Y-77060220D01*
X210872676Y-79950220D02*
X210872676Y-80950220D01*
X210872676Y-79950220D02*
X213472676Y-79950220D01*
X213472676Y-77500220D02*
X210872676Y-77500220D01*
X213472676Y-79950220D02*
X213472676Y-77500220D01*
X207281822Y-77060220D02*
G75*
G02*
X204987500Y-78900220I-2294320J510409D01*
G01*
X210872676Y-80950220D02*
G75*
G02*
X208872676Y-82950220I-2000004J4D01*
G01*
%TO.C,D50*%
X163572500Y-95550000D02*
X163572500Y-92350000D01*
X165472500Y-92350000D02*
X163572500Y-92350000D01*
X165472500Y-95550000D02*
X163572500Y-95550000D01*
X165472500Y-95550000D02*
X165472500Y-92350000D01*
%TO.C,SW55*%
X244997676Y-99120220D02*
X244997676Y-101570220D01*
X244997676Y-101570220D02*
X247547676Y-101570220D01*
X247547676Y-97950220D02*
X252612500Y-97950220D01*
X247547676Y-99120220D02*
X244997676Y-99120220D01*
X247547676Y-99120220D02*
X247547676Y-97950220D01*
X247547676Y-102000220D02*
X247547676Y-101570220D01*
X256497676Y-102000220D02*
X247547676Y-102000220D01*
X258497676Y-96110220D02*
X254906822Y-96110220D01*
X258497676Y-96550220D02*
X258497676Y-96110220D01*
X258497676Y-99000220D02*
X258497676Y-100000220D01*
X258497676Y-99000220D02*
X261097676Y-99000220D01*
X261097676Y-96550220D02*
X258497676Y-96550220D01*
X261097676Y-99000220D02*
X261097676Y-96550220D01*
X254906822Y-96110220D02*
G75*
G02*
X252612500Y-97950220I-2294320J510409D01*
G01*
X258497676Y-100000220D02*
G75*
G02*
X256497676Y-102000220I-2000004J4D01*
G01*
%TO.C,D26*%
X244535000Y-57450000D02*
X244535000Y-54250000D01*
X246435000Y-54250000D02*
X244535000Y-54250000D01*
X246435000Y-57450000D02*
X244535000Y-57450000D01*
X246435000Y-57450000D02*
X246435000Y-54250000D01*
%TO.C,C11*%
X177850000Y-110120000D02*
X177850000Y-112080000D01*
X177850000Y-112080000D02*
X181250000Y-112080000D01*
X181250000Y-110120000D02*
X177850000Y-110120000D01*
X181250000Y-112080000D02*
X181250000Y-110120000D01*
%TO.C,SW60*%
X56878926Y-118170220D02*
X56878926Y-120620220D01*
X56878926Y-120620220D02*
X59428926Y-120620220D01*
X59428926Y-117000220D02*
X64493750Y-117000220D01*
X59428926Y-118170220D02*
X56878926Y-118170220D01*
X59428926Y-118170220D02*
X59428926Y-117000220D01*
X59428926Y-121050220D02*
X59428926Y-120620220D01*
X68378926Y-121050220D02*
X59428926Y-121050220D01*
X70378926Y-115160220D02*
X66788072Y-115160220D01*
X70378926Y-115600220D02*
X70378926Y-115160220D01*
X70378926Y-118050220D02*
X70378926Y-119050220D01*
X70378926Y-118050220D02*
X72978926Y-118050220D01*
X72978926Y-115600220D02*
X70378926Y-115600220D01*
X72978926Y-118050220D02*
X72978926Y-115600220D01*
X66788072Y-115160220D02*
G75*
G02*
X64493750Y-117000220I-2294320J510409D01*
G01*
X70378926Y-119050220D02*
G75*
G02*
X68378926Y-121050220I-2000004J4D01*
G01*
%TO.C,LED45*%
X46206250Y-88249999D02*
X46206250Y-92249999D01*
X46206250Y-92249999D02*
X53806250Y-92249999D01*
X53806250Y-88249999D02*
X46206250Y-88249999D01*
X53806250Y-92249999D02*
X53806250Y-88249999D01*
%TO.C,SW23*%
X173560176Y-61020220D02*
X173560176Y-63470220D01*
X173560176Y-63470220D02*
X176110176Y-63470220D01*
X176110176Y-59850220D02*
X181175000Y-59850220D01*
X176110176Y-61020220D02*
X173560176Y-61020220D01*
X176110176Y-61020220D02*
X176110176Y-59850220D01*
X176110176Y-63900220D02*
X176110176Y-63470220D01*
X185060176Y-63900220D02*
X176110176Y-63900220D01*
X187060176Y-58010220D02*
X183469322Y-58010220D01*
X187060176Y-58450220D02*
X187060176Y-58010220D01*
X187060176Y-60900220D02*
X187060176Y-61900220D01*
X187060176Y-60900220D02*
X189660176Y-60900220D01*
X189660176Y-58450220D02*
X187060176Y-58450220D01*
X189660176Y-60900220D02*
X189660176Y-58450220D01*
X183469322Y-58010220D02*
G75*
G02*
X181175000Y-59850220I-2294320J510409D01*
G01*
X187060176Y-61900220D02*
G75*
G02*
X185060176Y-63900220I-2000004J4D01*
G01*
%TO.C,SW64*%
X247378926Y-118170220D02*
X247378926Y-120620220D01*
X247378926Y-120620220D02*
X249928926Y-120620220D01*
X249928926Y-117000220D02*
X254993750Y-117000220D01*
X249928926Y-118170220D02*
X247378926Y-118170220D01*
X249928926Y-118170220D02*
X249928926Y-117000220D01*
X249928926Y-121050220D02*
X249928926Y-120620220D01*
X258878926Y-121050220D02*
X249928926Y-121050220D01*
X260878926Y-115160220D02*
X257288072Y-115160220D01*
X260878926Y-115600220D02*
X260878926Y-115160220D01*
X260878926Y-118050220D02*
X260878926Y-119050220D01*
X260878926Y-118050220D02*
X263478926Y-118050220D01*
X263478926Y-115600220D02*
X260878926Y-115600220D01*
X263478926Y-118050220D02*
X263478926Y-115600220D01*
X257288072Y-115160220D02*
G75*
G02*
X254993750Y-117000220I-2294320J510409D01*
G01*
X260878926Y-119050220D02*
G75*
G02*
X258878926Y-121050220I-2000004J4D01*
G01*
%TO.C,LED15*%
X320050000Y-36100001D02*
X320050000Y-40100001D01*
X320050000Y-40100001D02*
X327650000Y-40100001D01*
X327650000Y-36100001D02*
X320050000Y-36100001D01*
X327650000Y-40100001D02*
X327650000Y-36100001D01*
%TO.C,D13*%
X273110000Y-38400000D02*
X273110000Y-35200000D01*
X275010000Y-35200000D02*
X273110000Y-35200000D01*
X275010000Y-38400000D02*
X273110000Y-38400000D01*
X275010000Y-38400000D02*
X275010000Y-35200000D01*
%TO.C,SW37*%
X159272676Y-80070220D02*
X159272676Y-82520220D01*
X159272676Y-82520220D02*
X161822676Y-82520220D01*
X161822676Y-78900220D02*
X166887500Y-78900220D01*
X161822676Y-80070220D02*
X159272676Y-80070220D01*
X161822676Y-80070220D02*
X161822676Y-78900220D01*
X161822676Y-82950220D02*
X161822676Y-82520220D01*
X170772676Y-82950220D02*
X161822676Y-82950220D01*
X172772676Y-77060220D02*
X169181822Y-77060220D01*
X172772676Y-77500220D02*
X172772676Y-77060220D01*
X172772676Y-79950220D02*
X172772676Y-80950220D01*
X172772676Y-79950220D02*
X175372676Y-79950220D01*
X175372676Y-77500220D02*
X172772676Y-77500220D01*
X175372676Y-79950220D02*
X175372676Y-77500220D01*
X169181822Y-77060220D02*
G75*
G02*
X166887500Y-78900220I-2294320J510409D01*
G01*
X172772676Y-80950220D02*
G75*
G02*
X170772676Y-82950220I-2000004J4D01*
G01*
%TO.C,LED65*%
X281950000Y-107300001D02*
X281950000Y-111300001D01*
X281950000Y-111300001D02*
X289550000Y-111300001D01*
X289550000Y-107300001D02*
X281950000Y-107300001D01*
X289550000Y-111300001D02*
X289550000Y-107300001D01*
%TO.C,SW44*%
X316435176Y-80070220D02*
X316435176Y-82520220D01*
X316435176Y-82520220D02*
X318985176Y-82520220D01*
X318985176Y-78900220D02*
X324050000Y-78900220D01*
X318985176Y-80070220D02*
X316435176Y-80070220D01*
X318985176Y-80070220D02*
X318985176Y-78900220D01*
X318985176Y-82950220D02*
X318985176Y-82520220D01*
X327935176Y-82950220D02*
X318985176Y-82950220D01*
X329935176Y-77060220D02*
X326344322Y-77060220D01*
X329935176Y-77500220D02*
X329935176Y-77060220D01*
X329935176Y-79950220D02*
X329935176Y-80950220D01*
X329935176Y-79950220D02*
X332535176Y-79950220D01*
X332535176Y-77500220D02*
X329935176Y-77500220D01*
X332535176Y-79950220D02*
X332535176Y-77500220D01*
X326344322Y-77060220D02*
G75*
G02*
X324050000Y-78900220I-2294320J510409D01*
G01*
X329935176Y-80950220D02*
G75*
G02*
X327935176Y-82950220I-2000004J4D01*
G01*
%TO.C,LED31*%
X36681250Y-69200001D02*
X36681250Y-73200001D01*
X36681250Y-73200001D02*
X44281250Y-73200001D01*
X44281250Y-69200001D02*
X36681250Y-69200001D01*
X44281250Y-73200001D02*
X44281250Y-69200001D01*
%TO.C,C16*%
X265700000Y-93320000D02*
X265700000Y-95280000D01*
X265700000Y-95280000D02*
X269100000Y-95280000D01*
X269100000Y-93320000D02*
X265700000Y-93320000D01*
X269100000Y-95280000D02*
X269100000Y-93320000D01*
%TO.C,LED64*%
X250993750Y-107300001D02*
X250993750Y-111300001D01*
X250993750Y-111300001D02*
X258593750Y-111300001D01*
X258593750Y-107300001D02*
X250993750Y-107300001D01*
X258593750Y-111300001D02*
X258593750Y-107300001D01*
%TO.C,LED33*%
X86687500Y-69200001D02*
X86687500Y-73200001D01*
X86687500Y-73200001D02*
X94287500Y-73200001D01*
X94287500Y-69200001D02*
X86687500Y-69200001D01*
X94287500Y-73200001D02*
X94287500Y-69200001D01*
%TO.C,D31*%
X46891250Y-76500000D02*
X46891250Y-73300000D01*
X48791250Y-73300000D02*
X46891250Y-73300000D01*
X48791250Y-76500000D02*
X46891250Y-76500000D01*
X48791250Y-76500000D02*
X48791250Y-73300000D01*
%TO.C,D56*%
X285016250Y-95550000D02*
X285016250Y-92350000D01*
X286916250Y-92350000D02*
X285016250Y-92350000D01*
X286916250Y-95550000D02*
X285016250Y-95550000D01*
X286916250Y-95550000D02*
X286916250Y-92350000D01*
%TO.C,LED26*%
X234325000Y-50149999D02*
X234325000Y-54149999D01*
X234325000Y-54149999D02*
X241925000Y-54149999D01*
X241925000Y-50149999D02*
X234325000Y-50149999D01*
X241925000Y-54149999D02*
X241925000Y-50149999D01*
%TO.C,LED21*%
X139075000Y-50149999D02*
X139075000Y-54149999D01*
X139075000Y-54149999D02*
X146675000Y-54149999D01*
X146675000Y-50149999D02*
X139075000Y-50149999D01*
X146675000Y-54149999D02*
X146675000Y-50149999D01*
%TO.C,LED6*%
X129550000Y-31100001D02*
X129550000Y-35100001D01*
X129550000Y-35100001D02*
X137150000Y-35100001D01*
X137150000Y-31100001D02*
X129550000Y-31100001D01*
X137150000Y-35100001D02*
X137150000Y-31100001D01*
%TO.C,LED61*%
X84306250Y-107300001D02*
X84306250Y-111300001D01*
X84306250Y-111300001D02*
X91906250Y-111300001D01*
X91906250Y-107300001D02*
X84306250Y-107300001D01*
X91906250Y-111300001D02*
X91906250Y-107300001D01*
%TO.C,D57*%
X311210000Y-95550000D02*
X311210000Y-92350000D01*
X313110000Y-92350000D02*
X311210000Y-92350000D01*
X313110000Y-95550000D02*
X311210000Y-95550000D01*
X313110000Y-95550000D02*
X313110000Y-92350000D01*
%TO.C,D60*%
X70703750Y-114600000D02*
X70703750Y-111400000D01*
X72603750Y-111400000D02*
X70703750Y-111400000D01*
X72603750Y-114600000D02*
X70703750Y-114600000D01*
X72603750Y-114600000D02*
X72603750Y-111400000D01*
%TO.C,LED13*%
X262900000Y-31100001D02*
X262900000Y-35100001D01*
X262900000Y-35100001D02*
X270500000Y-35100001D01*
X270500000Y-31100001D02*
X262900000Y-31100001D01*
X270500000Y-35100001D02*
X270500000Y-31100001D01*
%TO.C,D34*%
X115947500Y-76500000D02*
X115947500Y-73300000D01*
X117847500Y-73300000D02*
X115947500Y-73300000D01*
X117847500Y-76500000D02*
X115947500Y-76500000D01*
X117847500Y-76500000D02*
X117847500Y-73300000D01*
%TO.C,SW6*%
X125935176Y-41970220D02*
X125935176Y-44420220D01*
X125935176Y-44420220D02*
X128485176Y-44420220D01*
X128485176Y-40800220D02*
X133550000Y-40800220D01*
X128485176Y-41970220D02*
X125935176Y-41970220D01*
X128485176Y-41970220D02*
X128485176Y-40800220D01*
X128485176Y-44850220D02*
X128485176Y-44420220D01*
X137435176Y-44850220D02*
X128485176Y-44850220D01*
X139435176Y-38960220D02*
X135844322Y-38960220D01*
X139435176Y-39400220D02*
X139435176Y-38960220D01*
X139435176Y-41850220D02*
X139435176Y-42850220D01*
X139435176Y-41850220D02*
X142035176Y-41850220D01*
X142035176Y-39400220D02*
X139435176Y-39400220D01*
X142035176Y-41850220D02*
X142035176Y-39400220D01*
X135844322Y-38960220D02*
G75*
G02*
X133550000Y-40800220I-2294320J510409D01*
G01*
X139435176Y-42850220D02*
G75*
G02*
X137435176Y-44850220I-2000004J4D01*
G01*
%TO.C,C8*%
X191050000Y-115370000D02*
X191050000Y-117330000D01*
X191050000Y-117330000D02*
X194450000Y-117330000D01*
X194450000Y-115370000D02*
X191050000Y-115370000D01*
X194450000Y-117330000D02*
X194450000Y-115370000D01*
%TO.C,D53*%
X220722500Y-95550000D02*
X220722500Y-92350000D01*
X222622500Y-92350000D02*
X220722500Y-92350000D01*
X222622500Y-95550000D02*
X220722500Y-95550000D01*
X222622500Y-95550000D02*
X222622500Y-92350000D01*
%TO.C,LED30*%
X320050000Y-50149999D02*
X320050000Y-54149999D01*
X320050000Y-54149999D02*
X327650000Y-54149999D01*
X327650000Y-50149999D02*
X320050000Y-50149999D01*
X327650000Y-54149999D02*
X327650000Y-50149999D01*
%TO.C,D58*%
X330260000Y-95550000D02*
X330260000Y-92350000D01*
X332160000Y-92350000D02*
X330260000Y-92350000D01*
X332160000Y-95550000D02*
X330260000Y-95550000D01*
X332160000Y-95550000D02*
X332160000Y-92350000D01*
%TO.C,D51*%
X182622500Y-95550000D02*
X182622500Y-92350000D01*
X184522500Y-92350000D02*
X182622500Y-92350000D01*
X184522500Y-95550000D02*
X182622500Y-95550000D01*
X184522500Y-95550000D02*
X184522500Y-92350000D01*
%TO.C,LED62*%
X155743750Y-107300001D02*
X155743750Y-111300001D01*
X155743750Y-111300001D02*
X163343750Y-111300001D01*
X163343750Y-107300001D02*
X155743750Y-107300001D01*
X163343750Y-111300001D02*
X163343750Y-107300001D01*
%TO.C,SW16*%
X35447676Y-61020220D02*
X35447676Y-63470220D01*
X35447676Y-63470220D02*
X37997676Y-63470220D01*
X37997676Y-59850220D02*
X43062500Y-59850220D01*
X37997676Y-61020220D02*
X35447676Y-61020220D01*
X37997676Y-61020220D02*
X37997676Y-59850220D01*
X37997676Y-63900220D02*
X37997676Y-63470220D01*
X46947676Y-63900220D02*
X37997676Y-63900220D01*
X48947676Y-58010220D02*
X45356822Y-58010220D01*
X48947676Y-58450220D02*
X48947676Y-58010220D01*
X48947676Y-60900220D02*
X48947676Y-61900220D01*
X48947676Y-60900220D02*
X51547676Y-60900220D01*
X51547676Y-58450220D02*
X48947676Y-58450220D01*
X51547676Y-60900220D02*
X51547676Y-58450220D01*
X45356822Y-58010220D02*
G75*
G02*
X43062500Y-59850220I-2294320J510409D01*
G01*
X48947676Y-61900220D02*
G75*
G02*
X46947676Y-63900220I-2000004J4D01*
G01*
%TO.C,D54*%
X239772500Y-95550000D02*
X239772500Y-92350000D01*
X241672500Y-92350000D02*
X239772500Y-92350000D01*
X241672500Y-95550000D02*
X239772500Y-95550000D01*
X241672500Y-95550000D02*
X241672500Y-92350000D01*
%TO.C,SW9*%
X183085176Y-41970220D02*
X183085176Y-44420220D01*
X183085176Y-44420220D02*
X185635176Y-44420220D01*
X185635176Y-40800220D02*
X190700000Y-40800220D01*
X185635176Y-41970220D02*
X183085176Y-41970220D01*
X185635176Y-41970220D02*
X185635176Y-40800220D01*
X185635176Y-44850220D02*
X185635176Y-44420220D01*
X194585176Y-44850220D02*
X185635176Y-44850220D01*
X196585176Y-38960220D02*
X192994322Y-38960220D01*
X196585176Y-39400220D02*
X196585176Y-38960220D01*
X196585176Y-41850220D02*
X196585176Y-42850220D01*
X196585176Y-41850220D02*
X199185176Y-41850220D01*
X199185176Y-39400220D02*
X196585176Y-39400220D01*
X199185176Y-41850220D02*
X199185176Y-39400220D01*
X192994322Y-38960220D02*
G75*
G02*
X190700000Y-40800220I-2294320J510409D01*
G01*
X196585176Y-42850220D02*
G75*
G02*
X194585176Y-44850220I-2000004J4D01*
G01*
%TO.C,SW49*%
X130697676Y-99120220D02*
X130697676Y-101570220D01*
X130697676Y-101570220D02*
X133247676Y-101570220D01*
X133247676Y-97950220D02*
X138312500Y-97950220D01*
X133247676Y-99120220D02*
X130697676Y-99120220D01*
X133247676Y-99120220D02*
X133247676Y-97950220D01*
X133247676Y-102000220D02*
X133247676Y-101570220D01*
X142197676Y-102000220D02*
X133247676Y-102000220D01*
X144197676Y-96110220D02*
X140606822Y-96110220D01*
X144197676Y-96550220D02*
X144197676Y-96110220D01*
X144197676Y-99000220D02*
X144197676Y-100000220D01*
X144197676Y-99000220D02*
X146797676Y-99000220D01*
X146797676Y-96550220D02*
X144197676Y-96550220D01*
X146797676Y-99000220D02*
X146797676Y-96550220D01*
X140606822Y-96110220D02*
G75*
G02*
X138312500Y-97950220I-2294320J510409D01*
G01*
X144197676Y-100000220D02*
G75*
G02*
X142197676Y-102000220I-2000004J4D01*
G01*
%TO.C,U1*%
X169000000Y-113170000D02*
X175500000Y-113170000D01*
X169000000Y-121830000D02*
X169000000Y-113170000D01*
X175500000Y-113170000D02*
X175500000Y-121830000D01*
X175500000Y-121830000D02*
X169000000Y-121830000D01*
%TO.C,SW36*%
X140222676Y-80070220D02*
X140222676Y-82520220D01*
X140222676Y-82520220D02*
X142772676Y-82520220D01*
X142772676Y-78900220D02*
X147837500Y-78900220D01*
X142772676Y-80070220D02*
X140222676Y-80070220D01*
X142772676Y-80070220D02*
X142772676Y-78900220D01*
X142772676Y-82950220D02*
X142772676Y-82520220D01*
X151722676Y-82950220D02*
X142772676Y-82950220D01*
X153722676Y-77060220D02*
X150131822Y-77060220D01*
X153722676Y-77500220D02*
X153722676Y-77060220D01*
X153722676Y-79950220D02*
X153722676Y-80950220D01*
X153722676Y-79950220D02*
X156322676Y-79950220D01*
X156322676Y-77500220D02*
X153722676Y-77500220D01*
X156322676Y-79950220D02*
X156322676Y-77500220D01*
X150131822Y-77060220D02*
G75*
G02*
X147837500Y-78900220I-2294320J510409D01*
G01*
X153722676Y-80950220D02*
G75*
G02*
X151722676Y-82950220I-2000004J4D01*
G01*
%TO.C,LED60*%
X60493750Y-107300001D02*
X60493750Y-111300001D01*
X60493750Y-111300001D02*
X68093750Y-111300001D01*
X68093750Y-107300001D02*
X60493750Y-107300001D01*
X68093750Y-111300001D02*
X68093750Y-107300001D01*
%TO.C,SW54*%
X225947676Y-99120220D02*
X225947676Y-101570220D01*
X225947676Y-101570220D02*
X228497676Y-101570220D01*
X228497676Y-97950220D02*
X233562500Y-97950220D01*
X228497676Y-99120220D02*
X225947676Y-99120220D01*
X228497676Y-99120220D02*
X228497676Y-97950220D01*
X228497676Y-102000220D02*
X228497676Y-101570220D01*
X237447676Y-102000220D02*
X228497676Y-102000220D01*
X239447676Y-96110220D02*
X235856822Y-96110220D01*
X239447676Y-96550220D02*
X239447676Y-96110220D01*
X239447676Y-99000220D02*
X239447676Y-100000220D01*
X239447676Y-99000220D02*
X242047676Y-99000220D01*
X242047676Y-96550220D02*
X239447676Y-96550220D01*
X242047676Y-99000220D02*
X242047676Y-96550220D01*
X235856822Y-96110220D02*
G75*
G02*
X233562500Y-97950220I-2294320J510409D01*
G01*
X239447676Y-100000220D02*
G75*
G02*
X237447676Y-102000220I-2000004J4D01*
G01*
%TO.C,D45*%
X56416250Y-95550000D02*
X56416250Y-92350000D01*
X58316250Y-92350000D02*
X56416250Y-92350000D01*
X58316250Y-95550000D02*
X56416250Y-95550000D01*
X58316250Y-95550000D02*
X58316250Y-92350000D01*
%TO.C,LED43*%
X289093750Y-69200001D02*
X289093750Y-73200001D01*
X289093750Y-73200001D02*
X296693750Y-73200001D01*
X296693750Y-69200001D02*
X289093750Y-69200001D01*
X296693750Y-73200001D02*
X296693750Y-69200001D01*
%TO.C,LED19*%
X100975000Y-50149999D02*
X100975000Y-54149999D01*
X100975000Y-54149999D02*
X108575000Y-54149999D01*
X108575000Y-50149999D02*
X100975000Y-50149999D01*
X108575000Y-54149999D02*
X108575000Y-50149999D01*
%TO.C,LED34*%
X105737500Y-69200001D02*
X105737500Y-73200001D01*
X105737500Y-73200001D02*
X113337500Y-73200001D01*
X113337500Y-69200001D02*
X105737500Y-69200001D01*
X113337500Y-73200001D02*
X113337500Y-69200001D01*
%TO.C,SW48*%
X111647676Y-99120220D02*
X111647676Y-101570220D01*
X111647676Y-101570220D02*
X114197676Y-101570220D01*
X114197676Y-97950220D02*
X119262500Y-97950220D01*
X114197676Y-99120220D02*
X111647676Y-99120220D01*
X114197676Y-99120220D02*
X114197676Y-97950220D01*
X114197676Y-102000220D02*
X114197676Y-101570220D01*
X123147676Y-102000220D02*
X114197676Y-102000220D01*
X125147676Y-96110220D02*
X121556822Y-96110220D01*
X125147676Y-96550220D02*
X125147676Y-96110220D01*
X125147676Y-99000220D02*
X125147676Y-100000220D01*
X125147676Y-99000220D02*
X127747676Y-99000220D01*
X127747676Y-96550220D02*
X125147676Y-96550220D01*
X127747676Y-99000220D02*
X127747676Y-96550220D01*
X121556822Y-96110220D02*
G75*
G02*
X119262500Y-97950220I-2294320J510409D01*
G01*
X125147676Y-100000220D02*
G75*
G02*
X123147676Y-102000220I-2000004J4D01*
G01*
%TO.C,C17*%
X265740000Y-99420000D02*
X265740000Y-101380000D01*
X265740000Y-101380000D02*
X269140000Y-101380000D01*
X269140000Y-99420000D02*
X265740000Y-99420000D01*
X269140000Y-101380000D02*
X269140000Y-99420000D01*
%TO.C,D18*%
X92135000Y-57450000D02*
X92135000Y-54250000D01*
X94035000Y-54250000D02*
X92135000Y-54250000D01*
X94035000Y-57450000D02*
X92135000Y-57450000D01*
X94035000Y-57450000D02*
X94035000Y-54250000D01*
%TO.C,D16*%
X49272500Y-57450000D02*
X49272500Y-54250000D01*
X51172500Y-54250000D02*
X49272500Y-54250000D01*
X51172500Y-57450000D02*
X49272500Y-57450000D01*
X51172500Y-57450000D02*
X51172500Y-54250000D01*
%TO.C,D62*%
X165953750Y-114600000D02*
X165953750Y-111400000D01*
X167853750Y-111400000D02*
X165953750Y-111400000D01*
X167853750Y-114600000D02*
X165953750Y-114600000D01*
X167853750Y-114600000D02*
X167853750Y-111400000D01*
%TO.C,SW22*%
X154510176Y-61020220D02*
X154510176Y-63470220D01*
X154510176Y-63470220D02*
X157060176Y-63470220D01*
X157060176Y-59850220D02*
X162125000Y-59850220D01*
X157060176Y-61020220D02*
X154510176Y-61020220D01*
X157060176Y-61020220D02*
X157060176Y-59850220D01*
X157060176Y-63900220D02*
X157060176Y-63470220D01*
X166010176Y-63900220D02*
X157060176Y-63900220D01*
X168010176Y-58010220D02*
X164419322Y-58010220D01*
X168010176Y-58450220D02*
X168010176Y-58010220D01*
X168010176Y-60900220D02*
X168010176Y-61900220D01*
X168010176Y-60900220D02*
X170610176Y-60900220D01*
X170610176Y-58450220D02*
X168010176Y-58450220D01*
X170610176Y-60900220D02*
X170610176Y-58450220D01*
X164419322Y-58010220D02*
G75*
G02*
X162125000Y-59850220I-2294320J510409D01*
G01*
X168010176Y-61900220D02*
G75*
G02*
X166010176Y-63900220I-2000004J4D01*
G01*
%TO.C,LED7*%
X148600000Y-31100001D02*
X148600000Y-35100001D01*
X148600000Y-35100001D02*
X156200000Y-35100001D01*
X156200000Y-31100001D02*
X148600000Y-31100001D01*
X156200000Y-35100001D02*
X156200000Y-31100001D01*
%TO.C,SW25*%
X211660176Y-61020220D02*
X211660176Y-63470220D01*
X211660176Y-63470220D02*
X214210176Y-63470220D01*
X214210176Y-59850220D02*
X219275000Y-59850220D01*
X214210176Y-61020220D02*
X211660176Y-61020220D01*
X214210176Y-61020220D02*
X214210176Y-59850220D01*
X214210176Y-63900220D02*
X214210176Y-63470220D01*
X223160176Y-63900220D02*
X214210176Y-63900220D01*
X225160176Y-58010220D02*
X221569322Y-58010220D01*
X225160176Y-58450220D02*
X225160176Y-58010220D01*
X225160176Y-60900220D02*
X225160176Y-61900220D01*
X225160176Y-60900220D02*
X227760176Y-60900220D01*
X227760176Y-58450220D02*
X225160176Y-58450220D01*
X227760176Y-60900220D02*
X227760176Y-58450220D01*
X221569322Y-58010220D02*
G75*
G02*
X219275000Y-59850220I-2294320J510409D01*
G01*
X225160176Y-61900220D02*
G75*
G02*
X223160176Y-63900220I-2000004J4D01*
G01*
%TO.C,D42*%
X268347500Y-76500000D02*
X268347500Y-73300000D01*
X270247500Y-73300000D02*
X268347500Y-73300000D01*
X270247500Y-76500000D02*
X268347500Y-76500000D01*
X270247500Y-76500000D02*
X270247500Y-73300000D01*
%TO.C,SW42*%
X254522676Y-80070220D02*
X254522676Y-82520220D01*
X254522676Y-82520220D02*
X257072676Y-82520220D01*
X257072676Y-78900220D02*
X262137500Y-78900220D01*
X257072676Y-80070220D02*
X254522676Y-80070220D01*
X257072676Y-80070220D02*
X257072676Y-78900220D01*
X257072676Y-82950220D02*
X257072676Y-82520220D01*
X266022676Y-82950220D02*
X257072676Y-82950220D01*
X268022676Y-77060220D02*
X264431822Y-77060220D01*
X268022676Y-77500220D02*
X268022676Y-77060220D01*
X268022676Y-79950220D02*
X268022676Y-80950220D01*
X268022676Y-79950220D02*
X270622676Y-79950220D01*
X270622676Y-77500220D02*
X268022676Y-77500220D01*
X270622676Y-79950220D02*
X270622676Y-77500220D01*
X264431822Y-77060220D02*
G75*
G02*
X262137500Y-78900220I-2294320J510409D01*
G01*
X268022676Y-80950220D02*
G75*
G02*
X266022676Y-82950220I-2000004J4D01*
G01*
%TO.C,SW3*%
X68785176Y-41970220D02*
X68785176Y-44420220D01*
X68785176Y-44420220D02*
X71335176Y-44420220D01*
X71335176Y-40800220D02*
X76400000Y-40800220D01*
X71335176Y-41970220D02*
X68785176Y-41970220D01*
X71335176Y-41970220D02*
X71335176Y-40800220D01*
X71335176Y-44850220D02*
X71335176Y-44420220D01*
X80285176Y-44850220D02*
X71335176Y-44850220D01*
X82285176Y-38960220D02*
X78694322Y-38960220D01*
X82285176Y-39400220D02*
X82285176Y-38960220D01*
X82285176Y-41850220D02*
X82285176Y-42850220D01*
X82285176Y-41850220D02*
X84885176Y-41850220D01*
X84885176Y-39400220D02*
X82285176Y-39400220D01*
X84885176Y-41850220D02*
X84885176Y-39400220D01*
X78694322Y-38960220D02*
G75*
G02*
X76400000Y-40800220I-2294320J510409D01*
G01*
X82285176Y-42850220D02*
G75*
G02*
X80285176Y-44850220I-2000004J4D01*
G01*
%TO.C,LED28*%
X272425000Y-50149999D02*
X272425000Y-54149999D01*
X272425000Y-54149999D02*
X280025000Y-54149999D01*
X280025000Y-50149999D02*
X272425000Y-50149999D01*
X280025000Y-54149999D02*
X280025000Y-50149999D01*
%TO.C,D36*%
X154047500Y-76500000D02*
X154047500Y-73300000D01*
X155947500Y-73300000D02*
X154047500Y-73300000D01*
X155947500Y-76500000D02*
X154047500Y-76500000D01*
X155947500Y-76500000D02*
X155947500Y-73300000D01*
%TO.C,D40*%
X230247500Y-76500000D02*
X230247500Y-73300000D01*
X232147500Y-73300000D02*
X230247500Y-73300000D01*
X232147500Y-76500000D02*
X230247500Y-76500000D01*
X232147500Y-76500000D02*
X232147500Y-73300000D01*
%TO.C,SW32*%
X64022676Y-80070220D02*
X64022676Y-82520220D01*
X64022676Y-82520220D02*
X66572676Y-82520220D01*
X66572676Y-78900220D02*
X71637500Y-78900220D01*
X66572676Y-80070220D02*
X64022676Y-80070220D01*
X66572676Y-80070220D02*
X66572676Y-78900220D01*
X66572676Y-82950220D02*
X66572676Y-82520220D01*
X75522676Y-82950220D02*
X66572676Y-82950220D01*
X77522676Y-77060220D02*
X73931822Y-77060220D01*
X77522676Y-77500220D02*
X77522676Y-77060220D01*
X77522676Y-79950220D02*
X77522676Y-80950220D01*
X77522676Y-79950220D02*
X80122676Y-79950220D01*
X80122676Y-77500220D02*
X77522676Y-77500220D01*
X80122676Y-79950220D02*
X80122676Y-77500220D01*
X73931822Y-77060220D02*
G75*
G02*
X71637500Y-78900220I-2294320J510409D01*
G01*
X77522676Y-80950220D02*
G75*
G02*
X75522676Y-82950220I-2000004J4D01*
G01*
%TO.C,C12*%
X193427135Y-118750000D02*
X193427135Y-122150000D01*
X193427135Y-122150000D02*
X195387135Y-122150000D01*
X195387135Y-118750000D02*
X193427135Y-118750000D01*
X195387135Y-122150000D02*
X195387135Y-118750000D01*
%TO.C,R3*%
X191485708Y-118770000D02*
X191485708Y-122130000D01*
X191485708Y-122130000D02*
X193385708Y-122130000D01*
X193385708Y-118770000D02*
X191485708Y-118770000D01*
X193385708Y-122130000D02*
X193385708Y-118770000D01*
%TO.C,SW28*%
X268810176Y-61020220D02*
X268810176Y-63470220D01*
X268810176Y-63470220D02*
X271360176Y-63470220D01*
X271360176Y-59850220D02*
X276425000Y-59850220D01*
X271360176Y-61020220D02*
X268810176Y-61020220D01*
X271360176Y-61020220D02*
X271360176Y-59850220D01*
X271360176Y-63900220D02*
X271360176Y-63470220D01*
X280310176Y-63900220D02*
X271360176Y-63900220D01*
X282310176Y-58010220D02*
X278719322Y-58010220D01*
X282310176Y-58450220D02*
X282310176Y-58010220D01*
X282310176Y-60900220D02*
X282310176Y-61900220D01*
X282310176Y-60900220D02*
X284910176Y-60900220D01*
X284910176Y-58450220D02*
X282310176Y-58450220D01*
X284910176Y-60900220D02*
X284910176Y-58450220D01*
X278719322Y-58010220D02*
G75*
G02*
X276425000Y-59850220I-2294320J510409D01*
G01*
X282310176Y-61900220D02*
G75*
G02*
X280310176Y-63900220I-2000004J4D01*
G01*
%TO.C,SW62*%
X152128926Y-118170220D02*
X152128926Y-120620220D01*
X152128926Y-120620220D02*
X154678926Y-120620220D01*
X154678926Y-117000220D02*
X159743750Y-117000220D01*
X154678926Y-118170220D02*
X152128926Y-118170220D01*
X154678926Y-118170220D02*
X154678926Y-117000220D01*
X154678926Y-121050220D02*
X154678926Y-120620220D01*
X163628926Y-121050220D02*
X154678926Y-121050220D01*
X165628926Y-115160220D02*
X162038072Y-115160220D01*
X165628926Y-115600220D02*
X165628926Y-115160220D01*
X165628926Y-118050220D02*
X165628926Y-119050220D01*
X165628926Y-118050220D02*
X168228926Y-118050220D01*
X168228926Y-115600220D02*
X165628926Y-115600220D01*
X168228926Y-118050220D02*
X168228926Y-115600220D01*
X162038072Y-115160220D02*
G75*
G02*
X159743750Y-117000220I-2294320J510409D01*
G01*
X165628926Y-119050220D02*
G75*
G02*
X163628926Y-121050220I-2000004J4D01*
G01*
%TO.C,SW2*%
X49735176Y-41970220D02*
X49735176Y-44420220D01*
X49735176Y-44420220D02*
X52285176Y-44420220D01*
X52285176Y-40800220D02*
X57350000Y-40800220D01*
X52285176Y-41970220D02*
X49735176Y-41970220D01*
X52285176Y-41970220D02*
X52285176Y-40800220D01*
X52285176Y-44850220D02*
X52285176Y-44420220D01*
X61235176Y-44850220D02*
X52285176Y-44850220D01*
X63235176Y-38960220D02*
X59644322Y-38960220D01*
X63235176Y-39400220D02*
X63235176Y-38960220D01*
X63235176Y-41850220D02*
X63235176Y-42850220D01*
X63235176Y-41850220D02*
X65835176Y-41850220D01*
X65835176Y-39400220D02*
X63235176Y-39400220D01*
X65835176Y-41850220D02*
X65835176Y-39400220D01*
X59644322Y-38960220D02*
G75*
G02*
X57350000Y-40800220I-2294320J510409D01*
G01*
X63235176Y-42850220D02*
G75*
G02*
X61235176Y-44850220I-2000004J4D01*
G01*
%TO.C,D27*%
X263585000Y-57450000D02*
X263585000Y-54250000D01*
X265485000Y-54250000D02*
X263585000Y-54250000D01*
X265485000Y-57450000D02*
X263585000Y-57450000D01*
X265485000Y-57450000D02*
X265485000Y-54250000D01*
%TO.C,SW10*%
X202135176Y-41970220D02*
X202135176Y-44420220D01*
X202135176Y-44420220D02*
X204685176Y-44420220D01*
X204685176Y-40800220D02*
X209750000Y-40800220D01*
X204685176Y-41970220D02*
X202135176Y-41970220D01*
X204685176Y-41970220D02*
X204685176Y-40800220D01*
X204685176Y-44850220D02*
X204685176Y-44420220D01*
X213635176Y-44850220D02*
X204685176Y-44850220D01*
X215635176Y-38960220D02*
X212044322Y-38960220D01*
X215635176Y-39400220D02*
X215635176Y-38960220D01*
X215635176Y-41850220D02*
X215635176Y-42850220D01*
X215635176Y-41850220D02*
X218235176Y-41850220D01*
X218235176Y-39400220D02*
X215635176Y-39400220D01*
X218235176Y-41850220D02*
X218235176Y-39400220D01*
X212044322Y-38960220D02*
G75*
G02*
X209750000Y-40800220I-2294320J510409D01*
G01*
X215635176Y-42850220D02*
G75*
G02*
X213635176Y-44850220I-2000004J4D01*
G01*
%TO.C,SW46*%
X73547676Y-99120220D02*
X73547676Y-101570220D01*
X73547676Y-101570220D02*
X76097676Y-101570220D01*
X76097676Y-97950220D02*
X81162500Y-97950220D01*
X76097676Y-99120220D02*
X73547676Y-99120220D01*
X76097676Y-99120220D02*
X76097676Y-97950220D01*
X76097676Y-102000220D02*
X76097676Y-101570220D01*
X85047676Y-102000220D02*
X76097676Y-102000220D01*
X87047676Y-96110220D02*
X83456822Y-96110220D01*
X87047676Y-96550220D02*
X87047676Y-96110220D01*
X87047676Y-99000220D02*
X87047676Y-100000220D01*
X87047676Y-99000220D02*
X89647676Y-99000220D01*
X89647676Y-96550220D02*
X87047676Y-96550220D01*
X89647676Y-99000220D02*
X89647676Y-96550220D01*
X83456822Y-96110220D02*
G75*
G02*
X81162500Y-97950220I-2294320J510409D01*
G01*
X87047676Y-100000220D02*
G75*
G02*
X85047676Y-102000220I-2000004J4D01*
G01*
%TO.C,LED12*%
X243850000Y-31100001D02*
X243850000Y-35100001D01*
X243850000Y-35100001D02*
X251450000Y-35100001D01*
X251450000Y-31100001D02*
X243850000Y-31100001D01*
X251450000Y-35100001D02*
X251450000Y-31100001D01*
%TO.C,C6*%
X197369989Y-118750000D02*
X197369989Y-122150000D01*
X197369989Y-122150000D02*
X199329989Y-122150000D01*
X199329989Y-118750000D02*
X197369989Y-118750000D01*
X199329989Y-122150000D02*
X199329989Y-118750000D01*
%TO.C,LED41*%
X239087500Y-69200001D02*
X239087500Y-73200001D01*
X239087500Y-73200001D02*
X246687500Y-73200001D01*
X246687500Y-69200001D02*
X239087500Y-69200001D01*
X246687500Y-73200001D02*
X246687500Y-69200001D01*
%TO.C,SW31*%
X33066426Y-80070220D02*
X33066426Y-82520220D01*
X33066426Y-82520220D02*
X35616426Y-82520220D01*
X35616426Y-78900220D02*
X40681250Y-78900220D01*
X35616426Y-80070220D02*
X33066426Y-80070220D01*
X35616426Y-80070220D02*
X35616426Y-78900220D01*
X35616426Y-82950220D02*
X35616426Y-82520220D01*
X44566426Y-82950220D02*
X35616426Y-82950220D01*
X46566426Y-77060220D02*
X42975572Y-77060220D01*
X46566426Y-77500220D02*
X46566426Y-77060220D01*
X46566426Y-79950220D02*
X46566426Y-80950220D01*
X46566426Y-79950220D02*
X49166426Y-79950220D01*
X49166426Y-77500220D02*
X46566426Y-77500220D01*
X49166426Y-79950220D02*
X49166426Y-77500220D01*
X42975572Y-77060220D02*
G75*
G02*
X40681250Y-78900220I-2294320J510409D01*
G01*
X46566426Y-80950220D02*
G75*
G02*
X44566426Y-82950220I-2000004J4D01*
G01*
%TO.C,SW14*%
X287860176Y-41970220D02*
X287860176Y-44420220D01*
X287860176Y-44420220D02*
X290410176Y-44420220D01*
X290410176Y-40800220D02*
X295475000Y-40800220D01*
X290410176Y-41970220D02*
X287860176Y-41970220D01*
X290410176Y-41970220D02*
X290410176Y-40800220D01*
X290410176Y-44850220D02*
X290410176Y-44420220D01*
X299360176Y-44850220D02*
X290410176Y-44850220D01*
X301360176Y-38960220D02*
X297769322Y-38960220D01*
X301360176Y-39400220D02*
X301360176Y-38960220D01*
X301360176Y-41850220D02*
X301360176Y-42850220D01*
X301360176Y-41850220D02*
X303960176Y-41850220D01*
X303960176Y-39400220D02*
X301360176Y-39400220D01*
X303960176Y-41850220D02*
X303960176Y-39400220D01*
X297769322Y-38960220D02*
G75*
G02*
X295475000Y-40800220I-2294320J510409D01*
G01*
X301360176Y-42850220D02*
G75*
G02*
X299360176Y-44850220I-2000004J4D01*
G01*
%TO.C,SW13*%
X259285176Y-41970220D02*
X259285176Y-44420220D01*
X259285176Y-44420220D02*
X261835176Y-44420220D01*
X261835176Y-40800220D02*
X266900000Y-40800220D01*
X261835176Y-41970220D02*
X259285176Y-41970220D01*
X261835176Y-41970220D02*
X261835176Y-40800220D01*
X261835176Y-44850220D02*
X261835176Y-44420220D01*
X270785176Y-44850220D02*
X261835176Y-44850220D01*
X272785176Y-38960220D02*
X269194322Y-38960220D01*
X272785176Y-39400220D02*
X272785176Y-38960220D01*
X272785176Y-41850220D02*
X272785176Y-42850220D01*
X272785176Y-41850220D02*
X275385176Y-41850220D01*
X275385176Y-39400220D02*
X272785176Y-39400220D01*
X275385176Y-41850220D02*
X275385176Y-39400220D01*
X269194322Y-38960220D02*
G75*
G02*
X266900000Y-40800220I-2294320J510409D01*
G01*
X272785176Y-42850220D02*
G75*
G02*
X270785176Y-44850220I-2000004J4D01*
G01*
%TO.C,LED42*%
X258137500Y-69200001D02*
X258137500Y-73200001D01*
X258137500Y-73200001D02*
X265737500Y-73200001D01*
X265737500Y-69200001D02*
X258137500Y-69200001D01*
X265737500Y-73200001D02*
X265737500Y-69200001D01*
%TO.C,D63*%
X237391250Y-114600000D02*
X237391250Y-111400000D01*
X239291250Y-111400000D02*
X237391250Y-111400000D01*
X239291250Y-114600000D02*
X237391250Y-114600000D01*
X239291250Y-114600000D02*
X239291250Y-111400000D01*
%TO.C,D64*%
X261203750Y-114600000D02*
X261203750Y-111400000D01*
X263103750Y-111400000D02*
X261203750Y-111400000D01*
X263103750Y-114600000D02*
X261203750Y-114600000D01*
X263103750Y-114600000D02*
X263103750Y-111400000D01*
%TO.C,LED67*%
X320050000Y-107300001D02*
X320050000Y-111300001D01*
X320050000Y-111300001D02*
X327650000Y-111300001D01*
X327650000Y-107300001D02*
X320050000Y-107300001D01*
X327650000Y-111300001D02*
X327650000Y-107300001D01*
%TO.C,D33*%
X96897500Y-76500000D02*
X96897500Y-73300000D01*
X98797500Y-73300000D02*
X96897500Y-73300000D01*
X98797500Y-76500000D02*
X96897500Y-76500000D01*
X98797500Y-76500000D02*
X98797500Y-73300000D01*
%TO.C,D11*%
X235010000Y-38400000D02*
X235010000Y-35200000D01*
X236910000Y-35200000D02*
X235010000Y-35200000D01*
X236910000Y-38400000D02*
X235010000Y-38400000D01*
X236910000Y-38400000D02*
X236910000Y-35200000D01*
%TO.C,D12*%
X254060000Y-38400000D02*
X254060000Y-35200000D01*
X255960000Y-35200000D02*
X254060000Y-35200000D01*
X255960000Y-38400000D02*
X254060000Y-38400000D01*
X255960000Y-38400000D02*
X255960000Y-35200000D01*
%TO.C,C2*%
X190070000Y-103200000D02*
X190070000Y-106600000D01*
X190070000Y-106600000D02*
X192030000Y-106600000D01*
X192030000Y-103200000D02*
X190070000Y-103200000D01*
X192030000Y-106600000D02*
X192030000Y-103200000D01*
%TO.C,D48*%
X125472500Y-95550000D02*
X125472500Y-92350000D01*
X127372500Y-92350000D02*
X125472500Y-92350000D01*
X127372500Y-95550000D02*
X125472500Y-95550000D01*
X127372500Y-95550000D02*
X127372500Y-92350000D01*
%TO.C,D67*%
X330260000Y-114600000D02*
X330260000Y-111400000D01*
X332160000Y-111400000D02*
X330260000Y-111400000D01*
X332160000Y-114600000D02*
X330260000Y-114600000D01*
X332160000Y-114600000D02*
X332160000Y-111400000D01*
%TO.C,D46*%
X87372500Y-95550000D02*
X87372500Y-92350000D01*
X89272500Y-92350000D02*
X87372500Y-92350000D01*
X89272500Y-95550000D02*
X87372500Y-95550000D01*
X89272500Y-95550000D02*
X89272500Y-92350000D01*
%TO.C,J3*%
X52100000Y-78220000D02*
X59900000Y-78220000D01*
X52100000Y-84780000D02*
X52100000Y-78220000D01*
X59900000Y-78220000D02*
X59900000Y-84780000D01*
X59900000Y-84780000D02*
X52100000Y-84780000D01*
%TO.C,SW33*%
X83072676Y-80070220D02*
X83072676Y-82520220D01*
X83072676Y-82520220D02*
X85622676Y-82520220D01*
X85622676Y-78900220D02*
X90687500Y-78900220D01*
X85622676Y-80070220D02*
X83072676Y-80070220D01*
X85622676Y-80070220D02*
X85622676Y-78900220D01*
X85622676Y-82950220D02*
X85622676Y-82520220D01*
X94572676Y-82950220D02*
X85622676Y-82950220D01*
X96572676Y-77060220D02*
X92981822Y-77060220D01*
X96572676Y-77500220D02*
X96572676Y-77060220D01*
X96572676Y-79950220D02*
X96572676Y-80950220D01*
X96572676Y-79950220D02*
X99172676Y-79950220D01*
X99172676Y-77500220D02*
X96572676Y-77500220D01*
X99172676Y-79950220D02*
X99172676Y-77500220D01*
X92981822Y-77060220D02*
G75*
G02*
X90687500Y-78900220I-2294320J510409D01*
G01*
X96572676Y-80950220D02*
G75*
G02*
X94572676Y-82950220I-2000004J4D01*
G01*
%TO.C,SW1*%
X30685176Y-41970220D02*
X30685176Y-44420220D01*
X30685176Y-44420220D02*
X33235176Y-44420220D01*
X33235176Y-40800220D02*
X38300000Y-40800220D01*
X33235176Y-41970220D02*
X30685176Y-41970220D01*
X33235176Y-41970220D02*
X33235176Y-40800220D01*
X33235176Y-44850220D02*
X33235176Y-44420220D01*
X42185176Y-44850220D02*
X33235176Y-44850220D01*
X44185176Y-38960220D02*
X40594322Y-38960220D01*
X44185176Y-39400220D02*
X44185176Y-38960220D01*
X44185176Y-41850220D02*
X44185176Y-42850220D01*
X44185176Y-41850220D02*
X46785176Y-41850220D01*
X46785176Y-39400220D02*
X44185176Y-39400220D01*
X46785176Y-41850220D02*
X46785176Y-39400220D01*
X40594322Y-38960220D02*
G75*
G02*
X38300000Y-40800220I-2294320J510409D01*
G01*
X44185176Y-42850220D02*
G75*
G02*
X42185176Y-44850220I-2000004J4D01*
G01*
%TO.C,LED37*%
X162887500Y-69200001D02*
X162887500Y-73200001D01*
X162887500Y-73200001D02*
X170487500Y-73200001D01*
X170487500Y-69200001D02*
X162887500Y-69200001D01*
X170487500Y-73200001D02*
X170487500Y-69200001D01*
%TO.C,U2*%
X265737500Y-95300000D02*
X269137500Y-95300000D01*
X265737500Y-99400000D02*
X265737500Y-95300000D01*
X269137500Y-95300000D02*
X269137500Y-99400000D01*
X269137500Y-99400000D02*
X265737500Y-99400000D01*
%TO.C,D23*%
X187385000Y-57450000D02*
X187385000Y-54250000D01*
X189285000Y-54250000D02*
X187385000Y-54250000D01*
X189285000Y-57450000D02*
X187385000Y-57450000D01*
X189285000Y-57450000D02*
X189285000Y-54250000D01*
%TO.C,LED38*%
X181937500Y-69200001D02*
X181937500Y-73200001D01*
X181937500Y-73200001D02*
X189537500Y-73200001D01*
X189537500Y-69200001D02*
X181937500Y-69200001D01*
X189537500Y-73200001D02*
X189537500Y-69200001D01*
%TO.C,LED54*%
X229562500Y-88249999D02*
X229562500Y-92249999D01*
X229562500Y-92249999D02*
X237162500Y-92249999D01*
X237162500Y-88249999D02*
X229562500Y-88249999D01*
X237162500Y-92249999D02*
X237162500Y-88249999D01*
%TO.C,D21*%
X149285000Y-57450000D02*
X149285000Y-54250000D01*
X151185000Y-54250000D02*
X149285000Y-54250000D01*
X151185000Y-57450000D02*
X149285000Y-57450000D01*
X151185000Y-57450000D02*
X151185000Y-54250000D01*
%TO.C,C13*%
X195398562Y-118750000D02*
X195398562Y-122150000D01*
X195398562Y-122150000D02*
X197358562Y-122150000D01*
X197358562Y-118750000D02*
X195398562Y-118750000D01*
X197358562Y-122150000D02*
X197358562Y-118750000D01*
%TO.C,SW29*%
X292622676Y-61020220D02*
X292622676Y-63470220D01*
X292622676Y-63470220D02*
X295172676Y-63470220D01*
X295172676Y-59850220D02*
X300237500Y-59850220D01*
X295172676Y-61020220D02*
X292622676Y-61020220D01*
X295172676Y-61020220D02*
X295172676Y-59850220D01*
X295172676Y-63900220D02*
X295172676Y-63470220D01*
X304122676Y-63900220D02*
X295172676Y-63900220D01*
X306122676Y-58010220D02*
X302531822Y-58010220D01*
X306122676Y-58450220D02*
X306122676Y-58010220D01*
X306122676Y-60900220D02*
X306122676Y-61900220D01*
X306122676Y-60900220D02*
X308722676Y-60900220D01*
X308722676Y-58450220D02*
X306122676Y-58450220D01*
X308722676Y-60900220D02*
X308722676Y-58450220D01*
X302531822Y-58010220D02*
G75*
G02*
X300237500Y-59850220I-2294320J510409D01*
G01*
X306122676Y-61900220D02*
G75*
G02*
X304122676Y-63900220I-2000004J4D01*
G01*
%TO.C,LED2*%
X53350000Y-31100001D02*
X53350000Y-35100001D01*
X53350000Y-35100001D02*
X60950000Y-35100001D01*
X60950000Y-31100001D02*
X53350000Y-31100001D01*
X60950000Y-35100001D02*
X60950000Y-31100001D01*
%TO.C,C7*%
X188082500Y-103200000D02*
X188082500Y-106600000D01*
X188082500Y-106600000D02*
X190042500Y-106600000D01*
X190042500Y-103200000D02*
X188082500Y-103200000D01*
X190042500Y-106600000D02*
X190042500Y-103200000D01*
%TO.C,SW11*%
X221185176Y-41970220D02*
X221185176Y-44420220D01*
X221185176Y-44420220D02*
X223735176Y-44420220D01*
X223735176Y-40800220D02*
X228800000Y-40800220D01*
X223735176Y-41970220D02*
X221185176Y-41970220D01*
X223735176Y-41970220D02*
X223735176Y-40800220D01*
X223735176Y-44850220D02*
X223735176Y-44420220D01*
X232685176Y-44850220D02*
X223735176Y-44850220D01*
X234685176Y-38960220D02*
X231094322Y-38960220D01*
X234685176Y-39400220D02*
X234685176Y-38960220D01*
X234685176Y-41850220D02*
X234685176Y-42850220D01*
X234685176Y-41850220D02*
X237285176Y-41850220D01*
X237285176Y-39400220D02*
X234685176Y-39400220D01*
X237285176Y-41850220D02*
X237285176Y-39400220D01*
X231094322Y-38960220D02*
G75*
G02*
X228800000Y-40800220I-2294320J510409D01*
G01*
X234685176Y-42850220D02*
G75*
G02*
X232685176Y-44850220I-2000004J4D01*
G01*
%TO.C,SW61*%
X80691426Y-118170220D02*
X80691426Y-120620220D01*
X80691426Y-120620220D02*
X83241426Y-120620220D01*
X83241426Y-117000220D02*
X88306250Y-117000220D01*
X83241426Y-118170220D02*
X80691426Y-118170220D01*
X83241426Y-118170220D02*
X83241426Y-117000220D01*
X83241426Y-121050220D02*
X83241426Y-120620220D01*
X92191426Y-121050220D02*
X83241426Y-121050220D01*
X94191426Y-115160220D02*
X90600572Y-115160220D01*
X94191426Y-115600220D02*
X94191426Y-115160220D01*
X94191426Y-118050220D02*
X94191426Y-119050220D01*
X94191426Y-118050220D02*
X96791426Y-118050220D01*
X96791426Y-115600220D02*
X94191426Y-115600220D01*
X96791426Y-118050220D02*
X96791426Y-115600220D01*
X90600572Y-115160220D02*
G75*
G02*
X88306250Y-117000220I-2294320J510409D01*
G01*
X94191426Y-119050220D02*
G75*
G02*
X92191426Y-121050220I-2000004J4D01*
G01*
%TO.C,D61*%
X94516250Y-114600000D02*
X94516250Y-111400000D01*
X96416250Y-111400000D02*
X94516250Y-111400000D01*
X96416250Y-114600000D02*
X94516250Y-114600000D01*
X96416250Y-114600000D02*
X96416250Y-111400000D01*
%TO.C,LED46*%
X77162500Y-88249999D02*
X77162500Y-92249999D01*
X77162500Y-92249999D02*
X84762500Y-92249999D01*
X84762500Y-88249999D02*
X77162500Y-88249999D01*
X84762500Y-92249999D02*
X84762500Y-88249999D01*
%TO.C,D38*%
X192147500Y-76500000D02*
X192147500Y-73300000D01*
X194047500Y-73300000D02*
X192147500Y-73300000D01*
X194047500Y-76500000D02*
X192147500Y-76500000D01*
X194047500Y-76500000D02*
X194047500Y-73300000D01*
%TO.C,D30*%
X330260000Y-57450000D02*
X330260000Y-54250000D01*
X332160000Y-54250000D02*
X330260000Y-54250000D01*
X332160000Y-57450000D02*
X330260000Y-57450000D01*
X332160000Y-57450000D02*
X332160000Y-54250000D01*
%TO.C,SW58*%
X316435176Y-99120220D02*
X316435176Y-101570220D01*
X316435176Y-101570220D02*
X318985176Y-101570220D01*
X318985176Y-97950220D02*
X324050000Y-97950220D01*
X318985176Y-99120220D02*
X316435176Y-99120220D01*
X318985176Y-99120220D02*
X318985176Y-97950220D01*
X318985176Y-102000220D02*
X318985176Y-101570220D01*
X327935176Y-102000220D02*
X318985176Y-102000220D01*
X329935176Y-96110220D02*
X326344322Y-96110220D01*
X329935176Y-96550220D02*
X329935176Y-96110220D01*
X329935176Y-99000220D02*
X329935176Y-100000220D01*
X329935176Y-99000220D02*
X332535176Y-99000220D01*
X332535176Y-96550220D02*
X329935176Y-96550220D01*
X332535176Y-99000220D02*
X332535176Y-96550220D01*
X326344322Y-96110220D02*
G75*
G02*
X324050000Y-97950220I-2294320J510409D01*
G01*
X329935176Y-100000220D02*
G75*
G02*
X327935176Y-102000220I-2000004J4D01*
G01*
%TO.C,SW65*%
X278335176Y-118170220D02*
X278335176Y-120620220D01*
X278335176Y-120620220D02*
X280885176Y-120620220D01*
X280885176Y-117000220D02*
X285950000Y-117000220D01*
X280885176Y-118170220D02*
X278335176Y-118170220D01*
X280885176Y-118170220D02*
X280885176Y-117000220D01*
X280885176Y-121050220D02*
X280885176Y-120620220D01*
X289835176Y-121050220D02*
X280885176Y-121050220D01*
X291835176Y-115160220D02*
X288244322Y-115160220D01*
X291835176Y-115600220D02*
X291835176Y-115160220D01*
X291835176Y-118050220D02*
X291835176Y-119050220D01*
X291835176Y-118050220D02*
X294435176Y-118050220D01*
X294435176Y-115600220D02*
X291835176Y-115600220D01*
X294435176Y-118050220D02*
X294435176Y-115600220D01*
X288244322Y-115160220D02*
G75*
G02*
X285950000Y-117000220I-2294320J510409D01*
G01*
X291835176Y-119050220D02*
G75*
G02*
X289835176Y-121050220I-2000004J4D01*
G01*
%TO.C,LED3*%
X72400000Y-31100001D02*
X72400000Y-35100001D01*
X72400000Y-35100001D02*
X80000000Y-35100001D01*
X80000000Y-31100001D02*
X72400000Y-31100001D01*
X80000000Y-35100001D02*
X80000000Y-31100001D01*
%TO.C,C3*%
X183570000Y-118750000D02*
X183570000Y-122150000D01*
X183570000Y-122150000D02*
X185530000Y-122150000D01*
X185530000Y-118750000D02*
X183570000Y-118750000D01*
X185530000Y-122150000D02*
X185530000Y-118750000D01*
%TO.C,LED52*%
X191462500Y-88249999D02*
X191462500Y-92249999D01*
X191462500Y-92249999D02*
X199062500Y-92249999D01*
X199062500Y-88249999D02*
X191462500Y-88249999D01*
X199062500Y-92249999D02*
X199062500Y-88249999D01*
%TO.C,LED23*%
X177175000Y-50149999D02*
X177175000Y-54149999D01*
X177175000Y-54149999D02*
X184775000Y-54149999D01*
X184775000Y-50149999D02*
X177175000Y-50149999D01*
X184775000Y-54149999D02*
X184775000Y-50149999D01*
%TO.C,LED63*%
X227181250Y-107300001D02*
X227181250Y-111300001D01*
X227181250Y-111300001D02*
X234781250Y-111300001D01*
X234781250Y-107300001D02*
X227181250Y-107300001D01*
X234781250Y-111300001D02*
X234781250Y-107300001D01*
%TO.C,D35*%
X134997500Y-76500000D02*
X134997500Y-73300000D01*
X136897500Y-73300000D02*
X134997500Y-73300000D01*
X136897500Y-76500000D02*
X134997500Y-76500000D01*
X136897500Y-76500000D02*
X136897500Y-73300000D01*
%TO.C,C1*%
X165200000Y-120420000D02*
X165200000Y-122380000D01*
X165200000Y-122380000D02*
X168600000Y-122380000D01*
X168600000Y-120420000D02*
X165200000Y-120420000D01*
X168600000Y-122380000D02*
X168600000Y-120420000D01*
%TO.C,SW53*%
X206897676Y-99120220D02*
X206897676Y-101570220D01*
X206897676Y-101570220D02*
X209447676Y-101570220D01*
X209447676Y-97950220D02*
X214512500Y-97950220D01*
X209447676Y-99120220D02*
X206897676Y-99120220D01*
X209447676Y-99120220D02*
X209447676Y-97950220D01*
X209447676Y-102000220D02*
X209447676Y-101570220D01*
X218397676Y-102000220D02*
X209447676Y-102000220D01*
X220397676Y-96110220D02*
X216806822Y-96110220D01*
X220397676Y-96550220D02*
X220397676Y-96110220D01*
X220397676Y-99000220D02*
X220397676Y-100000220D01*
X220397676Y-99000220D02*
X222997676Y-99000220D01*
X222997676Y-96550220D02*
X220397676Y-96550220D01*
X222997676Y-99000220D02*
X222997676Y-96550220D01*
X216806822Y-96110220D02*
G75*
G02*
X214512500Y-97950220I-2294320J510409D01*
G01*
X220397676Y-100000220D02*
G75*
G02*
X218397676Y-102000220I-2000004J4D01*
G01*
%TO.C,LED55*%
X248612500Y-88249999D02*
X248612500Y-92249999D01*
X248612500Y-92249999D02*
X256212500Y-92249999D01*
X256212500Y-88249999D02*
X248612500Y-88249999D01*
X256212500Y-92249999D02*
X256212500Y-88249999D01*
%TO.C,SW67*%
X316435176Y-118170220D02*
X316435176Y-120620220D01*
X316435176Y-120620220D02*
X318985176Y-120620220D01*
X318985176Y-117000220D02*
X324050000Y-117000220D01*
X318985176Y-118170220D02*
X316435176Y-118170220D01*
X318985176Y-118170220D02*
X318985176Y-117000220D01*
X318985176Y-121050220D02*
X318985176Y-120620220D01*
X327935176Y-121050220D02*
X318985176Y-121050220D01*
X329935176Y-115160220D02*
X326344322Y-115160220D01*
X329935176Y-115600220D02*
X329935176Y-115160220D01*
X329935176Y-118050220D02*
X329935176Y-119050220D01*
X329935176Y-118050220D02*
X332535176Y-118050220D01*
X332535176Y-115600220D02*
X329935176Y-115600220D01*
X332535176Y-118050220D02*
X332535176Y-115600220D01*
X326344322Y-115160220D02*
G75*
G02*
X324050000Y-117000220I-2294320J510409D01*
G01*
X329935176Y-119050220D02*
G75*
G02*
X327935176Y-121050220I-2000004J4D01*
G01*
%TO.C,SW8*%
X164035176Y-41970220D02*
X164035176Y-44420220D01*
X164035176Y-44420220D02*
X166585176Y-44420220D01*
X166585176Y-40800220D02*
X171650000Y-40800220D01*
X166585176Y-41970220D02*
X164035176Y-41970220D01*
X166585176Y-41970220D02*
X166585176Y-40800220D01*
X166585176Y-44850220D02*
X166585176Y-44420220D01*
X175535176Y-44850220D02*
X166585176Y-44850220D01*
X177535176Y-38960220D02*
X173944322Y-38960220D01*
X177535176Y-39400220D02*
X177535176Y-38960220D01*
X177535176Y-41850220D02*
X177535176Y-42850220D01*
X177535176Y-41850220D02*
X180135176Y-41850220D01*
X180135176Y-39400220D02*
X177535176Y-39400220D01*
X180135176Y-41850220D02*
X180135176Y-39400220D01*
X173944322Y-38960220D02*
G75*
G02*
X171650000Y-40800220I-2294320J510409D01*
G01*
X177535176Y-42850220D02*
G75*
G02*
X175535176Y-44850220I-2000004J4D01*
G01*
%TO.C,LED47*%
X96212500Y-88249999D02*
X96212500Y-92249999D01*
X96212500Y-92249999D02*
X103812500Y-92249999D01*
X103812500Y-88249999D02*
X96212500Y-88249999D01*
X103812500Y-92249999D02*
X103812500Y-88249999D01*
%TO.C,SW34*%
X102122676Y-80070220D02*
X102122676Y-82520220D01*
X102122676Y-82520220D02*
X104672676Y-82520220D01*
X104672676Y-78900220D02*
X109737500Y-78900220D01*
X104672676Y-80070220D02*
X102122676Y-80070220D01*
X104672676Y-80070220D02*
X104672676Y-78900220D01*
X104672676Y-82950220D02*
X104672676Y-82520220D01*
X113622676Y-82950220D02*
X104672676Y-82950220D01*
X115622676Y-77060220D02*
X112031822Y-77060220D01*
X115622676Y-77500220D02*
X115622676Y-77060220D01*
X115622676Y-79950220D02*
X115622676Y-80950220D01*
X115622676Y-79950220D02*
X118222676Y-79950220D01*
X118222676Y-77500220D02*
X115622676Y-77500220D01*
X118222676Y-79950220D02*
X118222676Y-77500220D01*
X112031822Y-77060220D02*
G75*
G02*
X109737500Y-78900220I-2294320J510409D01*
G01*
X115622676Y-80950220D02*
G75*
G02*
X113622676Y-82950220I-2000004J4D01*
G01*
%TO.C,D17*%
X73085000Y-57450000D02*
X73085000Y-54250000D01*
X74985000Y-54250000D02*
X73085000Y-54250000D01*
X74985000Y-57450000D02*
X73085000Y-57450000D01*
X74985000Y-57450000D02*
X74985000Y-54250000D01*
%TO.C,C14*%
X184107500Y-103200000D02*
X184107500Y-106600000D01*
X184107500Y-106600000D02*
X186067500Y-106600000D01*
X186067500Y-103200000D02*
X184107500Y-103200000D01*
X186067500Y-106600000D02*
X186067500Y-103200000D01*
%TO.C,D37*%
X173097500Y-76500000D02*
X173097500Y-73300000D01*
X174997500Y-73300000D02*
X173097500Y-73300000D01*
X174997500Y-76500000D02*
X173097500Y-76500000D01*
X174997500Y-76500000D02*
X174997500Y-73300000D01*
%TO.C,D3*%
X82610000Y-38400000D02*
X82610000Y-35200000D01*
X84510000Y-35200000D02*
X82610000Y-35200000D01*
X84510000Y-38400000D02*
X82610000Y-38400000D01*
X84510000Y-38400000D02*
X84510000Y-35200000D01*
%TO.C,LED66*%
X301000000Y-107300001D02*
X301000000Y-111300001D01*
X301000000Y-111300001D02*
X308600000Y-111300001D01*
X308600000Y-107300001D02*
X301000000Y-107300001D01*
X308600000Y-111300001D02*
X308600000Y-107300001D01*
%TO.C,SW35*%
X121172676Y-80070220D02*
X121172676Y-82520220D01*
X121172676Y-82520220D02*
X123722676Y-82520220D01*
X123722676Y-78900220D02*
X128787500Y-78900220D01*
X123722676Y-80070220D02*
X121172676Y-80070220D01*
X123722676Y-80070220D02*
X123722676Y-78900220D01*
X123722676Y-82950220D02*
X123722676Y-82520220D01*
X132672676Y-82950220D02*
X123722676Y-82950220D01*
X134672676Y-77060220D02*
X131081822Y-77060220D01*
X134672676Y-77500220D02*
X134672676Y-77060220D01*
X134672676Y-79950220D02*
X134672676Y-80950220D01*
X134672676Y-79950220D02*
X137272676Y-79950220D01*
X137272676Y-77500220D02*
X134672676Y-77500220D01*
X137272676Y-79950220D02*
X137272676Y-77500220D01*
X131081822Y-77060220D02*
G75*
G02*
X128787500Y-78900220I-2294320J510409D01*
G01*
X134672676Y-80950220D02*
G75*
G02*
X132672676Y-82950220I-2000004J4D01*
G01*
%TO.C,LED8*%
X167650000Y-31100001D02*
X167650000Y-35100001D01*
X167650000Y-35100001D02*
X175250000Y-35100001D01*
X175250000Y-31100001D02*
X167650000Y-31100001D01*
X175250000Y-35100001D02*
X175250000Y-31100001D01*
%TO.C,D65*%
X292160000Y-114600000D02*
X292160000Y-111400000D01*
X294060000Y-111400000D02*
X292160000Y-111400000D01*
X294060000Y-114600000D02*
X292160000Y-114600000D01*
X294060000Y-114600000D02*
X294060000Y-111400000D01*
%TO.C,SW40*%
X216422676Y-80070220D02*
X216422676Y-82520220D01*
X216422676Y-82520220D02*
X218972676Y-82520220D01*
X218972676Y-78900220D02*
X224037500Y-78900220D01*
X218972676Y-80070220D02*
X216422676Y-80070220D01*
X218972676Y-80070220D02*
X218972676Y-78900220D01*
X218972676Y-82950220D02*
X218972676Y-82520220D01*
X227922676Y-82950220D02*
X218972676Y-82950220D01*
X229922676Y-77060220D02*
X226331822Y-77060220D01*
X229922676Y-77500220D02*
X229922676Y-77060220D01*
X229922676Y-79950220D02*
X229922676Y-80950220D01*
X229922676Y-79950220D02*
X232522676Y-79950220D01*
X232522676Y-77500220D02*
X229922676Y-77500220D01*
X232522676Y-79950220D02*
X232522676Y-77500220D01*
X226331822Y-77060220D02*
G75*
G02*
X224037500Y-78900220I-2294320J510409D01*
G01*
X229922676Y-80950220D02*
G75*
G02*
X227922676Y-82950220I-2000004J4D01*
G01*
%TO.C,LED11*%
X224800000Y-31100001D02*
X224800000Y-35100001D01*
X224800000Y-35100001D02*
X232400000Y-35100001D01*
X232400000Y-31100001D02*
X224800000Y-31100001D01*
X232400000Y-35100001D02*
X232400000Y-31100001D01*
%TO.C,J2*%
X284800000Y-61220000D02*
X292600000Y-61220000D01*
X284800000Y-67780000D02*
X284800000Y-61220000D01*
X292600000Y-61220000D02*
X292600000Y-67780000D01*
X292600000Y-67780000D02*
X284800000Y-67780000D01*
%TO.C,D4*%
X101660000Y-38400000D02*
X101660000Y-35200000D01*
X103560000Y-35200000D02*
X101660000Y-35200000D01*
X103560000Y-38400000D02*
X101660000Y-38400000D01*
X103560000Y-38400000D02*
X103560000Y-35200000D01*
%TO.C,LED36*%
X143837500Y-69200001D02*
X143837500Y-73200001D01*
X143837500Y-73200001D02*
X151437500Y-73200001D01*
X151437500Y-69200001D02*
X143837500Y-69200001D01*
X151437500Y-73200001D02*
X151437500Y-69200001D01*
%TO.C,SW43*%
X285478926Y-80070220D02*
X285478926Y-82520220D01*
X285478926Y-82520220D02*
X288028926Y-82520220D01*
X288028926Y-78900220D02*
X293093750Y-78900220D01*
X288028926Y-80070220D02*
X285478926Y-80070220D01*
X288028926Y-80070220D02*
X288028926Y-78900220D01*
X288028926Y-82950220D02*
X288028926Y-82520220D01*
X296978926Y-82950220D02*
X288028926Y-82950220D01*
X298978926Y-77060220D02*
X295388072Y-77060220D01*
X298978926Y-77500220D02*
X298978926Y-77060220D01*
X298978926Y-79950220D02*
X298978926Y-80950220D01*
X298978926Y-79950220D02*
X301578926Y-79950220D01*
X301578926Y-77500220D02*
X298978926Y-77500220D01*
X301578926Y-79950220D02*
X301578926Y-77500220D01*
X295388072Y-77060220D02*
G75*
G02*
X293093750Y-78900220I-2294320J510409D01*
G01*
X298978926Y-80950220D02*
G75*
G02*
X296978926Y-82950220I-2000004J4D01*
G01*
%TO.C,D28*%
X282635000Y-57450000D02*
X282635000Y-54250000D01*
X284535000Y-54250000D02*
X282635000Y-54250000D01*
X284535000Y-57450000D02*
X282635000Y-57450000D01*
X284535000Y-57450000D02*
X284535000Y-54250000D01*
%TO.C,D8*%
X177860000Y-38400000D02*
X177860000Y-35200000D01*
X179760000Y-35200000D02*
X177860000Y-35200000D01*
X179760000Y-38400000D02*
X177860000Y-38400000D01*
X179760000Y-38400000D02*
X179760000Y-35200000D01*
%TO.C,LED40*%
X220037500Y-69200001D02*
X220037500Y-73200001D01*
X220037500Y-73200001D02*
X227637500Y-73200001D01*
X227637500Y-69200001D02*
X220037500Y-69200001D01*
X227637500Y-73200001D02*
X227637500Y-69200001D01*
%TO.C,C10*%
X179350000Y-114620000D02*
X179350000Y-116580000D01*
X179350000Y-116580000D02*
X182750000Y-116580000D01*
X182750000Y-114620000D02*
X179350000Y-114620000D01*
X182750000Y-116580000D02*
X182750000Y-114620000D01*
%TO.C,SW63*%
X223566426Y-118170220D02*
X223566426Y-120620220D01*
X223566426Y-120620220D02*
X226116426Y-120620220D01*
X226116426Y-117000220D02*
X231181250Y-117000220D01*
X226116426Y-118170220D02*
X223566426Y-118170220D01*
X226116426Y-118170220D02*
X226116426Y-117000220D01*
X226116426Y-121050220D02*
X226116426Y-120620220D01*
X235066426Y-121050220D02*
X226116426Y-121050220D01*
X237066426Y-115160220D02*
X233475572Y-115160220D01*
X237066426Y-115600220D02*
X237066426Y-115160220D01*
X237066426Y-118050220D02*
X237066426Y-119050220D01*
X237066426Y-118050220D02*
X239666426Y-118050220D01*
X239666426Y-115600220D02*
X237066426Y-115600220D01*
X239666426Y-118050220D02*
X239666426Y-115600220D01*
X233475572Y-115160220D02*
G75*
G02*
X231181250Y-117000220I-2294320J510409D01*
G01*
X237066426Y-119050220D02*
G75*
G02*
X235066426Y-121050220I-2000004J4D01*
G01*
%TO.C,LED50*%
X153362500Y-88249999D02*
X153362500Y-92249999D01*
X153362500Y-92249999D02*
X160962500Y-92249999D01*
X160962500Y-88249999D02*
X153362500Y-88249999D01*
X160962500Y-92249999D02*
X160962500Y-88249999D01*
%TO.C,D52*%
X201672500Y-95550000D02*
X201672500Y-92350000D01*
X203572500Y-92350000D02*
X201672500Y-92350000D01*
X203572500Y-95550000D02*
X201672500Y-95550000D01*
X203572500Y-95550000D02*
X203572500Y-92350000D01*
%TO.C,D32*%
X77847500Y-76500000D02*
X77847500Y-73300000D01*
X79747500Y-73300000D02*
X77847500Y-73300000D01*
X79747500Y-76500000D02*
X77847500Y-76500000D01*
X79747500Y-76500000D02*
X79747500Y-73300000D01*
%TO.C,Y1*%
X177900000Y-103200000D02*
X182100000Y-103200000D01*
X177900000Y-106600000D02*
X177900000Y-103200000D01*
X182100000Y-103200000D02*
X182100000Y-106600000D01*
X182100000Y-106600000D02*
X177900000Y-106600000D01*
%TO.C,C9*%
X187512854Y-118750000D02*
X187512854Y-122150000D01*
X187512854Y-122150000D02*
X189472854Y-122150000D01*
X189472854Y-118750000D02*
X187512854Y-118750000D01*
X189472854Y-122150000D02*
X189472854Y-118750000D01*
%TO.C,SW4*%
X87835176Y-41970220D02*
X87835176Y-44420220D01*
X87835176Y-44420220D02*
X90385176Y-44420220D01*
X90385176Y-40800220D02*
X95450000Y-40800220D01*
X90385176Y-41970220D02*
X87835176Y-41970220D01*
X90385176Y-41970220D02*
X90385176Y-40800220D01*
X90385176Y-44850220D02*
X90385176Y-44420220D01*
X99335176Y-44850220D02*
X90385176Y-44850220D01*
X101335176Y-38960220D02*
X97744322Y-38960220D01*
X101335176Y-39400220D02*
X101335176Y-38960220D01*
X101335176Y-41850220D02*
X101335176Y-42850220D01*
X101335176Y-41850220D02*
X103935176Y-41850220D01*
X103935176Y-39400220D02*
X101335176Y-39400220D01*
X103935176Y-41850220D02*
X103935176Y-39400220D01*
X97744322Y-38960220D02*
G75*
G02*
X95450000Y-40800220I-2294320J510409D01*
G01*
X101335176Y-42850220D02*
G75*
G02*
X99335176Y-44850220I-2000004J4D01*
G01*
%TO.C,SW57*%
X297385176Y-99120220D02*
X297385176Y-101570220D01*
X297385176Y-101570220D02*
X299935176Y-101570220D01*
X299935176Y-97950220D02*
X305000000Y-97950220D01*
X299935176Y-99120220D02*
X297385176Y-99120220D01*
X299935176Y-99120220D02*
X299935176Y-97950220D01*
X299935176Y-102000220D02*
X299935176Y-101570220D01*
X308885176Y-102000220D02*
X299935176Y-102000220D01*
X310885176Y-96110220D02*
X307294322Y-96110220D01*
X310885176Y-96550220D02*
X310885176Y-96110220D01*
X310885176Y-99000220D02*
X310885176Y-100000220D01*
X310885176Y-99000220D02*
X313485176Y-99000220D01*
X313485176Y-96550220D02*
X310885176Y-96550220D01*
X313485176Y-99000220D02*
X313485176Y-96550220D01*
X307294322Y-96110220D02*
G75*
G02*
X305000000Y-97950220I-2294320J510409D01*
G01*
X310885176Y-100000220D02*
G75*
G02*
X308885176Y-102000220I-2000004J4D01*
G01*
%TO.C,LED22*%
X158125000Y-50149999D02*
X158125000Y-54149999D01*
X158125000Y-54149999D02*
X165725000Y-54149999D01*
X165725000Y-50149999D02*
X158125000Y-50149999D01*
X165725000Y-54149999D02*
X165725000Y-50149999D01*
%TO.C,LED24*%
X196225000Y-50149999D02*
X196225000Y-54149999D01*
X196225000Y-54149999D02*
X203825000Y-54149999D01*
X203825000Y-50149999D02*
X196225000Y-50149999D01*
X203825000Y-54149999D02*
X203825000Y-50149999D01*
%TO.C,LED5*%
X110500000Y-31100001D02*
X110500000Y-35100001D01*
X110500000Y-35100001D02*
X118100000Y-35100001D01*
X118100000Y-31100001D02*
X110500000Y-31100001D01*
X118100000Y-35100001D02*
X118100000Y-31100001D01*
%TO.C,SW24*%
X192610176Y-61020220D02*
X192610176Y-63470220D01*
X192610176Y-63470220D02*
X195160176Y-63470220D01*
X195160176Y-59850220D02*
X200225000Y-59850220D01*
X195160176Y-61020220D02*
X192610176Y-61020220D01*
X195160176Y-61020220D02*
X195160176Y-59850220D01*
X195160176Y-63900220D02*
X195160176Y-63470220D01*
X204110176Y-63900220D02*
X195160176Y-63900220D01*
X206110176Y-58010220D02*
X202519322Y-58010220D01*
X206110176Y-58450220D02*
X206110176Y-58010220D01*
X206110176Y-60900220D02*
X206110176Y-61900220D01*
X206110176Y-60900220D02*
X208710176Y-60900220D01*
X208710176Y-58450220D02*
X206110176Y-58450220D01*
X208710176Y-60900220D02*
X208710176Y-58450220D01*
X202519322Y-58010220D02*
G75*
G02*
X200225000Y-59850220I-2294320J510409D01*
G01*
X206110176Y-61900220D02*
G75*
G02*
X204110176Y-63900220I-2000004J4D01*
G01*
%TO.C,D10*%
X215960000Y-38400000D02*
X215960000Y-35200000D01*
X217860000Y-35200000D02*
X215960000Y-35200000D01*
X217860000Y-38400000D02*
X215960000Y-38400000D01*
X217860000Y-38400000D02*
X217860000Y-35200000D01*
%TO.C,SW56*%
X271191426Y-99120220D02*
X271191426Y-101570220D01*
X271191426Y-101570220D02*
X273741426Y-101570220D01*
X273741426Y-97950220D02*
X278806250Y-97950220D01*
X273741426Y-99120220D02*
X271191426Y-99120220D01*
X273741426Y-99120220D02*
X273741426Y-97950220D01*
X273741426Y-102000220D02*
X273741426Y-101570220D01*
X282691426Y-102000220D02*
X273741426Y-102000220D01*
X284691426Y-96110220D02*
X281100572Y-96110220D01*
X284691426Y-96550220D02*
X284691426Y-96110220D01*
X284691426Y-99000220D02*
X284691426Y-100000220D01*
X284691426Y-99000220D02*
X287291426Y-99000220D01*
X287291426Y-96550220D02*
X284691426Y-96550220D01*
X287291426Y-99000220D02*
X287291426Y-96550220D01*
X281100572Y-96110220D02*
G75*
G02*
X278806250Y-97950220I-2294320J510409D01*
G01*
X284691426Y-100000220D02*
G75*
G02*
X282691426Y-102000220I-2000004J4D01*
G01*
%TO.C,C5*%
X185541427Y-118750000D02*
X185541427Y-122150000D01*
X185541427Y-122150000D02*
X187501427Y-122150000D01*
X187501427Y-118750000D02*
X185541427Y-118750000D01*
X187501427Y-122150000D02*
X187501427Y-118750000D01*
%TO.C,LED58*%
X320050000Y-88249999D02*
X320050000Y-92249999D01*
X320050000Y-92249999D02*
X327650000Y-92249999D01*
X327650000Y-88249999D02*
X320050000Y-88249999D01*
X327650000Y-92249999D02*
X327650000Y-88249999D01*
%TO.C,LED1*%
X34300000Y-31100001D02*
X34300000Y-35100001D01*
X34300000Y-35100001D02*
X41900000Y-35100001D01*
X41900000Y-31100001D02*
X34300000Y-31100001D01*
X41900000Y-35100001D02*
X41900000Y-31100001D01*
%TO.C,D1*%
X44510000Y-38400000D02*
X44510000Y-35200000D01*
X46410000Y-35200000D02*
X44510000Y-35200000D01*
X46410000Y-38400000D02*
X44510000Y-38400000D01*
X46410000Y-38400000D02*
X46410000Y-35200000D01*
%TO.C,R6*%
X186125000Y-103220000D02*
X186125000Y-106580000D01*
X186125000Y-106580000D02*
X188025000Y-106580000D01*
X188025000Y-103220000D02*
X186125000Y-103220000D01*
X188025000Y-106580000D02*
X188025000Y-103220000D01*
%TO.C,D20*%
X130235000Y-57450000D02*
X130235000Y-54250000D01*
X132135000Y-54250000D02*
X130235000Y-54250000D01*
X132135000Y-57450000D02*
X130235000Y-57450000D01*
X132135000Y-57450000D02*
X132135000Y-54250000D01*
%TO.C,SW51*%
X168797676Y-99120220D02*
X168797676Y-101570220D01*
X168797676Y-101570220D02*
X171347676Y-101570220D01*
X171347676Y-97950220D02*
X176412500Y-97950220D01*
X171347676Y-99120220D02*
X168797676Y-99120220D01*
X171347676Y-99120220D02*
X171347676Y-97950220D01*
X171347676Y-102000220D02*
X171347676Y-101570220D01*
X180297676Y-102000220D02*
X171347676Y-102000220D01*
X182297676Y-96110220D02*
X178706822Y-96110220D01*
X182297676Y-96550220D02*
X182297676Y-96110220D01*
X182297676Y-99000220D02*
X182297676Y-100000220D01*
X182297676Y-99000220D02*
X184897676Y-99000220D01*
X184897676Y-96550220D02*
X182297676Y-96550220D01*
X184897676Y-99000220D02*
X184897676Y-96550220D01*
X178706822Y-96110220D02*
G75*
G02*
X176412500Y-97950220I-2294320J510409D01*
G01*
X182297676Y-100000220D02*
G75*
G02*
X180297676Y-102000220I-2000004J4D01*
G01*
%TO.C,LED4*%
X91450000Y-31100001D02*
X91450000Y-35100001D01*
X91450000Y-35100001D02*
X99050000Y-35100001D01*
X99050000Y-31100001D02*
X91450000Y-31100001D01*
X99050000Y-35100001D02*
X99050000Y-31100001D01*
%TO.C,LED27*%
X253375000Y-50149999D02*
X253375000Y-54149999D01*
X253375000Y-54149999D02*
X260975000Y-54149999D01*
X260975000Y-50149999D02*
X253375000Y-50149999D01*
X260975000Y-54149999D02*
X260975000Y-50149999D01*
%TO.C,LED39*%
X200987500Y-69200001D02*
X200987500Y-73200001D01*
X200987500Y-73200001D02*
X208587500Y-73200001D01*
X208587500Y-69200001D02*
X200987500Y-69200001D01*
X208587500Y-73200001D02*
X208587500Y-69200001D01*
%TO.C,SW59*%
X33066426Y-118170220D02*
X33066426Y-120620220D01*
X33066426Y-120620220D02*
X35616426Y-120620220D01*
X35616426Y-117000220D02*
X40681250Y-117000220D01*
X35616426Y-118170220D02*
X33066426Y-118170220D01*
X35616426Y-118170220D02*
X35616426Y-117000220D01*
X35616426Y-121050220D02*
X35616426Y-120620220D01*
X44566426Y-121050220D02*
X35616426Y-121050220D01*
X46566426Y-115160220D02*
X42975572Y-115160220D01*
X46566426Y-115600220D02*
X46566426Y-115160220D01*
X46566426Y-118050220D02*
X46566426Y-119050220D01*
X46566426Y-118050220D02*
X49166426Y-118050220D01*
X49166426Y-115600220D02*
X46566426Y-115600220D01*
X49166426Y-118050220D02*
X49166426Y-115600220D01*
X42975572Y-115160220D02*
G75*
G02*
X40681250Y-117000220I-2294320J510409D01*
G01*
X46566426Y-119050220D02*
G75*
G02*
X44566426Y-121050220I-2000004J4D01*
G01*
%TO.C,LED56*%
X274806250Y-88249999D02*
X274806250Y-92249999D01*
X274806250Y-92249999D02*
X282406250Y-92249999D01*
X282406250Y-88249999D02*
X274806250Y-88249999D01*
X282406250Y-92249999D02*
X282406250Y-88249999D01*
%TO.C,R2*%
X189514281Y-118770000D02*
X189514281Y-122130000D01*
X189514281Y-122130000D02*
X191414281Y-122130000D01*
X191414281Y-118770000D02*
X189514281Y-118770000D01*
X191414281Y-122130000D02*
X191414281Y-118770000D01*
%TO.C,D43*%
X299303750Y-76500000D02*
X299303750Y-73300000D01*
X301203750Y-73300000D02*
X299303750Y-73300000D01*
X301203750Y-76500000D02*
X299303750Y-76500000D01*
X301203750Y-76500000D02*
X301203750Y-73300000D01*
%TO.C,C15*%
X182120000Y-103200000D02*
X182120000Y-106600000D01*
X182120000Y-106600000D02*
X184080000Y-106600000D01*
X184080000Y-103200000D02*
X182120000Y-103200000D01*
X184080000Y-106600000D02*
X184080000Y-103200000D01*
%TO.C,LED32*%
X67637500Y-69200001D02*
X67637500Y-73200001D01*
X67637500Y-73200001D02*
X75237500Y-73200001D01*
X75237500Y-69200001D02*
X67637500Y-69200001D01*
X75237500Y-73200001D02*
X75237500Y-69200001D01*
%TO.C,SW30*%
X316435176Y-61020220D02*
X316435176Y-63470220D01*
X316435176Y-63470220D02*
X318985176Y-63470220D01*
X318985176Y-59850220D02*
X324050000Y-59850220D01*
X318985176Y-61020220D02*
X316435176Y-61020220D01*
X318985176Y-61020220D02*
X318985176Y-59850220D01*
X318985176Y-63900220D02*
X318985176Y-63470220D01*
X327935176Y-63900220D02*
X318985176Y-63900220D01*
X329935176Y-58010220D02*
X326344322Y-58010220D01*
X329935176Y-58450220D02*
X329935176Y-58010220D01*
X329935176Y-60900220D02*
X329935176Y-61900220D01*
X329935176Y-60900220D02*
X332535176Y-60900220D01*
X332535176Y-58450220D02*
X329935176Y-58450220D01*
X332535176Y-60900220D02*
X332535176Y-58450220D01*
X326344322Y-58010220D02*
G75*
G02*
X324050000Y-59850220I-2294320J510409D01*
G01*
X329935176Y-61900220D02*
G75*
G02*
X327935176Y-63900220I-2000004J4D01*
G01*
%TO.C,LED10*%
X205750000Y-31100001D02*
X205750000Y-35100001D01*
X205750000Y-35100001D02*
X213350000Y-35100001D01*
X213350000Y-31100001D02*
X205750000Y-31100001D01*
X213350000Y-35100001D02*
X213350000Y-31100001D01*
%TO.C,LED59*%
X36681250Y-107300001D02*
X36681250Y-111300001D01*
X36681250Y-111300001D02*
X44281250Y-111300001D01*
X44281250Y-107300001D02*
X36681250Y-107300001D01*
X44281250Y-111300001D02*
X44281250Y-107300001D01*
%TO.C,D22*%
X168335000Y-57450000D02*
X168335000Y-54250000D01*
X170235000Y-54250000D02*
X168335000Y-54250000D01*
X170235000Y-57450000D02*
X168335000Y-57450000D01*
X170235000Y-57450000D02*
X170235000Y-54250000D01*
%TO.C,D9*%
X196910000Y-38400000D02*
X196910000Y-35200000D01*
X198810000Y-35200000D02*
X196910000Y-35200000D01*
X198810000Y-38400000D02*
X196910000Y-38400000D01*
X198810000Y-38400000D02*
X198810000Y-35200000D01*
%TO.C,LED35*%
X124787500Y-69200001D02*
X124787500Y-73200001D01*
X124787500Y-73200001D02*
X132387500Y-73200001D01*
X132387500Y-69200001D02*
X124787500Y-69200001D01*
X132387500Y-73200001D02*
X132387500Y-69200001D01*
%TO.C,D29*%
X306447500Y-57450000D02*
X306447500Y-54250000D01*
X308347500Y-54250000D02*
X306447500Y-54250000D01*
X308347500Y-57450000D02*
X306447500Y-57450000D01*
X308347500Y-57450000D02*
X308347500Y-54250000D01*
%TO.C,LED9*%
X186700000Y-31100001D02*
X186700000Y-35100001D01*
X186700000Y-35100001D02*
X194300000Y-35100001D01*
X194300000Y-31100001D02*
X186700000Y-31100001D01*
X194300000Y-35100001D02*
X194300000Y-31100001D01*
%TO.C,LED17*%
X62875000Y-50149999D02*
X62875000Y-54149999D01*
X62875000Y-54149999D02*
X70475000Y-54149999D01*
X70475000Y-50149999D02*
X62875000Y-50149999D01*
X70475000Y-54149999D02*
X70475000Y-50149999D01*
%TO.C,C4*%
X192850000Y-110520000D02*
X192850000Y-112480000D01*
X192850000Y-112480000D02*
X196250000Y-112480000D01*
X196250000Y-110520000D02*
X192850000Y-110520000D01*
X196250000Y-112480000D02*
X196250000Y-110520000D01*
%TO.C,SW47*%
X92597676Y-99120220D02*
X92597676Y-101570220D01*
X92597676Y-101570220D02*
X95147676Y-101570220D01*
X95147676Y-97950220D02*
X100212500Y-97950220D01*
X95147676Y-99120220D02*
X92597676Y-99120220D01*
X95147676Y-99120220D02*
X95147676Y-97950220D01*
X95147676Y-102000220D02*
X95147676Y-101570220D01*
X104097676Y-102000220D02*
X95147676Y-102000220D01*
X106097676Y-96110220D02*
X102506822Y-96110220D01*
X106097676Y-96550220D02*
X106097676Y-96110220D01*
X106097676Y-99000220D02*
X106097676Y-100000220D01*
X106097676Y-99000220D02*
X108697676Y-99000220D01*
X108697676Y-96550220D02*
X106097676Y-96550220D01*
X108697676Y-99000220D02*
X108697676Y-96550220D01*
X102506822Y-96110220D02*
G75*
G02*
X100212500Y-97950220I-2294320J510409D01*
G01*
X106097676Y-100000220D02*
G75*
G02*
X104097676Y-102000220I-2000004J4D01*
G01*
%TO.C,SW7*%
X144985176Y-41970220D02*
X144985176Y-44420220D01*
X144985176Y-44420220D02*
X147535176Y-44420220D01*
X147535176Y-40800220D02*
X152600000Y-40800220D01*
X147535176Y-41970220D02*
X144985176Y-41970220D01*
X147535176Y-41970220D02*
X147535176Y-40800220D01*
X147535176Y-44850220D02*
X147535176Y-44420220D01*
X156485176Y-44850220D02*
X147535176Y-44850220D01*
X158485176Y-38960220D02*
X154894322Y-38960220D01*
X158485176Y-39400220D02*
X158485176Y-38960220D01*
X158485176Y-41850220D02*
X158485176Y-42850220D01*
X158485176Y-41850220D02*
X161085176Y-41850220D01*
X161085176Y-39400220D02*
X158485176Y-39400220D01*
X161085176Y-41850220D02*
X161085176Y-39400220D01*
X154894322Y-38960220D02*
G75*
G02*
X152600000Y-40800220I-2294320J510409D01*
G01*
X158485176Y-42850220D02*
G75*
G02*
X156485176Y-44850220I-2000004J4D01*
G01*
%TO.C,SW38*%
X178322676Y-80070220D02*
X178322676Y-82520220D01*
X178322676Y-82520220D02*
X180872676Y-82520220D01*
X180872676Y-78900220D02*
X185937500Y-78900220D01*
X180872676Y-80070220D02*
X178322676Y-80070220D01*
X180872676Y-80070220D02*
X180872676Y-78900220D01*
X180872676Y-82950220D02*
X180872676Y-82520220D01*
X189822676Y-82950220D02*
X180872676Y-82950220D01*
X191822676Y-77060220D02*
X188231822Y-77060220D01*
X191822676Y-77500220D02*
X191822676Y-77060220D01*
X191822676Y-79950220D02*
X191822676Y-80950220D01*
X191822676Y-79950220D02*
X194422676Y-79950220D01*
X194422676Y-77500220D02*
X191822676Y-77500220D01*
X194422676Y-79950220D02*
X194422676Y-77500220D01*
X188231822Y-77060220D02*
G75*
G02*
X185937500Y-78900220I-2294320J510409D01*
G01*
X191822676Y-80950220D02*
G75*
G02*
X189822676Y-82950220I-2000004J4D01*
G01*
%TO.C,D55*%
X258822500Y-95550000D02*
X258822500Y-92350000D01*
X260722500Y-92350000D02*
X258822500Y-92350000D01*
X260722500Y-95550000D02*
X258822500Y-95550000D01*
X260722500Y-95550000D02*
X260722500Y-92350000D01*
%TO.C,D25*%
X225485000Y-57450000D02*
X225485000Y-54250000D01*
X227385000Y-54250000D02*
X225485000Y-54250000D01*
X227385000Y-57450000D02*
X225485000Y-57450000D01*
X227385000Y-57450000D02*
X227385000Y-54250000D01*
%TO.C,D14*%
X301685000Y-38400000D02*
X301685000Y-35200000D01*
X303585000Y-35200000D02*
X301685000Y-35200000D01*
X303585000Y-38400000D02*
X301685000Y-38400000D01*
X303585000Y-38400000D02*
X303585000Y-35200000D01*
%TO.C,J1*%
X270775000Y-81120000D02*
X278575000Y-81120000D01*
X270775000Y-87680000D02*
X270775000Y-81120000D01*
X278575000Y-81120000D02*
X278575000Y-87680000D01*
X278575000Y-87680000D02*
X270775000Y-87680000D01*
%TO.C,D66*%
X311210000Y-114600000D02*
X311210000Y-111400000D01*
X313110000Y-111400000D02*
X311210000Y-111400000D01*
X313110000Y-114600000D02*
X311210000Y-114600000D01*
X313110000Y-114600000D02*
X313110000Y-111400000D01*
%TO.C,D44*%
X330260000Y-76500000D02*
X330260000Y-73300000D01*
X332160000Y-73300000D02*
X330260000Y-73300000D01*
X332160000Y-76500000D02*
X330260000Y-76500000D01*
X332160000Y-76500000D02*
X332160000Y-73300000D01*
%TO.C,D49*%
X144522500Y-95550000D02*
X144522500Y-92350000D01*
X146422500Y-92350000D02*
X144522500Y-92350000D01*
X146422500Y-95550000D02*
X144522500Y-95550000D01*
X146422500Y-95550000D02*
X146422500Y-92350000D01*
%TO.C,SW27*%
X249760176Y-61020220D02*
X249760176Y-63470220D01*
X249760176Y-63470220D02*
X252310176Y-63470220D01*
X252310176Y-59850220D02*
X257375000Y-59850220D01*
X252310176Y-61020220D02*
X249760176Y-61020220D01*
X252310176Y-61020220D02*
X252310176Y-59850220D01*
X252310176Y-63900220D02*
X252310176Y-63470220D01*
X261260176Y-63900220D02*
X252310176Y-63900220D01*
X263260176Y-58010220D02*
X259669322Y-58010220D01*
X263260176Y-58450220D02*
X263260176Y-58010220D01*
X263260176Y-60900220D02*
X263260176Y-61900220D01*
X263260176Y-60900220D02*
X265860176Y-60900220D01*
X265860176Y-58450220D02*
X263260176Y-58450220D01*
X265860176Y-60900220D02*
X265860176Y-58450220D01*
X259669322Y-58010220D02*
G75*
G02*
X257375000Y-59850220I-2294320J510409D01*
G01*
X263260176Y-61900220D02*
G75*
G02*
X261260176Y-63900220I-2000004J4D01*
G01*
%TO.C,SW18*%
X78310176Y-61020220D02*
X78310176Y-63470220D01*
X78310176Y-63470220D02*
X80860176Y-63470220D01*
X80860176Y-59850220D02*
X85925000Y-59850220D01*
X80860176Y-61020220D02*
X78310176Y-61020220D01*
X80860176Y-61020220D02*
X80860176Y-59850220D01*
X80860176Y-63900220D02*
X80860176Y-63470220D01*
X89810176Y-63900220D02*
X80860176Y-63900220D01*
X91810176Y-58010220D02*
X88219322Y-58010220D01*
X91810176Y-58450220D02*
X91810176Y-58010220D01*
X91810176Y-60900220D02*
X91810176Y-61900220D01*
X91810176Y-60900220D02*
X94410176Y-60900220D01*
X94410176Y-58450220D02*
X91810176Y-58450220D01*
X94410176Y-60900220D02*
X94410176Y-58450220D01*
X88219322Y-58010220D02*
G75*
G02*
X85925000Y-59850220I-2294320J510409D01*
G01*
X91810176Y-61900220D02*
G75*
G02*
X89810176Y-63900220I-2000004J4D01*
G01*
%TO.C,D41*%
X249297500Y-76500000D02*
X249297500Y-73300000D01*
X251197500Y-73300000D02*
X249297500Y-73300000D01*
X251197500Y-76500000D02*
X249297500Y-76500000D01*
X251197500Y-76500000D02*
X251197500Y-73300000D01*
%TO.C,SW12*%
X240235176Y-41970220D02*
X240235176Y-44420220D01*
X240235176Y-44420220D02*
X242785176Y-44420220D01*
X242785176Y-40800220D02*
X247850000Y-40800220D01*
X242785176Y-41970220D02*
X240235176Y-41970220D01*
X242785176Y-41970220D02*
X242785176Y-40800220D01*
X242785176Y-44850220D02*
X242785176Y-44420220D01*
X251735176Y-44850220D02*
X242785176Y-44850220D01*
X253735176Y-38960220D02*
X250144322Y-38960220D01*
X253735176Y-39400220D02*
X253735176Y-38960220D01*
X253735176Y-41850220D02*
X253735176Y-42850220D01*
X253735176Y-41850220D02*
X256335176Y-41850220D01*
X256335176Y-39400220D02*
X253735176Y-39400220D01*
X256335176Y-41850220D02*
X256335176Y-39400220D01*
X250144322Y-38960220D02*
G75*
G02*
X247850000Y-40800220I-2294320J510409D01*
G01*
X253735176Y-42850220D02*
G75*
G02*
X251735176Y-44850220I-2000004J4D01*
G01*
%TO.C,SW20*%
X116410176Y-61020220D02*
X116410176Y-63470220D01*
X116410176Y-63470220D02*
X118960176Y-63470220D01*
X118960176Y-59850220D02*
X124025000Y-59850220D01*
X118960176Y-61020220D02*
X116410176Y-61020220D01*
X118960176Y-61020220D02*
X118960176Y-59850220D01*
X118960176Y-63900220D02*
X118960176Y-63470220D01*
X127910176Y-63900220D02*
X118960176Y-63900220D01*
X129910176Y-58010220D02*
X126319322Y-58010220D01*
X129910176Y-58450220D02*
X129910176Y-58010220D01*
X129910176Y-60900220D02*
X129910176Y-61900220D01*
X129910176Y-60900220D02*
X132510176Y-60900220D01*
X132510176Y-58450220D02*
X129910176Y-58450220D01*
X132510176Y-60900220D02*
X132510176Y-58450220D01*
X126319322Y-58010220D02*
G75*
G02*
X124025000Y-59850220I-2294320J510409D01*
G01*
X129910176Y-61900220D02*
G75*
G02*
X127910176Y-63900220I-2000004J4D01*
G01*
%TO.C,R4*%
X128850000Y-119070000D02*
X128850000Y-122430000D01*
X128850000Y-122430000D02*
X130750000Y-122430000D01*
X130750000Y-119070000D02*
X128850000Y-119070000D01*
X130750000Y-122430000D02*
X130750000Y-119070000D01*
%TO.C,LED20*%
X120025000Y-50149999D02*
X120025000Y-54149999D01*
X120025000Y-54149999D02*
X127625000Y-54149999D01*
X127625000Y-50149999D02*
X120025000Y-50149999D01*
X127625000Y-54149999D02*
X127625000Y-50149999D01*
%TO.C,SW5*%
X106885176Y-41970220D02*
X106885176Y-44420220D01*
X106885176Y-44420220D02*
X109435176Y-44420220D01*
X109435176Y-40800220D02*
X114500000Y-40800220D01*
X109435176Y-41970220D02*
X106885176Y-41970220D01*
X109435176Y-41970220D02*
X109435176Y-40800220D01*
X109435176Y-44850220D02*
X109435176Y-44420220D01*
X118385176Y-44850220D02*
X109435176Y-44850220D01*
X120385176Y-38960220D02*
X116794322Y-38960220D01*
X120385176Y-39400220D02*
X120385176Y-38960220D01*
X120385176Y-41850220D02*
X120385176Y-42850220D01*
X120385176Y-41850220D02*
X122985176Y-41850220D01*
X122985176Y-39400220D02*
X120385176Y-39400220D01*
X122985176Y-41850220D02*
X122985176Y-39400220D01*
X116794322Y-38960220D02*
G75*
G02*
X114500000Y-40800220I-2294320J510409D01*
G01*
X120385176Y-42850220D02*
G75*
G02*
X118385176Y-44850220I-2000004J4D01*
G01*
%TO.C,D6*%
X139760000Y-38400000D02*
X139760000Y-35200000D01*
X141660000Y-35200000D02*
X139760000Y-35200000D01*
X141660000Y-38400000D02*
X139760000Y-38400000D01*
X141660000Y-38400000D02*
X141660000Y-35200000D01*
%TO.C,LED16*%
X39062500Y-50149999D02*
X39062500Y-54149999D01*
X39062500Y-54149999D02*
X46662500Y-54149999D01*
X46662500Y-50149999D02*
X39062500Y-50149999D01*
X46662500Y-54149999D02*
X46662500Y-50149999D01*
%TO.C,LED25*%
X215275000Y-50149999D02*
X215275000Y-54149999D01*
X215275000Y-54149999D02*
X222875000Y-54149999D01*
X222875000Y-50149999D02*
X215275000Y-50149999D01*
X222875000Y-54149999D02*
X222875000Y-50149999D01*
%TO.C,SW26*%
X230710176Y-61020220D02*
X230710176Y-63470220D01*
X230710176Y-63470220D02*
X233260176Y-63470220D01*
X233260176Y-59850220D02*
X238325000Y-59850220D01*
X233260176Y-61020220D02*
X230710176Y-61020220D01*
X233260176Y-61020220D02*
X233260176Y-59850220D01*
X233260176Y-63900220D02*
X233260176Y-63470220D01*
X242210176Y-63900220D02*
X233260176Y-63900220D01*
X244210176Y-58010220D02*
X240619322Y-58010220D01*
X244210176Y-58450220D02*
X244210176Y-58010220D01*
X244210176Y-60900220D02*
X244210176Y-61900220D01*
X244210176Y-60900220D02*
X246810176Y-60900220D01*
X246810176Y-58450220D02*
X244210176Y-58450220D01*
X246810176Y-60900220D02*
X246810176Y-58450220D01*
X240619322Y-58010220D02*
G75*
G02*
X238325000Y-59850220I-2294320J510409D01*
G01*
X244210176Y-61900220D02*
G75*
G02*
X242210176Y-63900220I-2000004J4D01*
G01*
%TO.C,D5*%
X120710000Y-38400000D02*
X120710000Y-35200000D01*
X122610000Y-35200000D02*
X120710000Y-35200000D01*
X122610000Y-38400000D02*
X120710000Y-38400000D01*
X122610000Y-38400000D02*
X122610000Y-35200000D01*
%TO.C,D47*%
X106422500Y-95550000D02*
X106422500Y-92350000D01*
X108322500Y-92350000D02*
X106422500Y-92350000D01*
X108322500Y-95550000D02*
X106422500Y-95550000D01*
X108322500Y-95550000D02*
X108322500Y-92350000D01*
%TO.C,LED49*%
X134312500Y-88249999D02*
X134312500Y-92249999D01*
X134312500Y-92249999D02*
X141912500Y-92249999D01*
X141912500Y-88249999D02*
X134312500Y-88249999D01*
X141912500Y-92249999D02*
X141912500Y-88249999D01*
%TO.C,SW66*%
X297385176Y-118170220D02*
X297385176Y-120620220D01*
X297385176Y-120620220D02*
X299935176Y-120620220D01*
X299935176Y-117000220D02*
X305000000Y-117000220D01*
X299935176Y-118170220D02*
X297385176Y-118170220D01*
X299935176Y-118170220D02*
X299935176Y-117000220D01*
X299935176Y-121050220D02*
X299935176Y-120620220D01*
X308885176Y-121050220D02*
X299935176Y-121050220D01*
X310885176Y-115160220D02*
X307294322Y-115160220D01*
X310885176Y-115600220D02*
X310885176Y-115160220D01*
X310885176Y-118050220D02*
X310885176Y-119050220D01*
X310885176Y-118050220D02*
X313485176Y-118050220D01*
X313485176Y-115600220D02*
X310885176Y-115600220D01*
X313485176Y-118050220D02*
X313485176Y-115600220D01*
X307294322Y-115160220D02*
G75*
G02*
X305000000Y-117000220I-2294320J510409D01*
G01*
X310885176Y-119050220D02*
G75*
G02*
X308885176Y-121050220I-2000004J4D01*
G01*
%TO.C,U3*%
X182770000Y-108620000D02*
X191030000Y-108620000D01*
X182770000Y-116880000D02*
X182770000Y-108620000D01*
X191030000Y-108620000D02*
X191030000Y-116880000D01*
X191030000Y-116880000D02*
X182770000Y-116880000D01*
%TO.C,LED53*%
X210512500Y-88249999D02*
X210512500Y-92249999D01*
X210512500Y-92249999D02*
X218112500Y-92249999D01*
X218112500Y-88249999D02*
X210512500Y-88249999D01*
X218112500Y-92249999D02*
X218112500Y-88249999D01*
%TO.C,SW41*%
X235472676Y-80070220D02*
X235472676Y-82520220D01*
X235472676Y-82520220D02*
X238022676Y-82520220D01*
X238022676Y-78900220D02*
X243087500Y-78900220D01*
X238022676Y-80070220D02*
X235472676Y-80070220D01*
X238022676Y-80070220D02*
X238022676Y-78900220D01*
X238022676Y-82950220D02*
X238022676Y-82520220D01*
X246972676Y-82950220D02*
X238022676Y-82950220D01*
X248972676Y-77060220D02*
X245381822Y-77060220D01*
X248972676Y-77500220D02*
X248972676Y-77060220D01*
X248972676Y-79950220D02*
X248972676Y-80950220D01*
X248972676Y-79950220D02*
X251572676Y-79950220D01*
X251572676Y-77500220D02*
X248972676Y-77500220D01*
X251572676Y-79950220D02*
X251572676Y-77500220D01*
X245381822Y-77060220D02*
G75*
G02*
X243087500Y-78900220I-2294320J510409D01*
G01*
X248972676Y-80950220D02*
G75*
G02*
X246972676Y-82950220I-2000004J4D01*
G01*
%TO.C,SW21*%
X135460176Y-61020220D02*
X135460176Y-63470220D01*
X135460176Y-63470220D02*
X138010176Y-63470220D01*
X138010176Y-59850220D02*
X143075000Y-59850220D01*
X138010176Y-61020220D02*
X135460176Y-61020220D01*
X138010176Y-61020220D02*
X138010176Y-59850220D01*
X138010176Y-63900220D02*
X138010176Y-63470220D01*
X146960176Y-63900220D02*
X138010176Y-63900220D01*
X148960176Y-58010220D02*
X145369322Y-58010220D01*
X148960176Y-58450220D02*
X148960176Y-58010220D01*
X148960176Y-60900220D02*
X148960176Y-61900220D01*
X148960176Y-60900220D02*
X151560176Y-60900220D01*
X151560176Y-58450220D02*
X148960176Y-58450220D01*
X151560176Y-60900220D02*
X151560176Y-58450220D01*
X145369322Y-58010220D02*
G75*
G02*
X143075000Y-59850220I-2294320J510409D01*
G01*
X148960176Y-61900220D02*
G75*
G02*
X146960176Y-63900220I-2000004J4D01*
G01*
%TO.C,SW50*%
X149747676Y-99120220D02*
X149747676Y-101570220D01*
X149747676Y-101570220D02*
X152297676Y-101570220D01*
X152297676Y-97950220D02*
X157362500Y-97950220D01*
X152297676Y-99120220D02*
X149747676Y-99120220D01*
X152297676Y-99120220D02*
X152297676Y-97950220D01*
X152297676Y-102000220D02*
X152297676Y-101570220D01*
X161247676Y-102000220D02*
X152297676Y-102000220D01*
X163247676Y-96110220D02*
X159656822Y-96110220D01*
X163247676Y-96550220D02*
X163247676Y-96110220D01*
X163247676Y-99000220D02*
X163247676Y-100000220D01*
X163247676Y-99000220D02*
X165847676Y-99000220D01*
X165847676Y-96550220D02*
X163247676Y-96550220D01*
X165847676Y-99000220D02*
X165847676Y-96550220D01*
X159656822Y-96110220D02*
G75*
G02*
X157362500Y-97950220I-2294320J510409D01*
G01*
X163247676Y-100000220D02*
G75*
G02*
X161247676Y-102000220I-2000004J4D01*
G01*
%TO.C,R5*%
X139550000Y-119070000D02*
X139550000Y-122430000D01*
X139550000Y-122430000D02*
X141450000Y-122430000D01*
X141450000Y-119070000D02*
X139550000Y-119070000D01*
X141450000Y-122430000D02*
X141450000Y-119070000D01*
%TO.C,SW52*%
X187847676Y-99120220D02*
X187847676Y-101570220D01*
X187847676Y-101570220D02*
X190397676Y-101570220D01*
X190397676Y-97950220D02*
X195462500Y-97950220D01*
X190397676Y-99120220D02*
X187847676Y-99120220D01*
X190397676Y-99120220D02*
X190397676Y-97950220D01*
X190397676Y-102000220D02*
X190397676Y-101570220D01*
X199347676Y-102000220D02*
X190397676Y-102000220D01*
X201347676Y-96110220D02*
X197756822Y-96110220D01*
X201347676Y-96550220D02*
X201347676Y-96110220D01*
X201347676Y-99000220D02*
X201347676Y-100000220D01*
X201347676Y-99000220D02*
X203947676Y-99000220D01*
X203947676Y-96550220D02*
X201347676Y-96550220D01*
X203947676Y-99000220D02*
X203947676Y-96550220D01*
X197756822Y-96110220D02*
G75*
G02*
X195462500Y-97950220I-2294320J510409D01*
G01*
X201347676Y-100000220D02*
G75*
G02*
X199347676Y-102000220I-2000004J4D01*
G01*
%TO.C,D7*%
X158810000Y-38400000D02*
X158810000Y-35200000D01*
X160710000Y-35200000D02*
X158810000Y-35200000D01*
X160710000Y-38400000D02*
X158810000Y-38400000D01*
X160710000Y-38400000D02*
X160710000Y-35200000D01*
%TO.C,LED44*%
X320050000Y-69200001D02*
X320050000Y-73200001D01*
X320050000Y-73200001D02*
X327650000Y-73200001D01*
X327650000Y-69200001D02*
X320050000Y-69200001D01*
X327650000Y-73200001D02*
X327650000Y-69200001D01*
%TO.C,LED29*%
X296237500Y-50149999D02*
X296237500Y-54149999D01*
X296237500Y-54149999D02*
X303837500Y-54149999D01*
X303837500Y-50149999D02*
X296237500Y-50149999D01*
X303837500Y-54149999D02*
X303837500Y-50149999D01*
%TO.C,LED57*%
X301000000Y-88249999D02*
X301000000Y-92249999D01*
X301000000Y-92249999D02*
X308600000Y-92249999D01*
X308600000Y-88249999D02*
X301000000Y-88249999D01*
X308600000Y-92249999D02*
X308600000Y-88249999D01*
%TO.C,SW45*%
X42591426Y-99120220D02*
X42591426Y-101570220D01*
X42591426Y-101570220D02*
X45141426Y-101570220D01*
X45141426Y-97950220D02*
X50206250Y-97950220D01*
X45141426Y-99120220D02*
X42591426Y-99120220D01*
X45141426Y-99120220D02*
X45141426Y-97950220D01*
X45141426Y-102000220D02*
X45141426Y-101570220D01*
X54091426Y-102000220D02*
X45141426Y-102000220D01*
X56091426Y-96110220D02*
X52500572Y-96110220D01*
X56091426Y-96550220D02*
X56091426Y-96110220D01*
X56091426Y-99000220D02*
X56091426Y-100000220D01*
X56091426Y-99000220D02*
X58691426Y-99000220D01*
X58691426Y-96550220D02*
X56091426Y-96550220D01*
X58691426Y-99000220D02*
X58691426Y-96550220D01*
X52500572Y-96110220D02*
G75*
G02*
X50206250Y-97950220I-2294320J510409D01*
G01*
X56091426Y-100000220D02*
G75*
G02*
X54091426Y-102000220I-2000004J4D01*
G01*
%TO.C,D15*%
X314650000Y-38400000D02*
X314650000Y-35200000D01*
X316550000Y-35200000D02*
X314650000Y-35200000D01*
X316550000Y-38400000D02*
X314650000Y-38400000D01*
X316550000Y-38400000D02*
X316550000Y-35200000D01*
%TO.C,LED14*%
X291475000Y-31100001D02*
X291475000Y-35100001D01*
X291475000Y-35100001D02*
X299075000Y-35100001D01*
X299075000Y-31100001D02*
X291475000Y-31100001D01*
X299075000Y-35100001D02*
X299075000Y-31100001D01*
%TO.C,D24*%
X206435000Y-57450000D02*
X206435000Y-54250000D01*
X208335000Y-54250000D02*
X206435000Y-54250000D01*
X208335000Y-57450000D02*
X206435000Y-57450000D01*
X208335000Y-57450000D02*
X208335000Y-54250000D01*
%TO.C,J4*%
X309150000Y-61220000D02*
X315950000Y-61220000D01*
X309150000Y-67780000D02*
X309150000Y-61220000D01*
X315950000Y-61220000D02*
X315950000Y-67780000D01*
X315950000Y-67780000D02*
X309150000Y-67780000D01*
%TO.C,LED18*%
X81925000Y-50149999D02*
X81925000Y-54149999D01*
X81925000Y-54149999D02*
X89525000Y-54149999D01*
X89525000Y-50149999D02*
X81925000Y-50149999D01*
X89525000Y-54149999D02*
X89525000Y-50149999D01*
%TO.C,D19*%
X111185000Y-57450000D02*
X111185000Y-54250000D01*
X113085000Y-54250000D02*
X111185000Y-54250000D01*
X113085000Y-57450000D02*
X111185000Y-57450000D01*
X113085000Y-57450000D02*
X113085000Y-54250000D01*
%TO.C,D2*%
X63560000Y-38400000D02*
X63560000Y-35200000D01*
X65460000Y-35200000D02*
X63560000Y-35200000D01*
X65460000Y-38400000D02*
X63560000Y-38400000D01*
X65460000Y-38400000D02*
X65460000Y-35200000D01*
%TO.C,SW19*%
X97360176Y-61020220D02*
X97360176Y-63470220D01*
X97360176Y-63470220D02*
X99910176Y-63470220D01*
X99910176Y-59850220D02*
X104975000Y-59850220D01*
X99910176Y-61020220D02*
X97360176Y-61020220D01*
X99910176Y-61020220D02*
X99910176Y-59850220D01*
X99910176Y-63900220D02*
X99910176Y-63470220D01*
X108860176Y-63900220D02*
X99910176Y-63900220D01*
X110860176Y-58010220D02*
X107269322Y-58010220D01*
X110860176Y-58450220D02*
X110860176Y-58010220D01*
X110860176Y-60900220D02*
X110860176Y-61900220D01*
X110860176Y-60900220D02*
X113460176Y-60900220D01*
X113460176Y-58450220D02*
X110860176Y-58450220D01*
X113460176Y-60900220D02*
X113460176Y-58450220D01*
X107269322Y-58010220D02*
G75*
G02*
X104975000Y-59850220I-2294320J510409D01*
G01*
X110860176Y-61900220D02*
G75*
G02*
X108860176Y-63900220I-2000004J4D01*
G01*
%TO.C,SW17*%
X59260176Y-61020220D02*
X59260176Y-63470220D01*
X59260176Y-63470220D02*
X61810176Y-63470220D01*
X61810176Y-59850220D02*
X66875000Y-59850220D01*
X61810176Y-61020220D02*
X59260176Y-61020220D01*
X61810176Y-61020220D02*
X61810176Y-59850220D01*
X61810176Y-63900220D02*
X61810176Y-63470220D01*
X70760176Y-63900220D02*
X61810176Y-63900220D01*
X72760176Y-58010220D02*
X69169322Y-58010220D01*
X72760176Y-58450220D02*
X72760176Y-58010220D01*
X72760176Y-60900220D02*
X72760176Y-61900220D01*
X72760176Y-60900220D02*
X75360176Y-60900220D01*
X75360176Y-58450220D02*
X72760176Y-58450220D01*
X75360176Y-60900220D02*
X75360176Y-58450220D01*
X69169322Y-58010220D02*
G75*
G02*
X66875000Y-59850220I-2294320J510409D01*
G01*
X72760176Y-61900220D02*
G75*
G02*
X70760176Y-63900220I-2000004J4D01*
G01*
%TO.C,D39*%
X211197500Y-76500000D02*
X211197500Y-73300000D01*
X213097500Y-73300000D02*
X211197500Y-73300000D01*
X213097500Y-76500000D02*
X211197500Y-76500000D01*
X213097500Y-76500000D02*
X213097500Y-73300000D01*
%TD*%
M02*
