%TF.GenerationSoftware,KiCad,Pcbnew,9.0.2*%
%TF.CreationDate,2025-06-21T23:14:43+02:00*%
%TF.ProjectId,MOD65,4d4f4436-352e-46b6-9963-61645f706362,2*%
%TF.SameCoordinates,Original*%
%TF.FileFunction,AssemblyDrawing,Top*%
%FSLAX46Y46*%
G04 Gerber Fmt 4.6, Leading zero omitted, Abs format (unit mm)*
G04 Created by KiCad (PCBNEW 9.0.2) date 2025-06-21 23:14:43*
%MOMM*%
%LPD*%
G01*
G04 APERTURE LIST*
%ADD10C,0.150000*%
%ADD11C,0.120000*%
%ADD12C,0.100000*%
G04 APERTURE END LIST*
D10*
X316290476Y-45507200D02*
X316433333Y-45554819D01*
X316433333Y-45554819D02*
X316671428Y-45554819D01*
X316671428Y-45554819D02*
X316766666Y-45507200D01*
X316766666Y-45507200D02*
X316814285Y-45459580D01*
X316814285Y-45459580D02*
X316861904Y-45364342D01*
X316861904Y-45364342D02*
X316861904Y-45269104D01*
X316861904Y-45269104D02*
X316814285Y-45173866D01*
X316814285Y-45173866D02*
X316766666Y-45126247D01*
X316766666Y-45126247D02*
X316671428Y-45078628D01*
X316671428Y-45078628D02*
X316480952Y-45031009D01*
X316480952Y-45031009D02*
X316385714Y-44983390D01*
X316385714Y-44983390D02*
X316338095Y-44935771D01*
X316338095Y-44935771D02*
X316290476Y-44840533D01*
X316290476Y-44840533D02*
X316290476Y-44745295D01*
X316290476Y-44745295D02*
X316338095Y-44650057D01*
X316338095Y-44650057D02*
X316385714Y-44602438D01*
X316385714Y-44602438D02*
X316480952Y-44554819D01*
X316480952Y-44554819D02*
X316719047Y-44554819D01*
X316719047Y-44554819D02*
X316861904Y-44602438D01*
X317195238Y-44554819D02*
X317433333Y-45554819D01*
X317433333Y-45554819D02*
X317623809Y-44840533D01*
X317623809Y-44840533D02*
X317814285Y-45554819D01*
X317814285Y-45554819D02*
X318052381Y-44554819D01*
X318957142Y-45554819D02*
X318385714Y-45554819D01*
X318671428Y-45554819D02*
X318671428Y-44554819D01*
X318671428Y-44554819D02*
X318576190Y-44697676D01*
X318576190Y-44697676D02*
X318480952Y-44792914D01*
X318480952Y-44792914D02*
X318385714Y-44840533D01*
X319861904Y-44554819D02*
X319385714Y-44554819D01*
X319385714Y-44554819D02*
X319338095Y-45031009D01*
X319338095Y-45031009D02*
X319385714Y-44983390D01*
X319385714Y-44983390D02*
X319480952Y-44935771D01*
X319480952Y-44935771D02*
X319719047Y-44935771D01*
X319719047Y-44935771D02*
X319814285Y-44983390D01*
X319814285Y-44983390D02*
X319861904Y-45031009D01*
X319861904Y-45031009D02*
X319909523Y-45126247D01*
X319909523Y-45126247D02*
X319909523Y-45364342D01*
X319909523Y-45364342D02*
X319861904Y-45459580D01*
X319861904Y-45459580D02*
X319814285Y-45507200D01*
X319814285Y-45507200D02*
X319719047Y-45554819D01*
X319719047Y-45554819D02*
X319480952Y-45554819D01*
X319480952Y-45554819D02*
X319385714Y-45507200D01*
X319385714Y-45507200D02*
X319338095Y-45459580D01*
X322040476Y-38507200D02*
X322183333Y-38554819D01*
X322183333Y-38554819D02*
X322421428Y-38554819D01*
X322421428Y-38554819D02*
X322516666Y-38507200D01*
X322516666Y-38507200D02*
X322564285Y-38459580D01*
X322564285Y-38459580D02*
X322611904Y-38364342D01*
X322611904Y-38364342D02*
X322611904Y-38269104D01*
X322611904Y-38269104D02*
X322564285Y-38173866D01*
X322564285Y-38173866D02*
X322516666Y-38126247D01*
X322516666Y-38126247D02*
X322421428Y-38078628D01*
X322421428Y-38078628D02*
X322230952Y-38031009D01*
X322230952Y-38031009D02*
X322135714Y-37983390D01*
X322135714Y-37983390D02*
X322088095Y-37935771D01*
X322088095Y-37935771D02*
X322040476Y-37840533D01*
X322040476Y-37840533D02*
X322040476Y-37745295D01*
X322040476Y-37745295D02*
X322088095Y-37650057D01*
X322088095Y-37650057D02*
X322135714Y-37602438D01*
X322135714Y-37602438D02*
X322230952Y-37554819D01*
X322230952Y-37554819D02*
X322469047Y-37554819D01*
X322469047Y-37554819D02*
X322611904Y-37602438D01*
X322945238Y-37554819D02*
X323183333Y-38554819D01*
X323183333Y-38554819D02*
X323373809Y-37840533D01*
X323373809Y-37840533D02*
X323564285Y-38554819D01*
X323564285Y-38554819D02*
X323802381Y-37554819D01*
X324707142Y-38554819D02*
X324135714Y-38554819D01*
X324421428Y-38554819D02*
X324421428Y-37554819D01*
X324421428Y-37554819D02*
X324326190Y-37697676D01*
X324326190Y-37697676D02*
X324230952Y-37792914D01*
X324230952Y-37792914D02*
X324135714Y-37840533D01*
X325611904Y-37554819D02*
X325135714Y-37554819D01*
X325135714Y-37554819D02*
X325088095Y-38031009D01*
X325088095Y-38031009D02*
X325135714Y-37983390D01*
X325135714Y-37983390D02*
X325230952Y-37935771D01*
X325230952Y-37935771D02*
X325469047Y-37935771D01*
X325469047Y-37935771D02*
X325564285Y-37983390D01*
X325564285Y-37983390D02*
X325611904Y-38031009D01*
X325611904Y-38031009D02*
X325659523Y-38126247D01*
X325659523Y-38126247D02*
X325659523Y-38364342D01*
X325659523Y-38364342D02*
X325611904Y-38459580D01*
X325611904Y-38459580D02*
X325564285Y-38507200D01*
X325564285Y-38507200D02*
X325469047Y-38554819D01*
X325469047Y-38554819D02*
X325230952Y-38554819D01*
X325230952Y-38554819D02*
X325135714Y-38507200D01*
X325135714Y-38507200D02*
X325088095Y-38459580D01*
X124840476Y-112657200D02*
X124983333Y-112704819D01*
X124983333Y-112704819D02*
X125221428Y-112704819D01*
X125221428Y-112704819D02*
X125316666Y-112657200D01*
X125316666Y-112657200D02*
X125364285Y-112609580D01*
X125364285Y-112609580D02*
X125411904Y-112514342D01*
X125411904Y-112514342D02*
X125411904Y-112419104D01*
X125411904Y-112419104D02*
X125364285Y-112323866D01*
X125364285Y-112323866D02*
X125316666Y-112276247D01*
X125316666Y-112276247D02*
X125221428Y-112228628D01*
X125221428Y-112228628D02*
X125030952Y-112181009D01*
X125030952Y-112181009D02*
X124935714Y-112133390D01*
X124935714Y-112133390D02*
X124888095Y-112085771D01*
X124888095Y-112085771D02*
X124840476Y-111990533D01*
X124840476Y-111990533D02*
X124840476Y-111895295D01*
X124840476Y-111895295D02*
X124888095Y-111800057D01*
X124888095Y-111800057D02*
X124935714Y-111752438D01*
X124935714Y-111752438D02*
X125030952Y-111704819D01*
X125030952Y-111704819D02*
X125269047Y-111704819D01*
X125269047Y-111704819D02*
X125411904Y-111752438D01*
X125745238Y-111704819D02*
X125983333Y-112704819D01*
X125983333Y-112704819D02*
X126173809Y-111990533D01*
X126173809Y-111990533D02*
X126364285Y-112704819D01*
X126364285Y-112704819D02*
X126602381Y-111704819D01*
X127411904Y-111704819D02*
X127221428Y-111704819D01*
X127221428Y-111704819D02*
X127126190Y-111752438D01*
X127126190Y-111752438D02*
X127078571Y-111800057D01*
X127078571Y-111800057D02*
X126983333Y-111942914D01*
X126983333Y-111942914D02*
X126935714Y-112133390D01*
X126935714Y-112133390D02*
X126935714Y-112514342D01*
X126935714Y-112514342D02*
X126983333Y-112609580D01*
X126983333Y-112609580D02*
X127030952Y-112657200D01*
X127030952Y-112657200D02*
X127126190Y-112704819D01*
X127126190Y-112704819D02*
X127316666Y-112704819D01*
X127316666Y-112704819D02*
X127411904Y-112657200D01*
X127411904Y-112657200D02*
X127459523Y-112609580D01*
X127459523Y-112609580D02*
X127507142Y-112514342D01*
X127507142Y-112514342D02*
X127507142Y-112276247D01*
X127507142Y-112276247D02*
X127459523Y-112181009D01*
X127459523Y-112181009D02*
X127411904Y-112133390D01*
X127411904Y-112133390D02*
X127316666Y-112085771D01*
X127316666Y-112085771D02*
X127126190Y-112085771D01*
X127126190Y-112085771D02*
X127030952Y-112133390D01*
X127030952Y-112133390D02*
X126983333Y-112181009D01*
X126983333Y-112181009D02*
X126935714Y-112276247D01*
X128078571Y-112133390D02*
X127983333Y-112085771D01*
X127983333Y-112085771D02*
X127935714Y-112038152D01*
X127935714Y-112038152D02*
X127888095Y-111942914D01*
X127888095Y-111942914D02*
X127888095Y-111895295D01*
X127888095Y-111895295D02*
X127935714Y-111800057D01*
X127935714Y-111800057D02*
X127983333Y-111752438D01*
X127983333Y-111752438D02*
X128078571Y-111704819D01*
X128078571Y-111704819D02*
X128269047Y-111704819D01*
X128269047Y-111704819D02*
X128364285Y-111752438D01*
X128364285Y-111752438D02*
X128411904Y-111800057D01*
X128411904Y-111800057D02*
X128459523Y-111895295D01*
X128459523Y-111895295D02*
X128459523Y-111942914D01*
X128459523Y-111942914D02*
X128411904Y-112038152D01*
X128411904Y-112038152D02*
X128364285Y-112085771D01*
X128364285Y-112085771D02*
X128269047Y-112133390D01*
X128269047Y-112133390D02*
X128078571Y-112133390D01*
X128078571Y-112133390D02*
X127983333Y-112181009D01*
X127983333Y-112181009D02*
X127935714Y-112228628D01*
X127935714Y-112228628D02*
X127888095Y-112323866D01*
X127888095Y-112323866D02*
X127888095Y-112514342D01*
X127888095Y-112514342D02*
X127935714Y-112609580D01*
X127935714Y-112609580D02*
X127983333Y-112657200D01*
X127983333Y-112657200D02*
X128078571Y-112704819D01*
X128078571Y-112704819D02*
X128269047Y-112704819D01*
X128269047Y-112704819D02*
X128364285Y-112657200D01*
X128364285Y-112657200D02*
X128411904Y-112609580D01*
X128411904Y-112609580D02*
X128459523Y-112514342D01*
X128459523Y-112514342D02*
X128459523Y-112323866D01*
X128459523Y-112323866D02*
X128411904Y-112228628D01*
X128411904Y-112228628D02*
X128364285Y-112181009D01*
X128364285Y-112181009D02*
X128269047Y-112133390D01*
X124840476Y-112657200D02*
X124983333Y-112704819D01*
X124983333Y-112704819D02*
X125221428Y-112704819D01*
X125221428Y-112704819D02*
X125316666Y-112657200D01*
X125316666Y-112657200D02*
X125364285Y-112609580D01*
X125364285Y-112609580D02*
X125411904Y-112514342D01*
X125411904Y-112514342D02*
X125411904Y-112419104D01*
X125411904Y-112419104D02*
X125364285Y-112323866D01*
X125364285Y-112323866D02*
X125316666Y-112276247D01*
X125316666Y-112276247D02*
X125221428Y-112228628D01*
X125221428Y-112228628D02*
X125030952Y-112181009D01*
X125030952Y-112181009D02*
X124935714Y-112133390D01*
X124935714Y-112133390D02*
X124888095Y-112085771D01*
X124888095Y-112085771D02*
X124840476Y-111990533D01*
X124840476Y-111990533D02*
X124840476Y-111895295D01*
X124840476Y-111895295D02*
X124888095Y-111800057D01*
X124888095Y-111800057D02*
X124935714Y-111752438D01*
X124935714Y-111752438D02*
X125030952Y-111704819D01*
X125030952Y-111704819D02*
X125269047Y-111704819D01*
X125269047Y-111704819D02*
X125411904Y-111752438D01*
X125745238Y-111704819D02*
X125983333Y-112704819D01*
X125983333Y-112704819D02*
X126173809Y-111990533D01*
X126173809Y-111990533D02*
X126364285Y-112704819D01*
X126364285Y-112704819D02*
X126602381Y-111704819D01*
X127411904Y-111704819D02*
X127221428Y-111704819D01*
X127221428Y-111704819D02*
X127126190Y-111752438D01*
X127126190Y-111752438D02*
X127078571Y-111800057D01*
X127078571Y-111800057D02*
X126983333Y-111942914D01*
X126983333Y-111942914D02*
X126935714Y-112133390D01*
X126935714Y-112133390D02*
X126935714Y-112514342D01*
X126935714Y-112514342D02*
X126983333Y-112609580D01*
X126983333Y-112609580D02*
X127030952Y-112657200D01*
X127030952Y-112657200D02*
X127126190Y-112704819D01*
X127126190Y-112704819D02*
X127316666Y-112704819D01*
X127316666Y-112704819D02*
X127411904Y-112657200D01*
X127411904Y-112657200D02*
X127459523Y-112609580D01*
X127459523Y-112609580D02*
X127507142Y-112514342D01*
X127507142Y-112514342D02*
X127507142Y-112276247D01*
X127507142Y-112276247D02*
X127459523Y-112181009D01*
X127459523Y-112181009D02*
X127411904Y-112133390D01*
X127411904Y-112133390D02*
X127316666Y-112085771D01*
X127316666Y-112085771D02*
X127126190Y-112085771D01*
X127126190Y-112085771D02*
X127030952Y-112133390D01*
X127030952Y-112133390D02*
X126983333Y-112181009D01*
X126983333Y-112181009D02*
X126935714Y-112276247D01*
X128078571Y-112133390D02*
X127983333Y-112085771D01*
X127983333Y-112085771D02*
X127935714Y-112038152D01*
X127935714Y-112038152D02*
X127888095Y-111942914D01*
X127888095Y-111942914D02*
X127888095Y-111895295D01*
X127888095Y-111895295D02*
X127935714Y-111800057D01*
X127935714Y-111800057D02*
X127983333Y-111752438D01*
X127983333Y-111752438D02*
X128078571Y-111704819D01*
X128078571Y-111704819D02*
X128269047Y-111704819D01*
X128269047Y-111704819D02*
X128364285Y-111752438D01*
X128364285Y-111752438D02*
X128411904Y-111800057D01*
X128411904Y-111800057D02*
X128459523Y-111895295D01*
X128459523Y-111895295D02*
X128459523Y-111942914D01*
X128459523Y-111942914D02*
X128411904Y-112038152D01*
X128411904Y-112038152D02*
X128364285Y-112085771D01*
X128364285Y-112085771D02*
X128269047Y-112133390D01*
X128269047Y-112133390D02*
X128078571Y-112133390D01*
X128078571Y-112133390D02*
X127983333Y-112181009D01*
X127983333Y-112181009D02*
X127935714Y-112228628D01*
X127935714Y-112228628D02*
X127888095Y-112323866D01*
X127888095Y-112323866D02*
X127888095Y-112514342D01*
X127888095Y-112514342D02*
X127935714Y-112609580D01*
X127935714Y-112609580D02*
X127983333Y-112657200D01*
X127983333Y-112657200D02*
X128078571Y-112704819D01*
X128078571Y-112704819D02*
X128269047Y-112704819D01*
X128269047Y-112704819D02*
X128364285Y-112657200D01*
X128364285Y-112657200D02*
X128411904Y-112609580D01*
X128411904Y-112609580D02*
X128459523Y-112514342D01*
X128459523Y-112514342D02*
X128459523Y-112323866D01*
X128459523Y-112323866D02*
X128411904Y-112228628D01*
X128411904Y-112228628D02*
X128364285Y-112181009D01*
X128364285Y-112181009D02*
X128269047Y-112133390D01*
X135540476Y-112657200D02*
X135683333Y-112704819D01*
X135683333Y-112704819D02*
X135921428Y-112704819D01*
X135921428Y-112704819D02*
X136016666Y-112657200D01*
X136016666Y-112657200D02*
X136064285Y-112609580D01*
X136064285Y-112609580D02*
X136111904Y-112514342D01*
X136111904Y-112514342D02*
X136111904Y-112419104D01*
X136111904Y-112419104D02*
X136064285Y-112323866D01*
X136064285Y-112323866D02*
X136016666Y-112276247D01*
X136016666Y-112276247D02*
X135921428Y-112228628D01*
X135921428Y-112228628D02*
X135730952Y-112181009D01*
X135730952Y-112181009D02*
X135635714Y-112133390D01*
X135635714Y-112133390D02*
X135588095Y-112085771D01*
X135588095Y-112085771D02*
X135540476Y-111990533D01*
X135540476Y-111990533D02*
X135540476Y-111895295D01*
X135540476Y-111895295D02*
X135588095Y-111800057D01*
X135588095Y-111800057D02*
X135635714Y-111752438D01*
X135635714Y-111752438D02*
X135730952Y-111704819D01*
X135730952Y-111704819D02*
X135969047Y-111704819D01*
X135969047Y-111704819D02*
X136111904Y-111752438D01*
X136445238Y-111704819D02*
X136683333Y-112704819D01*
X136683333Y-112704819D02*
X136873809Y-111990533D01*
X136873809Y-111990533D02*
X137064285Y-112704819D01*
X137064285Y-112704819D02*
X137302381Y-111704819D01*
X138111904Y-111704819D02*
X137921428Y-111704819D01*
X137921428Y-111704819D02*
X137826190Y-111752438D01*
X137826190Y-111752438D02*
X137778571Y-111800057D01*
X137778571Y-111800057D02*
X137683333Y-111942914D01*
X137683333Y-111942914D02*
X137635714Y-112133390D01*
X137635714Y-112133390D02*
X137635714Y-112514342D01*
X137635714Y-112514342D02*
X137683333Y-112609580D01*
X137683333Y-112609580D02*
X137730952Y-112657200D01*
X137730952Y-112657200D02*
X137826190Y-112704819D01*
X137826190Y-112704819D02*
X138016666Y-112704819D01*
X138016666Y-112704819D02*
X138111904Y-112657200D01*
X138111904Y-112657200D02*
X138159523Y-112609580D01*
X138159523Y-112609580D02*
X138207142Y-112514342D01*
X138207142Y-112514342D02*
X138207142Y-112276247D01*
X138207142Y-112276247D02*
X138159523Y-112181009D01*
X138159523Y-112181009D02*
X138111904Y-112133390D01*
X138111904Y-112133390D02*
X138016666Y-112085771D01*
X138016666Y-112085771D02*
X137826190Y-112085771D01*
X137826190Y-112085771D02*
X137730952Y-112133390D01*
X137730952Y-112133390D02*
X137683333Y-112181009D01*
X137683333Y-112181009D02*
X137635714Y-112276247D01*
X138683333Y-112704819D02*
X138873809Y-112704819D01*
X138873809Y-112704819D02*
X138969047Y-112657200D01*
X138969047Y-112657200D02*
X139016666Y-112609580D01*
X139016666Y-112609580D02*
X139111904Y-112466723D01*
X139111904Y-112466723D02*
X139159523Y-112276247D01*
X139159523Y-112276247D02*
X139159523Y-111895295D01*
X139159523Y-111895295D02*
X139111904Y-111800057D01*
X139111904Y-111800057D02*
X139064285Y-111752438D01*
X139064285Y-111752438D02*
X138969047Y-111704819D01*
X138969047Y-111704819D02*
X138778571Y-111704819D01*
X138778571Y-111704819D02*
X138683333Y-111752438D01*
X138683333Y-111752438D02*
X138635714Y-111800057D01*
X138635714Y-111800057D02*
X138588095Y-111895295D01*
X138588095Y-111895295D02*
X138588095Y-112133390D01*
X138588095Y-112133390D02*
X138635714Y-112228628D01*
X138635714Y-112228628D02*
X138683333Y-112276247D01*
X138683333Y-112276247D02*
X138778571Y-112323866D01*
X138778571Y-112323866D02*
X138969047Y-112323866D01*
X138969047Y-112323866D02*
X139064285Y-112276247D01*
X139064285Y-112276247D02*
X139111904Y-112228628D01*
X139111904Y-112228628D02*
X139159523Y-112133390D01*
X135540476Y-112657200D02*
X135683333Y-112704819D01*
X135683333Y-112704819D02*
X135921428Y-112704819D01*
X135921428Y-112704819D02*
X136016666Y-112657200D01*
X136016666Y-112657200D02*
X136064285Y-112609580D01*
X136064285Y-112609580D02*
X136111904Y-112514342D01*
X136111904Y-112514342D02*
X136111904Y-112419104D01*
X136111904Y-112419104D02*
X136064285Y-112323866D01*
X136064285Y-112323866D02*
X136016666Y-112276247D01*
X136016666Y-112276247D02*
X135921428Y-112228628D01*
X135921428Y-112228628D02*
X135730952Y-112181009D01*
X135730952Y-112181009D02*
X135635714Y-112133390D01*
X135635714Y-112133390D02*
X135588095Y-112085771D01*
X135588095Y-112085771D02*
X135540476Y-111990533D01*
X135540476Y-111990533D02*
X135540476Y-111895295D01*
X135540476Y-111895295D02*
X135588095Y-111800057D01*
X135588095Y-111800057D02*
X135635714Y-111752438D01*
X135635714Y-111752438D02*
X135730952Y-111704819D01*
X135730952Y-111704819D02*
X135969047Y-111704819D01*
X135969047Y-111704819D02*
X136111904Y-111752438D01*
X136445238Y-111704819D02*
X136683333Y-112704819D01*
X136683333Y-112704819D02*
X136873809Y-111990533D01*
X136873809Y-111990533D02*
X137064285Y-112704819D01*
X137064285Y-112704819D02*
X137302381Y-111704819D01*
X138111904Y-111704819D02*
X137921428Y-111704819D01*
X137921428Y-111704819D02*
X137826190Y-111752438D01*
X137826190Y-111752438D02*
X137778571Y-111800057D01*
X137778571Y-111800057D02*
X137683333Y-111942914D01*
X137683333Y-111942914D02*
X137635714Y-112133390D01*
X137635714Y-112133390D02*
X137635714Y-112514342D01*
X137635714Y-112514342D02*
X137683333Y-112609580D01*
X137683333Y-112609580D02*
X137730952Y-112657200D01*
X137730952Y-112657200D02*
X137826190Y-112704819D01*
X137826190Y-112704819D02*
X138016666Y-112704819D01*
X138016666Y-112704819D02*
X138111904Y-112657200D01*
X138111904Y-112657200D02*
X138159523Y-112609580D01*
X138159523Y-112609580D02*
X138207142Y-112514342D01*
X138207142Y-112514342D02*
X138207142Y-112276247D01*
X138207142Y-112276247D02*
X138159523Y-112181009D01*
X138159523Y-112181009D02*
X138111904Y-112133390D01*
X138111904Y-112133390D02*
X138016666Y-112085771D01*
X138016666Y-112085771D02*
X137826190Y-112085771D01*
X137826190Y-112085771D02*
X137730952Y-112133390D01*
X137730952Y-112133390D02*
X137683333Y-112181009D01*
X137683333Y-112181009D02*
X137635714Y-112276247D01*
X138683333Y-112704819D02*
X138873809Y-112704819D01*
X138873809Y-112704819D02*
X138969047Y-112657200D01*
X138969047Y-112657200D02*
X139016666Y-112609580D01*
X139016666Y-112609580D02*
X139111904Y-112466723D01*
X139111904Y-112466723D02*
X139159523Y-112276247D01*
X139159523Y-112276247D02*
X139159523Y-111895295D01*
X139159523Y-111895295D02*
X139111904Y-111800057D01*
X139111904Y-111800057D02*
X139064285Y-111752438D01*
X139064285Y-111752438D02*
X138969047Y-111704819D01*
X138969047Y-111704819D02*
X138778571Y-111704819D01*
X138778571Y-111704819D02*
X138683333Y-111752438D01*
X138683333Y-111752438D02*
X138635714Y-111800057D01*
X138635714Y-111800057D02*
X138588095Y-111895295D01*
X138588095Y-111895295D02*
X138588095Y-112133390D01*
X138588095Y-112133390D02*
X138635714Y-112228628D01*
X138635714Y-112228628D02*
X138683333Y-112276247D01*
X138683333Y-112276247D02*
X138778571Y-112323866D01*
X138778571Y-112323866D02*
X138969047Y-112323866D01*
X138969047Y-112323866D02*
X139064285Y-112276247D01*
X139064285Y-112276247D02*
X139111904Y-112228628D01*
X139111904Y-112228628D02*
X139159523Y-112133390D01*
D11*
%TO.C,SW15*%
X318050000Y-32100000D02*
X328550000Y-32100000D01*
X318050000Y-44100000D02*
X318050000Y-32100000D01*
X328550000Y-32100000D02*
X329650000Y-33100000D01*
X329650000Y-33100000D02*
X329650000Y-44100000D01*
X329650000Y-44100000D02*
X318050000Y-44100000D01*
D12*
%TO.C,SW68*%
X123450000Y-113900000D02*
X123450000Y-114400000D01*
X123450000Y-114400000D02*
X124450000Y-114400000D01*
X123450000Y-117600000D02*
X124450000Y-117600000D01*
X123450000Y-118100000D02*
X123450000Y-117600000D01*
X123950000Y-113900000D02*
X123950000Y-114400000D01*
X123950000Y-118100000D02*
X123950000Y-117600000D01*
X124050000Y-114800000D02*
X124050000Y-117200000D01*
X124050000Y-117200000D02*
X125450000Y-118600000D01*
X124650000Y-115000000D02*
X125650000Y-114000000D01*
X124650000Y-117000000D02*
X124650000Y-115000000D01*
X124950000Y-113900000D02*
X123450000Y-113900000D01*
X124950000Y-118100000D02*
X123450000Y-118100000D01*
X125450000Y-113400000D02*
X124050000Y-114800000D01*
X125450000Y-118600000D02*
X127850000Y-118600000D01*
X125650000Y-114000000D02*
X127650000Y-114000000D01*
X125650000Y-118000000D02*
X124650000Y-117000000D01*
X127650000Y-114000000D02*
X128650000Y-115000000D01*
X127650000Y-118000000D02*
X125650000Y-118000000D01*
X127850000Y-113400000D02*
X125450000Y-113400000D01*
X127850000Y-118600000D02*
X129250000Y-117200000D01*
X128350000Y-113900000D02*
X129850000Y-113900000D01*
X128350000Y-118100000D02*
X129850000Y-118100000D01*
X128650000Y-115000000D02*
X128650000Y-117000000D01*
X128650000Y-117000000D02*
X127650000Y-118000000D01*
X129250000Y-114800000D02*
X127850000Y-113400000D01*
X129250000Y-117200000D02*
X129250000Y-114800000D01*
X129350000Y-113900000D02*
X129350000Y-114400000D01*
X129350000Y-118100000D02*
X129350000Y-117600000D01*
X129850000Y-113900000D02*
X129850000Y-114400000D01*
X129850000Y-114400000D02*
X128850000Y-114400000D01*
X129850000Y-117600000D02*
X128850000Y-117600000D01*
X129850000Y-118100000D02*
X129850000Y-117600000D01*
X127650000Y-116000000D02*
G75*
G02*
X125650000Y-116000000I-1000000J0D01*
G01*
X125650000Y-116000000D02*
G75*
G02*
X127650000Y-116000000I1000000J0D01*
G01*
%TO.C,SW69*%
X134150000Y-113900000D02*
X134150000Y-114400000D01*
X134150000Y-114400000D02*
X135150000Y-114400000D01*
X134150000Y-117600000D02*
X135150000Y-117600000D01*
X134150000Y-118100000D02*
X134150000Y-117600000D01*
X134650000Y-113900000D02*
X134650000Y-114400000D01*
X134650000Y-118100000D02*
X134650000Y-117600000D01*
X134750000Y-114800000D02*
X134750000Y-117200000D01*
X134750000Y-117200000D02*
X136150000Y-118600000D01*
X135350000Y-115000000D02*
X136350000Y-114000000D01*
X135350000Y-117000000D02*
X135350000Y-115000000D01*
X135650000Y-113900000D02*
X134150000Y-113900000D01*
X135650000Y-118100000D02*
X134150000Y-118100000D01*
X136150000Y-113400000D02*
X134750000Y-114800000D01*
X136150000Y-118600000D02*
X138550000Y-118600000D01*
X136350000Y-114000000D02*
X138350000Y-114000000D01*
X136350000Y-118000000D02*
X135350000Y-117000000D01*
X138350000Y-114000000D02*
X139350000Y-115000000D01*
X138350000Y-118000000D02*
X136350000Y-118000000D01*
X138550000Y-113400000D02*
X136150000Y-113400000D01*
X138550000Y-118600000D02*
X139950000Y-117200000D01*
X139050000Y-113900000D02*
X140550000Y-113900000D01*
X139050000Y-118100000D02*
X140550000Y-118100000D01*
X139350000Y-115000000D02*
X139350000Y-117000000D01*
X139350000Y-117000000D02*
X138350000Y-118000000D01*
X139950000Y-114800000D02*
X138550000Y-113400000D01*
X139950000Y-117200000D02*
X139950000Y-114800000D01*
X140050000Y-113900000D02*
X140050000Y-114400000D01*
X140050000Y-118100000D02*
X140050000Y-117600000D01*
X140550000Y-113900000D02*
X140550000Y-114400000D01*
X140550000Y-114400000D02*
X139550000Y-114400000D01*
X140550000Y-117600000D02*
X139550000Y-117600000D01*
X140550000Y-118100000D02*
X140550000Y-117600000D01*
X138350000Y-116000000D02*
G75*
G02*
X136350000Y-116000000I-1000000J0D01*
G01*
X136350000Y-116000000D02*
G75*
G02*
X138350000Y-116000000I1000000J0D01*
G01*
%TD*%
X273783750Y-66615000D02*
X312003750Y-86448900D01*
X273783750Y-86448900D02*
X312003750Y-66615000D01*
X30896250Y-85665000D02*
X69116250Y-105498900D01*
X30896250Y-105498900D02*
X69116250Y-85665000D01*
X276165000Y-28515000D02*
X314385000Y-48348900D01*
X276165000Y-48348900D02*
X314385000Y-28515000D01*
X99952500Y-104051100D02*
X219135000Y-123885000D01*
X99952500Y-123885000D02*
X219135000Y-104051100D01*
M02*
