%TF.GenerationSoftware,KiCad,Pcbnew,9.0.2*%
%TF.CreationDate,2025-06-21T23:14:43+02:00*%
%TF.ProjectId,MOD65,4d4f4436-352e-46b6-9963-61645f706362,2*%
%TF.SameCoordinates,Original*%
%TF.FileFunction,Profile,NP*%
%FSLAX46Y46*%
G04 Gerber Fmt 4.6, Leading zero omitted, Abs format (unit mm)*
G04 Created by KiCad (PCBNEW 9.0.2) date 2025-06-21 23:14:43*
%MOMM*%
%LPD*%
G01*
G04 APERTURE LIST*
%TA.AperFunction,Profile*%
%ADD10C,0.200000*%
%TD*%
%TA.AperFunction,Profile*%
%ADD11C,0.050000*%
%TD*%
%TA.AperFunction,Profile*%
%ADD12C,0.100000*%
%TD*%
G04 APERTURE END LIST*
D10*
X299430035Y-123306451D02*
G75*
G02*
X298099997Y-122500002I-35J1499951D01*
G01*
X240126357Y-122499999D02*
G75*
G02*
X238796323Y-123306444I-1330057J693599D01*
G01*
X50450000Y-29912903D02*
G75*
G02*
X51780034Y-29106508I1330000J-693597D01*
G01*
X317150001Y-29912903D02*
G75*
G02*
X311563857Y-29912903I-2793072J1456451D01*
G01*
D11*
X315356929Y-47631432D02*
G75*
G02*
X313356929Y-47631432I-1000000J0D01*
G01*
X313356929Y-47631432D02*
G75*
G02*
X315356929Y-47631432I1000000J0D01*
G01*
D10*
X78201357Y-122499999D02*
G75*
G02*
X76871323Y-123306444I-1330057J693599D01*
G01*
X43533823Y-29106451D02*
X31381929Y-29106451D01*
X29131929Y-31356451D02*
G75*
G02*
X31381929Y-29106449I2250001J1D01*
G01*
X238796323Y-123306451D02*
X85117534Y-123306451D01*
X330631929Y-29106451D02*
X318480034Y-29106451D01*
X266206929Y-105506451D02*
G75*
G02*
X267456929Y-104256529I1249971J-49D01*
G01*
D11*
X186737500Y-66850000D02*
G75*
G02*
X184737500Y-66850000I-1000000J0D01*
G01*
X184737500Y-66850000D02*
G75*
G02*
X186737500Y-66850000I1000000J0D01*
G01*
D10*
X43533823Y-29106451D02*
G75*
G02*
X44863815Y-29912925I-23J-1499949D01*
G01*
X332881929Y-121056451D02*
X332881929Y-31356451D01*
X330631929Y-123306451D02*
X299430034Y-123306451D01*
X291183823Y-123306451D02*
X279031929Y-123306451D01*
X332881929Y-121056451D02*
G75*
G02*
X330631929Y-123306529I-2250029J-49D01*
G01*
X50450001Y-29912903D02*
G75*
G02*
X44863857Y-29912903I-2793072J1456451D01*
G01*
X85117535Y-123306451D02*
G75*
G02*
X83787497Y-122500002I-35J1499951D01*
G01*
X267456929Y-104256451D02*
X275531929Y-104256451D01*
X76871323Y-123306451D02*
X31381929Y-123306451D01*
X310233823Y-29106451D02*
X166080034Y-29106451D01*
X78201358Y-122499999D02*
G75*
G02*
X83787502Y-122499999I2793072J-1456451D01*
G01*
X266206929Y-121056451D02*
G75*
G02*
X263956929Y-123306529I-2250029J-49D01*
G01*
X157833823Y-29106451D02*
G75*
G02*
X159163815Y-29912925I-23J-1499949D01*
G01*
X310233823Y-29106451D02*
G75*
G02*
X311563815Y-29912925I-23J-1499949D01*
G01*
X31381929Y-123306451D02*
G75*
G02*
X29131949Y-121056451I-29J2249951D01*
G01*
X276781929Y-105506451D02*
X276781929Y-121056451D01*
D11*
X315356929Y-107452898D02*
G75*
G02*
X313356929Y-107452898I-1000000J0D01*
G01*
X313356929Y-107452898D02*
G75*
G02*
X315356929Y-107452898I1000000J0D01*
G01*
D10*
X29131929Y-121056451D02*
X29131929Y-31356451D01*
X266206929Y-105506451D02*
X266206929Y-121056451D01*
X275531929Y-104256451D02*
G75*
G02*
X276781949Y-105506451I-29J-1250049D01*
G01*
X317150000Y-29912903D02*
G75*
G02*
X318480034Y-29106508I1330000J-693597D01*
G01*
X292513857Y-122499999D02*
G75*
G02*
X291183823Y-123306444I-1330057J693599D01*
G01*
X330631929Y-29106451D02*
G75*
G02*
X332881949Y-31356451I-29J-2250049D01*
G01*
D11*
X54610054Y-114306431D02*
G75*
G02*
X52610054Y-114306431I-1000000J0D01*
G01*
X52610054Y-114306431D02*
G75*
G02*
X54610054Y-114306431I1000000J0D01*
G01*
D10*
X292513858Y-122499999D02*
G75*
G02*
X298099955Y-122500024I2793042J-1456401D01*
G01*
X164750000Y-29912903D02*
G75*
G02*
X166080034Y-29106508I1330000J-693597D01*
G01*
X164750001Y-29912903D02*
G75*
G02*
X159163857Y-29912903I-2793072J1456451D01*
G01*
X157833823Y-29106451D02*
X51780034Y-29106451D01*
X247042535Y-123306451D02*
G75*
G02*
X245712497Y-122500002I-35J1499951D01*
G01*
X240126358Y-122499999D02*
G75*
G02*
X245712455Y-122500024I2793042J-1456401D01*
G01*
D11*
X48656929Y-47480002D02*
G75*
G02*
X46656929Y-47480002I-1000000J0D01*
G01*
X46656929Y-47480002D02*
G75*
G02*
X48656929Y-47480002I1000000J0D01*
G01*
D10*
X263956929Y-123306451D02*
X247042534Y-123306451D01*
X279031929Y-123306451D02*
G75*
G02*
X276781949Y-121056451I-29J2249951D01*
G01*
D12*
%TO.C,LED51*%
X174512501Y-90952841D02*
X174512501Y-89547157D01*
X175418048Y-88750000D02*
X177006953Y-88750000D01*
X177006952Y-91749999D02*
X175418048Y-91749999D01*
X177912499Y-89547157D02*
X177912499Y-90952841D01*
X174463016Y-89330279D02*
G75*
G02*
X174512476Y-89547157I-450516J-216821D01*
G01*
X174463016Y-89330279D02*
G75*
G02*
X175165789Y-88681700I450514J216879D01*
G01*
X174512501Y-90952842D02*
G75*
G02*
X174463017Y-91169719I-500361J82D01*
G01*
X175165789Y-91818296D02*
G75*
G02*
X174463020Y-91169721I-252259J431696D01*
G01*
X175165790Y-91818298D02*
G75*
G02*
X175418048Y-91750000I252260J-431712D01*
G01*
X175418047Y-88749999D02*
G75*
G02*
X175165789Y-88681700I3J500009D01*
G01*
X177006952Y-91749999D02*
G75*
G02*
X177259211Y-91818298I-2J-500009D01*
G01*
X177259211Y-88681701D02*
G75*
G02*
X177006953Y-88750000I-252261J431710D01*
G01*
X177259211Y-88681701D02*
G75*
G02*
X177961985Y-89330279I252259J-431700D01*
G01*
X177912499Y-89547156D02*
G75*
G02*
X177961984Y-89330279I499990J1D01*
G01*
X177961984Y-91169718D02*
G75*
G02*
X177259211Y-91818298I-450514J-216880D01*
G01*
X177961984Y-91169719D02*
G75*
G02*
X177912499Y-90952841I450505J216876D01*
G01*
%TO.C,LED48*%
X117362501Y-90952841D02*
X117362501Y-89547157D01*
X118268048Y-88750000D02*
X119856953Y-88750000D01*
X119856952Y-91749999D02*
X118268048Y-91749999D01*
X120762499Y-89547157D02*
X120762499Y-90952841D01*
X117313016Y-89330279D02*
G75*
G02*
X117362476Y-89547157I-450516J-216821D01*
G01*
X117313016Y-89330279D02*
G75*
G02*
X118015789Y-88681700I450514J216879D01*
G01*
X117362501Y-90952842D02*
G75*
G02*
X117313017Y-91169719I-500361J82D01*
G01*
X118015789Y-91818296D02*
G75*
G02*
X117313020Y-91169721I-252259J431696D01*
G01*
X118015790Y-91818298D02*
G75*
G02*
X118268048Y-91750000I252260J-431712D01*
G01*
X118268047Y-88749999D02*
G75*
G02*
X118015789Y-88681700I3J500009D01*
G01*
X119856952Y-91749999D02*
G75*
G02*
X120109211Y-91818298I-2J-500009D01*
G01*
X120109211Y-88681701D02*
G75*
G02*
X119856953Y-88750000I-252261J431710D01*
G01*
X120109211Y-88681701D02*
G75*
G02*
X120811985Y-89330279I252259J-431700D01*
G01*
X120762499Y-89547156D02*
G75*
G02*
X120811984Y-89330279I499990J1D01*
G01*
X120811984Y-91169718D02*
G75*
G02*
X120109211Y-91818298I-450514J-216880D01*
G01*
X120811984Y-91169719D02*
G75*
G02*
X120762499Y-90952841I450505J216876D01*
G01*
%TO.C,LED45*%
X48306251Y-90952841D02*
X48306251Y-89547157D01*
X49211798Y-88750000D02*
X50800703Y-88750000D01*
X50800702Y-91749999D02*
X49211798Y-91749999D01*
X51706249Y-89547157D02*
X51706249Y-90952841D01*
X48256766Y-89330279D02*
G75*
G02*
X48306226Y-89547157I-450516J-216821D01*
G01*
X48256766Y-89330279D02*
G75*
G02*
X48959539Y-88681700I450514J216879D01*
G01*
X48306251Y-90952842D02*
G75*
G02*
X48256767Y-91169719I-500361J82D01*
G01*
X48959539Y-91818296D02*
G75*
G02*
X48256770Y-91169721I-252259J431696D01*
G01*
X48959540Y-91818298D02*
G75*
G02*
X49211798Y-91750000I252260J-431712D01*
G01*
X49211797Y-88749999D02*
G75*
G02*
X48959539Y-88681700I3J500009D01*
G01*
X50800702Y-91749999D02*
G75*
G02*
X51052961Y-91818298I-2J-500009D01*
G01*
X51052961Y-88681701D02*
G75*
G02*
X50800703Y-88750000I-252261J431710D01*
G01*
X51052961Y-88681701D02*
G75*
G02*
X51755735Y-89330279I252259J-431700D01*
G01*
X51706249Y-89547156D02*
G75*
G02*
X51755734Y-89330279I499990J1D01*
G01*
X51755734Y-91169718D02*
G75*
G02*
X51052961Y-91818298I-450514J-216880D01*
G01*
X51755734Y-91169719D02*
G75*
G02*
X51706249Y-90952841I450505J216876D01*
G01*
%TO.C,LED15*%
X322150001Y-38802843D02*
X322150001Y-37397159D01*
X323055548Y-36600001D02*
X324644452Y-36600001D01*
X324644452Y-39600000D02*
X323055547Y-39600000D01*
X325549999Y-37397159D02*
X325549999Y-38802843D01*
X322100516Y-37180281D02*
G75*
G02*
X322150001Y-37397159I-450505J-216876D01*
G01*
X322100516Y-37180282D02*
G75*
G02*
X322803289Y-36531702I450514J216880D01*
G01*
X322150001Y-38802844D02*
G75*
G02*
X322100516Y-39019721I-499990J-1D01*
G01*
X322803289Y-39668299D02*
G75*
G02*
X322100515Y-39019721I-252259J431700D01*
G01*
X322803289Y-39668299D02*
G75*
G02*
X323055547Y-39600000I252261J-431710D01*
G01*
X323055548Y-36600001D02*
G75*
G02*
X322803289Y-36531702I2J500009D01*
G01*
X324644453Y-39600001D02*
G75*
G02*
X324896711Y-39668300I-3J-500009D01*
G01*
X324896710Y-36531702D02*
G75*
G02*
X324644452Y-36600000I-252260J431712D01*
G01*
X324896711Y-36531704D02*
G75*
G02*
X325599480Y-37180279I252259J-431696D01*
G01*
X325549999Y-37397158D02*
G75*
G02*
X325599483Y-37180281I500361J-82D01*
G01*
X325599484Y-39019721D02*
G75*
G02*
X324896711Y-39668300I-450514J-216879D01*
G01*
X325599484Y-39019721D02*
G75*
G02*
X325550024Y-38802843I450516J216821D01*
G01*
%TO.C,LED65*%
X284050001Y-110002843D02*
X284050001Y-108597159D01*
X284955548Y-107800001D02*
X286544452Y-107800001D01*
X286544452Y-110800000D02*
X284955547Y-110800000D01*
X287449999Y-108597159D02*
X287449999Y-110002843D01*
X284000516Y-108380281D02*
G75*
G02*
X284050001Y-108597159I-450505J-216876D01*
G01*
X284000516Y-108380282D02*
G75*
G02*
X284703289Y-107731702I450514J216880D01*
G01*
X284050001Y-110002844D02*
G75*
G02*
X284000516Y-110219721I-499990J-1D01*
G01*
X284703289Y-110868299D02*
G75*
G02*
X284000515Y-110219721I-252259J431700D01*
G01*
X284703289Y-110868299D02*
G75*
G02*
X284955547Y-110800000I252261J-431710D01*
G01*
X284955548Y-107800001D02*
G75*
G02*
X284703289Y-107731702I2J500009D01*
G01*
X286544453Y-110800001D02*
G75*
G02*
X286796711Y-110868300I-3J-500009D01*
G01*
X286796710Y-107731702D02*
G75*
G02*
X286544452Y-107800000I-252260J431712D01*
G01*
X286796711Y-107731704D02*
G75*
G02*
X287499480Y-108380279I252259J-431696D01*
G01*
X287449999Y-108597158D02*
G75*
G02*
X287499483Y-108380281I500361J-82D01*
G01*
X287499484Y-110219721D02*
G75*
G02*
X286796711Y-110868300I-450514J-216879D01*
G01*
X287499484Y-110219721D02*
G75*
G02*
X287450024Y-110002843I450516J216821D01*
G01*
%TO.C,LED31*%
X38781251Y-71902843D02*
X38781251Y-70497159D01*
X39686798Y-69700001D02*
X41275702Y-69700001D01*
X41275702Y-72700000D02*
X39686797Y-72700000D01*
X42181249Y-70497159D02*
X42181249Y-71902843D01*
X38731766Y-70280281D02*
G75*
G02*
X38781251Y-70497159I-450505J-216876D01*
G01*
X38731766Y-70280282D02*
G75*
G02*
X39434539Y-69631702I450514J216880D01*
G01*
X38781251Y-71902844D02*
G75*
G02*
X38731766Y-72119721I-499990J-1D01*
G01*
X39434539Y-72768299D02*
G75*
G02*
X38731765Y-72119721I-252259J431700D01*
G01*
X39434539Y-72768299D02*
G75*
G02*
X39686797Y-72700000I252261J-431710D01*
G01*
X39686798Y-69700001D02*
G75*
G02*
X39434539Y-69631702I2J500009D01*
G01*
X41275703Y-72700001D02*
G75*
G02*
X41527961Y-72768300I-3J-500009D01*
G01*
X41527960Y-69631702D02*
G75*
G02*
X41275702Y-69700000I-252260J431712D01*
G01*
X41527961Y-69631704D02*
G75*
G02*
X42230730Y-70280279I252259J-431696D01*
G01*
X42181249Y-70497158D02*
G75*
G02*
X42230733Y-70280281I500361J-82D01*
G01*
X42230734Y-72119721D02*
G75*
G02*
X41527961Y-72768300I-450514J-216879D01*
G01*
X42230734Y-72119721D02*
G75*
G02*
X42181274Y-71902843I450516J216821D01*
G01*
%TO.C,LED64*%
X253093751Y-110002843D02*
X253093751Y-108597159D01*
X253999298Y-107800001D02*
X255588202Y-107800001D01*
X255588202Y-110800000D02*
X253999297Y-110800000D01*
X256493749Y-108597159D02*
X256493749Y-110002843D01*
X253044266Y-108380281D02*
G75*
G02*
X253093751Y-108597159I-450505J-216876D01*
G01*
X253044266Y-108380282D02*
G75*
G02*
X253747039Y-107731702I450514J216880D01*
G01*
X253093751Y-110002844D02*
G75*
G02*
X253044266Y-110219721I-499990J-1D01*
G01*
X253747039Y-110868299D02*
G75*
G02*
X253044265Y-110219721I-252259J431700D01*
G01*
X253747039Y-110868299D02*
G75*
G02*
X253999297Y-110800000I252261J-431710D01*
G01*
X253999298Y-107800001D02*
G75*
G02*
X253747039Y-107731702I2J500009D01*
G01*
X255588203Y-110800001D02*
G75*
G02*
X255840461Y-110868300I-3J-500009D01*
G01*
X255840460Y-107731702D02*
G75*
G02*
X255588202Y-107800000I-252260J431712D01*
G01*
X255840461Y-107731704D02*
G75*
G02*
X256543230Y-108380279I252259J-431696D01*
G01*
X256493749Y-108597158D02*
G75*
G02*
X256543233Y-108380281I500361J-82D01*
G01*
X256543234Y-110219721D02*
G75*
G02*
X255840461Y-110868300I-450514J-216879D01*
G01*
X256543234Y-110219721D02*
G75*
G02*
X256493774Y-110002843I450516J216821D01*
G01*
%TO.C,LED33*%
X88787501Y-71902843D02*
X88787501Y-70497159D01*
X89693048Y-69700001D02*
X91281952Y-69700001D01*
X91281952Y-72700000D02*
X89693047Y-72700000D01*
X92187499Y-70497159D02*
X92187499Y-71902843D01*
X88738016Y-70280281D02*
G75*
G02*
X88787501Y-70497159I-450505J-216876D01*
G01*
X88738016Y-70280282D02*
G75*
G02*
X89440789Y-69631702I450514J216880D01*
G01*
X88787501Y-71902844D02*
G75*
G02*
X88738016Y-72119721I-499990J-1D01*
G01*
X89440789Y-72768299D02*
G75*
G02*
X88738015Y-72119721I-252259J431700D01*
G01*
X89440789Y-72768299D02*
G75*
G02*
X89693047Y-72700000I252261J-431710D01*
G01*
X89693048Y-69700001D02*
G75*
G02*
X89440789Y-69631702I2J500009D01*
G01*
X91281953Y-72700001D02*
G75*
G02*
X91534211Y-72768300I-3J-500009D01*
G01*
X91534210Y-69631702D02*
G75*
G02*
X91281952Y-69700000I-252260J431712D01*
G01*
X91534211Y-69631704D02*
G75*
G02*
X92236980Y-70280279I252259J-431696D01*
G01*
X92187499Y-70497158D02*
G75*
G02*
X92236983Y-70280281I500361J-82D01*
G01*
X92236984Y-72119721D02*
G75*
G02*
X91534211Y-72768300I-450514J-216879D01*
G01*
X92236984Y-72119721D02*
G75*
G02*
X92187524Y-71902843I450516J216821D01*
G01*
%TO.C,LED26*%
X236425001Y-52852841D02*
X236425001Y-51447157D01*
X237330548Y-50650000D02*
X238919453Y-50650000D01*
X238919452Y-53649999D02*
X237330548Y-53649999D01*
X239824999Y-51447157D02*
X239824999Y-52852841D01*
X236375516Y-51230279D02*
G75*
G02*
X236424976Y-51447157I-450516J-216821D01*
G01*
X236375516Y-51230279D02*
G75*
G02*
X237078289Y-50581700I450514J216879D01*
G01*
X236425001Y-52852842D02*
G75*
G02*
X236375517Y-53069719I-500361J82D01*
G01*
X237078289Y-53718296D02*
G75*
G02*
X236375520Y-53069721I-252259J431696D01*
G01*
X237078290Y-53718298D02*
G75*
G02*
X237330548Y-53650000I252260J-431712D01*
G01*
X237330547Y-50649999D02*
G75*
G02*
X237078289Y-50581700I3J500009D01*
G01*
X238919452Y-53649999D02*
G75*
G02*
X239171711Y-53718298I-2J-500009D01*
G01*
X239171711Y-50581701D02*
G75*
G02*
X238919453Y-50650000I-252261J431710D01*
G01*
X239171711Y-50581701D02*
G75*
G02*
X239874485Y-51230279I252259J-431700D01*
G01*
X239824999Y-51447156D02*
G75*
G02*
X239874484Y-51230279I499990J1D01*
G01*
X239874484Y-53069718D02*
G75*
G02*
X239171711Y-53718298I-450514J-216880D01*
G01*
X239874484Y-53069719D02*
G75*
G02*
X239824999Y-52852841I450505J216876D01*
G01*
%TO.C,LED21*%
X141175001Y-52852841D02*
X141175001Y-51447157D01*
X142080548Y-50650000D02*
X143669453Y-50650000D01*
X143669452Y-53649999D02*
X142080548Y-53649999D01*
X144574999Y-51447157D02*
X144574999Y-52852841D01*
X141125516Y-51230279D02*
G75*
G02*
X141174976Y-51447157I-450516J-216821D01*
G01*
X141125516Y-51230279D02*
G75*
G02*
X141828289Y-50581700I450514J216879D01*
G01*
X141175001Y-52852842D02*
G75*
G02*
X141125517Y-53069719I-500361J82D01*
G01*
X141828289Y-53718296D02*
G75*
G02*
X141125520Y-53069721I-252259J431696D01*
G01*
X141828290Y-53718298D02*
G75*
G02*
X142080548Y-53650000I252260J-431712D01*
G01*
X142080547Y-50649999D02*
G75*
G02*
X141828289Y-50581700I3J500009D01*
G01*
X143669452Y-53649999D02*
G75*
G02*
X143921711Y-53718298I-2J-500009D01*
G01*
X143921711Y-50581701D02*
G75*
G02*
X143669453Y-50650000I-252261J431710D01*
G01*
X143921711Y-50581701D02*
G75*
G02*
X144624485Y-51230279I252259J-431700D01*
G01*
X144574999Y-51447156D02*
G75*
G02*
X144624484Y-51230279I499990J1D01*
G01*
X144624484Y-53069718D02*
G75*
G02*
X143921711Y-53718298I-450514J-216880D01*
G01*
X144624484Y-53069719D02*
G75*
G02*
X144574999Y-52852841I450505J216876D01*
G01*
%TO.C,LED6*%
X131650001Y-33802843D02*
X131650001Y-32397159D01*
X132555548Y-31600001D02*
X134144452Y-31600001D01*
X134144452Y-34600000D02*
X132555547Y-34600000D01*
X135049999Y-32397159D02*
X135049999Y-33802843D01*
X131600516Y-32180281D02*
G75*
G02*
X131650001Y-32397159I-450505J-216876D01*
G01*
X131600516Y-32180282D02*
G75*
G02*
X132303289Y-31531702I450514J216880D01*
G01*
X131650001Y-33802844D02*
G75*
G02*
X131600516Y-34019721I-499990J-1D01*
G01*
X132303289Y-34668299D02*
G75*
G02*
X131600515Y-34019721I-252259J431700D01*
G01*
X132303289Y-34668299D02*
G75*
G02*
X132555547Y-34600000I252261J-431710D01*
G01*
X132555548Y-31600001D02*
G75*
G02*
X132303289Y-31531702I2J500009D01*
G01*
X134144453Y-34600001D02*
G75*
G02*
X134396711Y-34668300I-3J-500009D01*
G01*
X134396710Y-31531702D02*
G75*
G02*
X134144452Y-31600000I-252260J431712D01*
G01*
X134396711Y-31531704D02*
G75*
G02*
X135099480Y-32180279I252259J-431696D01*
G01*
X135049999Y-32397158D02*
G75*
G02*
X135099483Y-32180281I500361J-82D01*
G01*
X135099484Y-34019721D02*
G75*
G02*
X134396711Y-34668300I-450514J-216879D01*
G01*
X135099484Y-34019721D02*
G75*
G02*
X135050024Y-33802843I450516J216821D01*
G01*
%TO.C,LED61*%
X86406251Y-110002843D02*
X86406251Y-108597159D01*
X87311798Y-107800001D02*
X88900702Y-107800001D01*
X88900702Y-110800000D02*
X87311797Y-110800000D01*
X89806249Y-108597159D02*
X89806249Y-110002843D01*
X86356766Y-108380281D02*
G75*
G02*
X86406251Y-108597159I-450505J-216876D01*
G01*
X86356766Y-108380282D02*
G75*
G02*
X87059539Y-107731702I450514J216880D01*
G01*
X86406251Y-110002844D02*
G75*
G02*
X86356766Y-110219721I-499990J-1D01*
G01*
X87059539Y-110868299D02*
G75*
G02*
X86356765Y-110219721I-252259J431700D01*
G01*
X87059539Y-110868299D02*
G75*
G02*
X87311797Y-110800000I252261J-431710D01*
G01*
X87311798Y-107800001D02*
G75*
G02*
X87059539Y-107731702I2J500009D01*
G01*
X88900703Y-110800001D02*
G75*
G02*
X89152961Y-110868300I-3J-500009D01*
G01*
X89152960Y-107731702D02*
G75*
G02*
X88900702Y-107800000I-252260J431712D01*
G01*
X89152961Y-107731704D02*
G75*
G02*
X89855730Y-108380279I252259J-431696D01*
G01*
X89806249Y-108597158D02*
G75*
G02*
X89855733Y-108380281I500361J-82D01*
G01*
X89855734Y-110219721D02*
G75*
G02*
X89152961Y-110868300I-450514J-216879D01*
G01*
X89855734Y-110219721D02*
G75*
G02*
X89806274Y-110002843I450516J216821D01*
G01*
%TO.C,LED13*%
X265000001Y-33802843D02*
X265000001Y-32397159D01*
X265905548Y-31600001D02*
X267494452Y-31600001D01*
X267494452Y-34600000D02*
X265905547Y-34600000D01*
X268399999Y-32397159D02*
X268399999Y-33802843D01*
X264950516Y-32180281D02*
G75*
G02*
X265000001Y-32397159I-450505J-216876D01*
G01*
X264950516Y-32180282D02*
G75*
G02*
X265653289Y-31531702I450514J216880D01*
G01*
X265000001Y-33802844D02*
G75*
G02*
X264950516Y-34019721I-499990J-1D01*
G01*
X265653289Y-34668299D02*
G75*
G02*
X264950515Y-34019721I-252259J431700D01*
G01*
X265653289Y-34668299D02*
G75*
G02*
X265905547Y-34600000I252261J-431710D01*
G01*
X265905548Y-31600001D02*
G75*
G02*
X265653289Y-31531702I2J500009D01*
G01*
X267494453Y-34600001D02*
G75*
G02*
X267746711Y-34668300I-3J-500009D01*
G01*
X267746710Y-31531702D02*
G75*
G02*
X267494452Y-31600000I-252260J431712D01*
G01*
X267746711Y-31531704D02*
G75*
G02*
X268449480Y-32180279I252259J-431696D01*
G01*
X268399999Y-32397158D02*
G75*
G02*
X268449483Y-32180281I500361J-82D01*
G01*
X268449484Y-34019721D02*
G75*
G02*
X267746711Y-34668300I-450514J-216879D01*
G01*
X268449484Y-34019721D02*
G75*
G02*
X268400024Y-33802843I450516J216821D01*
G01*
%TO.C,LED30*%
X322150001Y-52852841D02*
X322150001Y-51447157D01*
X323055548Y-50650000D02*
X324644453Y-50650000D01*
X324644452Y-53649999D02*
X323055548Y-53649999D01*
X325549999Y-51447157D02*
X325549999Y-52852841D01*
X322100516Y-51230279D02*
G75*
G02*
X322149976Y-51447157I-450516J-216821D01*
G01*
X322100516Y-51230279D02*
G75*
G02*
X322803289Y-50581700I450514J216879D01*
G01*
X322150001Y-52852842D02*
G75*
G02*
X322100517Y-53069719I-500361J82D01*
G01*
X322803289Y-53718296D02*
G75*
G02*
X322100520Y-53069721I-252259J431696D01*
G01*
X322803290Y-53718298D02*
G75*
G02*
X323055548Y-53650000I252260J-431712D01*
G01*
X323055547Y-50649999D02*
G75*
G02*
X322803289Y-50581700I3J500009D01*
G01*
X324644452Y-53649999D02*
G75*
G02*
X324896711Y-53718298I-2J-500009D01*
G01*
X324896711Y-50581701D02*
G75*
G02*
X324644453Y-50650000I-252261J431710D01*
G01*
X324896711Y-50581701D02*
G75*
G02*
X325599485Y-51230279I252259J-431700D01*
G01*
X325549999Y-51447156D02*
G75*
G02*
X325599484Y-51230279I499990J1D01*
G01*
X325599484Y-53069718D02*
G75*
G02*
X324896711Y-53718298I-450514J-216880D01*
G01*
X325599484Y-53069719D02*
G75*
G02*
X325549999Y-52852841I450505J216876D01*
G01*
%TO.C,LED62*%
X157843751Y-110002843D02*
X157843751Y-108597159D01*
X158749298Y-107800001D02*
X160338202Y-107800001D01*
X160338202Y-110800000D02*
X158749297Y-110800000D01*
X161243749Y-108597159D02*
X161243749Y-110002843D01*
X157794266Y-108380281D02*
G75*
G02*
X157843751Y-108597159I-450505J-216876D01*
G01*
X157794266Y-108380282D02*
G75*
G02*
X158497039Y-107731702I450514J216880D01*
G01*
X157843751Y-110002844D02*
G75*
G02*
X157794266Y-110219721I-499990J-1D01*
G01*
X158497039Y-110868299D02*
G75*
G02*
X157794265Y-110219721I-252259J431700D01*
G01*
X158497039Y-110868299D02*
G75*
G02*
X158749297Y-110800000I252261J-431710D01*
G01*
X158749298Y-107800001D02*
G75*
G02*
X158497039Y-107731702I2J500009D01*
G01*
X160338203Y-110800001D02*
G75*
G02*
X160590461Y-110868300I-3J-500009D01*
G01*
X160590460Y-107731702D02*
G75*
G02*
X160338202Y-107800000I-252260J431712D01*
G01*
X160590461Y-107731704D02*
G75*
G02*
X161293230Y-108380279I252259J-431696D01*
G01*
X161243749Y-108597158D02*
G75*
G02*
X161293233Y-108380281I500361J-82D01*
G01*
X161293234Y-110219721D02*
G75*
G02*
X160590461Y-110868300I-450514J-216879D01*
G01*
X161293234Y-110219721D02*
G75*
G02*
X161243774Y-110002843I450516J216821D01*
G01*
%TO.C,LED60*%
X62593751Y-110002843D02*
X62593751Y-108597159D01*
X63499298Y-107800001D02*
X65088202Y-107800001D01*
X65088202Y-110800000D02*
X63499297Y-110800000D01*
X65993749Y-108597159D02*
X65993749Y-110002843D01*
X62544266Y-108380281D02*
G75*
G02*
X62593751Y-108597159I-450505J-216876D01*
G01*
X62544266Y-108380282D02*
G75*
G02*
X63247039Y-107731702I450514J216880D01*
G01*
X62593751Y-110002844D02*
G75*
G02*
X62544266Y-110219721I-499990J-1D01*
G01*
X63247039Y-110868299D02*
G75*
G02*
X62544265Y-110219721I-252259J431700D01*
G01*
X63247039Y-110868299D02*
G75*
G02*
X63499297Y-110800000I252261J-431710D01*
G01*
X63499298Y-107800001D02*
G75*
G02*
X63247039Y-107731702I2J500009D01*
G01*
X65088203Y-110800001D02*
G75*
G02*
X65340461Y-110868300I-3J-500009D01*
G01*
X65340460Y-107731702D02*
G75*
G02*
X65088202Y-107800000I-252260J431712D01*
G01*
X65340461Y-107731704D02*
G75*
G02*
X66043230Y-108380279I252259J-431696D01*
G01*
X65993749Y-108597158D02*
G75*
G02*
X66043233Y-108380281I500361J-82D01*
G01*
X66043234Y-110219721D02*
G75*
G02*
X65340461Y-110868300I-450514J-216879D01*
G01*
X66043234Y-110219721D02*
G75*
G02*
X65993774Y-110002843I450516J216821D01*
G01*
%TO.C,LED43*%
X291193751Y-71902843D02*
X291193751Y-70497159D01*
X292099298Y-69700001D02*
X293688202Y-69700001D01*
X293688202Y-72700000D02*
X292099297Y-72700000D01*
X294593749Y-70497159D02*
X294593749Y-71902843D01*
X291144266Y-70280281D02*
G75*
G02*
X291193751Y-70497159I-450505J-216876D01*
G01*
X291144266Y-70280282D02*
G75*
G02*
X291847039Y-69631702I450514J216880D01*
G01*
X291193751Y-71902844D02*
G75*
G02*
X291144266Y-72119721I-499990J-1D01*
G01*
X291847039Y-72768299D02*
G75*
G02*
X291144265Y-72119721I-252259J431700D01*
G01*
X291847039Y-72768299D02*
G75*
G02*
X292099297Y-72700000I252261J-431710D01*
G01*
X292099298Y-69700001D02*
G75*
G02*
X291847039Y-69631702I2J500009D01*
G01*
X293688203Y-72700001D02*
G75*
G02*
X293940461Y-72768300I-3J-500009D01*
G01*
X293940460Y-69631702D02*
G75*
G02*
X293688202Y-69700000I-252260J431712D01*
G01*
X293940461Y-69631704D02*
G75*
G02*
X294643230Y-70280279I252259J-431696D01*
G01*
X294593749Y-70497158D02*
G75*
G02*
X294643233Y-70280281I500361J-82D01*
G01*
X294643234Y-72119721D02*
G75*
G02*
X293940461Y-72768300I-450514J-216879D01*
G01*
X294643234Y-72119721D02*
G75*
G02*
X294593774Y-71902843I450516J216821D01*
G01*
%TO.C,LED19*%
X103075001Y-52852841D02*
X103075001Y-51447157D01*
X103980548Y-50650000D02*
X105569453Y-50650000D01*
X105569452Y-53649999D02*
X103980548Y-53649999D01*
X106474999Y-51447157D02*
X106474999Y-52852841D01*
X103025516Y-51230279D02*
G75*
G02*
X103074976Y-51447157I-450516J-216821D01*
G01*
X103025516Y-51230279D02*
G75*
G02*
X103728289Y-50581700I450514J216879D01*
G01*
X103075001Y-52852842D02*
G75*
G02*
X103025517Y-53069719I-500361J82D01*
G01*
X103728289Y-53718296D02*
G75*
G02*
X103025520Y-53069721I-252259J431696D01*
G01*
X103728290Y-53718298D02*
G75*
G02*
X103980548Y-53650000I252260J-431712D01*
G01*
X103980547Y-50649999D02*
G75*
G02*
X103728289Y-50581700I3J500009D01*
G01*
X105569452Y-53649999D02*
G75*
G02*
X105821711Y-53718298I-2J-500009D01*
G01*
X105821711Y-50581701D02*
G75*
G02*
X105569453Y-50650000I-252261J431710D01*
G01*
X105821711Y-50581701D02*
G75*
G02*
X106524485Y-51230279I252259J-431700D01*
G01*
X106474999Y-51447156D02*
G75*
G02*
X106524484Y-51230279I499990J1D01*
G01*
X106524484Y-53069718D02*
G75*
G02*
X105821711Y-53718298I-450514J-216880D01*
G01*
X106524484Y-53069719D02*
G75*
G02*
X106474999Y-52852841I450505J216876D01*
G01*
%TO.C,LED34*%
X107837501Y-71902843D02*
X107837501Y-70497159D01*
X108743048Y-69700001D02*
X110331952Y-69700001D01*
X110331952Y-72700000D02*
X108743047Y-72700000D01*
X111237499Y-70497159D02*
X111237499Y-71902843D01*
X107788016Y-70280281D02*
G75*
G02*
X107837501Y-70497159I-450505J-216876D01*
G01*
X107788016Y-70280282D02*
G75*
G02*
X108490789Y-69631702I450514J216880D01*
G01*
X107837501Y-71902844D02*
G75*
G02*
X107788016Y-72119721I-499990J-1D01*
G01*
X108490789Y-72768299D02*
G75*
G02*
X107788015Y-72119721I-252259J431700D01*
G01*
X108490789Y-72768299D02*
G75*
G02*
X108743047Y-72700000I252261J-431710D01*
G01*
X108743048Y-69700001D02*
G75*
G02*
X108490789Y-69631702I2J500009D01*
G01*
X110331953Y-72700001D02*
G75*
G02*
X110584211Y-72768300I-3J-500009D01*
G01*
X110584210Y-69631702D02*
G75*
G02*
X110331952Y-69700000I-252260J431712D01*
G01*
X110584211Y-69631704D02*
G75*
G02*
X111286980Y-70280279I252259J-431696D01*
G01*
X111237499Y-70497158D02*
G75*
G02*
X111286983Y-70280281I500361J-82D01*
G01*
X111286984Y-72119721D02*
G75*
G02*
X110584211Y-72768300I-450514J-216879D01*
G01*
X111286984Y-72119721D02*
G75*
G02*
X111237524Y-71902843I450516J216821D01*
G01*
%TO.C,LED7*%
X150700001Y-33802843D02*
X150700001Y-32397159D01*
X151605548Y-31600001D02*
X153194452Y-31600001D01*
X153194452Y-34600000D02*
X151605547Y-34600000D01*
X154099999Y-32397159D02*
X154099999Y-33802843D01*
X150650516Y-32180281D02*
G75*
G02*
X150700001Y-32397159I-450505J-216876D01*
G01*
X150650516Y-32180282D02*
G75*
G02*
X151353289Y-31531702I450514J216880D01*
G01*
X150700001Y-33802844D02*
G75*
G02*
X150650516Y-34019721I-499990J-1D01*
G01*
X151353289Y-34668299D02*
G75*
G02*
X150650515Y-34019721I-252259J431700D01*
G01*
X151353289Y-34668299D02*
G75*
G02*
X151605547Y-34600000I252261J-431710D01*
G01*
X151605548Y-31600001D02*
G75*
G02*
X151353289Y-31531702I2J500009D01*
G01*
X153194453Y-34600001D02*
G75*
G02*
X153446711Y-34668300I-3J-500009D01*
G01*
X153446710Y-31531702D02*
G75*
G02*
X153194452Y-31600000I-252260J431712D01*
G01*
X153446711Y-31531704D02*
G75*
G02*
X154149480Y-32180279I252259J-431696D01*
G01*
X154099999Y-32397158D02*
G75*
G02*
X154149483Y-32180281I500361J-82D01*
G01*
X154149484Y-34019721D02*
G75*
G02*
X153446711Y-34668300I-450514J-216879D01*
G01*
X154149484Y-34019721D02*
G75*
G02*
X154100024Y-33802843I450516J216821D01*
G01*
%TO.C,LED28*%
X274525001Y-52852841D02*
X274525001Y-51447157D01*
X275430548Y-50650000D02*
X277019453Y-50650000D01*
X277019452Y-53649999D02*
X275430548Y-53649999D01*
X277924999Y-51447157D02*
X277924999Y-52852841D01*
X274475516Y-51230279D02*
G75*
G02*
X274524976Y-51447157I-450516J-216821D01*
G01*
X274475516Y-51230279D02*
G75*
G02*
X275178289Y-50581700I450514J216879D01*
G01*
X274525001Y-52852842D02*
G75*
G02*
X274475517Y-53069719I-500361J82D01*
G01*
X275178289Y-53718296D02*
G75*
G02*
X274475520Y-53069721I-252259J431696D01*
G01*
X275178290Y-53718298D02*
G75*
G02*
X275430548Y-53650000I252260J-431712D01*
G01*
X275430547Y-50649999D02*
G75*
G02*
X275178289Y-50581700I3J500009D01*
G01*
X277019452Y-53649999D02*
G75*
G02*
X277271711Y-53718298I-2J-500009D01*
G01*
X277271711Y-50581701D02*
G75*
G02*
X277019453Y-50650000I-252261J431710D01*
G01*
X277271711Y-50581701D02*
G75*
G02*
X277974485Y-51230279I252259J-431700D01*
G01*
X277924999Y-51447156D02*
G75*
G02*
X277974484Y-51230279I499990J1D01*
G01*
X277974484Y-53069718D02*
G75*
G02*
X277271711Y-53718298I-450514J-216880D01*
G01*
X277974484Y-53069719D02*
G75*
G02*
X277924999Y-52852841I450505J216876D01*
G01*
%TO.C,LED12*%
X245950001Y-33802843D02*
X245950001Y-32397159D01*
X246855548Y-31600001D02*
X248444452Y-31600001D01*
X248444452Y-34600000D02*
X246855547Y-34600000D01*
X249349999Y-32397159D02*
X249349999Y-33802843D01*
X245900516Y-32180281D02*
G75*
G02*
X245950001Y-32397159I-450505J-216876D01*
G01*
X245900516Y-32180282D02*
G75*
G02*
X246603289Y-31531702I450514J216880D01*
G01*
X245950001Y-33802844D02*
G75*
G02*
X245900516Y-34019721I-499990J-1D01*
G01*
X246603289Y-34668299D02*
G75*
G02*
X245900515Y-34019721I-252259J431700D01*
G01*
X246603289Y-34668299D02*
G75*
G02*
X246855547Y-34600000I252261J-431710D01*
G01*
X246855548Y-31600001D02*
G75*
G02*
X246603289Y-31531702I2J500009D01*
G01*
X248444453Y-34600001D02*
G75*
G02*
X248696711Y-34668300I-3J-500009D01*
G01*
X248696710Y-31531702D02*
G75*
G02*
X248444452Y-31600000I-252260J431712D01*
G01*
X248696711Y-31531704D02*
G75*
G02*
X249399480Y-32180279I252259J-431696D01*
G01*
X249349999Y-32397158D02*
G75*
G02*
X249399483Y-32180281I500361J-82D01*
G01*
X249399484Y-34019721D02*
G75*
G02*
X248696711Y-34668300I-450514J-216879D01*
G01*
X249399484Y-34019721D02*
G75*
G02*
X249350024Y-33802843I450516J216821D01*
G01*
%TO.C,LED41*%
X241187501Y-71902843D02*
X241187501Y-70497159D01*
X242093048Y-69700001D02*
X243681952Y-69700001D01*
X243681952Y-72700000D02*
X242093047Y-72700000D01*
X244587499Y-70497159D02*
X244587499Y-71902843D01*
X241138016Y-70280281D02*
G75*
G02*
X241187501Y-70497159I-450505J-216876D01*
G01*
X241138016Y-70280282D02*
G75*
G02*
X241840789Y-69631702I450514J216880D01*
G01*
X241187501Y-71902844D02*
G75*
G02*
X241138016Y-72119721I-499990J-1D01*
G01*
X241840789Y-72768299D02*
G75*
G02*
X241138015Y-72119721I-252259J431700D01*
G01*
X241840789Y-72768299D02*
G75*
G02*
X242093047Y-72700000I252261J-431710D01*
G01*
X242093048Y-69700001D02*
G75*
G02*
X241840789Y-69631702I2J500009D01*
G01*
X243681953Y-72700001D02*
G75*
G02*
X243934211Y-72768300I-3J-500009D01*
G01*
X243934210Y-69631702D02*
G75*
G02*
X243681952Y-69700000I-252260J431712D01*
G01*
X243934211Y-69631704D02*
G75*
G02*
X244636980Y-70280279I252259J-431696D01*
G01*
X244587499Y-70497158D02*
G75*
G02*
X244636983Y-70280281I500361J-82D01*
G01*
X244636984Y-72119721D02*
G75*
G02*
X243934211Y-72768300I-450514J-216879D01*
G01*
X244636984Y-72119721D02*
G75*
G02*
X244587524Y-71902843I450516J216821D01*
G01*
%TO.C,LED42*%
X260237501Y-71902843D02*
X260237501Y-70497159D01*
X261143048Y-69700001D02*
X262731952Y-69700001D01*
X262731952Y-72700000D02*
X261143047Y-72700000D01*
X263637499Y-70497159D02*
X263637499Y-71902843D01*
X260188016Y-70280281D02*
G75*
G02*
X260237501Y-70497159I-450505J-216876D01*
G01*
X260188016Y-70280282D02*
G75*
G02*
X260890789Y-69631702I450514J216880D01*
G01*
X260237501Y-71902844D02*
G75*
G02*
X260188016Y-72119721I-499990J-1D01*
G01*
X260890789Y-72768299D02*
G75*
G02*
X260188015Y-72119721I-252259J431700D01*
G01*
X260890789Y-72768299D02*
G75*
G02*
X261143047Y-72700000I252261J-431710D01*
G01*
X261143048Y-69700001D02*
G75*
G02*
X260890789Y-69631702I2J500009D01*
G01*
X262731953Y-72700001D02*
G75*
G02*
X262984211Y-72768300I-3J-500009D01*
G01*
X262984210Y-69631702D02*
G75*
G02*
X262731952Y-69700000I-252260J431712D01*
G01*
X262984211Y-69631704D02*
G75*
G02*
X263686980Y-70280279I252259J-431696D01*
G01*
X263637499Y-70497158D02*
G75*
G02*
X263686983Y-70280281I500361J-82D01*
G01*
X263686984Y-72119721D02*
G75*
G02*
X262984211Y-72768300I-450514J-216879D01*
G01*
X263686984Y-72119721D02*
G75*
G02*
X263637524Y-71902843I450516J216821D01*
G01*
%TO.C,LED67*%
X322150001Y-110002843D02*
X322150001Y-108597159D01*
X323055548Y-107800001D02*
X324644452Y-107800001D01*
X324644452Y-110800000D02*
X323055547Y-110800000D01*
X325549999Y-108597159D02*
X325549999Y-110002843D01*
X322100516Y-108380281D02*
G75*
G02*
X322150001Y-108597159I-450505J-216876D01*
G01*
X322100516Y-108380282D02*
G75*
G02*
X322803289Y-107731702I450514J216880D01*
G01*
X322150001Y-110002844D02*
G75*
G02*
X322100516Y-110219721I-499990J-1D01*
G01*
X322803289Y-110868299D02*
G75*
G02*
X322100515Y-110219721I-252259J431700D01*
G01*
X322803289Y-110868299D02*
G75*
G02*
X323055547Y-110800000I252261J-431710D01*
G01*
X323055548Y-107800001D02*
G75*
G02*
X322803289Y-107731702I2J500009D01*
G01*
X324644453Y-110800001D02*
G75*
G02*
X324896711Y-110868300I-3J-500009D01*
G01*
X324896710Y-107731702D02*
G75*
G02*
X324644452Y-107800000I-252260J431712D01*
G01*
X324896711Y-107731704D02*
G75*
G02*
X325599480Y-108380279I252259J-431696D01*
G01*
X325549999Y-108597158D02*
G75*
G02*
X325599483Y-108380281I500361J-82D01*
G01*
X325599484Y-110219721D02*
G75*
G02*
X324896711Y-110868300I-450514J-216879D01*
G01*
X325599484Y-110219721D02*
G75*
G02*
X325550024Y-110002843I450516J216821D01*
G01*
%TO.C,LED37*%
X164987501Y-71902843D02*
X164987501Y-70497159D01*
X165893048Y-69700001D02*
X167481952Y-69700001D01*
X167481952Y-72700000D02*
X165893047Y-72700000D01*
X168387499Y-70497159D02*
X168387499Y-71902843D01*
X164938016Y-70280281D02*
G75*
G02*
X164987501Y-70497159I-450505J-216876D01*
G01*
X164938016Y-70280282D02*
G75*
G02*
X165640789Y-69631702I450514J216880D01*
G01*
X164987501Y-71902844D02*
G75*
G02*
X164938016Y-72119721I-499990J-1D01*
G01*
X165640789Y-72768299D02*
G75*
G02*
X164938015Y-72119721I-252259J431700D01*
G01*
X165640789Y-72768299D02*
G75*
G02*
X165893047Y-72700000I252261J-431710D01*
G01*
X165893048Y-69700001D02*
G75*
G02*
X165640789Y-69631702I2J500009D01*
G01*
X167481953Y-72700001D02*
G75*
G02*
X167734211Y-72768300I-3J-500009D01*
G01*
X167734210Y-69631702D02*
G75*
G02*
X167481952Y-69700000I-252260J431712D01*
G01*
X167734211Y-69631704D02*
G75*
G02*
X168436980Y-70280279I252259J-431696D01*
G01*
X168387499Y-70497158D02*
G75*
G02*
X168436983Y-70280281I500361J-82D01*
G01*
X168436984Y-72119721D02*
G75*
G02*
X167734211Y-72768300I-450514J-216879D01*
G01*
X168436984Y-72119721D02*
G75*
G02*
X168387524Y-71902843I450516J216821D01*
G01*
%TO.C,LED38*%
X184037501Y-71902843D02*
X184037501Y-70497159D01*
X184943048Y-69700001D02*
X186531952Y-69700001D01*
X186531952Y-72700000D02*
X184943047Y-72700000D01*
X187437499Y-70497159D02*
X187437499Y-71902843D01*
X183988016Y-70280281D02*
G75*
G02*
X184037501Y-70497159I-450505J-216876D01*
G01*
X183988016Y-70280282D02*
G75*
G02*
X184690789Y-69631702I450514J216880D01*
G01*
X184037501Y-71902844D02*
G75*
G02*
X183988016Y-72119721I-499990J-1D01*
G01*
X184690789Y-72768299D02*
G75*
G02*
X183988015Y-72119721I-252259J431700D01*
G01*
X184690789Y-72768299D02*
G75*
G02*
X184943047Y-72700000I252261J-431710D01*
G01*
X184943048Y-69700001D02*
G75*
G02*
X184690789Y-69631702I2J500009D01*
G01*
X186531953Y-72700001D02*
G75*
G02*
X186784211Y-72768300I-3J-500009D01*
G01*
X186784210Y-69631702D02*
G75*
G02*
X186531952Y-69700000I-252260J431712D01*
G01*
X186784211Y-69631704D02*
G75*
G02*
X187486980Y-70280279I252259J-431696D01*
G01*
X187437499Y-70497158D02*
G75*
G02*
X187486983Y-70280281I500361J-82D01*
G01*
X187486984Y-72119721D02*
G75*
G02*
X186784211Y-72768300I-450514J-216879D01*
G01*
X187486984Y-72119721D02*
G75*
G02*
X187437524Y-71902843I450516J216821D01*
G01*
%TO.C,LED54*%
X231662501Y-90952841D02*
X231662501Y-89547157D01*
X232568048Y-88750000D02*
X234156953Y-88750000D01*
X234156952Y-91749999D02*
X232568048Y-91749999D01*
X235062499Y-89547157D02*
X235062499Y-90952841D01*
X231613016Y-89330279D02*
G75*
G02*
X231662476Y-89547157I-450516J-216821D01*
G01*
X231613016Y-89330279D02*
G75*
G02*
X232315789Y-88681700I450514J216879D01*
G01*
X231662501Y-90952842D02*
G75*
G02*
X231613017Y-91169719I-500361J82D01*
G01*
X232315789Y-91818296D02*
G75*
G02*
X231613020Y-91169721I-252259J431696D01*
G01*
X232315790Y-91818298D02*
G75*
G02*
X232568048Y-91750000I252260J-431712D01*
G01*
X232568047Y-88749999D02*
G75*
G02*
X232315789Y-88681700I3J500009D01*
G01*
X234156952Y-91749999D02*
G75*
G02*
X234409211Y-91818298I-2J-500009D01*
G01*
X234409211Y-88681701D02*
G75*
G02*
X234156953Y-88750000I-252261J431710D01*
G01*
X234409211Y-88681701D02*
G75*
G02*
X235111985Y-89330279I252259J-431700D01*
G01*
X235062499Y-89547156D02*
G75*
G02*
X235111984Y-89330279I499990J1D01*
G01*
X235111984Y-91169718D02*
G75*
G02*
X234409211Y-91818298I-450514J-216880D01*
G01*
X235111984Y-91169719D02*
G75*
G02*
X235062499Y-90952841I450505J216876D01*
G01*
%TO.C,LED2*%
X55450001Y-33802843D02*
X55450001Y-32397159D01*
X56355548Y-31600001D02*
X57944452Y-31600001D01*
X57944452Y-34600000D02*
X56355547Y-34600000D01*
X58849999Y-32397159D02*
X58849999Y-33802843D01*
X55400516Y-32180281D02*
G75*
G02*
X55450001Y-32397159I-450505J-216876D01*
G01*
X55400516Y-32180282D02*
G75*
G02*
X56103289Y-31531702I450514J216880D01*
G01*
X55450001Y-33802844D02*
G75*
G02*
X55400516Y-34019721I-499990J-1D01*
G01*
X56103289Y-34668299D02*
G75*
G02*
X55400515Y-34019721I-252259J431700D01*
G01*
X56103289Y-34668299D02*
G75*
G02*
X56355547Y-34600000I252261J-431710D01*
G01*
X56355548Y-31600001D02*
G75*
G02*
X56103289Y-31531702I2J500009D01*
G01*
X57944453Y-34600001D02*
G75*
G02*
X58196711Y-34668300I-3J-500009D01*
G01*
X58196710Y-31531702D02*
G75*
G02*
X57944452Y-31600000I-252260J431712D01*
G01*
X58196711Y-31531704D02*
G75*
G02*
X58899480Y-32180279I252259J-431696D01*
G01*
X58849999Y-32397158D02*
G75*
G02*
X58899483Y-32180281I500361J-82D01*
G01*
X58899484Y-34019721D02*
G75*
G02*
X58196711Y-34668300I-450514J-216879D01*
G01*
X58899484Y-34019721D02*
G75*
G02*
X58850024Y-33802843I450516J216821D01*
G01*
%TO.C,LED46*%
X79262501Y-90952841D02*
X79262501Y-89547157D01*
X80168048Y-88750000D02*
X81756953Y-88750000D01*
X81756952Y-91749999D02*
X80168048Y-91749999D01*
X82662499Y-89547157D02*
X82662499Y-90952841D01*
X79213016Y-89330279D02*
G75*
G02*
X79262476Y-89547157I-450516J-216821D01*
G01*
X79213016Y-89330279D02*
G75*
G02*
X79915789Y-88681700I450514J216879D01*
G01*
X79262501Y-90952842D02*
G75*
G02*
X79213017Y-91169719I-500361J82D01*
G01*
X79915789Y-91818296D02*
G75*
G02*
X79213020Y-91169721I-252259J431696D01*
G01*
X79915790Y-91818298D02*
G75*
G02*
X80168048Y-91750000I252260J-431712D01*
G01*
X80168047Y-88749999D02*
G75*
G02*
X79915789Y-88681700I3J500009D01*
G01*
X81756952Y-91749999D02*
G75*
G02*
X82009211Y-91818298I-2J-500009D01*
G01*
X82009211Y-88681701D02*
G75*
G02*
X81756953Y-88750000I-252261J431710D01*
G01*
X82009211Y-88681701D02*
G75*
G02*
X82711985Y-89330279I252259J-431700D01*
G01*
X82662499Y-89547156D02*
G75*
G02*
X82711984Y-89330279I499990J1D01*
G01*
X82711984Y-91169718D02*
G75*
G02*
X82009211Y-91818298I-450514J-216880D01*
G01*
X82711984Y-91169719D02*
G75*
G02*
X82662499Y-90952841I450505J216876D01*
G01*
%TO.C,LED3*%
X74500001Y-33802843D02*
X74500001Y-32397159D01*
X75405548Y-31600001D02*
X76994452Y-31600001D01*
X76994452Y-34600000D02*
X75405547Y-34600000D01*
X77899999Y-32397159D02*
X77899999Y-33802843D01*
X74450516Y-32180281D02*
G75*
G02*
X74500001Y-32397159I-450505J-216876D01*
G01*
X74450516Y-32180282D02*
G75*
G02*
X75153289Y-31531702I450514J216880D01*
G01*
X74500001Y-33802844D02*
G75*
G02*
X74450516Y-34019721I-499990J-1D01*
G01*
X75153289Y-34668299D02*
G75*
G02*
X74450515Y-34019721I-252259J431700D01*
G01*
X75153289Y-34668299D02*
G75*
G02*
X75405547Y-34600000I252261J-431710D01*
G01*
X75405548Y-31600001D02*
G75*
G02*
X75153289Y-31531702I2J500009D01*
G01*
X76994453Y-34600001D02*
G75*
G02*
X77246711Y-34668300I-3J-500009D01*
G01*
X77246710Y-31531702D02*
G75*
G02*
X76994452Y-31600000I-252260J431712D01*
G01*
X77246711Y-31531704D02*
G75*
G02*
X77949480Y-32180279I252259J-431696D01*
G01*
X77899999Y-32397158D02*
G75*
G02*
X77949483Y-32180281I500361J-82D01*
G01*
X77949484Y-34019721D02*
G75*
G02*
X77246711Y-34668300I-450514J-216879D01*
G01*
X77949484Y-34019721D02*
G75*
G02*
X77900024Y-33802843I450516J216821D01*
G01*
%TO.C,LED52*%
X193562501Y-90952841D02*
X193562501Y-89547157D01*
X194468048Y-88750000D02*
X196056953Y-88750000D01*
X196056952Y-91749999D02*
X194468048Y-91749999D01*
X196962499Y-89547157D02*
X196962499Y-90952841D01*
X193513016Y-89330279D02*
G75*
G02*
X193562476Y-89547157I-450516J-216821D01*
G01*
X193513016Y-89330279D02*
G75*
G02*
X194215789Y-88681700I450514J216879D01*
G01*
X193562501Y-90952842D02*
G75*
G02*
X193513017Y-91169719I-500361J82D01*
G01*
X194215789Y-91818296D02*
G75*
G02*
X193513020Y-91169721I-252259J431696D01*
G01*
X194215790Y-91818298D02*
G75*
G02*
X194468048Y-91750000I252260J-431712D01*
G01*
X194468047Y-88749999D02*
G75*
G02*
X194215789Y-88681700I3J500009D01*
G01*
X196056952Y-91749999D02*
G75*
G02*
X196309211Y-91818298I-2J-500009D01*
G01*
X196309211Y-88681701D02*
G75*
G02*
X196056953Y-88750000I-252261J431710D01*
G01*
X196309211Y-88681701D02*
G75*
G02*
X197011985Y-89330279I252259J-431700D01*
G01*
X196962499Y-89547156D02*
G75*
G02*
X197011984Y-89330279I499990J1D01*
G01*
X197011984Y-91169718D02*
G75*
G02*
X196309211Y-91818298I-450514J-216880D01*
G01*
X197011984Y-91169719D02*
G75*
G02*
X196962499Y-90952841I450505J216876D01*
G01*
%TO.C,LED23*%
X179275001Y-52852841D02*
X179275001Y-51447157D01*
X180180548Y-50650000D02*
X181769453Y-50650000D01*
X181769452Y-53649999D02*
X180180548Y-53649999D01*
X182674999Y-51447157D02*
X182674999Y-52852841D01*
X179225516Y-51230279D02*
G75*
G02*
X179274976Y-51447157I-450516J-216821D01*
G01*
X179225516Y-51230279D02*
G75*
G02*
X179928289Y-50581700I450514J216879D01*
G01*
X179275001Y-52852842D02*
G75*
G02*
X179225517Y-53069719I-500361J82D01*
G01*
X179928289Y-53718296D02*
G75*
G02*
X179225520Y-53069721I-252259J431696D01*
G01*
X179928290Y-53718298D02*
G75*
G02*
X180180548Y-53650000I252260J-431712D01*
G01*
X180180547Y-50649999D02*
G75*
G02*
X179928289Y-50581700I3J500009D01*
G01*
X181769452Y-53649999D02*
G75*
G02*
X182021711Y-53718298I-2J-500009D01*
G01*
X182021711Y-50581701D02*
G75*
G02*
X181769453Y-50650000I-252261J431710D01*
G01*
X182021711Y-50581701D02*
G75*
G02*
X182724485Y-51230279I252259J-431700D01*
G01*
X182674999Y-51447156D02*
G75*
G02*
X182724484Y-51230279I499990J1D01*
G01*
X182724484Y-53069718D02*
G75*
G02*
X182021711Y-53718298I-450514J-216880D01*
G01*
X182724484Y-53069719D02*
G75*
G02*
X182674999Y-52852841I450505J216876D01*
G01*
%TO.C,LED63*%
X229281251Y-110002843D02*
X229281251Y-108597159D01*
X230186798Y-107800001D02*
X231775702Y-107800001D01*
X231775702Y-110800000D02*
X230186797Y-110800000D01*
X232681249Y-108597159D02*
X232681249Y-110002843D01*
X229231766Y-108380281D02*
G75*
G02*
X229281251Y-108597159I-450505J-216876D01*
G01*
X229231766Y-108380282D02*
G75*
G02*
X229934539Y-107731702I450514J216880D01*
G01*
X229281251Y-110002844D02*
G75*
G02*
X229231766Y-110219721I-499990J-1D01*
G01*
X229934539Y-110868299D02*
G75*
G02*
X229231765Y-110219721I-252259J431700D01*
G01*
X229934539Y-110868299D02*
G75*
G02*
X230186797Y-110800000I252261J-431710D01*
G01*
X230186798Y-107800001D02*
G75*
G02*
X229934539Y-107731702I2J500009D01*
G01*
X231775703Y-110800001D02*
G75*
G02*
X232027961Y-110868300I-3J-500009D01*
G01*
X232027960Y-107731702D02*
G75*
G02*
X231775702Y-107800000I-252260J431712D01*
G01*
X232027961Y-107731704D02*
G75*
G02*
X232730730Y-108380279I252259J-431696D01*
G01*
X232681249Y-108597158D02*
G75*
G02*
X232730733Y-108380281I500361J-82D01*
G01*
X232730734Y-110219721D02*
G75*
G02*
X232027961Y-110868300I-450514J-216879D01*
G01*
X232730734Y-110219721D02*
G75*
G02*
X232681274Y-110002843I450516J216821D01*
G01*
%TO.C,LED55*%
X250712501Y-90952841D02*
X250712501Y-89547157D01*
X251618048Y-88750000D02*
X253206953Y-88750000D01*
X253206952Y-91749999D02*
X251618048Y-91749999D01*
X254112499Y-89547157D02*
X254112499Y-90952841D01*
X250663016Y-89330279D02*
G75*
G02*
X250712476Y-89547157I-450516J-216821D01*
G01*
X250663016Y-89330279D02*
G75*
G02*
X251365789Y-88681700I450514J216879D01*
G01*
X250712501Y-90952842D02*
G75*
G02*
X250663017Y-91169719I-500361J82D01*
G01*
X251365789Y-91818296D02*
G75*
G02*
X250663020Y-91169721I-252259J431696D01*
G01*
X251365790Y-91818298D02*
G75*
G02*
X251618048Y-91750000I252260J-431712D01*
G01*
X251618047Y-88749999D02*
G75*
G02*
X251365789Y-88681700I3J500009D01*
G01*
X253206952Y-91749999D02*
G75*
G02*
X253459211Y-91818298I-2J-500009D01*
G01*
X253459211Y-88681701D02*
G75*
G02*
X253206953Y-88750000I-252261J431710D01*
G01*
X253459211Y-88681701D02*
G75*
G02*
X254161985Y-89330279I252259J-431700D01*
G01*
X254112499Y-89547156D02*
G75*
G02*
X254161984Y-89330279I499990J1D01*
G01*
X254161984Y-91169718D02*
G75*
G02*
X253459211Y-91818298I-450514J-216880D01*
G01*
X254161984Y-91169719D02*
G75*
G02*
X254112499Y-90952841I450505J216876D01*
G01*
%TO.C,LED47*%
X98312501Y-90952841D02*
X98312501Y-89547157D01*
X99218048Y-88750000D02*
X100806953Y-88750000D01*
X100806952Y-91749999D02*
X99218048Y-91749999D01*
X101712499Y-89547157D02*
X101712499Y-90952841D01*
X98263016Y-89330279D02*
G75*
G02*
X98312476Y-89547157I-450516J-216821D01*
G01*
X98263016Y-89330279D02*
G75*
G02*
X98965789Y-88681700I450514J216879D01*
G01*
X98312501Y-90952842D02*
G75*
G02*
X98263017Y-91169719I-500361J82D01*
G01*
X98965789Y-91818296D02*
G75*
G02*
X98263020Y-91169721I-252259J431696D01*
G01*
X98965790Y-91818298D02*
G75*
G02*
X99218048Y-91750000I252260J-431712D01*
G01*
X99218047Y-88749999D02*
G75*
G02*
X98965789Y-88681700I3J500009D01*
G01*
X100806952Y-91749999D02*
G75*
G02*
X101059211Y-91818298I-2J-500009D01*
G01*
X101059211Y-88681701D02*
G75*
G02*
X100806953Y-88750000I-252261J431710D01*
G01*
X101059211Y-88681701D02*
G75*
G02*
X101761985Y-89330279I252259J-431700D01*
G01*
X101712499Y-89547156D02*
G75*
G02*
X101761984Y-89330279I499990J1D01*
G01*
X101761984Y-91169718D02*
G75*
G02*
X101059211Y-91818298I-450514J-216880D01*
G01*
X101761984Y-91169719D02*
G75*
G02*
X101712499Y-90952841I450505J216876D01*
G01*
%TO.C,LED66*%
X303100001Y-110002843D02*
X303100001Y-108597159D01*
X304005548Y-107800001D02*
X305594452Y-107800001D01*
X305594452Y-110800000D02*
X304005547Y-110800000D01*
X306499999Y-108597159D02*
X306499999Y-110002843D01*
X303050516Y-108380281D02*
G75*
G02*
X303100001Y-108597159I-450505J-216876D01*
G01*
X303050516Y-108380282D02*
G75*
G02*
X303753289Y-107731702I450514J216880D01*
G01*
X303100001Y-110002844D02*
G75*
G02*
X303050516Y-110219721I-499990J-1D01*
G01*
X303753289Y-110868299D02*
G75*
G02*
X303050515Y-110219721I-252259J431700D01*
G01*
X303753289Y-110868299D02*
G75*
G02*
X304005547Y-110800000I252261J-431710D01*
G01*
X304005548Y-107800001D02*
G75*
G02*
X303753289Y-107731702I2J500009D01*
G01*
X305594453Y-110800001D02*
G75*
G02*
X305846711Y-110868300I-3J-500009D01*
G01*
X305846710Y-107731702D02*
G75*
G02*
X305594452Y-107800000I-252260J431712D01*
G01*
X305846711Y-107731704D02*
G75*
G02*
X306549480Y-108380279I252259J-431696D01*
G01*
X306499999Y-108597158D02*
G75*
G02*
X306549483Y-108380281I500361J-82D01*
G01*
X306549484Y-110219721D02*
G75*
G02*
X305846711Y-110868300I-450514J-216879D01*
G01*
X306549484Y-110219721D02*
G75*
G02*
X306500024Y-110002843I450516J216821D01*
G01*
%TO.C,LED8*%
X169750001Y-33802843D02*
X169750001Y-32397159D01*
X170655548Y-31600001D02*
X172244452Y-31600001D01*
X172244452Y-34600000D02*
X170655547Y-34600000D01*
X173149999Y-32397159D02*
X173149999Y-33802843D01*
X169700516Y-32180281D02*
G75*
G02*
X169750001Y-32397159I-450505J-216876D01*
G01*
X169700516Y-32180282D02*
G75*
G02*
X170403289Y-31531702I450514J216880D01*
G01*
X169750001Y-33802844D02*
G75*
G02*
X169700516Y-34019721I-499990J-1D01*
G01*
X170403289Y-34668299D02*
G75*
G02*
X169700515Y-34019721I-252259J431700D01*
G01*
X170403289Y-34668299D02*
G75*
G02*
X170655547Y-34600000I252261J-431710D01*
G01*
X170655548Y-31600001D02*
G75*
G02*
X170403289Y-31531702I2J500009D01*
G01*
X172244453Y-34600001D02*
G75*
G02*
X172496711Y-34668300I-3J-500009D01*
G01*
X172496710Y-31531702D02*
G75*
G02*
X172244452Y-31600000I-252260J431712D01*
G01*
X172496711Y-31531704D02*
G75*
G02*
X173199480Y-32180279I252259J-431696D01*
G01*
X173149999Y-32397158D02*
G75*
G02*
X173199483Y-32180281I500361J-82D01*
G01*
X173199484Y-34019721D02*
G75*
G02*
X172496711Y-34668300I-450514J-216879D01*
G01*
X173199484Y-34019721D02*
G75*
G02*
X173150024Y-33802843I450516J216821D01*
G01*
%TO.C,LED11*%
X226900001Y-33802843D02*
X226900001Y-32397159D01*
X227805548Y-31600001D02*
X229394452Y-31600001D01*
X229394452Y-34600000D02*
X227805547Y-34600000D01*
X230299999Y-32397159D02*
X230299999Y-33802843D01*
X226850516Y-32180281D02*
G75*
G02*
X226900001Y-32397159I-450505J-216876D01*
G01*
X226850516Y-32180282D02*
G75*
G02*
X227553289Y-31531702I450514J216880D01*
G01*
X226900001Y-33802844D02*
G75*
G02*
X226850516Y-34019721I-499990J-1D01*
G01*
X227553289Y-34668299D02*
G75*
G02*
X226850515Y-34019721I-252259J431700D01*
G01*
X227553289Y-34668299D02*
G75*
G02*
X227805547Y-34600000I252261J-431710D01*
G01*
X227805548Y-31600001D02*
G75*
G02*
X227553289Y-31531702I2J500009D01*
G01*
X229394453Y-34600001D02*
G75*
G02*
X229646711Y-34668300I-3J-500009D01*
G01*
X229646710Y-31531702D02*
G75*
G02*
X229394452Y-31600000I-252260J431712D01*
G01*
X229646711Y-31531704D02*
G75*
G02*
X230349480Y-32180279I252259J-431696D01*
G01*
X230299999Y-32397158D02*
G75*
G02*
X230349483Y-32180281I500361J-82D01*
G01*
X230349484Y-34019721D02*
G75*
G02*
X229646711Y-34668300I-450514J-216879D01*
G01*
X230349484Y-34019721D02*
G75*
G02*
X230300024Y-33802843I450516J216821D01*
G01*
%TO.C,LED36*%
X145937501Y-71902843D02*
X145937501Y-70497159D01*
X146843048Y-69700001D02*
X148431952Y-69700001D01*
X148431952Y-72700000D02*
X146843047Y-72700000D01*
X149337499Y-70497159D02*
X149337499Y-71902843D01*
X145888016Y-70280281D02*
G75*
G02*
X145937501Y-70497159I-450505J-216876D01*
G01*
X145888016Y-70280282D02*
G75*
G02*
X146590789Y-69631702I450514J216880D01*
G01*
X145937501Y-71902844D02*
G75*
G02*
X145888016Y-72119721I-499990J-1D01*
G01*
X146590789Y-72768299D02*
G75*
G02*
X145888015Y-72119721I-252259J431700D01*
G01*
X146590789Y-72768299D02*
G75*
G02*
X146843047Y-72700000I252261J-431710D01*
G01*
X146843048Y-69700001D02*
G75*
G02*
X146590789Y-69631702I2J500009D01*
G01*
X148431953Y-72700001D02*
G75*
G02*
X148684211Y-72768300I-3J-500009D01*
G01*
X148684210Y-69631702D02*
G75*
G02*
X148431952Y-69700000I-252260J431712D01*
G01*
X148684211Y-69631704D02*
G75*
G02*
X149386980Y-70280279I252259J-431696D01*
G01*
X149337499Y-70497158D02*
G75*
G02*
X149386983Y-70280281I500361J-82D01*
G01*
X149386984Y-72119721D02*
G75*
G02*
X148684211Y-72768300I-450514J-216879D01*
G01*
X149386984Y-72119721D02*
G75*
G02*
X149337524Y-71902843I450516J216821D01*
G01*
%TO.C,LED40*%
X222137501Y-71902843D02*
X222137501Y-70497159D01*
X223043048Y-69700001D02*
X224631952Y-69700001D01*
X224631952Y-72700000D02*
X223043047Y-72700000D01*
X225537499Y-70497159D02*
X225537499Y-71902843D01*
X222088016Y-70280281D02*
G75*
G02*
X222137501Y-70497159I-450505J-216876D01*
G01*
X222088016Y-70280282D02*
G75*
G02*
X222790789Y-69631702I450514J216880D01*
G01*
X222137501Y-71902844D02*
G75*
G02*
X222088016Y-72119721I-499990J-1D01*
G01*
X222790789Y-72768299D02*
G75*
G02*
X222088015Y-72119721I-252259J431700D01*
G01*
X222790789Y-72768299D02*
G75*
G02*
X223043047Y-72700000I252261J-431710D01*
G01*
X223043048Y-69700001D02*
G75*
G02*
X222790789Y-69631702I2J500009D01*
G01*
X224631953Y-72700001D02*
G75*
G02*
X224884211Y-72768300I-3J-500009D01*
G01*
X224884210Y-69631702D02*
G75*
G02*
X224631952Y-69700000I-252260J431712D01*
G01*
X224884211Y-69631704D02*
G75*
G02*
X225586980Y-70280279I252259J-431696D01*
G01*
X225537499Y-70497158D02*
G75*
G02*
X225586983Y-70280281I500361J-82D01*
G01*
X225586984Y-72119721D02*
G75*
G02*
X224884211Y-72768300I-450514J-216879D01*
G01*
X225586984Y-72119721D02*
G75*
G02*
X225537524Y-71902843I450516J216821D01*
G01*
%TO.C,LED50*%
X155462501Y-90952841D02*
X155462501Y-89547157D01*
X156368048Y-88750000D02*
X157956953Y-88750000D01*
X157956952Y-91749999D02*
X156368048Y-91749999D01*
X158862499Y-89547157D02*
X158862499Y-90952841D01*
X155413016Y-89330279D02*
G75*
G02*
X155462476Y-89547157I-450516J-216821D01*
G01*
X155413016Y-89330279D02*
G75*
G02*
X156115789Y-88681700I450514J216879D01*
G01*
X155462501Y-90952842D02*
G75*
G02*
X155413017Y-91169719I-500361J82D01*
G01*
X156115789Y-91818296D02*
G75*
G02*
X155413020Y-91169721I-252259J431696D01*
G01*
X156115790Y-91818298D02*
G75*
G02*
X156368048Y-91750000I252260J-431712D01*
G01*
X156368047Y-88749999D02*
G75*
G02*
X156115789Y-88681700I3J500009D01*
G01*
X157956952Y-91749999D02*
G75*
G02*
X158209211Y-91818298I-2J-500009D01*
G01*
X158209211Y-88681701D02*
G75*
G02*
X157956953Y-88750000I-252261J431710D01*
G01*
X158209211Y-88681701D02*
G75*
G02*
X158911985Y-89330279I252259J-431700D01*
G01*
X158862499Y-89547156D02*
G75*
G02*
X158911984Y-89330279I499990J1D01*
G01*
X158911984Y-91169718D02*
G75*
G02*
X158209211Y-91818298I-450514J-216880D01*
G01*
X158911984Y-91169719D02*
G75*
G02*
X158862499Y-90952841I450505J216876D01*
G01*
%TO.C,LED22*%
X160225001Y-52852841D02*
X160225001Y-51447157D01*
X161130548Y-50650000D02*
X162719453Y-50650000D01*
X162719452Y-53649999D02*
X161130548Y-53649999D01*
X163624999Y-51447157D02*
X163624999Y-52852841D01*
X160175516Y-51230279D02*
G75*
G02*
X160224976Y-51447157I-450516J-216821D01*
G01*
X160175516Y-51230279D02*
G75*
G02*
X160878289Y-50581700I450514J216879D01*
G01*
X160225001Y-52852842D02*
G75*
G02*
X160175517Y-53069719I-500361J82D01*
G01*
X160878289Y-53718296D02*
G75*
G02*
X160175520Y-53069721I-252259J431696D01*
G01*
X160878290Y-53718298D02*
G75*
G02*
X161130548Y-53650000I252260J-431712D01*
G01*
X161130547Y-50649999D02*
G75*
G02*
X160878289Y-50581700I3J500009D01*
G01*
X162719452Y-53649999D02*
G75*
G02*
X162971711Y-53718298I-2J-500009D01*
G01*
X162971711Y-50581701D02*
G75*
G02*
X162719453Y-50650000I-252261J431710D01*
G01*
X162971711Y-50581701D02*
G75*
G02*
X163674485Y-51230279I252259J-431700D01*
G01*
X163624999Y-51447156D02*
G75*
G02*
X163674484Y-51230279I499990J1D01*
G01*
X163674484Y-53069718D02*
G75*
G02*
X162971711Y-53718298I-450514J-216880D01*
G01*
X163674484Y-53069719D02*
G75*
G02*
X163624999Y-52852841I450505J216876D01*
G01*
%TO.C,LED24*%
X198325001Y-52852841D02*
X198325001Y-51447157D01*
X199230548Y-50650000D02*
X200819453Y-50650000D01*
X200819452Y-53649999D02*
X199230548Y-53649999D01*
X201724999Y-51447157D02*
X201724999Y-52852841D01*
X198275516Y-51230279D02*
G75*
G02*
X198324976Y-51447157I-450516J-216821D01*
G01*
X198275516Y-51230279D02*
G75*
G02*
X198978289Y-50581700I450514J216879D01*
G01*
X198325001Y-52852842D02*
G75*
G02*
X198275517Y-53069719I-500361J82D01*
G01*
X198978289Y-53718296D02*
G75*
G02*
X198275520Y-53069721I-252259J431696D01*
G01*
X198978290Y-53718298D02*
G75*
G02*
X199230548Y-53650000I252260J-431712D01*
G01*
X199230547Y-50649999D02*
G75*
G02*
X198978289Y-50581700I3J500009D01*
G01*
X200819452Y-53649999D02*
G75*
G02*
X201071711Y-53718298I-2J-500009D01*
G01*
X201071711Y-50581701D02*
G75*
G02*
X200819453Y-50650000I-252261J431710D01*
G01*
X201071711Y-50581701D02*
G75*
G02*
X201774485Y-51230279I252259J-431700D01*
G01*
X201724999Y-51447156D02*
G75*
G02*
X201774484Y-51230279I499990J1D01*
G01*
X201774484Y-53069718D02*
G75*
G02*
X201071711Y-53718298I-450514J-216880D01*
G01*
X201774484Y-53069719D02*
G75*
G02*
X201724999Y-52852841I450505J216876D01*
G01*
%TO.C,LED5*%
X112600001Y-33802843D02*
X112600001Y-32397159D01*
X113505548Y-31600001D02*
X115094452Y-31600001D01*
X115094452Y-34600000D02*
X113505547Y-34600000D01*
X115999999Y-32397159D02*
X115999999Y-33802843D01*
X112550516Y-32180281D02*
G75*
G02*
X112600001Y-32397159I-450505J-216876D01*
G01*
X112550516Y-32180282D02*
G75*
G02*
X113253289Y-31531702I450514J216880D01*
G01*
X112600001Y-33802844D02*
G75*
G02*
X112550516Y-34019721I-499990J-1D01*
G01*
X113253289Y-34668299D02*
G75*
G02*
X112550515Y-34019721I-252259J431700D01*
G01*
X113253289Y-34668299D02*
G75*
G02*
X113505547Y-34600000I252261J-431710D01*
G01*
X113505548Y-31600001D02*
G75*
G02*
X113253289Y-31531702I2J500009D01*
G01*
X115094453Y-34600001D02*
G75*
G02*
X115346711Y-34668300I-3J-500009D01*
G01*
X115346710Y-31531702D02*
G75*
G02*
X115094452Y-31600000I-252260J431712D01*
G01*
X115346711Y-31531704D02*
G75*
G02*
X116049480Y-32180279I252259J-431696D01*
G01*
X115999999Y-32397158D02*
G75*
G02*
X116049483Y-32180281I500361J-82D01*
G01*
X116049484Y-34019721D02*
G75*
G02*
X115346711Y-34668300I-450514J-216879D01*
G01*
X116049484Y-34019721D02*
G75*
G02*
X116000024Y-33802843I450516J216821D01*
G01*
%TO.C,LED58*%
X322150001Y-90952841D02*
X322150001Y-89547157D01*
X323055548Y-88750000D02*
X324644453Y-88750000D01*
X324644452Y-91749999D02*
X323055548Y-91749999D01*
X325549999Y-89547157D02*
X325549999Y-90952841D01*
X322100516Y-89330279D02*
G75*
G02*
X322149976Y-89547157I-450516J-216821D01*
G01*
X322100516Y-89330279D02*
G75*
G02*
X322803289Y-88681700I450514J216879D01*
G01*
X322150001Y-90952842D02*
G75*
G02*
X322100517Y-91169719I-500361J82D01*
G01*
X322803289Y-91818296D02*
G75*
G02*
X322100520Y-91169721I-252259J431696D01*
G01*
X322803290Y-91818298D02*
G75*
G02*
X323055548Y-91750000I252260J-431712D01*
G01*
X323055547Y-88749999D02*
G75*
G02*
X322803289Y-88681700I3J500009D01*
G01*
X324644452Y-91749999D02*
G75*
G02*
X324896711Y-91818298I-2J-500009D01*
G01*
X324896711Y-88681701D02*
G75*
G02*
X324644453Y-88750000I-252261J431710D01*
G01*
X324896711Y-88681701D02*
G75*
G02*
X325599485Y-89330279I252259J-431700D01*
G01*
X325549999Y-89547156D02*
G75*
G02*
X325599484Y-89330279I499990J1D01*
G01*
X325599484Y-91169718D02*
G75*
G02*
X324896711Y-91818298I-450514J-216880D01*
G01*
X325599484Y-91169719D02*
G75*
G02*
X325549999Y-90952841I450505J216876D01*
G01*
%TO.C,LED1*%
X36400001Y-33802843D02*
X36400001Y-32397159D01*
X37305548Y-31600001D02*
X38894452Y-31600001D01*
X38894452Y-34600000D02*
X37305547Y-34600000D01*
X39799999Y-32397159D02*
X39799999Y-33802843D01*
X36350516Y-32180281D02*
G75*
G02*
X36400001Y-32397159I-450505J-216876D01*
G01*
X36350516Y-32180282D02*
G75*
G02*
X37053289Y-31531702I450514J216880D01*
G01*
X36400001Y-33802844D02*
G75*
G02*
X36350516Y-34019721I-499990J-1D01*
G01*
X37053289Y-34668299D02*
G75*
G02*
X36350515Y-34019721I-252259J431700D01*
G01*
X37053289Y-34668299D02*
G75*
G02*
X37305547Y-34600000I252261J-431710D01*
G01*
X37305548Y-31600001D02*
G75*
G02*
X37053289Y-31531702I2J500009D01*
G01*
X38894453Y-34600001D02*
G75*
G02*
X39146711Y-34668300I-3J-500009D01*
G01*
X39146710Y-31531702D02*
G75*
G02*
X38894452Y-31600000I-252260J431712D01*
G01*
X39146711Y-31531704D02*
G75*
G02*
X39849480Y-32180279I252259J-431696D01*
G01*
X39799999Y-32397158D02*
G75*
G02*
X39849483Y-32180281I500361J-82D01*
G01*
X39849484Y-34019721D02*
G75*
G02*
X39146711Y-34668300I-450514J-216879D01*
G01*
X39849484Y-34019721D02*
G75*
G02*
X39800024Y-33802843I450516J216821D01*
G01*
%TO.C,LED4*%
X93550001Y-33802843D02*
X93550001Y-32397159D01*
X94455548Y-31600001D02*
X96044452Y-31600001D01*
X96044452Y-34600000D02*
X94455547Y-34600000D01*
X96949999Y-32397159D02*
X96949999Y-33802843D01*
X93500516Y-32180281D02*
G75*
G02*
X93550001Y-32397159I-450505J-216876D01*
G01*
X93500516Y-32180282D02*
G75*
G02*
X94203289Y-31531702I450514J216880D01*
G01*
X93550001Y-33802844D02*
G75*
G02*
X93500516Y-34019721I-499990J-1D01*
G01*
X94203289Y-34668299D02*
G75*
G02*
X93500515Y-34019721I-252259J431700D01*
G01*
X94203289Y-34668299D02*
G75*
G02*
X94455547Y-34600000I252261J-431710D01*
G01*
X94455548Y-31600001D02*
G75*
G02*
X94203289Y-31531702I2J500009D01*
G01*
X96044453Y-34600001D02*
G75*
G02*
X96296711Y-34668300I-3J-500009D01*
G01*
X96296710Y-31531702D02*
G75*
G02*
X96044452Y-31600000I-252260J431712D01*
G01*
X96296711Y-31531704D02*
G75*
G02*
X96999480Y-32180279I252259J-431696D01*
G01*
X96949999Y-32397158D02*
G75*
G02*
X96999483Y-32180281I500361J-82D01*
G01*
X96999484Y-34019721D02*
G75*
G02*
X96296711Y-34668300I-450514J-216879D01*
G01*
X96999484Y-34019721D02*
G75*
G02*
X96950024Y-33802843I450516J216821D01*
G01*
%TO.C,LED27*%
X255475001Y-52852841D02*
X255475001Y-51447157D01*
X256380548Y-50650000D02*
X257969453Y-50650000D01*
X257969452Y-53649999D02*
X256380548Y-53649999D01*
X258874999Y-51447157D02*
X258874999Y-52852841D01*
X255425516Y-51230279D02*
G75*
G02*
X255474976Y-51447157I-450516J-216821D01*
G01*
X255425516Y-51230279D02*
G75*
G02*
X256128289Y-50581700I450514J216879D01*
G01*
X255475001Y-52852842D02*
G75*
G02*
X255425517Y-53069719I-500361J82D01*
G01*
X256128289Y-53718296D02*
G75*
G02*
X255425520Y-53069721I-252259J431696D01*
G01*
X256128290Y-53718298D02*
G75*
G02*
X256380548Y-53650000I252260J-431712D01*
G01*
X256380547Y-50649999D02*
G75*
G02*
X256128289Y-50581700I3J500009D01*
G01*
X257969452Y-53649999D02*
G75*
G02*
X258221711Y-53718298I-2J-500009D01*
G01*
X258221711Y-50581701D02*
G75*
G02*
X257969453Y-50650000I-252261J431710D01*
G01*
X258221711Y-50581701D02*
G75*
G02*
X258924485Y-51230279I252259J-431700D01*
G01*
X258874999Y-51447156D02*
G75*
G02*
X258924484Y-51230279I499990J1D01*
G01*
X258924484Y-53069718D02*
G75*
G02*
X258221711Y-53718298I-450514J-216880D01*
G01*
X258924484Y-53069719D02*
G75*
G02*
X258874999Y-52852841I450505J216876D01*
G01*
%TO.C,LED39*%
X203087501Y-71902843D02*
X203087501Y-70497159D01*
X203993048Y-69700001D02*
X205581952Y-69700001D01*
X205581952Y-72700000D02*
X203993047Y-72700000D01*
X206487499Y-70497159D02*
X206487499Y-71902843D01*
X203038016Y-70280281D02*
G75*
G02*
X203087501Y-70497159I-450505J-216876D01*
G01*
X203038016Y-70280282D02*
G75*
G02*
X203740789Y-69631702I450514J216880D01*
G01*
X203087501Y-71902844D02*
G75*
G02*
X203038016Y-72119721I-499990J-1D01*
G01*
X203740789Y-72768299D02*
G75*
G02*
X203038015Y-72119721I-252259J431700D01*
G01*
X203740789Y-72768299D02*
G75*
G02*
X203993047Y-72700000I252261J-431710D01*
G01*
X203993048Y-69700001D02*
G75*
G02*
X203740789Y-69631702I2J500009D01*
G01*
X205581953Y-72700001D02*
G75*
G02*
X205834211Y-72768300I-3J-500009D01*
G01*
X205834210Y-69631702D02*
G75*
G02*
X205581952Y-69700000I-252260J431712D01*
G01*
X205834211Y-69631704D02*
G75*
G02*
X206536980Y-70280279I252259J-431696D01*
G01*
X206487499Y-70497158D02*
G75*
G02*
X206536983Y-70280281I500361J-82D01*
G01*
X206536984Y-72119721D02*
G75*
G02*
X205834211Y-72768300I-450514J-216879D01*
G01*
X206536984Y-72119721D02*
G75*
G02*
X206487524Y-71902843I450516J216821D01*
G01*
%TO.C,LED56*%
X276906251Y-90952841D02*
X276906251Y-89547157D01*
X277811798Y-88750000D02*
X279400703Y-88750000D01*
X279400702Y-91749999D02*
X277811798Y-91749999D01*
X280306249Y-89547157D02*
X280306249Y-90952841D01*
X276856766Y-89330279D02*
G75*
G02*
X276906226Y-89547157I-450516J-216821D01*
G01*
X276856766Y-89330279D02*
G75*
G02*
X277559539Y-88681700I450514J216879D01*
G01*
X276906251Y-90952842D02*
G75*
G02*
X276856767Y-91169719I-500361J82D01*
G01*
X277559539Y-91818296D02*
G75*
G02*
X276856770Y-91169721I-252259J431696D01*
G01*
X277559540Y-91818298D02*
G75*
G02*
X277811798Y-91750000I252260J-431712D01*
G01*
X277811797Y-88749999D02*
G75*
G02*
X277559539Y-88681700I3J500009D01*
G01*
X279400702Y-91749999D02*
G75*
G02*
X279652961Y-91818298I-2J-500009D01*
G01*
X279652961Y-88681701D02*
G75*
G02*
X279400703Y-88750000I-252261J431710D01*
G01*
X279652961Y-88681701D02*
G75*
G02*
X280355735Y-89330279I252259J-431700D01*
G01*
X280306249Y-89547156D02*
G75*
G02*
X280355734Y-89330279I499990J1D01*
G01*
X280355734Y-91169718D02*
G75*
G02*
X279652961Y-91818298I-450514J-216880D01*
G01*
X280355734Y-91169719D02*
G75*
G02*
X280306249Y-90952841I450505J216876D01*
G01*
%TO.C,LED32*%
X69737501Y-71902843D02*
X69737501Y-70497159D01*
X70643048Y-69700001D02*
X72231952Y-69700001D01*
X72231952Y-72700000D02*
X70643047Y-72700000D01*
X73137499Y-70497159D02*
X73137499Y-71902843D01*
X69688016Y-70280281D02*
G75*
G02*
X69737501Y-70497159I-450505J-216876D01*
G01*
X69688016Y-70280282D02*
G75*
G02*
X70390789Y-69631702I450514J216880D01*
G01*
X69737501Y-71902844D02*
G75*
G02*
X69688016Y-72119721I-499990J-1D01*
G01*
X70390789Y-72768299D02*
G75*
G02*
X69688015Y-72119721I-252259J431700D01*
G01*
X70390789Y-72768299D02*
G75*
G02*
X70643047Y-72700000I252261J-431710D01*
G01*
X70643048Y-69700001D02*
G75*
G02*
X70390789Y-69631702I2J500009D01*
G01*
X72231953Y-72700001D02*
G75*
G02*
X72484211Y-72768300I-3J-500009D01*
G01*
X72484210Y-69631702D02*
G75*
G02*
X72231952Y-69700000I-252260J431712D01*
G01*
X72484211Y-69631704D02*
G75*
G02*
X73186980Y-70280279I252259J-431696D01*
G01*
X73137499Y-70497158D02*
G75*
G02*
X73186983Y-70280281I500361J-82D01*
G01*
X73186984Y-72119721D02*
G75*
G02*
X72484211Y-72768300I-450514J-216879D01*
G01*
X73186984Y-72119721D02*
G75*
G02*
X73137524Y-71902843I450516J216821D01*
G01*
%TO.C,LED10*%
X207850001Y-33802843D02*
X207850001Y-32397159D01*
X208755548Y-31600001D02*
X210344452Y-31600001D01*
X210344452Y-34600000D02*
X208755547Y-34600000D01*
X211249999Y-32397159D02*
X211249999Y-33802843D01*
X207800516Y-32180281D02*
G75*
G02*
X207850001Y-32397159I-450505J-216876D01*
G01*
X207800516Y-32180282D02*
G75*
G02*
X208503289Y-31531702I450514J216880D01*
G01*
X207850001Y-33802844D02*
G75*
G02*
X207800516Y-34019721I-499990J-1D01*
G01*
X208503289Y-34668299D02*
G75*
G02*
X207800515Y-34019721I-252259J431700D01*
G01*
X208503289Y-34668299D02*
G75*
G02*
X208755547Y-34600000I252261J-431710D01*
G01*
X208755548Y-31600001D02*
G75*
G02*
X208503289Y-31531702I2J500009D01*
G01*
X210344453Y-34600001D02*
G75*
G02*
X210596711Y-34668300I-3J-500009D01*
G01*
X210596710Y-31531702D02*
G75*
G02*
X210344452Y-31600000I-252260J431712D01*
G01*
X210596711Y-31531704D02*
G75*
G02*
X211299480Y-32180279I252259J-431696D01*
G01*
X211249999Y-32397158D02*
G75*
G02*
X211299483Y-32180281I500361J-82D01*
G01*
X211299484Y-34019721D02*
G75*
G02*
X210596711Y-34668300I-450514J-216879D01*
G01*
X211299484Y-34019721D02*
G75*
G02*
X211250024Y-33802843I450516J216821D01*
G01*
%TO.C,LED59*%
X38781251Y-110002843D02*
X38781251Y-108597159D01*
X39686798Y-107800001D02*
X41275702Y-107800001D01*
X41275702Y-110800000D02*
X39686797Y-110800000D01*
X42181249Y-108597159D02*
X42181249Y-110002843D01*
X38731766Y-108380281D02*
G75*
G02*
X38781251Y-108597159I-450505J-216876D01*
G01*
X38731766Y-108380282D02*
G75*
G02*
X39434539Y-107731702I450514J216880D01*
G01*
X38781251Y-110002844D02*
G75*
G02*
X38731766Y-110219721I-499990J-1D01*
G01*
X39434539Y-110868299D02*
G75*
G02*
X38731765Y-110219721I-252259J431700D01*
G01*
X39434539Y-110868299D02*
G75*
G02*
X39686797Y-110800000I252261J-431710D01*
G01*
X39686798Y-107800001D02*
G75*
G02*
X39434539Y-107731702I2J500009D01*
G01*
X41275703Y-110800001D02*
G75*
G02*
X41527961Y-110868300I-3J-500009D01*
G01*
X41527960Y-107731702D02*
G75*
G02*
X41275702Y-107800000I-252260J431712D01*
G01*
X41527961Y-107731704D02*
G75*
G02*
X42230730Y-108380279I252259J-431696D01*
G01*
X42181249Y-108597158D02*
G75*
G02*
X42230733Y-108380281I500361J-82D01*
G01*
X42230734Y-110219721D02*
G75*
G02*
X41527961Y-110868300I-450514J-216879D01*
G01*
X42230734Y-110219721D02*
G75*
G02*
X42181274Y-110002843I450516J216821D01*
G01*
%TO.C,LED35*%
X126887501Y-71902843D02*
X126887501Y-70497159D01*
X127793048Y-69700001D02*
X129381952Y-69700001D01*
X129381952Y-72700000D02*
X127793047Y-72700000D01*
X130287499Y-70497159D02*
X130287499Y-71902843D01*
X126838016Y-70280281D02*
G75*
G02*
X126887501Y-70497159I-450505J-216876D01*
G01*
X126838016Y-70280282D02*
G75*
G02*
X127540789Y-69631702I450514J216880D01*
G01*
X126887501Y-71902844D02*
G75*
G02*
X126838016Y-72119721I-499990J-1D01*
G01*
X127540789Y-72768299D02*
G75*
G02*
X126838015Y-72119721I-252259J431700D01*
G01*
X127540789Y-72768299D02*
G75*
G02*
X127793047Y-72700000I252261J-431710D01*
G01*
X127793048Y-69700001D02*
G75*
G02*
X127540789Y-69631702I2J500009D01*
G01*
X129381953Y-72700001D02*
G75*
G02*
X129634211Y-72768300I-3J-500009D01*
G01*
X129634210Y-69631702D02*
G75*
G02*
X129381952Y-69700000I-252260J431712D01*
G01*
X129634211Y-69631704D02*
G75*
G02*
X130336980Y-70280279I252259J-431696D01*
G01*
X130287499Y-70497158D02*
G75*
G02*
X130336983Y-70280281I500361J-82D01*
G01*
X130336984Y-72119721D02*
G75*
G02*
X129634211Y-72768300I-450514J-216879D01*
G01*
X130336984Y-72119721D02*
G75*
G02*
X130287524Y-71902843I450516J216821D01*
G01*
%TO.C,LED9*%
X188800001Y-33802843D02*
X188800001Y-32397159D01*
X189705548Y-31600001D02*
X191294452Y-31600001D01*
X191294452Y-34600000D02*
X189705547Y-34600000D01*
X192199999Y-32397159D02*
X192199999Y-33802843D01*
X188750516Y-32180281D02*
G75*
G02*
X188800001Y-32397159I-450505J-216876D01*
G01*
X188750516Y-32180282D02*
G75*
G02*
X189453289Y-31531702I450514J216880D01*
G01*
X188800001Y-33802844D02*
G75*
G02*
X188750516Y-34019721I-499990J-1D01*
G01*
X189453289Y-34668299D02*
G75*
G02*
X188750515Y-34019721I-252259J431700D01*
G01*
X189453289Y-34668299D02*
G75*
G02*
X189705547Y-34600000I252261J-431710D01*
G01*
X189705548Y-31600001D02*
G75*
G02*
X189453289Y-31531702I2J500009D01*
G01*
X191294453Y-34600001D02*
G75*
G02*
X191546711Y-34668300I-3J-500009D01*
G01*
X191546710Y-31531702D02*
G75*
G02*
X191294452Y-31600000I-252260J431712D01*
G01*
X191546711Y-31531704D02*
G75*
G02*
X192249480Y-32180279I252259J-431696D01*
G01*
X192199999Y-32397158D02*
G75*
G02*
X192249483Y-32180281I500361J-82D01*
G01*
X192249484Y-34019721D02*
G75*
G02*
X191546711Y-34668300I-450514J-216879D01*
G01*
X192249484Y-34019721D02*
G75*
G02*
X192200024Y-33802843I450516J216821D01*
G01*
%TO.C,LED17*%
X64975001Y-52852841D02*
X64975001Y-51447157D01*
X65880548Y-50650000D02*
X67469453Y-50650000D01*
X67469452Y-53649999D02*
X65880548Y-53649999D01*
X68374999Y-51447157D02*
X68374999Y-52852841D01*
X64925516Y-51230279D02*
G75*
G02*
X64974976Y-51447157I-450516J-216821D01*
G01*
X64925516Y-51230279D02*
G75*
G02*
X65628289Y-50581700I450514J216879D01*
G01*
X64975001Y-52852842D02*
G75*
G02*
X64925517Y-53069719I-500361J82D01*
G01*
X65628289Y-53718296D02*
G75*
G02*
X64925520Y-53069721I-252259J431696D01*
G01*
X65628290Y-53718298D02*
G75*
G02*
X65880548Y-53650000I252260J-431712D01*
G01*
X65880547Y-50649999D02*
G75*
G02*
X65628289Y-50581700I3J500009D01*
G01*
X67469452Y-53649999D02*
G75*
G02*
X67721711Y-53718298I-2J-500009D01*
G01*
X67721711Y-50581701D02*
G75*
G02*
X67469453Y-50650000I-252261J431710D01*
G01*
X67721711Y-50581701D02*
G75*
G02*
X68424485Y-51230279I252259J-431700D01*
G01*
X68374999Y-51447156D02*
G75*
G02*
X68424484Y-51230279I499990J1D01*
G01*
X68424484Y-53069718D02*
G75*
G02*
X67721711Y-53718298I-450514J-216880D01*
G01*
X68424484Y-53069719D02*
G75*
G02*
X68374999Y-52852841I450505J216876D01*
G01*
%TO.C,LED20*%
X122125001Y-52852841D02*
X122125001Y-51447157D01*
X123030548Y-50650000D02*
X124619453Y-50650000D01*
X124619452Y-53649999D02*
X123030548Y-53649999D01*
X125524999Y-51447157D02*
X125524999Y-52852841D01*
X122075516Y-51230279D02*
G75*
G02*
X122124976Y-51447157I-450516J-216821D01*
G01*
X122075516Y-51230279D02*
G75*
G02*
X122778289Y-50581700I450514J216879D01*
G01*
X122125001Y-52852842D02*
G75*
G02*
X122075517Y-53069719I-500361J82D01*
G01*
X122778289Y-53718296D02*
G75*
G02*
X122075520Y-53069721I-252259J431696D01*
G01*
X122778290Y-53718298D02*
G75*
G02*
X123030548Y-53650000I252260J-431712D01*
G01*
X123030547Y-50649999D02*
G75*
G02*
X122778289Y-50581700I3J500009D01*
G01*
X124619452Y-53649999D02*
G75*
G02*
X124871711Y-53718298I-2J-500009D01*
G01*
X124871711Y-50581701D02*
G75*
G02*
X124619453Y-50650000I-252261J431710D01*
G01*
X124871711Y-50581701D02*
G75*
G02*
X125574485Y-51230279I252259J-431700D01*
G01*
X125524999Y-51447156D02*
G75*
G02*
X125574484Y-51230279I499990J1D01*
G01*
X125574484Y-53069718D02*
G75*
G02*
X124871711Y-53718298I-450514J-216880D01*
G01*
X125574484Y-53069719D02*
G75*
G02*
X125524999Y-52852841I450505J216876D01*
G01*
%TO.C,LED16*%
X41162501Y-52852841D02*
X41162501Y-51447157D01*
X42068048Y-50650000D02*
X43656953Y-50650000D01*
X43656952Y-53649999D02*
X42068048Y-53649999D01*
X44562499Y-51447157D02*
X44562499Y-52852841D01*
X41113016Y-51230279D02*
G75*
G02*
X41162476Y-51447157I-450516J-216821D01*
G01*
X41113016Y-51230279D02*
G75*
G02*
X41815789Y-50581700I450514J216879D01*
G01*
X41162501Y-52852842D02*
G75*
G02*
X41113017Y-53069719I-500361J82D01*
G01*
X41815789Y-53718296D02*
G75*
G02*
X41113020Y-53069721I-252259J431696D01*
G01*
X41815790Y-53718298D02*
G75*
G02*
X42068048Y-53650000I252260J-431712D01*
G01*
X42068047Y-50649999D02*
G75*
G02*
X41815789Y-50581700I3J500009D01*
G01*
X43656952Y-53649999D02*
G75*
G02*
X43909211Y-53718298I-2J-500009D01*
G01*
X43909211Y-50581701D02*
G75*
G02*
X43656953Y-50650000I-252261J431710D01*
G01*
X43909211Y-50581701D02*
G75*
G02*
X44611985Y-51230279I252259J-431700D01*
G01*
X44562499Y-51447156D02*
G75*
G02*
X44611984Y-51230279I499990J1D01*
G01*
X44611984Y-53069718D02*
G75*
G02*
X43909211Y-53718298I-450514J-216880D01*
G01*
X44611984Y-53069719D02*
G75*
G02*
X44562499Y-52852841I450505J216876D01*
G01*
%TO.C,LED25*%
X217375001Y-52852841D02*
X217375001Y-51447157D01*
X218280548Y-50650000D02*
X219869453Y-50650000D01*
X219869452Y-53649999D02*
X218280548Y-53649999D01*
X220774999Y-51447157D02*
X220774999Y-52852841D01*
X217325516Y-51230279D02*
G75*
G02*
X217374976Y-51447157I-450516J-216821D01*
G01*
X217325516Y-51230279D02*
G75*
G02*
X218028289Y-50581700I450514J216879D01*
G01*
X217375001Y-52852842D02*
G75*
G02*
X217325517Y-53069719I-500361J82D01*
G01*
X218028289Y-53718296D02*
G75*
G02*
X217325520Y-53069721I-252259J431696D01*
G01*
X218028290Y-53718298D02*
G75*
G02*
X218280548Y-53650000I252260J-431712D01*
G01*
X218280547Y-50649999D02*
G75*
G02*
X218028289Y-50581700I3J500009D01*
G01*
X219869452Y-53649999D02*
G75*
G02*
X220121711Y-53718298I-2J-500009D01*
G01*
X220121711Y-50581701D02*
G75*
G02*
X219869453Y-50650000I-252261J431710D01*
G01*
X220121711Y-50581701D02*
G75*
G02*
X220824485Y-51230279I252259J-431700D01*
G01*
X220774999Y-51447156D02*
G75*
G02*
X220824484Y-51230279I499990J1D01*
G01*
X220824484Y-53069718D02*
G75*
G02*
X220121711Y-53718298I-450514J-216880D01*
G01*
X220824484Y-53069719D02*
G75*
G02*
X220774999Y-52852841I450505J216876D01*
G01*
%TO.C,LED49*%
X136412501Y-90952841D02*
X136412501Y-89547157D01*
X137318048Y-88750000D02*
X138906953Y-88750000D01*
X138906952Y-91749999D02*
X137318048Y-91749999D01*
X139812499Y-89547157D02*
X139812499Y-90952841D01*
X136363016Y-89330279D02*
G75*
G02*
X136412476Y-89547157I-450516J-216821D01*
G01*
X136363016Y-89330279D02*
G75*
G02*
X137065789Y-88681700I450514J216879D01*
G01*
X136412501Y-90952842D02*
G75*
G02*
X136363017Y-91169719I-500361J82D01*
G01*
X137065789Y-91818296D02*
G75*
G02*
X136363020Y-91169721I-252259J431696D01*
G01*
X137065790Y-91818298D02*
G75*
G02*
X137318048Y-91750000I252260J-431712D01*
G01*
X137318047Y-88749999D02*
G75*
G02*
X137065789Y-88681700I3J500009D01*
G01*
X138906952Y-91749999D02*
G75*
G02*
X139159211Y-91818298I-2J-500009D01*
G01*
X139159211Y-88681701D02*
G75*
G02*
X138906953Y-88750000I-252261J431710D01*
G01*
X139159211Y-88681701D02*
G75*
G02*
X139861985Y-89330279I252259J-431700D01*
G01*
X139812499Y-89547156D02*
G75*
G02*
X139861984Y-89330279I499990J1D01*
G01*
X139861984Y-91169718D02*
G75*
G02*
X139159211Y-91818298I-450514J-216880D01*
G01*
X139861984Y-91169719D02*
G75*
G02*
X139812499Y-90952841I450505J216876D01*
G01*
%TO.C,LED53*%
X212612501Y-90952841D02*
X212612501Y-89547157D01*
X213518048Y-88750000D02*
X215106953Y-88750000D01*
X215106952Y-91749999D02*
X213518048Y-91749999D01*
X216012499Y-89547157D02*
X216012499Y-90952841D01*
X212563016Y-89330279D02*
G75*
G02*
X212612476Y-89547157I-450516J-216821D01*
G01*
X212563016Y-89330279D02*
G75*
G02*
X213265789Y-88681700I450514J216879D01*
G01*
X212612501Y-90952842D02*
G75*
G02*
X212563017Y-91169719I-500361J82D01*
G01*
X213265789Y-91818296D02*
G75*
G02*
X212563020Y-91169721I-252259J431696D01*
G01*
X213265790Y-91818298D02*
G75*
G02*
X213518048Y-91750000I252260J-431712D01*
G01*
X213518047Y-88749999D02*
G75*
G02*
X213265789Y-88681700I3J500009D01*
G01*
X215106952Y-91749999D02*
G75*
G02*
X215359211Y-91818298I-2J-500009D01*
G01*
X215359211Y-88681701D02*
G75*
G02*
X215106953Y-88750000I-252261J431710D01*
G01*
X215359211Y-88681701D02*
G75*
G02*
X216061985Y-89330279I252259J-431700D01*
G01*
X216012499Y-89547156D02*
G75*
G02*
X216061984Y-89330279I499990J1D01*
G01*
X216061984Y-91169718D02*
G75*
G02*
X215359211Y-91818298I-450514J-216880D01*
G01*
X216061984Y-91169719D02*
G75*
G02*
X216012499Y-90952841I450505J216876D01*
G01*
%TO.C,LED44*%
X322150001Y-71902843D02*
X322150001Y-70497159D01*
X323055548Y-69700001D02*
X324644452Y-69700001D01*
X324644452Y-72700000D02*
X323055547Y-72700000D01*
X325549999Y-70497159D02*
X325549999Y-71902843D01*
X322100516Y-70280281D02*
G75*
G02*
X322150001Y-70497159I-450505J-216876D01*
G01*
X322100516Y-70280282D02*
G75*
G02*
X322803289Y-69631702I450514J216880D01*
G01*
X322150001Y-71902844D02*
G75*
G02*
X322100516Y-72119721I-499990J-1D01*
G01*
X322803289Y-72768299D02*
G75*
G02*
X322100515Y-72119721I-252259J431700D01*
G01*
X322803289Y-72768299D02*
G75*
G02*
X323055547Y-72700000I252261J-431710D01*
G01*
X323055548Y-69700001D02*
G75*
G02*
X322803289Y-69631702I2J500009D01*
G01*
X324644453Y-72700001D02*
G75*
G02*
X324896711Y-72768300I-3J-500009D01*
G01*
X324896710Y-69631702D02*
G75*
G02*
X324644452Y-69700000I-252260J431712D01*
G01*
X324896711Y-69631704D02*
G75*
G02*
X325599480Y-70280279I252259J-431696D01*
G01*
X325549999Y-70497158D02*
G75*
G02*
X325599483Y-70280281I500361J-82D01*
G01*
X325599484Y-72119721D02*
G75*
G02*
X324896711Y-72768300I-450514J-216879D01*
G01*
X325599484Y-72119721D02*
G75*
G02*
X325550024Y-71902843I450516J216821D01*
G01*
%TO.C,LED29*%
X298337501Y-52852841D02*
X298337501Y-51447157D01*
X299243048Y-50650000D02*
X300831953Y-50650000D01*
X300831952Y-53649999D02*
X299243048Y-53649999D01*
X301737499Y-51447157D02*
X301737499Y-52852841D01*
X298288016Y-51230279D02*
G75*
G02*
X298337476Y-51447157I-450516J-216821D01*
G01*
X298288016Y-51230279D02*
G75*
G02*
X298990789Y-50581700I450514J216879D01*
G01*
X298337501Y-52852842D02*
G75*
G02*
X298288017Y-53069719I-500361J82D01*
G01*
X298990789Y-53718296D02*
G75*
G02*
X298288020Y-53069721I-252259J431696D01*
G01*
X298990790Y-53718298D02*
G75*
G02*
X299243048Y-53650000I252260J-431712D01*
G01*
X299243047Y-50649999D02*
G75*
G02*
X298990789Y-50581700I3J500009D01*
G01*
X300831952Y-53649999D02*
G75*
G02*
X301084211Y-53718298I-2J-500009D01*
G01*
X301084211Y-50581701D02*
G75*
G02*
X300831953Y-50650000I-252261J431710D01*
G01*
X301084211Y-50581701D02*
G75*
G02*
X301786985Y-51230279I252259J-431700D01*
G01*
X301737499Y-51447156D02*
G75*
G02*
X301786984Y-51230279I499990J1D01*
G01*
X301786984Y-53069718D02*
G75*
G02*
X301084211Y-53718298I-450514J-216880D01*
G01*
X301786984Y-53069719D02*
G75*
G02*
X301737499Y-52852841I450505J216876D01*
G01*
%TO.C,LED57*%
X303100001Y-90952841D02*
X303100001Y-89547157D01*
X304005548Y-88750000D02*
X305594453Y-88750000D01*
X305594452Y-91749999D02*
X304005548Y-91749999D01*
X306499999Y-89547157D02*
X306499999Y-90952841D01*
X303050516Y-89330279D02*
G75*
G02*
X303099976Y-89547157I-450516J-216821D01*
G01*
X303050516Y-89330279D02*
G75*
G02*
X303753289Y-88681700I450514J216879D01*
G01*
X303100001Y-90952842D02*
G75*
G02*
X303050517Y-91169719I-500361J82D01*
G01*
X303753289Y-91818296D02*
G75*
G02*
X303050520Y-91169721I-252259J431696D01*
G01*
X303753290Y-91818298D02*
G75*
G02*
X304005548Y-91750000I252260J-431712D01*
G01*
X304005547Y-88749999D02*
G75*
G02*
X303753289Y-88681700I3J500009D01*
G01*
X305594452Y-91749999D02*
G75*
G02*
X305846711Y-91818298I-2J-500009D01*
G01*
X305846711Y-88681701D02*
G75*
G02*
X305594453Y-88750000I-252261J431710D01*
G01*
X305846711Y-88681701D02*
G75*
G02*
X306549485Y-89330279I252259J-431700D01*
G01*
X306499999Y-89547156D02*
G75*
G02*
X306549484Y-89330279I499990J1D01*
G01*
X306549484Y-91169718D02*
G75*
G02*
X305846711Y-91818298I-450514J-216880D01*
G01*
X306549484Y-91169719D02*
G75*
G02*
X306499999Y-90952841I450505J216876D01*
G01*
%TO.C,LED14*%
X293575001Y-33802843D02*
X293575001Y-32397159D01*
X294480548Y-31600001D02*
X296069452Y-31600001D01*
X296069452Y-34600000D02*
X294480547Y-34600000D01*
X296974999Y-32397159D02*
X296974999Y-33802843D01*
X293525516Y-32180281D02*
G75*
G02*
X293575001Y-32397159I-450505J-216876D01*
G01*
X293525516Y-32180282D02*
G75*
G02*
X294228289Y-31531702I450514J216880D01*
G01*
X293575001Y-33802844D02*
G75*
G02*
X293525516Y-34019721I-499990J-1D01*
G01*
X294228289Y-34668299D02*
G75*
G02*
X293525515Y-34019721I-252259J431700D01*
G01*
X294228289Y-34668299D02*
G75*
G02*
X294480547Y-34600000I252261J-431710D01*
G01*
X294480548Y-31600001D02*
G75*
G02*
X294228289Y-31531702I2J500009D01*
G01*
X296069453Y-34600001D02*
G75*
G02*
X296321711Y-34668300I-3J-500009D01*
G01*
X296321710Y-31531702D02*
G75*
G02*
X296069452Y-31600000I-252260J431712D01*
G01*
X296321711Y-31531704D02*
G75*
G02*
X297024480Y-32180279I252259J-431696D01*
G01*
X296974999Y-32397158D02*
G75*
G02*
X297024483Y-32180281I500361J-82D01*
G01*
X297024484Y-34019721D02*
G75*
G02*
X296321711Y-34668300I-450514J-216879D01*
G01*
X297024484Y-34019721D02*
G75*
G02*
X296975024Y-33802843I450516J216821D01*
G01*
%TO.C,LED18*%
X84025001Y-52852841D02*
X84025001Y-51447157D01*
X84930548Y-50650000D02*
X86519453Y-50650000D01*
X86519452Y-53649999D02*
X84930548Y-53649999D01*
X87424999Y-51447157D02*
X87424999Y-52852841D01*
X83975516Y-51230279D02*
G75*
G02*
X84024976Y-51447157I-450516J-216821D01*
G01*
X83975516Y-51230279D02*
G75*
G02*
X84678289Y-50581700I450514J216879D01*
G01*
X84025001Y-52852842D02*
G75*
G02*
X83975517Y-53069719I-500361J82D01*
G01*
X84678289Y-53718296D02*
G75*
G02*
X83975520Y-53069721I-252259J431696D01*
G01*
X84678290Y-53718298D02*
G75*
G02*
X84930548Y-53650000I252260J-431712D01*
G01*
X84930547Y-50649999D02*
G75*
G02*
X84678289Y-50581700I3J500009D01*
G01*
X86519452Y-53649999D02*
G75*
G02*
X86771711Y-53718298I-2J-500009D01*
G01*
X86771711Y-50581701D02*
G75*
G02*
X86519453Y-50650000I-252261J431710D01*
G01*
X86771711Y-50581701D02*
G75*
G02*
X87474485Y-51230279I252259J-431700D01*
G01*
X87424999Y-51447156D02*
G75*
G02*
X87474484Y-51230279I499990J1D01*
G01*
X87474484Y-53069718D02*
G75*
G02*
X86771711Y-53718298I-450514J-216880D01*
G01*
X87474484Y-53069719D02*
G75*
G02*
X87424999Y-52852841I450505J216876D01*
G01*
%TD*%
M02*
