%TF.GenerationSoftware,KiCad,Pcbnew,9.0.2*%
%TF.CreationDate,2025-06-21T23:14:43+02:00*%
%TF.ProjectId,MOD65,4d4f4436-352e-46b6-9963-61645f706362,2*%
%TF.SameCoordinates,Original*%
%TF.FileFunction,Legend,Bot*%
%TF.FilePolarity,Positive*%
%FSLAX46Y46*%
G04 Gerber Fmt 4.6, Leading zero omitted, Abs format (unit mm)*
G04 Created by KiCad (PCBNEW 9.0.2) date 2025-06-21 23:14:43*
%MOMM*%
%LPD*%
G01*
G04 APERTURE LIST*
%ADD10C,0.100000*%
%ADD11C,0.150000*%
%ADD12C,0.120000*%
G04 APERTURE END LIST*
D10*
X106016667Y-118202447D02*
X106016667Y-117678637D01*
X106016667Y-117678637D02*
X106064286Y-117583399D01*
X106064286Y-117583399D02*
X106159524Y-117535780D01*
X106159524Y-117535780D02*
X106350000Y-117535780D01*
X106350000Y-117535780D02*
X106445238Y-117583399D01*
X106016667Y-118154828D02*
X106111905Y-118202447D01*
X106111905Y-118202447D02*
X106350000Y-118202447D01*
X106350000Y-118202447D02*
X106445238Y-118154828D01*
X106445238Y-118154828D02*
X106492857Y-118059589D01*
X106492857Y-118059589D02*
X106492857Y-117964351D01*
X106492857Y-117964351D02*
X106445238Y-117869113D01*
X106445238Y-117869113D02*
X106350000Y-117821494D01*
X106350000Y-117821494D02*
X106111905Y-117821494D01*
X106111905Y-117821494D02*
X106016667Y-117773875D01*
X105540476Y-118202447D02*
X105540476Y-117535780D01*
X105540476Y-117726256D02*
X105492857Y-117631018D01*
X105492857Y-117631018D02*
X105445238Y-117583399D01*
X105445238Y-117583399D02*
X105350000Y-117535780D01*
X105350000Y-117535780D02*
X105254762Y-117535780D01*
X105016666Y-117535780D02*
X104778571Y-118202447D01*
X104540476Y-117535780D02*
X104778571Y-118202447D01*
X104778571Y-118202447D02*
X104873809Y-118440542D01*
X104873809Y-118440542D02*
X104921428Y-118488161D01*
X104921428Y-118488161D02*
X105016666Y-118535780D01*
X103778571Y-118154828D02*
X103873809Y-118202447D01*
X103873809Y-118202447D02*
X104064285Y-118202447D01*
X104064285Y-118202447D02*
X104159523Y-118154828D01*
X104159523Y-118154828D02*
X104207142Y-118059589D01*
X104207142Y-118059589D02*
X104207142Y-117678637D01*
X104207142Y-117678637D02*
X104159523Y-117583399D01*
X104159523Y-117583399D02*
X104064285Y-117535780D01*
X104064285Y-117535780D02*
X103873809Y-117535780D01*
X103873809Y-117535780D02*
X103778571Y-117583399D01*
X103778571Y-117583399D02*
X103730952Y-117678637D01*
X103730952Y-117678637D02*
X103730952Y-117773875D01*
X103730952Y-117773875D02*
X104207142Y-117869113D01*
X103349999Y-118154828D02*
X103254761Y-118202447D01*
X103254761Y-118202447D02*
X103064285Y-118202447D01*
X103064285Y-118202447D02*
X102969047Y-118154828D01*
X102969047Y-118154828D02*
X102921428Y-118059589D01*
X102921428Y-118059589D02*
X102921428Y-118011970D01*
X102921428Y-118011970D02*
X102969047Y-117916732D01*
X102969047Y-117916732D02*
X103064285Y-117869113D01*
X103064285Y-117869113D02*
X103207142Y-117869113D01*
X103207142Y-117869113D02*
X103302380Y-117821494D01*
X103302380Y-117821494D02*
X103349999Y-117726256D01*
X103349999Y-117726256D02*
X103349999Y-117678637D01*
X103349999Y-117678637D02*
X103302380Y-117583399D01*
X103302380Y-117583399D02*
X103207142Y-117535780D01*
X103207142Y-117535780D02*
X103064285Y-117535780D01*
X103064285Y-117535780D02*
X102969047Y-117583399D01*
X102540475Y-118154828D02*
X102445237Y-118202447D01*
X102445237Y-118202447D02*
X102254761Y-118202447D01*
X102254761Y-118202447D02*
X102159523Y-118154828D01*
X102159523Y-118154828D02*
X102111904Y-118059589D01*
X102111904Y-118059589D02*
X102111904Y-118011970D01*
X102111904Y-118011970D02*
X102159523Y-117916732D01*
X102159523Y-117916732D02*
X102254761Y-117869113D01*
X102254761Y-117869113D02*
X102397618Y-117869113D01*
X102397618Y-117869113D02*
X102492856Y-117821494D01*
X102492856Y-117821494D02*
X102540475Y-117726256D01*
X102540475Y-117726256D02*
X102540475Y-117678637D01*
X102540475Y-117678637D02*
X102492856Y-117583399D01*
X102492856Y-117583399D02*
X102397618Y-117535780D01*
X102397618Y-117535780D02*
X102254761Y-117535780D01*
X102254761Y-117535780D02*
X102159523Y-117583399D01*
X101016665Y-117535780D02*
X100778570Y-118202447D01*
X100778570Y-118202447D02*
X100540475Y-117535780D01*
X99635713Y-118202447D02*
X100207141Y-118202447D01*
X99921427Y-118202447D02*
X99921427Y-117202447D01*
X99921427Y-117202447D02*
X100016665Y-117345304D01*
X100016665Y-117345304D02*
X100111903Y-117440542D01*
X100111903Y-117440542D02*
X100207141Y-117488161D01*
X99207141Y-118107208D02*
X99159522Y-118154828D01*
X99159522Y-118154828D02*
X99207141Y-118202447D01*
X99207141Y-118202447D02*
X99254760Y-118154828D01*
X99254760Y-118154828D02*
X99207141Y-118107208D01*
X99207141Y-118107208D02*
X99207141Y-118202447D01*
X98540475Y-117202447D02*
X98445237Y-117202447D01*
X98445237Y-117202447D02*
X98349999Y-117250066D01*
X98349999Y-117250066D02*
X98302380Y-117297685D01*
X98302380Y-117297685D02*
X98254761Y-117392923D01*
X98254761Y-117392923D02*
X98207142Y-117583399D01*
X98207142Y-117583399D02*
X98207142Y-117821494D01*
X98207142Y-117821494D02*
X98254761Y-118011970D01*
X98254761Y-118011970D02*
X98302380Y-118107208D01*
X98302380Y-118107208D02*
X98349999Y-118154828D01*
X98349999Y-118154828D02*
X98445237Y-118202447D01*
X98445237Y-118202447D02*
X98540475Y-118202447D01*
X98540475Y-118202447D02*
X98635713Y-118154828D01*
X98635713Y-118154828D02*
X98683332Y-118107208D01*
X98683332Y-118107208D02*
X98730951Y-118011970D01*
X98730951Y-118011970D02*
X98778570Y-117821494D01*
X98778570Y-117821494D02*
X98778570Y-117583399D01*
X98778570Y-117583399D02*
X98730951Y-117392923D01*
X98730951Y-117392923D02*
X98683332Y-117297685D01*
X98683332Y-117297685D02*
X98635713Y-117250066D01*
X98635713Y-117250066D02*
X98540475Y-117202447D01*
X104873809Y-119812391D02*
X104873809Y-118812391D01*
X104873809Y-119193343D02*
X104778571Y-119145724D01*
X104778571Y-119145724D02*
X104588095Y-119145724D01*
X104588095Y-119145724D02*
X104492857Y-119193343D01*
X104492857Y-119193343D02*
X104445238Y-119240962D01*
X104445238Y-119240962D02*
X104397619Y-119336200D01*
X104397619Y-119336200D02*
X104397619Y-119621914D01*
X104397619Y-119621914D02*
X104445238Y-119717152D01*
X104445238Y-119717152D02*
X104492857Y-119764772D01*
X104492857Y-119764772D02*
X104588095Y-119812391D01*
X104588095Y-119812391D02*
X104778571Y-119812391D01*
X104778571Y-119812391D02*
X104873809Y-119764772D01*
X104064285Y-119145724D02*
X103826190Y-119812391D01*
X103588095Y-119145724D02*
X103826190Y-119812391D01*
X103826190Y-119812391D02*
X103921428Y-120050486D01*
X103921428Y-120050486D02*
X103969047Y-120098105D01*
X103969047Y-120098105D02*
X104064285Y-120145724D01*
X102445237Y-119145724D02*
X102445237Y-120145724D01*
X102445237Y-119193343D02*
X102349999Y-119145724D01*
X102349999Y-119145724D02*
X102159523Y-119145724D01*
X102159523Y-119145724D02*
X102064285Y-119193343D01*
X102064285Y-119193343D02*
X102016666Y-119240962D01*
X102016666Y-119240962D02*
X101969047Y-119336200D01*
X101969047Y-119336200D02*
X101969047Y-119621914D01*
X101969047Y-119621914D02*
X102016666Y-119717152D01*
X102016666Y-119717152D02*
X102064285Y-119764772D01*
X102064285Y-119764772D02*
X102159523Y-119812391D01*
X102159523Y-119812391D02*
X102349999Y-119812391D01*
X102349999Y-119812391D02*
X102445237Y-119764772D01*
X101540475Y-119812391D02*
X101540475Y-119145724D01*
X101540475Y-118812391D02*
X101588094Y-118860010D01*
X101588094Y-118860010D02*
X101540475Y-118907629D01*
X101540475Y-118907629D02*
X101492856Y-118860010D01*
X101492856Y-118860010D02*
X101540475Y-118812391D01*
X101540475Y-118812391D02*
X101540475Y-118907629D01*
X100921428Y-119812391D02*
X101016666Y-119764772D01*
X101016666Y-119764772D02*
X101064285Y-119717152D01*
X101064285Y-119717152D02*
X101111904Y-119621914D01*
X101111904Y-119621914D02*
X101111904Y-119336200D01*
X101111904Y-119336200D02*
X101064285Y-119240962D01*
X101064285Y-119240962D02*
X101016666Y-119193343D01*
X101016666Y-119193343D02*
X100921428Y-119145724D01*
X100921428Y-119145724D02*
X100778571Y-119145724D01*
X100778571Y-119145724D02*
X100683333Y-119193343D01*
X100683333Y-119193343D02*
X100635714Y-119240962D01*
X100635714Y-119240962D02*
X100588095Y-119336200D01*
X100588095Y-119336200D02*
X100588095Y-119621914D01*
X100588095Y-119621914D02*
X100635714Y-119717152D01*
X100635714Y-119717152D02*
X100683333Y-119764772D01*
X100683333Y-119764772D02*
X100778571Y-119812391D01*
X100778571Y-119812391D02*
X100921428Y-119812391D01*
X100254761Y-119145724D02*
X99730952Y-119145724D01*
X99730952Y-119145724D02*
X100254761Y-119812391D01*
X100254761Y-119812391D02*
X99730952Y-119812391D01*
D11*
X176131009Y-116071428D02*
X176131009Y-115738095D01*
X176654819Y-115738095D02*
X175654819Y-115738095D01*
X175654819Y-115738095D02*
X175654819Y-116214285D01*
X176654819Y-116738095D02*
X176607200Y-116642857D01*
X176607200Y-116642857D02*
X176511961Y-116595238D01*
X176511961Y-116595238D02*
X175654819Y-116595238D01*
X176654819Y-117547619D02*
X176131009Y-117547619D01*
X176131009Y-117547619D02*
X176035771Y-117500000D01*
X176035771Y-117500000D02*
X175988152Y-117404762D01*
X175988152Y-117404762D02*
X175988152Y-117214286D01*
X175988152Y-117214286D02*
X176035771Y-117119048D01*
X176607200Y-117547619D02*
X176654819Y-117452381D01*
X176654819Y-117452381D02*
X176654819Y-117214286D01*
X176654819Y-117214286D02*
X176607200Y-117119048D01*
X176607200Y-117119048D02*
X176511961Y-117071429D01*
X176511961Y-117071429D02*
X176416723Y-117071429D01*
X176416723Y-117071429D02*
X176321485Y-117119048D01*
X176321485Y-117119048D02*
X176273866Y-117214286D01*
X176273866Y-117214286D02*
X176273866Y-117452381D01*
X176273866Y-117452381D02*
X176226247Y-117547619D01*
X176607200Y-117976191D02*
X176654819Y-118071429D01*
X176654819Y-118071429D02*
X176654819Y-118261905D01*
X176654819Y-118261905D02*
X176607200Y-118357143D01*
X176607200Y-118357143D02*
X176511961Y-118404762D01*
X176511961Y-118404762D02*
X176464342Y-118404762D01*
X176464342Y-118404762D02*
X176369104Y-118357143D01*
X176369104Y-118357143D02*
X176321485Y-118261905D01*
X176321485Y-118261905D02*
X176321485Y-118119048D01*
X176321485Y-118119048D02*
X176273866Y-118023810D01*
X176273866Y-118023810D02*
X176178628Y-117976191D01*
X176178628Y-117976191D02*
X176131009Y-117976191D01*
X176131009Y-117976191D02*
X176035771Y-118023810D01*
X176035771Y-118023810D02*
X175988152Y-118119048D01*
X175988152Y-118119048D02*
X175988152Y-118261905D01*
X175988152Y-118261905D02*
X176035771Y-118357143D01*
X176654819Y-118833334D02*
X175654819Y-118833334D01*
X176654819Y-119261905D02*
X176131009Y-119261905D01*
X176131009Y-119261905D02*
X176035771Y-119214286D01*
X176035771Y-119214286D02*
X175988152Y-119119048D01*
X175988152Y-119119048D02*
X175988152Y-118976191D01*
X175988152Y-118976191D02*
X176035771Y-118880953D01*
X176035771Y-118880953D02*
X176083390Y-118833334D01*
X57047619Y-85954819D02*
X57523809Y-85954819D01*
X57523809Y-85954819D02*
X57523809Y-84954819D01*
X56714285Y-85431009D02*
X56380952Y-85431009D01*
X56238095Y-85954819D02*
X56714285Y-85954819D01*
X56714285Y-85954819D02*
X56714285Y-84954819D01*
X56714285Y-84954819D02*
X56238095Y-84954819D01*
X55809523Y-85954819D02*
X55809523Y-84954819D01*
X55809523Y-84954819D02*
X55571428Y-84954819D01*
X55571428Y-84954819D02*
X55428571Y-85002438D01*
X55428571Y-85002438D02*
X55333333Y-85097676D01*
X55333333Y-85097676D02*
X55285714Y-85192914D01*
X55285714Y-85192914D02*
X55238095Y-85383390D01*
X55238095Y-85383390D02*
X55238095Y-85526247D01*
X55238095Y-85526247D02*
X55285714Y-85716723D01*
X55285714Y-85716723D02*
X55333333Y-85811961D01*
X55333333Y-85811961D02*
X55428571Y-85907200D01*
X55428571Y-85907200D02*
X55571428Y-85954819D01*
X55571428Y-85954819D02*
X55809523Y-85954819D01*
X54857142Y-85907200D02*
X54761904Y-85954819D01*
X54761904Y-85954819D02*
X54571428Y-85954819D01*
X54571428Y-85954819D02*
X54476190Y-85907200D01*
X54476190Y-85907200D02*
X54428571Y-85811961D01*
X54428571Y-85811961D02*
X54428571Y-85764342D01*
X54428571Y-85764342D02*
X54476190Y-85669104D01*
X54476190Y-85669104D02*
X54571428Y-85621485D01*
X54571428Y-85621485D02*
X54714285Y-85621485D01*
X54714285Y-85621485D02*
X54809523Y-85573866D01*
X54809523Y-85573866D02*
X54857142Y-85478628D01*
X54857142Y-85478628D02*
X54857142Y-85431009D01*
X54857142Y-85431009D02*
X54809523Y-85335771D01*
X54809523Y-85335771D02*
X54714285Y-85288152D01*
X54714285Y-85288152D02*
X54571428Y-85288152D01*
X54571428Y-85288152D02*
X54476190Y-85335771D01*
X269292319Y-95254762D02*
X270292319Y-95588095D01*
X270292319Y-95588095D02*
X269292319Y-95921428D01*
X270292319Y-97588095D02*
X269816128Y-97254762D01*
X270292319Y-97016667D02*
X269292319Y-97016667D01*
X269292319Y-97016667D02*
X269292319Y-97397619D01*
X269292319Y-97397619D02*
X269339938Y-97492857D01*
X269339938Y-97492857D02*
X269387557Y-97540476D01*
X269387557Y-97540476D02*
X269482795Y-97588095D01*
X269482795Y-97588095D02*
X269625652Y-97588095D01*
X269625652Y-97588095D02*
X269720890Y-97540476D01*
X269720890Y-97540476D02*
X269768509Y-97492857D01*
X269768509Y-97492857D02*
X269816128Y-97397619D01*
X269816128Y-97397619D02*
X269816128Y-97016667D01*
X270244700Y-98397619D02*
X270292319Y-98302381D01*
X270292319Y-98302381D02*
X270292319Y-98111905D01*
X270292319Y-98111905D02*
X270244700Y-98016667D01*
X270244700Y-98016667D02*
X270149461Y-97969048D01*
X270149461Y-97969048D02*
X269768509Y-97969048D01*
X269768509Y-97969048D02*
X269673271Y-98016667D01*
X269673271Y-98016667D02*
X269625652Y-98111905D01*
X269625652Y-98111905D02*
X269625652Y-98302381D01*
X269625652Y-98302381D02*
X269673271Y-98397619D01*
X269673271Y-98397619D02*
X269768509Y-98445238D01*
X269768509Y-98445238D02*
X269863747Y-98445238D01*
X269863747Y-98445238D02*
X269958985Y-97969048D01*
X269625652Y-99302381D02*
X270435176Y-99302381D01*
X270435176Y-99302381D02*
X270530414Y-99254762D01*
X270530414Y-99254762D02*
X270578033Y-99207143D01*
X270578033Y-99207143D02*
X270625652Y-99111905D01*
X270625652Y-99111905D02*
X270625652Y-98969048D01*
X270625652Y-98969048D02*
X270578033Y-98873810D01*
X270244700Y-99302381D02*
X270292319Y-99207143D01*
X270292319Y-99207143D02*
X270292319Y-99016667D01*
X270292319Y-99016667D02*
X270244700Y-98921429D01*
X270244700Y-98921429D02*
X270197080Y-98873810D01*
X270197080Y-98873810D02*
X270101842Y-98826191D01*
X270101842Y-98826191D02*
X269816128Y-98826191D01*
X269816128Y-98826191D02*
X269720890Y-98873810D01*
X269720890Y-98873810D02*
X269673271Y-98921429D01*
X269673271Y-98921429D02*
X269625652Y-99016667D01*
X269625652Y-99016667D02*
X269625652Y-99207143D01*
X269625652Y-99207143D02*
X269673271Y-99302381D01*
X290152380Y-67954819D02*
X289961904Y-67954819D01*
X289961904Y-67954819D02*
X289866666Y-68002438D01*
X289866666Y-68002438D02*
X289771428Y-68097676D01*
X289771428Y-68097676D02*
X289723809Y-68288152D01*
X289723809Y-68288152D02*
X289723809Y-68621485D01*
X289723809Y-68621485D02*
X289771428Y-68811961D01*
X289771428Y-68811961D02*
X289866666Y-68907200D01*
X289866666Y-68907200D02*
X289961904Y-68954819D01*
X289961904Y-68954819D02*
X290152380Y-68954819D01*
X290152380Y-68954819D02*
X290247618Y-68907200D01*
X290247618Y-68907200D02*
X290342856Y-68811961D01*
X290342856Y-68811961D02*
X290390475Y-68621485D01*
X290390475Y-68621485D02*
X290390475Y-68288152D01*
X290390475Y-68288152D02*
X290342856Y-68097676D01*
X290342856Y-68097676D02*
X290247618Y-68002438D01*
X290247618Y-68002438D02*
X290152380Y-67954819D01*
X288819047Y-68954819D02*
X289295237Y-68954819D01*
X289295237Y-68954819D02*
X289295237Y-67954819D01*
X288485713Y-68431009D02*
X288152380Y-68431009D01*
X288009523Y-68954819D02*
X288485713Y-68954819D01*
X288485713Y-68954819D02*
X288485713Y-67954819D01*
X288485713Y-67954819D02*
X288009523Y-67954819D01*
X287580951Y-68954819D02*
X287580951Y-67954819D01*
X287580951Y-67954819D02*
X287342856Y-67954819D01*
X287342856Y-67954819D02*
X287199999Y-68002438D01*
X287199999Y-68002438D02*
X287104761Y-68097676D01*
X287104761Y-68097676D02*
X287057142Y-68192914D01*
X287057142Y-68192914D02*
X287009523Y-68383390D01*
X287009523Y-68383390D02*
X287009523Y-68526247D01*
X287009523Y-68526247D02*
X287057142Y-68716723D01*
X287057142Y-68716723D02*
X287104761Y-68811961D01*
X287104761Y-68811961D02*
X287199999Y-68907200D01*
X287199999Y-68907200D02*
X287342856Y-68954819D01*
X287342856Y-68954819D02*
X287580951Y-68954819D01*
X181785715Y-107709580D02*
X181833334Y-107757200D01*
X181833334Y-107757200D02*
X181976191Y-107804819D01*
X181976191Y-107804819D02*
X182071429Y-107804819D01*
X182071429Y-107804819D02*
X182214286Y-107757200D01*
X182214286Y-107757200D02*
X182309524Y-107661961D01*
X182309524Y-107661961D02*
X182357143Y-107566723D01*
X182357143Y-107566723D02*
X182404762Y-107376247D01*
X182404762Y-107376247D02*
X182404762Y-107233390D01*
X182404762Y-107233390D02*
X182357143Y-107042914D01*
X182357143Y-107042914D02*
X182309524Y-106947676D01*
X182309524Y-106947676D02*
X182214286Y-106852438D01*
X182214286Y-106852438D02*
X182071429Y-106804819D01*
X182071429Y-106804819D02*
X181976191Y-106804819D01*
X181976191Y-106804819D02*
X181833334Y-106852438D01*
X181833334Y-106852438D02*
X181785715Y-106900057D01*
X181357143Y-107804819D02*
X181357143Y-107138152D01*
X181357143Y-107328628D02*
X181309524Y-107233390D01*
X181309524Y-107233390D02*
X181261905Y-107185771D01*
X181261905Y-107185771D02*
X181166667Y-107138152D01*
X181166667Y-107138152D02*
X181071429Y-107138152D01*
X180833333Y-107138152D02*
X180595238Y-107804819D01*
X180357143Y-107138152D02*
X180595238Y-107804819D01*
X180595238Y-107804819D02*
X180690476Y-108042914D01*
X180690476Y-108042914D02*
X180738095Y-108090533D01*
X180738095Y-108090533D02*
X180833333Y-108138152D01*
X180023809Y-107757200D02*
X179928571Y-107804819D01*
X179928571Y-107804819D02*
X179738095Y-107804819D01*
X179738095Y-107804819D02*
X179642857Y-107757200D01*
X179642857Y-107757200D02*
X179595238Y-107661961D01*
X179595238Y-107661961D02*
X179595238Y-107614342D01*
X179595238Y-107614342D02*
X179642857Y-107519104D01*
X179642857Y-107519104D02*
X179738095Y-107471485D01*
X179738095Y-107471485D02*
X179880952Y-107471485D01*
X179880952Y-107471485D02*
X179976190Y-107423866D01*
X179976190Y-107423866D02*
X180023809Y-107328628D01*
X180023809Y-107328628D02*
X180023809Y-107281009D01*
X180023809Y-107281009D02*
X179976190Y-107185771D01*
X179976190Y-107185771D02*
X179880952Y-107138152D01*
X179880952Y-107138152D02*
X179738095Y-107138152D01*
X179738095Y-107138152D02*
X179642857Y-107185771D01*
X179309523Y-107138152D02*
X178928571Y-107138152D01*
X179166666Y-106804819D02*
X179166666Y-107661961D01*
X179166666Y-107661961D02*
X179119047Y-107757200D01*
X179119047Y-107757200D02*
X179023809Y-107804819D01*
X179023809Y-107804819D02*
X178928571Y-107804819D01*
X178166666Y-107804819D02*
X178166666Y-107281009D01*
X178166666Y-107281009D02*
X178214285Y-107185771D01*
X178214285Y-107185771D02*
X178309523Y-107138152D01*
X178309523Y-107138152D02*
X178499999Y-107138152D01*
X178499999Y-107138152D02*
X178595237Y-107185771D01*
X178166666Y-107757200D02*
X178261904Y-107804819D01*
X178261904Y-107804819D02*
X178499999Y-107804819D01*
X178499999Y-107804819D02*
X178595237Y-107757200D01*
X178595237Y-107757200D02*
X178642856Y-107661961D01*
X178642856Y-107661961D02*
X178642856Y-107566723D01*
X178642856Y-107566723D02*
X178595237Y-107471485D01*
X178595237Y-107471485D02*
X178499999Y-107423866D01*
X178499999Y-107423866D02*
X178261904Y-107423866D01*
X178261904Y-107423866D02*
X178166666Y-107376247D01*
X177547618Y-107804819D02*
X177642856Y-107757200D01*
X177642856Y-107757200D02*
X177690475Y-107661961D01*
X177690475Y-107661961D02*
X177690475Y-106804819D01*
X275460713Y-87954819D02*
X275460713Y-88764342D01*
X275460713Y-88764342D02*
X275413094Y-88859580D01*
X275413094Y-88859580D02*
X275365475Y-88907200D01*
X275365475Y-88907200D02*
X275270237Y-88954819D01*
X275270237Y-88954819D02*
X275079761Y-88954819D01*
X275079761Y-88954819D02*
X274984523Y-88907200D01*
X274984523Y-88907200D02*
X274936904Y-88859580D01*
X274936904Y-88859580D02*
X274889285Y-88764342D01*
X274889285Y-88764342D02*
X274889285Y-87954819D01*
X274413094Y-88954819D02*
X274413094Y-87954819D01*
X274413094Y-87954819D02*
X274174999Y-87954819D01*
X274174999Y-87954819D02*
X274032142Y-88002438D01*
X274032142Y-88002438D02*
X273936904Y-88097676D01*
X273936904Y-88097676D02*
X273889285Y-88192914D01*
X273889285Y-88192914D02*
X273841666Y-88383390D01*
X273841666Y-88383390D02*
X273841666Y-88526247D01*
X273841666Y-88526247D02*
X273889285Y-88716723D01*
X273889285Y-88716723D02*
X273936904Y-88811961D01*
X273936904Y-88811961D02*
X274032142Y-88907200D01*
X274032142Y-88907200D02*
X274174999Y-88954819D01*
X274174999Y-88954819D02*
X274413094Y-88954819D01*
X188995238Y-118454819D02*
X189328571Y-117978628D01*
X189566666Y-118454819D02*
X189566666Y-117454819D01*
X189566666Y-117454819D02*
X189185714Y-117454819D01*
X189185714Y-117454819D02*
X189090476Y-117502438D01*
X189090476Y-117502438D02*
X189042857Y-117550057D01*
X189042857Y-117550057D02*
X188995238Y-117645295D01*
X188995238Y-117645295D02*
X188995238Y-117788152D01*
X188995238Y-117788152D02*
X189042857Y-117883390D01*
X189042857Y-117883390D02*
X189090476Y-117931009D01*
X189090476Y-117931009D02*
X189185714Y-117978628D01*
X189185714Y-117978628D02*
X189566666Y-117978628D01*
X188566666Y-118454819D02*
X188566666Y-117454819D01*
X188566666Y-117454819D02*
X188185714Y-117454819D01*
X188185714Y-117454819D02*
X188090476Y-117502438D01*
X188090476Y-117502438D02*
X188042857Y-117550057D01*
X188042857Y-117550057D02*
X187995238Y-117645295D01*
X187995238Y-117645295D02*
X187995238Y-117788152D01*
X187995238Y-117788152D02*
X188042857Y-117883390D01*
X188042857Y-117883390D02*
X188090476Y-117931009D01*
X188090476Y-117931009D02*
X188185714Y-117978628D01*
X188185714Y-117978628D02*
X188566666Y-117978628D01*
X187614285Y-117550057D02*
X187566666Y-117502438D01*
X187566666Y-117502438D02*
X187471428Y-117454819D01*
X187471428Y-117454819D02*
X187233333Y-117454819D01*
X187233333Y-117454819D02*
X187138095Y-117502438D01*
X187138095Y-117502438D02*
X187090476Y-117550057D01*
X187090476Y-117550057D02*
X187042857Y-117645295D01*
X187042857Y-117645295D02*
X187042857Y-117740533D01*
X187042857Y-117740533D02*
X187090476Y-117883390D01*
X187090476Y-117883390D02*
X187661904Y-118454819D01*
X187661904Y-118454819D02*
X187042857Y-118454819D01*
X186423809Y-117454819D02*
X186328571Y-117454819D01*
X186328571Y-117454819D02*
X186233333Y-117502438D01*
X186233333Y-117502438D02*
X186185714Y-117550057D01*
X186185714Y-117550057D02*
X186138095Y-117645295D01*
X186138095Y-117645295D02*
X186090476Y-117835771D01*
X186090476Y-117835771D02*
X186090476Y-118073866D01*
X186090476Y-118073866D02*
X186138095Y-118264342D01*
X186138095Y-118264342D02*
X186185714Y-118359580D01*
X186185714Y-118359580D02*
X186233333Y-118407200D01*
X186233333Y-118407200D02*
X186328571Y-118454819D01*
X186328571Y-118454819D02*
X186423809Y-118454819D01*
X186423809Y-118454819D02*
X186519047Y-118407200D01*
X186519047Y-118407200D02*
X186566666Y-118359580D01*
X186566666Y-118359580D02*
X186614285Y-118264342D01*
X186614285Y-118264342D02*
X186661904Y-118073866D01*
X186661904Y-118073866D02*
X186661904Y-117835771D01*
X186661904Y-117835771D02*
X186614285Y-117645295D01*
X186614285Y-117645295D02*
X186566666Y-117550057D01*
X186566666Y-117550057D02*
X186519047Y-117502438D01*
X186519047Y-117502438D02*
X186423809Y-117454819D01*
X185233333Y-117788152D02*
X185233333Y-118454819D01*
X185471428Y-117407200D02*
X185709523Y-118121485D01*
X185709523Y-118121485D02*
X185090476Y-118121485D01*
X184519047Y-117454819D02*
X184423809Y-117454819D01*
X184423809Y-117454819D02*
X184328571Y-117502438D01*
X184328571Y-117502438D02*
X184280952Y-117550057D01*
X184280952Y-117550057D02*
X184233333Y-117645295D01*
X184233333Y-117645295D02*
X184185714Y-117835771D01*
X184185714Y-117835771D02*
X184185714Y-118073866D01*
X184185714Y-118073866D02*
X184233333Y-118264342D01*
X184233333Y-118264342D02*
X184280952Y-118359580D01*
X184280952Y-118359580D02*
X184328571Y-118407200D01*
X184328571Y-118407200D02*
X184423809Y-118454819D01*
X184423809Y-118454819D02*
X184519047Y-118454819D01*
X184519047Y-118454819D02*
X184614285Y-118407200D01*
X184614285Y-118407200D02*
X184661904Y-118359580D01*
X184661904Y-118359580D02*
X184709523Y-118264342D01*
X184709523Y-118264342D02*
X184757142Y-118073866D01*
X184757142Y-118073866D02*
X184757142Y-117835771D01*
X184757142Y-117835771D02*
X184709523Y-117645295D01*
X184709523Y-117645295D02*
X184661904Y-117550057D01*
X184661904Y-117550057D02*
X184614285Y-117502438D01*
X184614285Y-117502438D02*
X184519047Y-117454819D01*
X314764285Y-68907200D02*
X314621428Y-68954819D01*
X314621428Y-68954819D02*
X314383333Y-68954819D01*
X314383333Y-68954819D02*
X314288095Y-68907200D01*
X314288095Y-68907200D02*
X314240476Y-68859580D01*
X314240476Y-68859580D02*
X314192857Y-68764342D01*
X314192857Y-68764342D02*
X314192857Y-68669104D01*
X314192857Y-68669104D02*
X314240476Y-68573866D01*
X314240476Y-68573866D02*
X314288095Y-68526247D01*
X314288095Y-68526247D02*
X314383333Y-68478628D01*
X314383333Y-68478628D02*
X314573809Y-68431009D01*
X314573809Y-68431009D02*
X314669047Y-68383390D01*
X314669047Y-68383390D02*
X314716666Y-68335771D01*
X314716666Y-68335771D02*
X314764285Y-68240533D01*
X314764285Y-68240533D02*
X314764285Y-68145295D01*
X314764285Y-68145295D02*
X314716666Y-68050057D01*
X314716666Y-68050057D02*
X314669047Y-68002438D01*
X314669047Y-68002438D02*
X314573809Y-67954819D01*
X314573809Y-67954819D02*
X314335714Y-67954819D01*
X314335714Y-67954819D02*
X314192857Y-68002438D01*
X313859523Y-68288152D02*
X313669047Y-68954819D01*
X313669047Y-68954819D02*
X313478571Y-68478628D01*
X313478571Y-68478628D02*
X313288095Y-68954819D01*
X313288095Y-68954819D02*
X313097619Y-68288152D01*
X312716666Y-68954819D02*
X312716666Y-68288152D01*
X312716666Y-67954819D02*
X312764285Y-68002438D01*
X312764285Y-68002438D02*
X312716666Y-68050057D01*
X312716666Y-68050057D02*
X312669047Y-68002438D01*
X312669047Y-68002438D02*
X312716666Y-67954819D01*
X312716666Y-67954819D02*
X312716666Y-68050057D01*
X312383333Y-68288152D02*
X312002381Y-68288152D01*
X312240476Y-67954819D02*
X312240476Y-68811961D01*
X312240476Y-68811961D02*
X312192857Y-68907200D01*
X312192857Y-68907200D02*
X312097619Y-68954819D01*
X312097619Y-68954819D02*
X312002381Y-68954819D01*
X311240476Y-68907200D02*
X311335714Y-68954819D01*
X311335714Y-68954819D02*
X311526190Y-68954819D01*
X311526190Y-68954819D02*
X311621428Y-68907200D01*
X311621428Y-68907200D02*
X311669047Y-68859580D01*
X311669047Y-68859580D02*
X311716666Y-68764342D01*
X311716666Y-68764342D02*
X311716666Y-68478628D01*
X311716666Y-68478628D02*
X311669047Y-68383390D01*
X311669047Y-68383390D02*
X311621428Y-68335771D01*
X311621428Y-68335771D02*
X311526190Y-68288152D01*
X311526190Y-68288152D02*
X311335714Y-68288152D01*
X311335714Y-68288152D02*
X311240476Y-68335771D01*
X310811904Y-68954819D02*
X310811904Y-67954819D01*
X310383333Y-68954819D02*
X310383333Y-68431009D01*
X310383333Y-68431009D02*
X310430952Y-68335771D01*
X310430952Y-68335771D02*
X310526190Y-68288152D01*
X310526190Y-68288152D02*
X310669047Y-68288152D01*
X310669047Y-68288152D02*
X310764285Y-68335771D01*
X310764285Y-68335771D02*
X310811904Y-68383390D01*
D12*
%TO.C,D59*%
X46991250Y-114610000D02*
X46991250Y-111950000D01*
X48691250Y-114610000D02*
X46991250Y-114610000D01*
X48691250Y-114610000D02*
X48691250Y-111950000D01*
%TO.C,LED51*%
X179712500Y-91980000D02*
X179712500Y-91500000D01*
X180192500Y-91500000D01*
X179712500Y-91980000D01*
G36*
X179712500Y-91980000D02*
G01*
X179712500Y-91500000D01*
X180192500Y-91500000D01*
X179712500Y-91980000D01*
G37*
%TO.C,LED48*%
X122562500Y-91980000D02*
X122562500Y-91500000D01*
X123042500Y-91500000D01*
X122562500Y-91980000D01*
G36*
X122562500Y-91980000D02*
G01*
X122562500Y-91500000D01*
X123042500Y-91500000D01*
X122562500Y-91980000D01*
G37*
%TO.C,R1*%
X168065000Y-111627064D02*
X168065000Y-111172936D01*
X169535000Y-111627064D02*
X169535000Y-111172936D01*
D11*
%TO.C,SW39*%
X199922676Y-79870220D02*
X199922676Y-79400220D01*
X199922676Y-82950220D02*
X199922676Y-82720220D01*
X200422676Y-78900220D02*
X204987500Y-78900220D01*
X201472676Y-82950220D02*
X199922676Y-82950220D01*
X208872676Y-82950220D02*
X202972676Y-82950220D01*
X210872676Y-77300220D02*
X210872676Y-77060220D01*
X210872676Y-80150220D02*
X210872676Y-80950220D01*
X199922676Y-79400220D02*
G75*
G02*
X200422676Y-78900220I500001J-1D01*
G01*
X207281822Y-77060220D02*
G75*
G02*
X204987500Y-78900220I-2293456J509332D01*
G01*
X210872676Y-80950220D02*
G75*
G02*
X208872676Y-82950220I-2000004J4D01*
G01*
D12*
%TO.C,D50*%
X163672500Y-95560000D02*
X163672500Y-92900000D01*
X165372500Y-95560000D02*
X163672500Y-95560000D01*
X165372500Y-95560000D02*
X165372500Y-92900000D01*
D11*
%TO.C,SW55*%
X247547676Y-98920220D02*
X247547676Y-98450220D01*
X247547676Y-102000220D02*
X247547676Y-101770220D01*
X248047676Y-97950220D02*
X252612500Y-97950220D01*
X249097676Y-102000220D02*
X247547676Y-102000220D01*
X256497676Y-102000220D02*
X250597676Y-102000220D01*
X258497676Y-96350220D02*
X258497676Y-96110220D01*
X258497676Y-99200220D02*
X258497676Y-100000220D01*
X247547676Y-98450220D02*
G75*
G02*
X248047676Y-97950220I500001J-1D01*
G01*
X254906822Y-96110220D02*
G75*
G02*
X252612500Y-97950220I-2293456J509332D01*
G01*
X258497676Y-100000220D02*
G75*
G02*
X256497676Y-102000220I-2000004J4D01*
G01*
D12*
%TO.C,D26*%
X244635000Y-57460000D02*
X244635000Y-54800000D01*
X246335000Y-57460000D02*
X244635000Y-57460000D01*
X246335000Y-57460000D02*
X246335000Y-54800000D01*
%TO.C,C11*%
X179288748Y-110365000D02*
X179811252Y-110365000D01*
X179288748Y-111835000D02*
X179811252Y-111835000D01*
D11*
%TO.C,SW60*%
X59428926Y-117970220D02*
X59428926Y-117500220D01*
X59428926Y-121050220D02*
X59428926Y-120820220D01*
X59928926Y-117000220D02*
X64493750Y-117000220D01*
X60978926Y-121050220D02*
X59428926Y-121050220D01*
X68378926Y-121050220D02*
X62478926Y-121050220D01*
X70378926Y-115400220D02*
X70378926Y-115160220D01*
X70378926Y-118250220D02*
X70378926Y-119050220D01*
X59428926Y-117500220D02*
G75*
G02*
X59928926Y-117000220I500001J-1D01*
G01*
X66788072Y-115160220D02*
G75*
G02*
X64493750Y-117000220I-2293456J509332D01*
G01*
X70378926Y-119050220D02*
G75*
G02*
X68378926Y-121050220I-2000004J4D01*
G01*
D12*
%TO.C,LED45*%
X53506250Y-91980000D02*
X53506250Y-91500000D01*
X53986250Y-91500000D01*
X53506250Y-91980000D01*
G36*
X53506250Y-91980000D02*
G01*
X53506250Y-91500000D01*
X53986250Y-91500000D01*
X53506250Y-91980000D01*
G37*
D11*
%TO.C,SW23*%
X176110176Y-60820220D02*
X176110176Y-60350220D01*
X176110176Y-63900220D02*
X176110176Y-63670220D01*
X176610176Y-59850220D02*
X181175000Y-59850220D01*
X177660176Y-63900220D02*
X176110176Y-63900220D01*
X185060176Y-63900220D02*
X179160176Y-63900220D01*
X187060176Y-58250220D02*
X187060176Y-58010220D01*
X187060176Y-61100220D02*
X187060176Y-61900220D01*
X176110176Y-60350220D02*
G75*
G02*
X176610176Y-59850220I500001J-1D01*
G01*
X183469322Y-58010220D02*
G75*
G02*
X181175000Y-59850220I-2293456J509332D01*
G01*
X187060176Y-61900220D02*
G75*
G02*
X185060176Y-63900220I-2000004J4D01*
G01*
%TO.C,SW64*%
X249928926Y-117970220D02*
X249928926Y-117500220D01*
X249928926Y-121050220D02*
X249928926Y-120820220D01*
X250428926Y-117000220D02*
X254993750Y-117000220D01*
X251478926Y-121050220D02*
X249928926Y-121050220D01*
X258878926Y-121050220D02*
X252978926Y-121050220D01*
X260878926Y-115400220D02*
X260878926Y-115160220D01*
X260878926Y-118250220D02*
X260878926Y-119050220D01*
X249928926Y-117500220D02*
G75*
G02*
X250428926Y-117000220I500001J-1D01*
G01*
X257288072Y-115160220D02*
G75*
G02*
X254993750Y-117000220I-2293456J509332D01*
G01*
X260878926Y-119050220D02*
G75*
G02*
X258878926Y-121050220I-2000004J4D01*
G01*
D12*
%TO.C,LED15*%
X320350000Y-36850000D02*
X319870000Y-36850000D01*
X320350000Y-36370000D01*
X320350000Y-36850000D01*
G36*
X320350000Y-36850000D02*
G01*
X319870000Y-36850000D01*
X320350000Y-36370000D01*
X320350000Y-36850000D01*
G37*
%TO.C,D13*%
X273210000Y-38410000D02*
X273210000Y-35750000D01*
X274910000Y-38410000D02*
X273210000Y-38410000D01*
X274910000Y-38410000D02*
X274910000Y-35750000D01*
D11*
%TO.C,SW37*%
X161822676Y-79870220D02*
X161822676Y-79400220D01*
X161822676Y-82950220D02*
X161822676Y-82720220D01*
X162322676Y-78900220D02*
X166887500Y-78900220D01*
X163372676Y-82950220D02*
X161822676Y-82950220D01*
X170772676Y-82950220D02*
X164872676Y-82950220D01*
X172772676Y-77300220D02*
X172772676Y-77060220D01*
X172772676Y-80150220D02*
X172772676Y-80950220D01*
X161822676Y-79400220D02*
G75*
G02*
X162322676Y-78900220I500001J-1D01*
G01*
X169181822Y-77060220D02*
G75*
G02*
X166887500Y-78900220I-2293456J509332D01*
G01*
X172772676Y-80950220D02*
G75*
G02*
X170772676Y-82950220I-2000004J4D01*
G01*
D12*
%TO.C,LED65*%
X282250000Y-108050000D02*
X281770000Y-108050000D01*
X282250000Y-107570000D01*
X282250000Y-108050000D01*
G36*
X282250000Y-108050000D02*
G01*
X281770000Y-108050000D01*
X282250000Y-107570000D01*
X282250000Y-108050000D01*
G37*
D11*
%TO.C,SW44*%
X318985176Y-79870220D02*
X318985176Y-79400220D01*
X318985176Y-82950220D02*
X318985176Y-82720220D01*
X319485176Y-78900220D02*
X324050000Y-78900220D01*
X320535176Y-82950220D02*
X318985176Y-82950220D01*
X327935176Y-82950220D02*
X322035176Y-82950220D01*
X329935176Y-77300220D02*
X329935176Y-77060220D01*
X329935176Y-80150220D02*
X329935176Y-80950220D01*
X318985176Y-79400220D02*
G75*
G02*
X319485176Y-78900220I500001J-1D01*
G01*
X326344322Y-77060220D02*
G75*
G02*
X324050000Y-78900220I-2293456J509332D01*
G01*
X329935176Y-80950220D02*
G75*
G02*
X327935176Y-82950220I-2000004J4D01*
G01*
D12*
%TO.C,LED31*%
X36981250Y-69950000D02*
X36501250Y-69950000D01*
X36981250Y-69470000D01*
X36981250Y-69950000D01*
G36*
X36981250Y-69950000D02*
G01*
X36501250Y-69950000D01*
X36981250Y-69470000D01*
X36981250Y-69950000D01*
G37*
%TO.C,C16*%
X267661252Y-93565000D02*
X267138748Y-93565000D01*
X267661252Y-95035000D02*
X267138748Y-95035000D01*
%TO.C,LED64*%
X251293750Y-108050000D02*
X250813750Y-108050000D01*
X251293750Y-107570000D01*
X251293750Y-108050000D01*
G36*
X251293750Y-108050000D02*
G01*
X250813750Y-108050000D01*
X251293750Y-107570000D01*
X251293750Y-108050000D01*
G37*
%TO.C,LED33*%
X86987500Y-69950000D02*
X86507500Y-69950000D01*
X86987500Y-69470000D01*
X86987500Y-69950000D01*
G36*
X86987500Y-69950000D02*
G01*
X86507500Y-69950000D01*
X86987500Y-69470000D01*
X86987500Y-69950000D01*
G37*
%TO.C,D31*%
X46991250Y-76510000D02*
X46991250Y-73850000D01*
X48691250Y-76510000D02*
X46991250Y-76510000D01*
X48691250Y-76510000D02*
X48691250Y-73850000D01*
%TO.C,D56*%
X285116250Y-95560000D02*
X285116250Y-92900000D01*
X286816250Y-95560000D02*
X285116250Y-95560000D01*
X286816250Y-95560000D02*
X286816250Y-92900000D01*
%TO.C,LED26*%
X241625000Y-53880000D02*
X241625000Y-53400000D01*
X242105000Y-53400000D01*
X241625000Y-53880000D01*
G36*
X241625000Y-53880000D02*
G01*
X241625000Y-53400000D01*
X242105000Y-53400000D01*
X241625000Y-53880000D01*
G37*
%TO.C,LED21*%
X146375000Y-53880000D02*
X146375000Y-53400000D01*
X146855000Y-53400000D01*
X146375000Y-53880000D01*
G36*
X146375000Y-53880000D02*
G01*
X146375000Y-53400000D01*
X146855000Y-53400000D01*
X146375000Y-53880000D01*
G37*
%TO.C,LED6*%
X129850000Y-31850000D02*
X129370000Y-31850000D01*
X129850000Y-31370000D01*
X129850000Y-31850000D01*
G36*
X129850000Y-31850000D02*
G01*
X129370000Y-31850000D01*
X129850000Y-31370000D01*
X129850000Y-31850000D01*
G37*
%TO.C,LED61*%
X84606250Y-108050000D02*
X84126250Y-108050000D01*
X84606250Y-107570000D01*
X84606250Y-108050000D01*
G36*
X84606250Y-108050000D02*
G01*
X84126250Y-108050000D01*
X84606250Y-107570000D01*
X84606250Y-108050000D01*
G37*
%TO.C,D57*%
X311310000Y-95560000D02*
X311310000Y-92900000D01*
X313010000Y-95560000D02*
X311310000Y-95560000D01*
X313010000Y-95560000D02*
X313010000Y-92900000D01*
%TO.C,D60*%
X70803750Y-114610000D02*
X70803750Y-111950000D01*
X72503750Y-114610000D02*
X70803750Y-114610000D01*
X72503750Y-114610000D02*
X72503750Y-111950000D01*
%TO.C,LED13*%
X263200000Y-31850000D02*
X262720000Y-31850000D01*
X263200000Y-31370000D01*
X263200000Y-31850000D01*
G36*
X263200000Y-31850000D02*
G01*
X262720000Y-31850000D01*
X263200000Y-31370000D01*
X263200000Y-31850000D01*
G37*
%TO.C,D34*%
X116047500Y-76510000D02*
X116047500Y-73850000D01*
X117747500Y-76510000D02*
X116047500Y-76510000D01*
X117747500Y-76510000D02*
X117747500Y-73850000D01*
D11*
%TO.C,SW6*%
X128485176Y-41770220D02*
X128485176Y-41300220D01*
X128485176Y-44850220D02*
X128485176Y-44620220D01*
X128985176Y-40800220D02*
X133550000Y-40800220D01*
X130035176Y-44850220D02*
X128485176Y-44850220D01*
X137435176Y-44850220D02*
X131535176Y-44850220D01*
X139435176Y-39200220D02*
X139435176Y-38960220D01*
X139435176Y-42050220D02*
X139435176Y-42850220D01*
X128485176Y-41300220D02*
G75*
G02*
X128985176Y-40800220I500001J-1D01*
G01*
X135844322Y-38960220D02*
G75*
G02*
X133550000Y-40800220I-2293456J509332D01*
G01*
X139435176Y-42850220D02*
G75*
G02*
X137435176Y-44850220I-2000004J4D01*
G01*
D12*
%TO.C,C8*%
X193011252Y-115615000D02*
X192488748Y-115615000D01*
X193011252Y-117085000D02*
X192488748Y-117085000D01*
%TO.C,D53*%
X220822500Y-95560000D02*
X220822500Y-92900000D01*
X222522500Y-95560000D02*
X220822500Y-95560000D01*
X222522500Y-95560000D02*
X222522500Y-92900000D01*
%TO.C,LED30*%
X327350000Y-53880000D02*
X327350000Y-53400000D01*
X327830000Y-53400000D01*
X327350000Y-53880000D01*
G36*
X327350000Y-53880000D02*
G01*
X327350000Y-53400000D01*
X327830000Y-53400000D01*
X327350000Y-53880000D01*
G37*
%TO.C,D58*%
X330360000Y-95560000D02*
X330360000Y-92900000D01*
X332060000Y-95560000D02*
X330360000Y-95560000D01*
X332060000Y-95560000D02*
X332060000Y-92900000D01*
%TO.C,D51*%
X182722500Y-95560000D02*
X182722500Y-92900000D01*
X184422500Y-95560000D02*
X182722500Y-95560000D01*
X184422500Y-95560000D02*
X184422500Y-92900000D01*
%TO.C,LED62*%
X156043750Y-108050000D02*
X155563750Y-108050000D01*
X156043750Y-107570000D01*
X156043750Y-108050000D01*
G36*
X156043750Y-108050000D02*
G01*
X155563750Y-108050000D01*
X156043750Y-107570000D01*
X156043750Y-108050000D01*
G37*
D11*
%TO.C,SW16*%
X37997676Y-60820220D02*
X37997676Y-60350220D01*
X37997676Y-63900220D02*
X37997676Y-63670220D01*
X38497676Y-59850220D02*
X43062500Y-59850220D01*
X39547676Y-63900220D02*
X37997676Y-63900220D01*
X46947676Y-63900220D02*
X41047676Y-63900220D01*
X48947676Y-58250220D02*
X48947676Y-58010220D01*
X48947676Y-61100220D02*
X48947676Y-61900220D01*
X37997676Y-60350220D02*
G75*
G02*
X38497676Y-59850220I500001J-1D01*
G01*
X45356822Y-58010220D02*
G75*
G02*
X43062500Y-59850220I-2293456J509332D01*
G01*
X48947676Y-61900220D02*
G75*
G02*
X46947676Y-63900220I-2000004J4D01*
G01*
D12*
%TO.C,D54*%
X239872500Y-95560000D02*
X239872500Y-92900000D01*
X241572500Y-95560000D02*
X239872500Y-95560000D01*
X241572500Y-95560000D02*
X241572500Y-92900000D01*
D11*
%TO.C,SW9*%
X185635176Y-41770220D02*
X185635176Y-41300220D01*
X185635176Y-44850220D02*
X185635176Y-44620220D01*
X186135176Y-40800220D02*
X190700000Y-40800220D01*
X187185176Y-44850220D02*
X185635176Y-44850220D01*
X194585176Y-44850220D02*
X188685176Y-44850220D01*
X196585176Y-39200220D02*
X196585176Y-38960220D01*
X196585176Y-42050220D02*
X196585176Y-42850220D01*
X185635176Y-41300220D02*
G75*
G02*
X186135176Y-40800220I500001J-1D01*
G01*
X192994322Y-38960220D02*
G75*
G02*
X190700000Y-40800220I-2293456J509332D01*
G01*
X196585176Y-42850220D02*
G75*
G02*
X194585176Y-44850220I-2000004J4D01*
G01*
%TO.C,SW49*%
X133247676Y-98920220D02*
X133247676Y-98450220D01*
X133247676Y-102000220D02*
X133247676Y-101770220D01*
X133747676Y-97950220D02*
X138312500Y-97950220D01*
X134797676Y-102000220D02*
X133247676Y-102000220D01*
X142197676Y-102000220D02*
X136297676Y-102000220D01*
X144197676Y-96350220D02*
X144197676Y-96110220D01*
X144197676Y-99200220D02*
X144197676Y-100000220D01*
X133247676Y-98450220D02*
G75*
G02*
X133747676Y-97950220I500001J-1D01*
G01*
X140606822Y-96110220D02*
G75*
G02*
X138312500Y-97950220I-2293456J509332D01*
G01*
X144197676Y-100000220D02*
G75*
G02*
X142197676Y-102000220I-2000004J4D01*
G01*
D12*
%TO.C,U1*%
X169140000Y-113510000D02*
X169140000Y-121500000D01*
X175360000Y-113500000D02*
X175360000Y-121500000D01*
X169940000Y-113270000D02*
X169460000Y-113270000D01*
X169940000Y-112790000D01*
X169940000Y-113270000D01*
G36*
X169940000Y-113270000D02*
G01*
X169460000Y-113270000D01*
X169940000Y-112790000D01*
X169940000Y-113270000D01*
G37*
D11*
%TO.C,SW36*%
X142772676Y-79870220D02*
X142772676Y-79400220D01*
X142772676Y-82950220D02*
X142772676Y-82720220D01*
X143272676Y-78900220D02*
X147837500Y-78900220D01*
X144322676Y-82950220D02*
X142772676Y-82950220D01*
X151722676Y-82950220D02*
X145822676Y-82950220D01*
X153722676Y-77300220D02*
X153722676Y-77060220D01*
X153722676Y-80150220D02*
X153722676Y-80950220D01*
X142772676Y-79400220D02*
G75*
G02*
X143272676Y-78900220I500001J-1D01*
G01*
X150131822Y-77060220D02*
G75*
G02*
X147837500Y-78900220I-2293456J509332D01*
G01*
X153722676Y-80950220D02*
G75*
G02*
X151722676Y-82950220I-2000004J4D01*
G01*
D12*
%TO.C,LED60*%
X60793750Y-108050000D02*
X60313750Y-108050000D01*
X60793750Y-107570000D01*
X60793750Y-108050000D01*
G36*
X60793750Y-108050000D02*
G01*
X60313750Y-108050000D01*
X60793750Y-107570000D01*
X60793750Y-108050000D01*
G37*
D11*
%TO.C,SW54*%
X228497676Y-98920220D02*
X228497676Y-98450220D01*
X228497676Y-102000220D02*
X228497676Y-101770220D01*
X228997676Y-97950220D02*
X233562500Y-97950220D01*
X230047676Y-102000220D02*
X228497676Y-102000220D01*
X237447676Y-102000220D02*
X231547676Y-102000220D01*
X239447676Y-96350220D02*
X239447676Y-96110220D01*
X239447676Y-99200220D02*
X239447676Y-100000220D01*
X228497676Y-98450220D02*
G75*
G02*
X228997676Y-97950220I500001J-1D01*
G01*
X235856822Y-96110220D02*
G75*
G02*
X233562500Y-97950220I-2293456J509332D01*
G01*
X239447676Y-100000220D02*
G75*
G02*
X237447676Y-102000220I-2000004J4D01*
G01*
D12*
%TO.C,D45*%
X56516250Y-95560000D02*
X56516250Y-92900000D01*
X58216250Y-95560000D02*
X56516250Y-95560000D01*
X58216250Y-95560000D02*
X58216250Y-92900000D01*
%TO.C,LED43*%
X289393750Y-69950000D02*
X288913750Y-69950000D01*
X289393750Y-69470000D01*
X289393750Y-69950000D01*
G36*
X289393750Y-69950000D02*
G01*
X288913750Y-69950000D01*
X289393750Y-69470000D01*
X289393750Y-69950000D01*
G37*
%TO.C,LED19*%
X108275000Y-53880000D02*
X108275000Y-53400000D01*
X108755000Y-53400000D01*
X108275000Y-53880000D01*
G36*
X108275000Y-53880000D02*
G01*
X108275000Y-53400000D01*
X108755000Y-53400000D01*
X108275000Y-53880000D01*
G37*
%TO.C,LED34*%
X106037500Y-69950000D02*
X105557500Y-69950000D01*
X106037500Y-69470000D01*
X106037500Y-69950000D01*
G36*
X106037500Y-69950000D02*
G01*
X105557500Y-69950000D01*
X106037500Y-69470000D01*
X106037500Y-69950000D01*
G37*
D11*
%TO.C,SW48*%
X114197676Y-98920220D02*
X114197676Y-98450220D01*
X114197676Y-102000220D02*
X114197676Y-101770220D01*
X114697676Y-97950220D02*
X119262500Y-97950220D01*
X115747676Y-102000220D02*
X114197676Y-102000220D01*
X123147676Y-102000220D02*
X117247676Y-102000220D01*
X125147676Y-96350220D02*
X125147676Y-96110220D01*
X125147676Y-99200220D02*
X125147676Y-100000220D01*
X114197676Y-98450220D02*
G75*
G02*
X114697676Y-97950220I500001J-1D01*
G01*
X121556822Y-96110220D02*
G75*
G02*
X119262500Y-97950220I-2293456J509332D01*
G01*
X125147676Y-100000220D02*
G75*
G02*
X123147676Y-102000220I-2000004J4D01*
G01*
D12*
%TO.C,C17*%
X267178748Y-99665000D02*
X267701252Y-99665000D01*
X267178748Y-101135000D02*
X267701252Y-101135000D01*
%TO.C,D18*%
X92235000Y-57460000D02*
X92235000Y-54800000D01*
X93935000Y-57460000D02*
X92235000Y-57460000D01*
X93935000Y-57460000D02*
X93935000Y-54800000D01*
%TO.C,D16*%
X49372500Y-57460000D02*
X49372500Y-54800000D01*
X51072500Y-57460000D02*
X49372500Y-57460000D01*
X51072500Y-57460000D02*
X51072500Y-54800000D01*
%TO.C,D62*%
X166053750Y-114610000D02*
X166053750Y-111950000D01*
X167753750Y-114610000D02*
X166053750Y-114610000D01*
X167753750Y-114610000D02*
X167753750Y-111950000D01*
D11*
%TO.C,SW22*%
X157060176Y-60820220D02*
X157060176Y-60350220D01*
X157060176Y-63900220D02*
X157060176Y-63670220D01*
X157560176Y-59850220D02*
X162125000Y-59850220D01*
X158610176Y-63900220D02*
X157060176Y-63900220D01*
X166010176Y-63900220D02*
X160110176Y-63900220D01*
X168010176Y-58250220D02*
X168010176Y-58010220D01*
X168010176Y-61100220D02*
X168010176Y-61900220D01*
X157060176Y-60350220D02*
G75*
G02*
X157560176Y-59850220I500001J-1D01*
G01*
X164419322Y-58010220D02*
G75*
G02*
X162125000Y-59850220I-2293456J509332D01*
G01*
X168010176Y-61900220D02*
G75*
G02*
X166010176Y-63900220I-2000004J4D01*
G01*
D12*
%TO.C,LED7*%
X148900000Y-31850000D02*
X148420000Y-31850000D01*
X148900000Y-31370000D01*
X148900000Y-31850000D01*
G36*
X148900000Y-31850000D02*
G01*
X148420000Y-31850000D01*
X148900000Y-31370000D01*
X148900000Y-31850000D01*
G37*
D11*
%TO.C,SW25*%
X214210176Y-60820220D02*
X214210176Y-60350220D01*
X214210176Y-63900220D02*
X214210176Y-63670220D01*
X214710176Y-59850220D02*
X219275000Y-59850220D01*
X215760176Y-63900220D02*
X214210176Y-63900220D01*
X223160176Y-63900220D02*
X217260176Y-63900220D01*
X225160176Y-58250220D02*
X225160176Y-58010220D01*
X225160176Y-61100220D02*
X225160176Y-61900220D01*
X214210176Y-60350220D02*
G75*
G02*
X214710176Y-59850220I500001J-1D01*
G01*
X221569322Y-58010220D02*
G75*
G02*
X219275000Y-59850220I-2293456J509332D01*
G01*
X225160176Y-61900220D02*
G75*
G02*
X223160176Y-63900220I-2000004J4D01*
G01*
D12*
%TO.C,D42*%
X268447500Y-76510000D02*
X268447500Y-73850000D01*
X270147500Y-76510000D02*
X268447500Y-76510000D01*
X270147500Y-76510000D02*
X270147500Y-73850000D01*
D11*
%TO.C,SW42*%
X257072676Y-79870220D02*
X257072676Y-79400220D01*
X257072676Y-82950220D02*
X257072676Y-82720220D01*
X257572676Y-78900220D02*
X262137500Y-78900220D01*
X258622676Y-82950220D02*
X257072676Y-82950220D01*
X266022676Y-82950220D02*
X260122676Y-82950220D01*
X268022676Y-77300220D02*
X268022676Y-77060220D01*
X268022676Y-80150220D02*
X268022676Y-80950220D01*
X257072676Y-79400220D02*
G75*
G02*
X257572676Y-78900220I500001J-1D01*
G01*
X264431822Y-77060220D02*
G75*
G02*
X262137500Y-78900220I-2293456J509332D01*
G01*
X268022676Y-80950220D02*
G75*
G02*
X266022676Y-82950220I-2000004J4D01*
G01*
%TO.C,SW3*%
X71335176Y-41770220D02*
X71335176Y-41300220D01*
X71335176Y-44850220D02*
X71335176Y-44620220D01*
X71835176Y-40800220D02*
X76400000Y-40800220D01*
X72885176Y-44850220D02*
X71335176Y-44850220D01*
X80285176Y-44850220D02*
X74385176Y-44850220D01*
X82285176Y-39200220D02*
X82285176Y-38960220D01*
X82285176Y-42050220D02*
X82285176Y-42850220D01*
X71335176Y-41300220D02*
G75*
G02*
X71835176Y-40800220I500001J-1D01*
G01*
X78694322Y-38960220D02*
G75*
G02*
X76400000Y-40800220I-2293456J509332D01*
G01*
X82285176Y-42850220D02*
G75*
G02*
X80285176Y-44850220I-2000004J4D01*
G01*
D12*
%TO.C,LED28*%
X279725000Y-53880000D02*
X279725000Y-53400000D01*
X280205000Y-53400000D01*
X279725000Y-53880000D01*
G36*
X279725000Y-53880000D02*
G01*
X279725000Y-53400000D01*
X280205000Y-53400000D01*
X279725000Y-53880000D01*
G37*
%TO.C,D36*%
X154147500Y-76510000D02*
X154147500Y-73850000D01*
X155847500Y-76510000D02*
X154147500Y-76510000D01*
X155847500Y-76510000D02*
X155847500Y-73850000D01*
%TO.C,D40*%
X230347500Y-76510000D02*
X230347500Y-73850000D01*
X232047500Y-76510000D02*
X230347500Y-76510000D01*
X232047500Y-76510000D02*
X232047500Y-73850000D01*
D11*
%TO.C,SW32*%
X66572676Y-79870220D02*
X66572676Y-79400220D01*
X66572676Y-82950220D02*
X66572676Y-82720220D01*
X67072676Y-78900220D02*
X71637500Y-78900220D01*
X68122676Y-82950220D02*
X66572676Y-82950220D01*
X75522676Y-82950220D02*
X69622676Y-82950220D01*
X77522676Y-77300220D02*
X77522676Y-77060220D01*
X77522676Y-80150220D02*
X77522676Y-80950220D01*
X66572676Y-79400220D02*
G75*
G02*
X67072676Y-78900220I500001J-1D01*
G01*
X73931822Y-77060220D02*
G75*
G02*
X71637500Y-78900220I-2293456J509332D01*
G01*
X77522676Y-80950220D02*
G75*
G02*
X75522676Y-82950220I-2000004J4D01*
G01*
D12*
%TO.C,C12*%
X193672135Y-120711252D02*
X193672135Y-120188748D01*
X195142135Y-120711252D02*
X195142135Y-120188748D01*
%TO.C,R3*%
X191700708Y-120677064D02*
X191700708Y-120222936D01*
X193170708Y-120677064D02*
X193170708Y-120222936D01*
D11*
%TO.C,SW28*%
X271360176Y-60820220D02*
X271360176Y-60350220D01*
X271360176Y-63900220D02*
X271360176Y-63670220D01*
X271860176Y-59850220D02*
X276425000Y-59850220D01*
X272910176Y-63900220D02*
X271360176Y-63900220D01*
X280310176Y-63900220D02*
X274410176Y-63900220D01*
X282310176Y-58250220D02*
X282310176Y-58010220D01*
X282310176Y-61100220D02*
X282310176Y-61900220D01*
X271360176Y-60350220D02*
G75*
G02*
X271860176Y-59850220I500001J-1D01*
G01*
X278719322Y-58010220D02*
G75*
G02*
X276425000Y-59850220I-2293456J509332D01*
G01*
X282310176Y-61900220D02*
G75*
G02*
X280310176Y-63900220I-2000004J4D01*
G01*
%TO.C,SW62*%
X154678926Y-117970220D02*
X154678926Y-117500220D01*
X154678926Y-121050220D02*
X154678926Y-120820220D01*
X155178926Y-117000220D02*
X159743750Y-117000220D01*
X156228926Y-121050220D02*
X154678926Y-121050220D01*
X163628926Y-121050220D02*
X157728926Y-121050220D01*
X165628926Y-115400220D02*
X165628926Y-115160220D01*
X165628926Y-118250220D02*
X165628926Y-119050220D01*
X154678926Y-117500220D02*
G75*
G02*
X155178926Y-117000220I500001J-1D01*
G01*
X162038072Y-115160220D02*
G75*
G02*
X159743750Y-117000220I-2293456J509332D01*
G01*
X165628926Y-119050220D02*
G75*
G02*
X163628926Y-121050220I-2000004J4D01*
G01*
%TO.C,SW2*%
X52285176Y-41770220D02*
X52285176Y-41300220D01*
X52285176Y-44850220D02*
X52285176Y-44620220D01*
X52785176Y-40800220D02*
X57350000Y-40800220D01*
X53835176Y-44850220D02*
X52285176Y-44850220D01*
X61235176Y-44850220D02*
X55335176Y-44850220D01*
X63235176Y-39200220D02*
X63235176Y-38960220D01*
X63235176Y-42050220D02*
X63235176Y-42850220D01*
X52285176Y-41300220D02*
G75*
G02*
X52785176Y-40800220I500001J-1D01*
G01*
X59644322Y-38960220D02*
G75*
G02*
X57350000Y-40800220I-2293456J509332D01*
G01*
X63235176Y-42850220D02*
G75*
G02*
X61235176Y-44850220I-2000004J4D01*
G01*
D12*
%TO.C,D27*%
X263685000Y-57460000D02*
X263685000Y-54800000D01*
X265385000Y-57460000D02*
X263685000Y-57460000D01*
X265385000Y-57460000D02*
X265385000Y-54800000D01*
D11*
%TO.C,SW10*%
X204685176Y-41770220D02*
X204685176Y-41300220D01*
X204685176Y-44850220D02*
X204685176Y-44620220D01*
X205185176Y-40800220D02*
X209750000Y-40800220D01*
X206235176Y-44850220D02*
X204685176Y-44850220D01*
X213635176Y-44850220D02*
X207735176Y-44850220D01*
X215635176Y-39200220D02*
X215635176Y-38960220D01*
X215635176Y-42050220D02*
X215635176Y-42850220D01*
X204685176Y-41300220D02*
G75*
G02*
X205185176Y-40800220I500001J-1D01*
G01*
X212044322Y-38960220D02*
G75*
G02*
X209750000Y-40800220I-2293456J509332D01*
G01*
X215635176Y-42850220D02*
G75*
G02*
X213635176Y-44850220I-2000004J4D01*
G01*
%TO.C,SW46*%
X76097676Y-98920220D02*
X76097676Y-98450220D01*
X76097676Y-102000220D02*
X76097676Y-101770220D01*
X76597676Y-97950220D02*
X81162500Y-97950220D01*
X77647676Y-102000220D02*
X76097676Y-102000220D01*
X85047676Y-102000220D02*
X79147676Y-102000220D01*
X87047676Y-96350220D02*
X87047676Y-96110220D01*
X87047676Y-99200220D02*
X87047676Y-100000220D01*
X76097676Y-98450220D02*
G75*
G02*
X76597676Y-97950220I500001J-1D01*
G01*
X83456822Y-96110220D02*
G75*
G02*
X81162500Y-97950220I-2293456J509332D01*
G01*
X87047676Y-100000220D02*
G75*
G02*
X85047676Y-102000220I-2000004J4D01*
G01*
D12*
%TO.C,LED12*%
X244150000Y-31850000D02*
X243670000Y-31850000D01*
X244150000Y-31370000D01*
X244150000Y-31850000D01*
G36*
X244150000Y-31850000D02*
G01*
X243670000Y-31850000D01*
X244150000Y-31370000D01*
X244150000Y-31850000D01*
G37*
%TO.C,C6*%
X197614989Y-120711252D02*
X197614989Y-120188748D01*
X199084989Y-120711252D02*
X199084989Y-120188748D01*
%TO.C,LED41*%
X239387500Y-69950000D02*
X238907500Y-69950000D01*
X239387500Y-69470000D01*
X239387500Y-69950000D01*
G36*
X239387500Y-69950000D02*
G01*
X238907500Y-69950000D01*
X239387500Y-69470000D01*
X239387500Y-69950000D01*
G37*
D11*
%TO.C,SW31*%
X35616426Y-79870220D02*
X35616426Y-79400220D01*
X35616426Y-82950220D02*
X35616426Y-82720220D01*
X36116426Y-78900220D02*
X40681250Y-78900220D01*
X37166426Y-82950220D02*
X35616426Y-82950220D01*
X44566426Y-82950220D02*
X38666426Y-82950220D01*
X46566426Y-77300220D02*
X46566426Y-77060220D01*
X46566426Y-80150220D02*
X46566426Y-80950220D01*
X35616426Y-79400220D02*
G75*
G02*
X36116426Y-78900220I500001J-1D01*
G01*
X42975572Y-77060220D02*
G75*
G02*
X40681250Y-78900220I-2293456J509332D01*
G01*
X46566426Y-80950220D02*
G75*
G02*
X44566426Y-82950220I-2000004J4D01*
G01*
%TO.C,SW14*%
X290410176Y-41770220D02*
X290410176Y-41300220D01*
X290410176Y-44850220D02*
X290410176Y-44620220D01*
X290910176Y-40800220D02*
X295475000Y-40800220D01*
X291960176Y-44850220D02*
X290410176Y-44850220D01*
X299360176Y-44850220D02*
X293460176Y-44850220D01*
X301360176Y-39200220D02*
X301360176Y-38960220D01*
X301360176Y-42050220D02*
X301360176Y-42850220D01*
X290410176Y-41300220D02*
G75*
G02*
X290910176Y-40800220I500001J-1D01*
G01*
X297769322Y-38960220D02*
G75*
G02*
X295475000Y-40800220I-2293456J509332D01*
G01*
X301360176Y-42850220D02*
G75*
G02*
X299360176Y-44850220I-2000004J4D01*
G01*
%TO.C,SW13*%
X261835176Y-41770220D02*
X261835176Y-41300220D01*
X261835176Y-44850220D02*
X261835176Y-44620220D01*
X262335176Y-40800220D02*
X266900000Y-40800220D01*
X263385176Y-44850220D02*
X261835176Y-44850220D01*
X270785176Y-44850220D02*
X264885176Y-44850220D01*
X272785176Y-39200220D02*
X272785176Y-38960220D01*
X272785176Y-42050220D02*
X272785176Y-42850220D01*
X261835176Y-41300220D02*
G75*
G02*
X262335176Y-40800220I500001J-1D01*
G01*
X269194322Y-38960220D02*
G75*
G02*
X266900000Y-40800220I-2293456J509332D01*
G01*
X272785176Y-42850220D02*
G75*
G02*
X270785176Y-44850220I-2000004J4D01*
G01*
D12*
%TO.C,LED42*%
X258437500Y-69950000D02*
X257957500Y-69950000D01*
X258437500Y-69470000D01*
X258437500Y-69950000D01*
G36*
X258437500Y-69950000D02*
G01*
X257957500Y-69950000D01*
X258437500Y-69470000D01*
X258437500Y-69950000D01*
G37*
%TO.C,D63*%
X237491250Y-114610000D02*
X237491250Y-111950000D01*
X239191250Y-114610000D02*
X237491250Y-114610000D01*
X239191250Y-114610000D02*
X239191250Y-111950000D01*
%TO.C,D64*%
X261303750Y-114610000D02*
X261303750Y-111950000D01*
X263003750Y-114610000D02*
X261303750Y-114610000D01*
X263003750Y-114610000D02*
X263003750Y-111950000D01*
%TO.C,LED67*%
X320350000Y-108050000D02*
X319870000Y-108050000D01*
X320350000Y-107570000D01*
X320350000Y-108050000D01*
G36*
X320350000Y-108050000D02*
G01*
X319870000Y-108050000D01*
X320350000Y-107570000D01*
X320350000Y-108050000D01*
G37*
%TO.C,D33*%
X96997500Y-76510000D02*
X96997500Y-73850000D01*
X98697500Y-76510000D02*
X96997500Y-76510000D01*
X98697500Y-76510000D02*
X98697500Y-73850000D01*
%TO.C,D11*%
X235110000Y-38410000D02*
X235110000Y-35750000D01*
X236810000Y-38410000D02*
X235110000Y-38410000D01*
X236810000Y-38410000D02*
X236810000Y-35750000D01*
%TO.C,D12*%
X254160000Y-38410000D02*
X254160000Y-35750000D01*
X255860000Y-38410000D02*
X254160000Y-38410000D01*
X255860000Y-38410000D02*
X255860000Y-35750000D01*
%TO.C,C2*%
X190315000Y-104638748D02*
X190315000Y-105161252D01*
X191785000Y-104638748D02*
X191785000Y-105161252D01*
%TO.C,D48*%
X125572500Y-95560000D02*
X125572500Y-92900000D01*
X127272500Y-95560000D02*
X125572500Y-95560000D01*
X127272500Y-95560000D02*
X127272500Y-92900000D01*
%TO.C,D67*%
X330360000Y-114610000D02*
X330360000Y-111950000D01*
X332060000Y-114610000D02*
X330360000Y-114610000D01*
X332060000Y-114610000D02*
X332060000Y-111950000D01*
%TO.C,D46*%
X87472500Y-95560000D02*
X87472500Y-92900000D01*
X89172500Y-95560000D02*
X87472500Y-95560000D01*
X89172500Y-95560000D02*
X89172500Y-92900000D01*
%TO.C,J3*%
X52890000Y-80785000D02*
X52890000Y-83285000D01*
X52890000Y-83285000D02*
X53940000Y-83285000D01*
X53940000Y-83285000D02*
X53940000Y-84275000D01*
X54060000Y-78815000D02*
X57940000Y-78815000D01*
X59110000Y-80785000D02*
X59110000Y-83285000D01*
X59110000Y-83285000D02*
X58060000Y-83285000D01*
D11*
%TO.C,SW33*%
X85622676Y-79870220D02*
X85622676Y-79400220D01*
X85622676Y-82950220D02*
X85622676Y-82720220D01*
X86122676Y-78900220D02*
X90687500Y-78900220D01*
X87172676Y-82950220D02*
X85622676Y-82950220D01*
X94572676Y-82950220D02*
X88672676Y-82950220D01*
X96572676Y-77300220D02*
X96572676Y-77060220D01*
X96572676Y-80150220D02*
X96572676Y-80950220D01*
X85622676Y-79400220D02*
G75*
G02*
X86122676Y-78900220I500001J-1D01*
G01*
X92981822Y-77060220D02*
G75*
G02*
X90687500Y-78900220I-2293456J509332D01*
G01*
X96572676Y-80950220D02*
G75*
G02*
X94572676Y-82950220I-2000004J4D01*
G01*
%TO.C,SW1*%
X33235176Y-41770220D02*
X33235176Y-41300220D01*
X33235176Y-44850220D02*
X33235176Y-44620220D01*
X33735176Y-40800220D02*
X38300000Y-40800220D01*
X34785176Y-44850220D02*
X33235176Y-44850220D01*
X42185176Y-44850220D02*
X36285176Y-44850220D01*
X44185176Y-39200220D02*
X44185176Y-38960220D01*
X44185176Y-42050220D02*
X44185176Y-42850220D01*
X33235176Y-41300220D02*
G75*
G02*
X33735176Y-40800220I500001J-1D01*
G01*
X40594322Y-38960220D02*
G75*
G02*
X38300000Y-40800220I-2293456J509332D01*
G01*
X44185176Y-42850220D02*
G75*
G02*
X42185176Y-44850220I-2000004J4D01*
G01*
D12*
%TO.C,LED37*%
X163187500Y-69950000D02*
X162707500Y-69950000D01*
X163187500Y-69470000D01*
X163187500Y-69950000D01*
G36*
X163187500Y-69950000D02*
G01*
X162707500Y-69950000D01*
X163187500Y-69470000D01*
X163187500Y-69950000D01*
G37*
%TO.C,U2*%
X265877500Y-97350000D02*
X265877500Y-96550000D01*
X265877500Y-97350000D02*
X265877500Y-98150000D01*
X268997500Y-97350000D02*
X268997500Y-96550000D01*
X268997500Y-97350000D02*
X268997500Y-98150000D01*
X265927500Y-96050000D02*
X265597500Y-96290000D01*
X265597500Y-95810000D01*
X265927500Y-96050000D01*
G36*
X265927500Y-96050000D02*
G01*
X265597500Y-96290000D01*
X265597500Y-95810000D01*
X265927500Y-96050000D01*
G37*
%TO.C,D23*%
X187485000Y-57460000D02*
X187485000Y-54800000D01*
X189185000Y-57460000D02*
X187485000Y-57460000D01*
X189185000Y-57460000D02*
X189185000Y-54800000D01*
%TO.C,LED38*%
X182237500Y-69950000D02*
X181757500Y-69950000D01*
X182237500Y-69470000D01*
X182237500Y-69950000D01*
G36*
X182237500Y-69950000D02*
G01*
X181757500Y-69950000D01*
X182237500Y-69470000D01*
X182237500Y-69950000D01*
G37*
%TO.C,LED54*%
X236862500Y-91980000D02*
X236862500Y-91500000D01*
X237342500Y-91500000D01*
X236862500Y-91980000D01*
G36*
X236862500Y-91980000D02*
G01*
X236862500Y-91500000D01*
X237342500Y-91500000D01*
X236862500Y-91980000D01*
G37*
%TO.C,D21*%
X149385000Y-57460000D02*
X149385000Y-54800000D01*
X151085000Y-57460000D02*
X149385000Y-57460000D01*
X151085000Y-57460000D02*
X151085000Y-54800000D01*
%TO.C,C13*%
X195643562Y-120711252D02*
X195643562Y-120188748D01*
X197113562Y-120711252D02*
X197113562Y-120188748D01*
D11*
%TO.C,SW29*%
X295172676Y-60820220D02*
X295172676Y-60350220D01*
X295172676Y-63900220D02*
X295172676Y-63670220D01*
X295672676Y-59850220D02*
X300237500Y-59850220D01*
X296722676Y-63900220D02*
X295172676Y-63900220D01*
X304122676Y-63900220D02*
X298222676Y-63900220D01*
X306122676Y-58250220D02*
X306122676Y-58010220D01*
X306122676Y-61100220D02*
X306122676Y-61900220D01*
X295172676Y-60350220D02*
G75*
G02*
X295672676Y-59850220I500001J-1D01*
G01*
X302531822Y-58010220D02*
G75*
G02*
X300237500Y-59850220I-2293456J509332D01*
G01*
X306122676Y-61900220D02*
G75*
G02*
X304122676Y-63900220I-2000004J4D01*
G01*
D12*
%TO.C,LED2*%
X53650000Y-31850000D02*
X53170000Y-31850000D01*
X53650000Y-31370000D01*
X53650000Y-31850000D01*
G36*
X53650000Y-31850000D02*
G01*
X53170000Y-31850000D01*
X53650000Y-31370000D01*
X53650000Y-31850000D01*
G37*
%TO.C,C7*%
X188327500Y-104638748D02*
X188327500Y-105161252D01*
X189797500Y-104638748D02*
X189797500Y-105161252D01*
D11*
%TO.C,SW11*%
X223735176Y-41770220D02*
X223735176Y-41300220D01*
X223735176Y-44850220D02*
X223735176Y-44620220D01*
X224235176Y-40800220D02*
X228800000Y-40800220D01*
X225285176Y-44850220D02*
X223735176Y-44850220D01*
X232685176Y-44850220D02*
X226785176Y-44850220D01*
X234685176Y-39200220D02*
X234685176Y-38960220D01*
X234685176Y-42050220D02*
X234685176Y-42850220D01*
X223735176Y-41300220D02*
G75*
G02*
X224235176Y-40800220I500001J-1D01*
G01*
X231094322Y-38960220D02*
G75*
G02*
X228800000Y-40800220I-2293456J509332D01*
G01*
X234685176Y-42850220D02*
G75*
G02*
X232685176Y-44850220I-2000004J4D01*
G01*
%TO.C,SW61*%
X83241426Y-117970220D02*
X83241426Y-117500220D01*
X83241426Y-121050220D02*
X83241426Y-120820220D01*
X83741426Y-117000220D02*
X88306250Y-117000220D01*
X84791426Y-121050220D02*
X83241426Y-121050220D01*
X92191426Y-121050220D02*
X86291426Y-121050220D01*
X94191426Y-115400220D02*
X94191426Y-115160220D01*
X94191426Y-118250220D02*
X94191426Y-119050220D01*
X83241426Y-117500220D02*
G75*
G02*
X83741426Y-117000220I500001J-1D01*
G01*
X90600572Y-115160220D02*
G75*
G02*
X88306250Y-117000220I-2293456J509332D01*
G01*
X94191426Y-119050220D02*
G75*
G02*
X92191426Y-121050220I-2000004J4D01*
G01*
D12*
%TO.C,D61*%
X94616250Y-114610000D02*
X94616250Y-111950000D01*
X96316250Y-114610000D02*
X94616250Y-114610000D01*
X96316250Y-114610000D02*
X96316250Y-111950000D01*
%TO.C,LED46*%
X84462500Y-91980000D02*
X84462500Y-91500000D01*
X84942500Y-91500000D01*
X84462500Y-91980000D01*
G36*
X84462500Y-91980000D02*
G01*
X84462500Y-91500000D01*
X84942500Y-91500000D01*
X84462500Y-91980000D01*
G37*
%TO.C,D38*%
X192247500Y-76510000D02*
X192247500Y-73850000D01*
X193947500Y-76510000D02*
X192247500Y-76510000D01*
X193947500Y-76510000D02*
X193947500Y-73850000D01*
%TO.C,D30*%
X330360000Y-57460000D02*
X330360000Y-54800000D01*
X332060000Y-57460000D02*
X330360000Y-57460000D01*
X332060000Y-57460000D02*
X332060000Y-54800000D01*
D11*
%TO.C,SW58*%
X318985176Y-98920220D02*
X318985176Y-98450220D01*
X318985176Y-102000220D02*
X318985176Y-101770220D01*
X319485176Y-97950220D02*
X324050000Y-97950220D01*
X320535176Y-102000220D02*
X318985176Y-102000220D01*
X327935176Y-102000220D02*
X322035176Y-102000220D01*
X329935176Y-96350220D02*
X329935176Y-96110220D01*
X329935176Y-99200220D02*
X329935176Y-100000220D01*
X318985176Y-98450220D02*
G75*
G02*
X319485176Y-97950220I500001J-1D01*
G01*
X326344322Y-96110220D02*
G75*
G02*
X324050000Y-97950220I-2293456J509332D01*
G01*
X329935176Y-100000220D02*
G75*
G02*
X327935176Y-102000220I-2000004J4D01*
G01*
%TO.C,SW65*%
X280885176Y-117970220D02*
X280885176Y-117500220D01*
X280885176Y-121050220D02*
X280885176Y-120820220D01*
X281385176Y-117000220D02*
X285950000Y-117000220D01*
X282435176Y-121050220D02*
X280885176Y-121050220D01*
X289835176Y-121050220D02*
X283935176Y-121050220D01*
X291835176Y-115400220D02*
X291835176Y-115160220D01*
X291835176Y-118250220D02*
X291835176Y-119050220D01*
X280885176Y-117500220D02*
G75*
G02*
X281385176Y-117000220I500001J-1D01*
G01*
X288244322Y-115160220D02*
G75*
G02*
X285950000Y-117000220I-2293456J509332D01*
G01*
X291835176Y-119050220D02*
G75*
G02*
X289835176Y-121050220I-2000004J4D01*
G01*
D12*
%TO.C,LED3*%
X72700000Y-31850000D02*
X72220000Y-31850000D01*
X72700000Y-31370000D01*
X72700000Y-31850000D01*
G36*
X72700000Y-31850000D02*
G01*
X72220000Y-31850000D01*
X72700000Y-31370000D01*
X72700000Y-31850000D01*
G37*
%TO.C,C3*%
X183815000Y-120711252D02*
X183815000Y-120188748D01*
X185285000Y-120711252D02*
X185285000Y-120188748D01*
%TO.C,LED52*%
X198762500Y-91980000D02*
X198762500Y-91500000D01*
X199242500Y-91500000D01*
X198762500Y-91980000D01*
G36*
X198762500Y-91980000D02*
G01*
X198762500Y-91500000D01*
X199242500Y-91500000D01*
X198762500Y-91980000D01*
G37*
%TO.C,LED23*%
X184475000Y-53880000D02*
X184475000Y-53400000D01*
X184955000Y-53400000D01*
X184475000Y-53880000D01*
G36*
X184475000Y-53880000D02*
G01*
X184475000Y-53400000D01*
X184955000Y-53400000D01*
X184475000Y-53880000D01*
G37*
%TO.C,LED63*%
X227481250Y-108050000D02*
X227001250Y-108050000D01*
X227481250Y-107570000D01*
X227481250Y-108050000D01*
G36*
X227481250Y-108050000D02*
G01*
X227001250Y-108050000D01*
X227481250Y-107570000D01*
X227481250Y-108050000D01*
G37*
%TO.C,D35*%
X135097500Y-76510000D02*
X135097500Y-73850000D01*
X136797500Y-76510000D02*
X135097500Y-76510000D01*
X136797500Y-76510000D02*
X136797500Y-73850000D01*
%TO.C,C1*%
X166638748Y-120665000D02*
X167161252Y-120665000D01*
X166638748Y-122135000D02*
X167161252Y-122135000D01*
D11*
%TO.C,SW53*%
X209447676Y-98920220D02*
X209447676Y-98450220D01*
X209447676Y-102000220D02*
X209447676Y-101770220D01*
X209947676Y-97950220D02*
X214512500Y-97950220D01*
X210997676Y-102000220D02*
X209447676Y-102000220D01*
X218397676Y-102000220D02*
X212497676Y-102000220D01*
X220397676Y-96350220D02*
X220397676Y-96110220D01*
X220397676Y-99200220D02*
X220397676Y-100000220D01*
X209447676Y-98450220D02*
G75*
G02*
X209947676Y-97950220I500001J-1D01*
G01*
X216806822Y-96110220D02*
G75*
G02*
X214512500Y-97950220I-2293456J509332D01*
G01*
X220397676Y-100000220D02*
G75*
G02*
X218397676Y-102000220I-2000004J4D01*
G01*
D12*
%TO.C,LED55*%
X255912500Y-91980000D02*
X255912500Y-91500000D01*
X256392500Y-91500000D01*
X255912500Y-91980000D01*
G36*
X255912500Y-91980000D02*
G01*
X255912500Y-91500000D01*
X256392500Y-91500000D01*
X255912500Y-91980000D01*
G37*
D11*
%TO.C,SW67*%
X318985176Y-117970220D02*
X318985176Y-117500220D01*
X318985176Y-121050220D02*
X318985176Y-120820220D01*
X319485176Y-117000220D02*
X324050000Y-117000220D01*
X320535176Y-121050220D02*
X318985176Y-121050220D01*
X327935176Y-121050220D02*
X322035176Y-121050220D01*
X329935176Y-115400220D02*
X329935176Y-115160220D01*
X329935176Y-118250220D02*
X329935176Y-119050220D01*
X318985176Y-117500220D02*
G75*
G02*
X319485176Y-117000220I500001J-1D01*
G01*
X326344322Y-115160220D02*
G75*
G02*
X324050000Y-117000220I-2293456J509332D01*
G01*
X329935176Y-119050220D02*
G75*
G02*
X327935176Y-121050220I-2000004J4D01*
G01*
%TO.C,SW8*%
X166585176Y-41770220D02*
X166585176Y-41300220D01*
X166585176Y-44850220D02*
X166585176Y-44620220D01*
X167085176Y-40800220D02*
X171650000Y-40800220D01*
X168135176Y-44850220D02*
X166585176Y-44850220D01*
X175535176Y-44850220D02*
X169635176Y-44850220D01*
X177535176Y-39200220D02*
X177535176Y-38960220D01*
X177535176Y-42050220D02*
X177535176Y-42850220D01*
X166585176Y-41300220D02*
G75*
G02*
X167085176Y-40800220I500001J-1D01*
G01*
X173944322Y-38960220D02*
G75*
G02*
X171650000Y-40800220I-2293456J509332D01*
G01*
X177535176Y-42850220D02*
G75*
G02*
X175535176Y-44850220I-2000004J4D01*
G01*
D12*
%TO.C,LED47*%
X103512500Y-91980000D02*
X103512500Y-91500000D01*
X103992500Y-91500000D01*
X103512500Y-91980000D01*
G36*
X103512500Y-91980000D02*
G01*
X103512500Y-91500000D01*
X103992500Y-91500000D01*
X103512500Y-91980000D01*
G37*
D11*
%TO.C,SW34*%
X104672676Y-79870220D02*
X104672676Y-79400220D01*
X104672676Y-82950220D02*
X104672676Y-82720220D01*
X105172676Y-78900220D02*
X109737500Y-78900220D01*
X106222676Y-82950220D02*
X104672676Y-82950220D01*
X113622676Y-82950220D02*
X107722676Y-82950220D01*
X115622676Y-77300220D02*
X115622676Y-77060220D01*
X115622676Y-80150220D02*
X115622676Y-80950220D01*
X104672676Y-79400220D02*
G75*
G02*
X105172676Y-78900220I500001J-1D01*
G01*
X112031822Y-77060220D02*
G75*
G02*
X109737500Y-78900220I-2293456J509332D01*
G01*
X115622676Y-80950220D02*
G75*
G02*
X113622676Y-82950220I-2000004J4D01*
G01*
D12*
%TO.C,D17*%
X73185000Y-57460000D02*
X73185000Y-54800000D01*
X74885000Y-57460000D02*
X73185000Y-57460000D01*
X74885000Y-57460000D02*
X74885000Y-54800000D01*
%TO.C,C14*%
X184352500Y-104638748D02*
X184352500Y-105161252D01*
X185822500Y-104638748D02*
X185822500Y-105161252D01*
%TO.C,D37*%
X173197500Y-76510000D02*
X173197500Y-73850000D01*
X174897500Y-76510000D02*
X173197500Y-76510000D01*
X174897500Y-76510000D02*
X174897500Y-73850000D01*
%TO.C,D3*%
X82710000Y-38410000D02*
X82710000Y-35750000D01*
X84410000Y-38410000D02*
X82710000Y-38410000D01*
X84410000Y-38410000D02*
X84410000Y-35750000D01*
%TO.C,LED66*%
X301300000Y-108050000D02*
X300820000Y-108050000D01*
X301300000Y-107570000D01*
X301300000Y-108050000D01*
G36*
X301300000Y-108050000D02*
G01*
X300820000Y-108050000D01*
X301300000Y-107570000D01*
X301300000Y-108050000D01*
G37*
D11*
%TO.C,SW35*%
X123722676Y-79870220D02*
X123722676Y-79400220D01*
X123722676Y-82950220D02*
X123722676Y-82720220D01*
X124222676Y-78900220D02*
X128787500Y-78900220D01*
X125272676Y-82950220D02*
X123722676Y-82950220D01*
X132672676Y-82950220D02*
X126772676Y-82950220D01*
X134672676Y-77300220D02*
X134672676Y-77060220D01*
X134672676Y-80150220D02*
X134672676Y-80950220D01*
X123722676Y-79400220D02*
G75*
G02*
X124222676Y-78900220I500001J-1D01*
G01*
X131081822Y-77060220D02*
G75*
G02*
X128787500Y-78900220I-2293456J509332D01*
G01*
X134672676Y-80950220D02*
G75*
G02*
X132672676Y-82950220I-2000004J4D01*
G01*
D12*
%TO.C,LED8*%
X167950000Y-31850000D02*
X167470000Y-31850000D01*
X167950000Y-31370000D01*
X167950000Y-31850000D01*
G36*
X167950000Y-31850000D02*
G01*
X167470000Y-31850000D01*
X167950000Y-31370000D01*
X167950000Y-31850000D01*
G37*
%TO.C,D65*%
X292260000Y-114610000D02*
X292260000Y-111950000D01*
X293960000Y-114610000D02*
X292260000Y-114610000D01*
X293960000Y-114610000D02*
X293960000Y-111950000D01*
D11*
%TO.C,SW40*%
X218972676Y-79870220D02*
X218972676Y-79400220D01*
X218972676Y-82950220D02*
X218972676Y-82720220D01*
X219472676Y-78900220D02*
X224037500Y-78900220D01*
X220522676Y-82950220D02*
X218972676Y-82950220D01*
X227922676Y-82950220D02*
X222022676Y-82950220D01*
X229922676Y-77300220D02*
X229922676Y-77060220D01*
X229922676Y-80150220D02*
X229922676Y-80950220D01*
X218972676Y-79400220D02*
G75*
G02*
X219472676Y-78900220I500001J-1D01*
G01*
X226331822Y-77060220D02*
G75*
G02*
X224037500Y-78900220I-2293456J509332D01*
G01*
X229922676Y-80950220D02*
G75*
G02*
X227922676Y-82950220I-2000004J4D01*
G01*
D12*
%TO.C,LED11*%
X225100000Y-31850000D02*
X224620000Y-31850000D01*
X225100000Y-31370000D01*
X225100000Y-31850000D01*
G36*
X225100000Y-31850000D02*
G01*
X224620000Y-31850000D01*
X225100000Y-31370000D01*
X225100000Y-31850000D01*
G37*
%TO.C,J2*%
X285590000Y-63785000D02*
X285590000Y-66285000D01*
X285590000Y-66285000D02*
X286640000Y-66285000D01*
X286640000Y-66285000D02*
X286640000Y-67275000D01*
X286760000Y-61815000D02*
X290640000Y-61815000D01*
X291810000Y-63785000D02*
X291810000Y-66285000D01*
X291810000Y-66285000D02*
X290760000Y-66285000D01*
%TO.C,D4*%
X101760000Y-38410000D02*
X101760000Y-35750000D01*
X103460000Y-38410000D02*
X101760000Y-38410000D01*
X103460000Y-38410000D02*
X103460000Y-35750000D01*
%TO.C,LED36*%
X144137500Y-69950000D02*
X143657500Y-69950000D01*
X144137500Y-69470000D01*
X144137500Y-69950000D01*
G36*
X144137500Y-69950000D02*
G01*
X143657500Y-69950000D01*
X144137500Y-69470000D01*
X144137500Y-69950000D01*
G37*
D11*
%TO.C,SW43*%
X288028926Y-79870220D02*
X288028926Y-79400220D01*
X288028926Y-82950220D02*
X288028926Y-82720220D01*
X288528926Y-78900220D02*
X293093750Y-78900220D01*
X289578926Y-82950220D02*
X288028926Y-82950220D01*
X296978926Y-82950220D02*
X291078926Y-82950220D01*
X298978926Y-77300220D02*
X298978926Y-77060220D01*
X298978926Y-80150220D02*
X298978926Y-80950220D01*
X288028926Y-79400220D02*
G75*
G02*
X288528926Y-78900220I500001J-1D01*
G01*
X295388072Y-77060220D02*
G75*
G02*
X293093750Y-78900220I-2293456J509332D01*
G01*
X298978926Y-80950220D02*
G75*
G02*
X296978926Y-82950220I-2000004J4D01*
G01*
D12*
%TO.C,D28*%
X282735000Y-57460000D02*
X282735000Y-54800000D01*
X284435000Y-57460000D02*
X282735000Y-57460000D01*
X284435000Y-57460000D02*
X284435000Y-54800000D01*
%TO.C,D8*%
X177960000Y-38410000D02*
X177960000Y-35750000D01*
X179660000Y-38410000D02*
X177960000Y-38410000D01*
X179660000Y-38410000D02*
X179660000Y-35750000D01*
%TO.C,LED40*%
X220337500Y-69950000D02*
X219857500Y-69950000D01*
X220337500Y-69470000D01*
X220337500Y-69950000D01*
G36*
X220337500Y-69950000D02*
G01*
X219857500Y-69950000D01*
X220337500Y-69470000D01*
X220337500Y-69950000D01*
G37*
%TO.C,C10*%
X180788748Y-114865000D02*
X181311252Y-114865000D01*
X180788748Y-116335000D02*
X181311252Y-116335000D01*
D11*
%TO.C,SW63*%
X226116426Y-117970220D02*
X226116426Y-117500220D01*
X226116426Y-121050220D02*
X226116426Y-120820220D01*
X226616426Y-117000220D02*
X231181250Y-117000220D01*
X227666426Y-121050220D02*
X226116426Y-121050220D01*
X235066426Y-121050220D02*
X229166426Y-121050220D01*
X237066426Y-115400220D02*
X237066426Y-115160220D01*
X237066426Y-118250220D02*
X237066426Y-119050220D01*
X226116426Y-117500220D02*
G75*
G02*
X226616426Y-117000220I500001J-1D01*
G01*
X233475572Y-115160220D02*
G75*
G02*
X231181250Y-117000220I-2293456J509332D01*
G01*
X237066426Y-119050220D02*
G75*
G02*
X235066426Y-121050220I-2000004J4D01*
G01*
D12*
%TO.C,LED50*%
X160662500Y-91980000D02*
X160662500Y-91500000D01*
X161142500Y-91500000D01*
X160662500Y-91980000D01*
G36*
X160662500Y-91980000D02*
G01*
X160662500Y-91500000D01*
X161142500Y-91500000D01*
X160662500Y-91980000D01*
G37*
%TO.C,D52*%
X201772500Y-95560000D02*
X201772500Y-92900000D01*
X203472500Y-95560000D02*
X201772500Y-95560000D01*
X203472500Y-95560000D02*
X203472500Y-92900000D01*
%TO.C,D32*%
X77947500Y-76510000D02*
X77947500Y-73850000D01*
X79647500Y-76510000D02*
X77947500Y-76510000D01*
X79647500Y-76510000D02*
X79647500Y-73850000D01*
%TO.C,Y1*%
X182000000Y-103250000D02*
X182000000Y-106550000D01*
X182000000Y-106550000D02*
X178000000Y-106550000D01*
%TO.C,C9*%
X187757854Y-120711252D02*
X187757854Y-120188748D01*
X189227854Y-120711252D02*
X189227854Y-120188748D01*
D11*
%TO.C,SW4*%
X90385176Y-41770220D02*
X90385176Y-41300220D01*
X90385176Y-44850220D02*
X90385176Y-44620220D01*
X90885176Y-40800220D02*
X95450000Y-40800220D01*
X91935176Y-44850220D02*
X90385176Y-44850220D01*
X99335176Y-44850220D02*
X93435176Y-44850220D01*
X101335176Y-39200220D02*
X101335176Y-38960220D01*
X101335176Y-42050220D02*
X101335176Y-42850220D01*
X90385176Y-41300220D02*
G75*
G02*
X90885176Y-40800220I500001J-1D01*
G01*
X97744322Y-38960220D02*
G75*
G02*
X95450000Y-40800220I-2293456J509332D01*
G01*
X101335176Y-42850220D02*
G75*
G02*
X99335176Y-44850220I-2000004J4D01*
G01*
%TO.C,SW57*%
X299935176Y-98920220D02*
X299935176Y-98450220D01*
X299935176Y-102000220D02*
X299935176Y-101770220D01*
X300435176Y-97950220D02*
X305000000Y-97950220D01*
X301485176Y-102000220D02*
X299935176Y-102000220D01*
X308885176Y-102000220D02*
X302985176Y-102000220D01*
X310885176Y-96350220D02*
X310885176Y-96110220D01*
X310885176Y-99200220D02*
X310885176Y-100000220D01*
X299935176Y-98450220D02*
G75*
G02*
X300435176Y-97950220I500001J-1D01*
G01*
X307294322Y-96110220D02*
G75*
G02*
X305000000Y-97950220I-2293456J509332D01*
G01*
X310885176Y-100000220D02*
G75*
G02*
X308885176Y-102000220I-2000004J4D01*
G01*
D12*
%TO.C,LED22*%
X165425000Y-53880000D02*
X165425000Y-53400000D01*
X165905000Y-53400000D01*
X165425000Y-53880000D01*
G36*
X165425000Y-53880000D02*
G01*
X165425000Y-53400000D01*
X165905000Y-53400000D01*
X165425000Y-53880000D01*
G37*
%TO.C,LED24*%
X203525000Y-53880000D02*
X203525000Y-53400000D01*
X204005000Y-53400000D01*
X203525000Y-53880000D01*
G36*
X203525000Y-53880000D02*
G01*
X203525000Y-53400000D01*
X204005000Y-53400000D01*
X203525000Y-53880000D01*
G37*
%TO.C,LED5*%
X110800000Y-31850000D02*
X110320000Y-31850000D01*
X110800000Y-31370000D01*
X110800000Y-31850000D01*
G36*
X110800000Y-31850000D02*
G01*
X110320000Y-31850000D01*
X110800000Y-31370000D01*
X110800000Y-31850000D01*
G37*
D11*
%TO.C,SW24*%
X195160176Y-60820220D02*
X195160176Y-60350220D01*
X195160176Y-63900220D02*
X195160176Y-63670220D01*
X195660176Y-59850220D02*
X200225000Y-59850220D01*
X196710176Y-63900220D02*
X195160176Y-63900220D01*
X204110176Y-63900220D02*
X198210176Y-63900220D01*
X206110176Y-58250220D02*
X206110176Y-58010220D01*
X206110176Y-61100220D02*
X206110176Y-61900220D01*
X195160176Y-60350220D02*
G75*
G02*
X195660176Y-59850220I500001J-1D01*
G01*
X202519322Y-58010220D02*
G75*
G02*
X200225000Y-59850220I-2293456J509332D01*
G01*
X206110176Y-61900220D02*
G75*
G02*
X204110176Y-63900220I-2000004J4D01*
G01*
D12*
%TO.C,D10*%
X216060000Y-38410000D02*
X216060000Y-35750000D01*
X217760000Y-38410000D02*
X216060000Y-38410000D01*
X217760000Y-38410000D02*
X217760000Y-35750000D01*
D11*
%TO.C,SW56*%
X273741426Y-98920220D02*
X273741426Y-98450220D01*
X273741426Y-102000220D02*
X273741426Y-101770220D01*
X274241426Y-97950220D02*
X278806250Y-97950220D01*
X275291426Y-102000220D02*
X273741426Y-102000220D01*
X282691426Y-102000220D02*
X276791426Y-102000220D01*
X284691426Y-96350220D02*
X284691426Y-96110220D01*
X284691426Y-99200220D02*
X284691426Y-100000220D01*
X273741426Y-98450220D02*
G75*
G02*
X274241426Y-97950220I500001J-1D01*
G01*
X281100572Y-96110220D02*
G75*
G02*
X278806250Y-97950220I-2293456J509332D01*
G01*
X284691426Y-100000220D02*
G75*
G02*
X282691426Y-102000220I-2000004J4D01*
G01*
D12*
%TO.C,C5*%
X185786427Y-120711252D02*
X185786427Y-120188748D01*
X187256427Y-120711252D02*
X187256427Y-120188748D01*
%TO.C,LED58*%
X327350000Y-91980000D02*
X327350000Y-91500000D01*
X327830000Y-91500000D01*
X327350000Y-91980000D01*
G36*
X327350000Y-91980000D02*
G01*
X327350000Y-91500000D01*
X327830000Y-91500000D01*
X327350000Y-91980000D01*
G37*
%TO.C,LED1*%
X34600000Y-31850000D02*
X34120000Y-31850000D01*
X34600000Y-31370000D01*
X34600000Y-31850000D01*
G36*
X34600000Y-31850000D02*
G01*
X34120000Y-31850000D01*
X34600000Y-31370000D01*
X34600000Y-31850000D01*
G37*
%TO.C,D1*%
X44610000Y-38410000D02*
X44610000Y-35750000D01*
X46310000Y-38410000D02*
X44610000Y-38410000D01*
X46310000Y-38410000D02*
X46310000Y-35750000D01*
%TO.C,R6*%
X186340000Y-104672936D02*
X186340000Y-105127064D01*
X187810000Y-104672936D02*
X187810000Y-105127064D01*
%TO.C,D20*%
X130335000Y-57460000D02*
X130335000Y-54800000D01*
X132035000Y-57460000D02*
X130335000Y-57460000D01*
X132035000Y-57460000D02*
X132035000Y-54800000D01*
D11*
%TO.C,SW51*%
X171347676Y-98920220D02*
X171347676Y-98450220D01*
X171347676Y-102000220D02*
X171347676Y-101770220D01*
X171847676Y-97950220D02*
X176412500Y-97950220D01*
X172897676Y-102000220D02*
X171347676Y-102000220D01*
X180297676Y-102000220D02*
X174397676Y-102000220D01*
X182297676Y-96350220D02*
X182297676Y-96110220D01*
X182297676Y-99200220D02*
X182297676Y-100000220D01*
X171347676Y-98450220D02*
G75*
G02*
X171847676Y-97950220I500001J-1D01*
G01*
X178706822Y-96110220D02*
G75*
G02*
X176412500Y-97950220I-2293456J509332D01*
G01*
X182297676Y-100000220D02*
G75*
G02*
X180297676Y-102000220I-2000004J4D01*
G01*
D12*
%TO.C,LED4*%
X91750000Y-31850000D02*
X91270000Y-31850000D01*
X91750000Y-31370000D01*
X91750000Y-31850000D01*
G36*
X91750000Y-31850000D02*
G01*
X91270000Y-31850000D01*
X91750000Y-31370000D01*
X91750000Y-31850000D01*
G37*
%TO.C,LED27*%
X260675000Y-53880000D02*
X260675000Y-53400000D01*
X261155000Y-53400000D01*
X260675000Y-53880000D01*
G36*
X260675000Y-53880000D02*
G01*
X260675000Y-53400000D01*
X261155000Y-53400000D01*
X260675000Y-53880000D01*
G37*
%TO.C,LED39*%
X201287500Y-69950000D02*
X200807500Y-69950000D01*
X201287500Y-69470000D01*
X201287500Y-69950000D01*
G36*
X201287500Y-69950000D02*
G01*
X200807500Y-69950000D01*
X201287500Y-69470000D01*
X201287500Y-69950000D01*
G37*
D11*
%TO.C,SW59*%
X35616426Y-117970220D02*
X35616426Y-117500220D01*
X35616426Y-121050220D02*
X35616426Y-120820220D01*
X36116426Y-117000220D02*
X40681250Y-117000220D01*
X37166426Y-121050220D02*
X35616426Y-121050220D01*
X44566426Y-121050220D02*
X38666426Y-121050220D01*
X46566426Y-115400220D02*
X46566426Y-115160220D01*
X46566426Y-118250220D02*
X46566426Y-119050220D01*
X35616426Y-117500220D02*
G75*
G02*
X36116426Y-117000220I500001J-1D01*
G01*
X42975572Y-115160220D02*
G75*
G02*
X40681250Y-117000220I-2293456J509332D01*
G01*
X46566426Y-119050220D02*
G75*
G02*
X44566426Y-121050220I-2000004J4D01*
G01*
D12*
%TO.C,LED56*%
X282106250Y-91980000D02*
X282106250Y-91500000D01*
X282586250Y-91500000D01*
X282106250Y-91980000D01*
G36*
X282106250Y-91980000D02*
G01*
X282106250Y-91500000D01*
X282586250Y-91500000D01*
X282106250Y-91980000D01*
G37*
%TO.C,R2*%
X189729281Y-120677064D02*
X189729281Y-120222936D01*
X191199281Y-120677064D02*
X191199281Y-120222936D01*
%TO.C,D43*%
X299403750Y-76510000D02*
X299403750Y-73850000D01*
X301103750Y-76510000D02*
X299403750Y-76510000D01*
X301103750Y-76510000D02*
X301103750Y-73850000D01*
%TO.C,C15*%
X182365000Y-105161252D02*
X182365000Y-104638748D01*
X183835000Y-105161252D02*
X183835000Y-104638748D01*
%TO.C,LED32*%
X67937500Y-69950000D02*
X67457500Y-69950000D01*
X67937500Y-69470000D01*
X67937500Y-69950000D01*
G36*
X67937500Y-69950000D02*
G01*
X67457500Y-69950000D01*
X67937500Y-69470000D01*
X67937500Y-69950000D01*
G37*
D11*
%TO.C,SW30*%
X318985176Y-60820220D02*
X318985176Y-60350220D01*
X318985176Y-63900220D02*
X318985176Y-63670220D01*
X319485176Y-59850220D02*
X324050000Y-59850220D01*
X320535176Y-63900220D02*
X318985176Y-63900220D01*
X327935176Y-63900220D02*
X322035176Y-63900220D01*
X329935176Y-58250220D02*
X329935176Y-58010220D01*
X329935176Y-61100220D02*
X329935176Y-61900220D01*
X318985176Y-60350220D02*
G75*
G02*
X319485176Y-59850220I500001J-1D01*
G01*
X326344322Y-58010220D02*
G75*
G02*
X324050000Y-59850220I-2293456J509332D01*
G01*
X329935176Y-61900220D02*
G75*
G02*
X327935176Y-63900220I-2000004J4D01*
G01*
D12*
%TO.C,LED10*%
X206050000Y-31850000D02*
X205570000Y-31850000D01*
X206050000Y-31370000D01*
X206050000Y-31850000D01*
G36*
X206050000Y-31850000D02*
G01*
X205570000Y-31850000D01*
X206050000Y-31370000D01*
X206050000Y-31850000D01*
G37*
%TO.C,LED59*%
X36981250Y-108050000D02*
X36501250Y-108050000D01*
X36981250Y-107570000D01*
X36981250Y-108050000D01*
G36*
X36981250Y-108050000D02*
G01*
X36501250Y-108050000D01*
X36981250Y-107570000D01*
X36981250Y-108050000D01*
G37*
%TO.C,D22*%
X168435000Y-57460000D02*
X168435000Y-54800000D01*
X170135000Y-57460000D02*
X168435000Y-57460000D01*
X170135000Y-57460000D02*
X170135000Y-54800000D01*
%TO.C,D9*%
X197010000Y-38410000D02*
X197010000Y-35750000D01*
X198710000Y-38410000D02*
X197010000Y-38410000D01*
X198710000Y-38410000D02*
X198710000Y-35750000D01*
%TO.C,LED35*%
X125087500Y-69950000D02*
X124607500Y-69950000D01*
X125087500Y-69470000D01*
X125087500Y-69950000D01*
G36*
X125087500Y-69950000D02*
G01*
X124607500Y-69950000D01*
X125087500Y-69470000D01*
X125087500Y-69950000D01*
G37*
%TO.C,D29*%
X306547500Y-57460000D02*
X306547500Y-54800000D01*
X308247500Y-57460000D02*
X306547500Y-57460000D01*
X308247500Y-57460000D02*
X308247500Y-54800000D01*
%TO.C,LED9*%
X187000000Y-31850000D02*
X186520000Y-31850000D01*
X187000000Y-31370000D01*
X187000000Y-31850000D01*
G36*
X187000000Y-31850000D02*
G01*
X186520000Y-31850000D01*
X187000000Y-31370000D01*
X187000000Y-31850000D01*
G37*
%TO.C,LED17*%
X70175000Y-53880000D02*
X70175000Y-53400000D01*
X70655000Y-53400000D01*
X70175000Y-53880000D01*
G36*
X70175000Y-53880000D02*
G01*
X70175000Y-53400000D01*
X70655000Y-53400000D01*
X70175000Y-53880000D01*
G37*
%TO.C,C4*%
X194811252Y-110765000D02*
X194288748Y-110765000D01*
X194811252Y-112235000D02*
X194288748Y-112235000D01*
D11*
%TO.C,SW47*%
X95147676Y-98920220D02*
X95147676Y-98450220D01*
X95147676Y-102000220D02*
X95147676Y-101770220D01*
X95647676Y-97950220D02*
X100212500Y-97950220D01*
X96697676Y-102000220D02*
X95147676Y-102000220D01*
X104097676Y-102000220D02*
X98197676Y-102000220D01*
X106097676Y-96350220D02*
X106097676Y-96110220D01*
X106097676Y-99200220D02*
X106097676Y-100000220D01*
X95147676Y-98450220D02*
G75*
G02*
X95647676Y-97950220I500001J-1D01*
G01*
X102506822Y-96110220D02*
G75*
G02*
X100212500Y-97950220I-2293456J509332D01*
G01*
X106097676Y-100000220D02*
G75*
G02*
X104097676Y-102000220I-2000004J4D01*
G01*
%TO.C,SW7*%
X147535176Y-41770220D02*
X147535176Y-41300220D01*
X147535176Y-44850220D02*
X147535176Y-44620220D01*
X148035176Y-40800220D02*
X152600000Y-40800220D01*
X149085176Y-44850220D02*
X147535176Y-44850220D01*
X156485176Y-44850220D02*
X150585176Y-44850220D01*
X158485176Y-39200220D02*
X158485176Y-38960220D01*
X158485176Y-42050220D02*
X158485176Y-42850220D01*
X147535176Y-41300220D02*
G75*
G02*
X148035176Y-40800220I500001J-1D01*
G01*
X154894322Y-38960220D02*
G75*
G02*
X152600000Y-40800220I-2293456J509332D01*
G01*
X158485176Y-42850220D02*
G75*
G02*
X156485176Y-44850220I-2000004J4D01*
G01*
%TO.C,SW38*%
X180872676Y-79870220D02*
X180872676Y-79400220D01*
X180872676Y-82950220D02*
X180872676Y-82720220D01*
X181372676Y-78900220D02*
X185937500Y-78900220D01*
X182422676Y-82950220D02*
X180872676Y-82950220D01*
X189822676Y-82950220D02*
X183922676Y-82950220D01*
X191822676Y-77300220D02*
X191822676Y-77060220D01*
X191822676Y-80150220D02*
X191822676Y-80950220D01*
X180872676Y-79400220D02*
G75*
G02*
X181372676Y-78900220I500001J-1D01*
G01*
X188231822Y-77060220D02*
G75*
G02*
X185937500Y-78900220I-2293456J509332D01*
G01*
X191822676Y-80950220D02*
G75*
G02*
X189822676Y-82950220I-2000004J4D01*
G01*
D12*
%TO.C,D55*%
X258922500Y-95560000D02*
X258922500Y-92900000D01*
X260622500Y-95560000D02*
X258922500Y-95560000D01*
X260622500Y-95560000D02*
X260622500Y-92900000D01*
%TO.C,D25*%
X225585000Y-57460000D02*
X225585000Y-54800000D01*
X227285000Y-57460000D02*
X225585000Y-57460000D01*
X227285000Y-57460000D02*
X227285000Y-54800000D01*
%TO.C,D14*%
X301785000Y-38410000D02*
X301785000Y-35750000D01*
X303485000Y-38410000D02*
X301785000Y-38410000D01*
X303485000Y-38410000D02*
X303485000Y-35750000D01*
%TO.C,J1*%
X271565000Y-83685000D02*
X271565000Y-86185000D01*
X271565000Y-86185000D02*
X272615000Y-86185000D01*
X272615000Y-86185000D02*
X272615000Y-87175000D01*
X272735000Y-81715000D02*
X276615000Y-81715000D01*
X277785000Y-83685000D02*
X277785000Y-86185000D01*
X277785000Y-86185000D02*
X276735000Y-86185000D01*
%TO.C,D66*%
X311310000Y-114610000D02*
X311310000Y-111950000D01*
X313010000Y-114610000D02*
X311310000Y-114610000D01*
X313010000Y-114610000D02*
X313010000Y-111950000D01*
%TO.C,D44*%
X330360000Y-76510000D02*
X330360000Y-73850000D01*
X332060000Y-76510000D02*
X330360000Y-76510000D01*
X332060000Y-76510000D02*
X332060000Y-73850000D01*
%TO.C,D49*%
X144622500Y-95560000D02*
X144622500Y-92900000D01*
X146322500Y-95560000D02*
X144622500Y-95560000D01*
X146322500Y-95560000D02*
X146322500Y-92900000D01*
D11*
%TO.C,SW27*%
X252310176Y-60820220D02*
X252310176Y-60350220D01*
X252310176Y-63900220D02*
X252310176Y-63670220D01*
X252810176Y-59850220D02*
X257375000Y-59850220D01*
X253860176Y-63900220D02*
X252310176Y-63900220D01*
X261260176Y-63900220D02*
X255360176Y-63900220D01*
X263260176Y-58250220D02*
X263260176Y-58010220D01*
X263260176Y-61100220D02*
X263260176Y-61900220D01*
X252310176Y-60350220D02*
G75*
G02*
X252810176Y-59850220I500001J-1D01*
G01*
X259669322Y-58010220D02*
G75*
G02*
X257375000Y-59850220I-2293456J509332D01*
G01*
X263260176Y-61900220D02*
G75*
G02*
X261260176Y-63900220I-2000004J4D01*
G01*
%TO.C,SW18*%
X80860176Y-60820220D02*
X80860176Y-60350220D01*
X80860176Y-63900220D02*
X80860176Y-63670220D01*
X81360176Y-59850220D02*
X85925000Y-59850220D01*
X82410176Y-63900220D02*
X80860176Y-63900220D01*
X89810176Y-63900220D02*
X83910176Y-63900220D01*
X91810176Y-58250220D02*
X91810176Y-58010220D01*
X91810176Y-61100220D02*
X91810176Y-61900220D01*
X80860176Y-60350220D02*
G75*
G02*
X81360176Y-59850220I500001J-1D01*
G01*
X88219322Y-58010220D02*
G75*
G02*
X85925000Y-59850220I-2293456J509332D01*
G01*
X91810176Y-61900220D02*
G75*
G02*
X89810176Y-63900220I-2000004J4D01*
G01*
D12*
%TO.C,D41*%
X249397500Y-76510000D02*
X249397500Y-73850000D01*
X251097500Y-76510000D02*
X249397500Y-76510000D01*
X251097500Y-76510000D02*
X251097500Y-73850000D01*
D11*
%TO.C,SW12*%
X242785176Y-41770220D02*
X242785176Y-41300220D01*
X242785176Y-44850220D02*
X242785176Y-44620220D01*
X243285176Y-40800220D02*
X247850000Y-40800220D01*
X244335176Y-44850220D02*
X242785176Y-44850220D01*
X251735176Y-44850220D02*
X245835176Y-44850220D01*
X253735176Y-39200220D02*
X253735176Y-38960220D01*
X253735176Y-42050220D02*
X253735176Y-42850220D01*
X242785176Y-41300220D02*
G75*
G02*
X243285176Y-40800220I500001J-1D01*
G01*
X250144322Y-38960220D02*
G75*
G02*
X247850000Y-40800220I-2293456J509332D01*
G01*
X253735176Y-42850220D02*
G75*
G02*
X251735176Y-44850220I-2000004J4D01*
G01*
%TO.C,SW20*%
X118960176Y-60820220D02*
X118960176Y-60350220D01*
X118960176Y-63900220D02*
X118960176Y-63670220D01*
X119460176Y-59850220D02*
X124025000Y-59850220D01*
X120510176Y-63900220D02*
X118960176Y-63900220D01*
X127910176Y-63900220D02*
X122010176Y-63900220D01*
X129910176Y-58250220D02*
X129910176Y-58010220D01*
X129910176Y-61100220D02*
X129910176Y-61900220D01*
X118960176Y-60350220D02*
G75*
G02*
X119460176Y-59850220I500001J-1D01*
G01*
X126319322Y-58010220D02*
G75*
G02*
X124025000Y-59850220I-2293456J509332D01*
G01*
X129910176Y-61900220D02*
G75*
G02*
X127910176Y-63900220I-2000004J4D01*
G01*
D12*
%TO.C,R4*%
X129065000Y-120522936D02*
X129065000Y-120977064D01*
X130535000Y-120522936D02*
X130535000Y-120977064D01*
%TO.C,LED20*%
X127325000Y-53880000D02*
X127325000Y-53400000D01*
X127805000Y-53400000D01*
X127325000Y-53880000D01*
G36*
X127325000Y-53880000D02*
G01*
X127325000Y-53400000D01*
X127805000Y-53400000D01*
X127325000Y-53880000D01*
G37*
D11*
%TO.C,SW5*%
X109435176Y-41770220D02*
X109435176Y-41300220D01*
X109435176Y-44850220D02*
X109435176Y-44620220D01*
X109935176Y-40800220D02*
X114500000Y-40800220D01*
X110985176Y-44850220D02*
X109435176Y-44850220D01*
X118385176Y-44850220D02*
X112485176Y-44850220D01*
X120385176Y-39200220D02*
X120385176Y-38960220D01*
X120385176Y-42050220D02*
X120385176Y-42850220D01*
X109435176Y-41300220D02*
G75*
G02*
X109935176Y-40800220I500001J-1D01*
G01*
X116794322Y-38960220D02*
G75*
G02*
X114500000Y-40800220I-2293456J509332D01*
G01*
X120385176Y-42850220D02*
G75*
G02*
X118385176Y-44850220I-2000004J4D01*
G01*
D12*
%TO.C,D6*%
X139860000Y-38410000D02*
X139860000Y-35750000D01*
X141560000Y-38410000D02*
X139860000Y-38410000D01*
X141560000Y-38410000D02*
X141560000Y-35750000D01*
%TO.C,LED16*%
X46362500Y-53880000D02*
X46362500Y-53400000D01*
X46842500Y-53400000D01*
X46362500Y-53880000D01*
G36*
X46362500Y-53880000D02*
G01*
X46362500Y-53400000D01*
X46842500Y-53400000D01*
X46362500Y-53880000D01*
G37*
%TO.C,LED25*%
X222575000Y-53880000D02*
X222575000Y-53400000D01*
X223055000Y-53400000D01*
X222575000Y-53880000D01*
G36*
X222575000Y-53880000D02*
G01*
X222575000Y-53400000D01*
X223055000Y-53400000D01*
X222575000Y-53880000D01*
G37*
D11*
%TO.C,SW26*%
X233260176Y-60820220D02*
X233260176Y-60350220D01*
X233260176Y-63900220D02*
X233260176Y-63670220D01*
X233760176Y-59850220D02*
X238325000Y-59850220D01*
X234810176Y-63900220D02*
X233260176Y-63900220D01*
X242210176Y-63900220D02*
X236310176Y-63900220D01*
X244210176Y-58250220D02*
X244210176Y-58010220D01*
X244210176Y-61100220D02*
X244210176Y-61900220D01*
X233260176Y-60350220D02*
G75*
G02*
X233760176Y-59850220I500001J-1D01*
G01*
X240619322Y-58010220D02*
G75*
G02*
X238325000Y-59850220I-2293456J509332D01*
G01*
X244210176Y-61900220D02*
G75*
G02*
X242210176Y-63900220I-2000004J4D01*
G01*
D12*
%TO.C,D5*%
X120810000Y-38410000D02*
X120810000Y-35750000D01*
X122510000Y-38410000D02*
X120810000Y-38410000D01*
X122510000Y-38410000D02*
X122510000Y-35750000D01*
%TO.C,D47*%
X106522500Y-95560000D02*
X106522500Y-92900000D01*
X108222500Y-95560000D02*
X106522500Y-95560000D01*
X108222500Y-95560000D02*
X108222500Y-92900000D01*
%TO.C,LED49*%
X141612500Y-91980000D02*
X141612500Y-91500000D01*
X142092500Y-91500000D01*
X141612500Y-91980000D01*
G36*
X141612500Y-91980000D02*
G01*
X141612500Y-91500000D01*
X142092500Y-91500000D01*
X141612500Y-91980000D01*
G37*
D11*
%TO.C,SW66*%
X299935176Y-117970220D02*
X299935176Y-117500220D01*
X299935176Y-121050220D02*
X299935176Y-120820220D01*
X300435176Y-117000220D02*
X305000000Y-117000220D01*
X301485176Y-121050220D02*
X299935176Y-121050220D01*
X308885176Y-121050220D02*
X302985176Y-121050220D01*
X310885176Y-115400220D02*
X310885176Y-115160220D01*
X310885176Y-118250220D02*
X310885176Y-119050220D01*
X299935176Y-117500220D02*
G75*
G02*
X300435176Y-117000220I500001J-1D01*
G01*
X307294322Y-115160220D02*
G75*
G02*
X305000000Y-117000220I-2293456J509332D01*
G01*
X310885176Y-119050220D02*
G75*
G02*
X308885176Y-121050220I-2000004J4D01*
G01*
D12*
%TO.C,U3*%
X183290000Y-109140000D02*
X183290000Y-109790000D01*
X183290000Y-115710000D02*
X183290000Y-116120000D01*
X183940000Y-109140000D02*
X183290000Y-109140000D01*
X183940000Y-116360000D02*
X183590000Y-116360000D01*
X189860000Y-109140000D02*
X190510000Y-109140000D01*
X189860000Y-116360000D02*
X190510000Y-116360000D01*
X190510000Y-109140000D02*
X190510000Y-109790000D01*
X190510000Y-116360000D02*
X190510000Y-115710000D01*
X183530000Y-116690000D02*
X183050000Y-116690000D01*
X183290000Y-116360000D01*
X183530000Y-116690000D01*
G36*
X183530000Y-116690000D02*
G01*
X183050000Y-116690000D01*
X183290000Y-116360000D01*
X183530000Y-116690000D01*
G37*
%TO.C,LED53*%
X217812500Y-91980000D02*
X217812500Y-91500000D01*
X218292500Y-91500000D01*
X217812500Y-91980000D01*
G36*
X217812500Y-91980000D02*
G01*
X217812500Y-91500000D01*
X218292500Y-91500000D01*
X217812500Y-91980000D01*
G37*
D11*
%TO.C,SW41*%
X238022676Y-79870220D02*
X238022676Y-79400220D01*
X238022676Y-82950220D02*
X238022676Y-82720220D01*
X238522676Y-78900220D02*
X243087500Y-78900220D01*
X239572676Y-82950220D02*
X238022676Y-82950220D01*
X246972676Y-82950220D02*
X241072676Y-82950220D01*
X248972676Y-77300220D02*
X248972676Y-77060220D01*
X248972676Y-80150220D02*
X248972676Y-80950220D01*
X238022676Y-79400220D02*
G75*
G02*
X238522676Y-78900220I500001J-1D01*
G01*
X245381822Y-77060220D02*
G75*
G02*
X243087500Y-78900220I-2293456J509332D01*
G01*
X248972676Y-80950220D02*
G75*
G02*
X246972676Y-82950220I-2000004J4D01*
G01*
%TO.C,SW21*%
X138010176Y-60820220D02*
X138010176Y-60350220D01*
X138010176Y-63900220D02*
X138010176Y-63670220D01*
X138510176Y-59850220D02*
X143075000Y-59850220D01*
X139560176Y-63900220D02*
X138010176Y-63900220D01*
X146960176Y-63900220D02*
X141060176Y-63900220D01*
X148960176Y-58250220D02*
X148960176Y-58010220D01*
X148960176Y-61100220D02*
X148960176Y-61900220D01*
X138010176Y-60350220D02*
G75*
G02*
X138510176Y-59850220I500001J-1D01*
G01*
X145369322Y-58010220D02*
G75*
G02*
X143075000Y-59850220I-2293456J509332D01*
G01*
X148960176Y-61900220D02*
G75*
G02*
X146960176Y-63900220I-2000004J4D01*
G01*
%TO.C,SW50*%
X152297676Y-98920220D02*
X152297676Y-98450220D01*
X152297676Y-102000220D02*
X152297676Y-101770220D01*
X152797676Y-97950220D02*
X157362500Y-97950220D01*
X153847676Y-102000220D02*
X152297676Y-102000220D01*
X161247676Y-102000220D02*
X155347676Y-102000220D01*
X163247676Y-96350220D02*
X163247676Y-96110220D01*
X163247676Y-99200220D02*
X163247676Y-100000220D01*
X152297676Y-98450220D02*
G75*
G02*
X152797676Y-97950220I500001J-1D01*
G01*
X159656822Y-96110220D02*
G75*
G02*
X157362500Y-97950220I-2293456J509332D01*
G01*
X163247676Y-100000220D02*
G75*
G02*
X161247676Y-102000220I-2000004J4D01*
G01*
D12*
%TO.C,R5*%
X139765000Y-120522936D02*
X139765000Y-120977064D01*
X141235000Y-120522936D02*
X141235000Y-120977064D01*
D11*
%TO.C,SW52*%
X190397676Y-98920220D02*
X190397676Y-98450220D01*
X190397676Y-102000220D02*
X190397676Y-101770220D01*
X190897676Y-97950220D02*
X195462500Y-97950220D01*
X191947676Y-102000220D02*
X190397676Y-102000220D01*
X199347676Y-102000220D02*
X193447676Y-102000220D01*
X201347676Y-96350220D02*
X201347676Y-96110220D01*
X201347676Y-99200220D02*
X201347676Y-100000220D01*
X190397676Y-98450220D02*
G75*
G02*
X190897676Y-97950220I500001J-1D01*
G01*
X197756822Y-96110220D02*
G75*
G02*
X195462500Y-97950220I-2293456J509332D01*
G01*
X201347676Y-100000220D02*
G75*
G02*
X199347676Y-102000220I-2000004J4D01*
G01*
D12*
%TO.C,D7*%
X158910000Y-38410000D02*
X158910000Y-35750000D01*
X160610000Y-38410000D02*
X158910000Y-38410000D01*
X160610000Y-38410000D02*
X160610000Y-35750000D01*
%TO.C,LED44*%
X320350000Y-69950000D02*
X319870000Y-69950000D01*
X320350000Y-69470000D01*
X320350000Y-69950000D01*
G36*
X320350000Y-69950000D02*
G01*
X319870000Y-69950000D01*
X320350000Y-69470000D01*
X320350000Y-69950000D01*
G37*
%TO.C,LED29*%
X303537500Y-53880000D02*
X303537500Y-53400000D01*
X304017500Y-53400000D01*
X303537500Y-53880000D01*
G36*
X303537500Y-53880000D02*
G01*
X303537500Y-53400000D01*
X304017500Y-53400000D01*
X303537500Y-53880000D01*
G37*
%TO.C,LED57*%
X308300000Y-91980000D02*
X308300000Y-91500000D01*
X308780000Y-91500000D01*
X308300000Y-91980000D01*
G36*
X308300000Y-91980000D02*
G01*
X308300000Y-91500000D01*
X308780000Y-91500000D01*
X308300000Y-91980000D01*
G37*
D11*
%TO.C,SW45*%
X45141426Y-98920220D02*
X45141426Y-98450220D01*
X45141426Y-102000220D02*
X45141426Y-101770220D01*
X45641426Y-97950220D02*
X50206250Y-97950220D01*
X46691426Y-102000220D02*
X45141426Y-102000220D01*
X54091426Y-102000220D02*
X48191426Y-102000220D01*
X56091426Y-96350220D02*
X56091426Y-96110220D01*
X56091426Y-99200220D02*
X56091426Y-100000220D01*
X45141426Y-98450220D02*
G75*
G02*
X45641426Y-97950220I500001J-1D01*
G01*
X52500572Y-96110220D02*
G75*
G02*
X50206250Y-97950220I-2293456J509332D01*
G01*
X56091426Y-100000220D02*
G75*
G02*
X54091426Y-102000220I-2000004J4D01*
G01*
D12*
%TO.C,D15*%
X314750000Y-38410000D02*
X314750000Y-35750000D01*
X316450000Y-38410000D02*
X314750000Y-38410000D01*
X316450000Y-38410000D02*
X316450000Y-35750000D01*
%TO.C,LED14*%
X291775000Y-31850000D02*
X291295000Y-31850000D01*
X291775000Y-31370000D01*
X291775000Y-31850000D01*
G36*
X291775000Y-31850000D02*
G01*
X291295000Y-31850000D01*
X291775000Y-31370000D01*
X291775000Y-31850000D01*
G37*
%TO.C,D24*%
X206535000Y-57460000D02*
X206535000Y-54800000D01*
X208235000Y-57460000D02*
X206535000Y-57460000D01*
X208235000Y-57460000D02*
X208235000Y-54800000D01*
%TO.C,J4*%
X309940000Y-63785000D02*
X309940000Y-66285000D01*
X309940000Y-66285000D02*
X310990000Y-66285000D01*
X310990000Y-66285000D02*
X310990000Y-67275000D01*
X311110000Y-61815000D02*
X313990000Y-61815000D01*
X315160000Y-63785000D02*
X315160000Y-66285000D01*
X315160000Y-66285000D02*
X314110000Y-66285000D01*
%TO.C,LED18*%
X89225000Y-53880000D02*
X89225000Y-53400000D01*
X89705000Y-53400000D01*
X89225000Y-53880000D01*
G36*
X89225000Y-53880000D02*
G01*
X89225000Y-53400000D01*
X89705000Y-53400000D01*
X89225000Y-53880000D01*
G37*
%TO.C,D19*%
X111285000Y-57460000D02*
X111285000Y-54800000D01*
X112985000Y-57460000D02*
X111285000Y-57460000D01*
X112985000Y-57460000D02*
X112985000Y-54800000D01*
%TO.C,D2*%
X63660000Y-38410000D02*
X63660000Y-35750000D01*
X65360000Y-38410000D02*
X63660000Y-38410000D01*
X65360000Y-38410000D02*
X65360000Y-35750000D01*
D11*
%TO.C,SW19*%
X99910176Y-60820220D02*
X99910176Y-60350220D01*
X99910176Y-63900220D02*
X99910176Y-63670220D01*
X100410176Y-59850220D02*
X104975000Y-59850220D01*
X101460176Y-63900220D02*
X99910176Y-63900220D01*
X108860176Y-63900220D02*
X102960176Y-63900220D01*
X110860176Y-58250220D02*
X110860176Y-58010220D01*
X110860176Y-61100220D02*
X110860176Y-61900220D01*
X99910176Y-60350220D02*
G75*
G02*
X100410176Y-59850220I500001J-1D01*
G01*
X107269322Y-58010220D02*
G75*
G02*
X104975000Y-59850220I-2293456J509332D01*
G01*
X110860176Y-61900220D02*
G75*
G02*
X108860176Y-63900220I-2000004J4D01*
G01*
%TO.C,SW17*%
X61810176Y-60820220D02*
X61810176Y-60350220D01*
X61810176Y-63900220D02*
X61810176Y-63670220D01*
X62310176Y-59850220D02*
X66875000Y-59850220D01*
X63360176Y-63900220D02*
X61810176Y-63900220D01*
X70760176Y-63900220D02*
X64860176Y-63900220D01*
X72760176Y-58250220D02*
X72760176Y-58010220D01*
X72760176Y-61100220D02*
X72760176Y-61900220D01*
X61810176Y-60350220D02*
G75*
G02*
X62310176Y-59850220I500001J-1D01*
G01*
X69169322Y-58010220D02*
G75*
G02*
X66875000Y-59850220I-2293456J509332D01*
G01*
X72760176Y-61900220D02*
G75*
G02*
X70760176Y-63900220I-2000004J4D01*
G01*
D12*
%TO.C,D39*%
X211297500Y-76510000D02*
X211297500Y-73850000D01*
X212997500Y-76510000D02*
X211297500Y-76510000D01*
X212997500Y-76510000D02*
X212997500Y-73850000D01*
%TD*%
M02*
