%TF.GenerationSoftware,KiCad,Pcbnew,9.0.2*%
%TF.CreationDate,2025-06-21T23:14:43+02:00*%
%TF.ProjectId,MOD65,4d4f4436-352e-46b6-9963-61645f706362,2*%
%TF.SameCoordinates,Original*%
%TF.FileFunction,Legend,Top*%
%TF.FilePolarity,Positive*%
%FSLAX46Y46*%
G04 Gerber Fmt 4.6, Leading zero omitted, Abs format (unit mm)*
G04 Created by KiCad (PCBNEW 9.0.2) date 2025-06-21 23:14:43*
%MOMM*%
%LPD*%
G01*
G04 APERTURE LIST*
%ADD10C,0.150000*%
%ADD11C,0.000000*%
%ADD12C,0.120000*%
%ADD13C,0.050000*%
G04 APERTURE END LIST*
D10*
X321897618Y-47954819D02*
X321564285Y-47478628D01*
X321326190Y-47954819D02*
X321326190Y-46954819D01*
X321326190Y-46954819D02*
X321707142Y-46954819D01*
X321707142Y-46954819D02*
X321802380Y-47002438D01*
X321802380Y-47002438D02*
X321849999Y-47050057D01*
X321849999Y-47050057D02*
X321897618Y-47145295D01*
X321897618Y-47145295D02*
X321897618Y-47288152D01*
X321897618Y-47288152D02*
X321849999Y-47383390D01*
X321849999Y-47383390D02*
X321802380Y-47431009D01*
X321802380Y-47431009D02*
X321707142Y-47478628D01*
X321707142Y-47478628D02*
X321326190Y-47478628D01*
X322516666Y-46954819D02*
X322707142Y-46954819D01*
X322707142Y-46954819D02*
X322802380Y-47002438D01*
X322802380Y-47002438D02*
X322897618Y-47097676D01*
X322897618Y-47097676D02*
X322945237Y-47288152D01*
X322945237Y-47288152D02*
X322945237Y-47621485D01*
X322945237Y-47621485D02*
X322897618Y-47811961D01*
X322897618Y-47811961D02*
X322802380Y-47907200D01*
X322802380Y-47907200D02*
X322707142Y-47954819D01*
X322707142Y-47954819D02*
X322516666Y-47954819D01*
X322516666Y-47954819D02*
X322421428Y-47907200D01*
X322421428Y-47907200D02*
X322326190Y-47811961D01*
X322326190Y-47811961D02*
X322278571Y-47621485D01*
X322278571Y-47621485D02*
X322278571Y-47288152D01*
X322278571Y-47288152D02*
X322326190Y-47097676D01*
X322326190Y-47097676D02*
X322421428Y-47002438D01*
X322421428Y-47002438D02*
X322516666Y-46954819D01*
X323230952Y-46954819D02*
X323802380Y-46954819D01*
X323516666Y-47954819D02*
X323516666Y-46954819D01*
X324088095Y-47669104D02*
X324564285Y-47669104D01*
X323992857Y-47954819D02*
X324326190Y-46954819D01*
X324326190Y-46954819D02*
X324659523Y-47954819D01*
X325564285Y-47954819D02*
X325230952Y-47478628D01*
X324992857Y-47954819D02*
X324992857Y-46954819D01*
X324992857Y-46954819D02*
X325373809Y-46954819D01*
X325373809Y-46954819D02*
X325469047Y-47002438D01*
X325469047Y-47002438D02*
X325516666Y-47050057D01*
X325516666Y-47050057D02*
X325564285Y-47145295D01*
X325564285Y-47145295D02*
X325564285Y-47288152D01*
X325564285Y-47288152D02*
X325516666Y-47383390D01*
X325516666Y-47383390D02*
X325469047Y-47431009D01*
X325469047Y-47431009D02*
X325373809Y-47478628D01*
X325373809Y-47478628D02*
X324992857Y-47478628D01*
X326183333Y-47478628D02*
X326183333Y-47954819D01*
X325850000Y-46954819D02*
X326183333Y-47478628D01*
X326183333Y-47478628D02*
X326516666Y-46954819D01*
X125197618Y-120204819D02*
X124864285Y-119728628D01*
X124626190Y-120204819D02*
X124626190Y-119204819D01*
X124626190Y-119204819D02*
X125007142Y-119204819D01*
X125007142Y-119204819D02*
X125102380Y-119252438D01*
X125102380Y-119252438D02*
X125149999Y-119300057D01*
X125149999Y-119300057D02*
X125197618Y-119395295D01*
X125197618Y-119395295D02*
X125197618Y-119538152D01*
X125197618Y-119538152D02*
X125149999Y-119633390D01*
X125149999Y-119633390D02*
X125102380Y-119681009D01*
X125102380Y-119681009D02*
X125007142Y-119728628D01*
X125007142Y-119728628D02*
X124626190Y-119728628D01*
X125626190Y-119681009D02*
X125959523Y-119681009D01*
X126102380Y-120204819D02*
X125626190Y-120204819D01*
X125626190Y-120204819D02*
X125626190Y-119204819D01*
X125626190Y-119204819D02*
X126102380Y-119204819D01*
X126483333Y-120157200D02*
X126626190Y-120204819D01*
X126626190Y-120204819D02*
X126864285Y-120204819D01*
X126864285Y-120204819D02*
X126959523Y-120157200D01*
X126959523Y-120157200D02*
X127007142Y-120109580D01*
X127007142Y-120109580D02*
X127054761Y-120014342D01*
X127054761Y-120014342D02*
X127054761Y-119919104D01*
X127054761Y-119919104D02*
X127007142Y-119823866D01*
X127007142Y-119823866D02*
X126959523Y-119776247D01*
X126959523Y-119776247D02*
X126864285Y-119728628D01*
X126864285Y-119728628D02*
X126673809Y-119681009D01*
X126673809Y-119681009D02*
X126578571Y-119633390D01*
X126578571Y-119633390D02*
X126530952Y-119585771D01*
X126530952Y-119585771D02*
X126483333Y-119490533D01*
X126483333Y-119490533D02*
X126483333Y-119395295D01*
X126483333Y-119395295D02*
X126530952Y-119300057D01*
X126530952Y-119300057D02*
X126578571Y-119252438D01*
X126578571Y-119252438D02*
X126673809Y-119204819D01*
X126673809Y-119204819D02*
X126911904Y-119204819D01*
X126911904Y-119204819D02*
X127054761Y-119252438D01*
X127483333Y-119681009D02*
X127816666Y-119681009D01*
X127959523Y-120204819D02*
X127483333Y-120204819D01*
X127483333Y-120204819D02*
X127483333Y-119204819D01*
X127483333Y-119204819D02*
X127959523Y-119204819D01*
X128245238Y-119204819D02*
X128816666Y-119204819D01*
X128530952Y-120204819D02*
X128530952Y-119204819D01*
X135992857Y-119681009D02*
X136135714Y-119728628D01*
X136135714Y-119728628D02*
X136183333Y-119776247D01*
X136183333Y-119776247D02*
X136230952Y-119871485D01*
X136230952Y-119871485D02*
X136230952Y-120014342D01*
X136230952Y-120014342D02*
X136183333Y-120109580D01*
X136183333Y-120109580D02*
X136135714Y-120157200D01*
X136135714Y-120157200D02*
X136040476Y-120204819D01*
X136040476Y-120204819D02*
X135659524Y-120204819D01*
X135659524Y-120204819D02*
X135659524Y-119204819D01*
X135659524Y-119204819D02*
X135992857Y-119204819D01*
X135992857Y-119204819D02*
X136088095Y-119252438D01*
X136088095Y-119252438D02*
X136135714Y-119300057D01*
X136135714Y-119300057D02*
X136183333Y-119395295D01*
X136183333Y-119395295D02*
X136183333Y-119490533D01*
X136183333Y-119490533D02*
X136135714Y-119585771D01*
X136135714Y-119585771D02*
X136088095Y-119633390D01*
X136088095Y-119633390D02*
X135992857Y-119681009D01*
X135992857Y-119681009D02*
X135659524Y-119681009D01*
X136850000Y-119204819D02*
X137040476Y-119204819D01*
X137040476Y-119204819D02*
X137135714Y-119252438D01*
X137135714Y-119252438D02*
X137230952Y-119347676D01*
X137230952Y-119347676D02*
X137278571Y-119538152D01*
X137278571Y-119538152D02*
X137278571Y-119871485D01*
X137278571Y-119871485D02*
X137230952Y-120061961D01*
X137230952Y-120061961D02*
X137135714Y-120157200D01*
X137135714Y-120157200D02*
X137040476Y-120204819D01*
X137040476Y-120204819D02*
X136850000Y-120204819D01*
X136850000Y-120204819D02*
X136754762Y-120157200D01*
X136754762Y-120157200D02*
X136659524Y-120061961D01*
X136659524Y-120061961D02*
X136611905Y-119871485D01*
X136611905Y-119871485D02*
X136611905Y-119538152D01*
X136611905Y-119538152D02*
X136659524Y-119347676D01*
X136659524Y-119347676D02*
X136754762Y-119252438D01*
X136754762Y-119252438D02*
X136850000Y-119204819D01*
X137897619Y-119204819D02*
X138088095Y-119204819D01*
X138088095Y-119204819D02*
X138183333Y-119252438D01*
X138183333Y-119252438D02*
X138278571Y-119347676D01*
X138278571Y-119347676D02*
X138326190Y-119538152D01*
X138326190Y-119538152D02*
X138326190Y-119871485D01*
X138326190Y-119871485D02*
X138278571Y-120061961D01*
X138278571Y-120061961D02*
X138183333Y-120157200D01*
X138183333Y-120157200D02*
X138088095Y-120204819D01*
X138088095Y-120204819D02*
X137897619Y-120204819D01*
X137897619Y-120204819D02*
X137802381Y-120157200D01*
X137802381Y-120157200D02*
X137707143Y-120061961D01*
X137707143Y-120061961D02*
X137659524Y-119871485D01*
X137659524Y-119871485D02*
X137659524Y-119538152D01*
X137659524Y-119538152D02*
X137707143Y-119347676D01*
X137707143Y-119347676D02*
X137802381Y-119252438D01*
X137802381Y-119252438D02*
X137897619Y-119204819D01*
X138611905Y-119204819D02*
X139183333Y-119204819D01*
X138897619Y-120204819D02*
X138897619Y-119204819D01*
X204726461Y-84654819D02*
X204726461Y-83654819D01*
X205297889Y-84654819D02*
X204869318Y-84083390D01*
X205297889Y-83654819D02*
X204726461Y-84226247D01*
X253041937Y-102657200D02*
X252184795Y-103942914D01*
X62232711Y-122707200D02*
X62375568Y-122754819D01*
X62375568Y-122754819D02*
X62613663Y-122754819D01*
X62613663Y-122754819D02*
X62708901Y-122707200D01*
X62708901Y-122707200D02*
X62756520Y-122659580D01*
X62756520Y-122659580D02*
X62804139Y-122564342D01*
X62804139Y-122564342D02*
X62804139Y-122469104D01*
X62804139Y-122469104D02*
X62756520Y-122373866D01*
X62756520Y-122373866D02*
X62708901Y-122326247D01*
X62708901Y-122326247D02*
X62613663Y-122278628D01*
X62613663Y-122278628D02*
X62423187Y-122231009D01*
X62423187Y-122231009D02*
X62327949Y-122183390D01*
X62327949Y-122183390D02*
X62280330Y-122135771D01*
X62280330Y-122135771D02*
X62232711Y-122040533D01*
X62232711Y-122040533D02*
X62232711Y-121945295D01*
X62232711Y-121945295D02*
X62280330Y-121850057D01*
X62280330Y-121850057D02*
X62327949Y-121802438D01*
X62327949Y-121802438D02*
X62423187Y-121754819D01*
X62423187Y-121754819D02*
X62661282Y-121754819D01*
X62661282Y-121754819D02*
X62804139Y-121802438D01*
X63232711Y-121754819D02*
X63232711Y-122564342D01*
X63232711Y-122564342D02*
X63280330Y-122659580D01*
X63280330Y-122659580D02*
X63327949Y-122707200D01*
X63327949Y-122707200D02*
X63423187Y-122754819D01*
X63423187Y-122754819D02*
X63613663Y-122754819D01*
X63613663Y-122754819D02*
X63708901Y-122707200D01*
X63708901Y-122707200D02*
X63756520Y-122659580D01*
X63756520Y-122659580D02*
X63804139Y-122564342D01*
X63804139Y-122564342D02*
X63804139Y-121754819D01*
X64280330Y-122754819D02*
X64280330Y-121754819D01*
X64280330Y-121754819D02*
X64661282Y-121754819D01*
X64661282Y-121754819D02*
X64756520Y-121802438D01*
X64756520Y-121802438D02*
X64804139Y-121850057D01*
X64804139Y-121850057D02*
X64851758Y-121945295D01*
X64851758Y-121945295D02*
X64851758Y-122088152D01*
X64851758Y-122088152D02*
X64804139Y-122183390D01*
X64804139Y-122183390D02*
X64756520Y-122231009D01*
X64756520Y-122231009D02*
X64661282Y-122278628D01*
X64661282Y-122278628D02*
X64280330Y-122278628D01*
X65280330Y-122231009D02*
X65613663Y-122231009D01*
X65756520Y-122754819D02*
X65280330Y-122754819D01*
X65280330Y-122754819D02*
X65280330Y-121754819D01*
X65280330Y-121754819D02*
X65756520Y-121754819D01*
X66756520Y-122754819D02*
X66423187Y-122278628D01*
X66185092Y-122754819D02*
X66185092Y-121754819D01*
X66185092Y-121754819D02*
X66566044Y-121754819D01*
X66566044Y-121754819D02*
X66661282Y-121802438D01*
X66661282Y-121802438D02*
X66708901Y-121850057D01*
X66708901Y-121850057D02*
X66756520Y-121945295D01*
X66756520Y-121945295D02*
X66756520Y-122088152D01*
X66756520Y-122088152D02*
X66708901Y-122183390D01*
X66708901Y-122183390D02*
X66661282Y-122231009D01*
X66661282Y-122231009D02*
X66566044Y-122278628D01*
X66566044Y-122278628D02*
X66185092Y-122278628D01*
X180890152Y-64604819D02*
X180890152Y-65414342D01*
X180890152Y-65414342D02*
X180937771Y-65509580D01*
X180937771Y-65509580D02*
X180985390Y-65557200D01*
X180985390Y-65557200D02*
X181080628Y-65604819D01*
X181080628Y-65604819D02*
X181271104Y-65604819D01*
X181271104Y-65604819D02*
X181366342Y-65557200D01*
X181366342Y-65557200D02*
X181413961Y-65509580D01*
X181413961Y-65509580D02*
X181461580Y-65414342D01*
X181461580Y-65414342D02*
X181461580Y-64604819D01*
X254137473Y-122231009D02*
X253804140Y-122231009D01*
X253804140Y-122754819D02*
X253804140Y-121754819D01*
X253804140Y-121754819D02*
X254280330Y-121754819D01*
X254661283Y-122754819D02*
X254661283Y-121754819D01*
X254661283Y-121754819D02*
X255232711Y-122754819D01*
X255232711Y-122754819D02*
X255232711Y-121754819D01*
X256232711Y-122754819D02*
X255661283Y-122754819D01*
X255946997Y-122754819D02*
X255946997Y-121754819D01*
X255946997Y-121754819D02*
X255851759Y-121897676D01*
X255851759Y-121897676D02*
X255756521Y-121992914D01*
X255756521Y-121992914D02*
X255661283Y-122040533D01*
X166602652Y-84654819D02*
X166602652Y-83654819D01*
X166602652Y-84131009D02*
X167174080Y-84131009D01*
X167174080Y-84654819D02*
X167174080Y-83654819D01*
X322384199Y-84654819D02*
X322384199Y-83654819D01*
X322384199Y-83654819D02*
X322765151Y-83654819D01*
X322765151Y-83654819D02*
X322860389Y-83702438D01*
X322860389Y-83702438D02*
X322908008Y-83750057D01*
X322908008Y-83750057D02*
X322955627Y-83845295D01*
X322955627Y-83845295D02*
X322955627Y-83988152D01*
X322955627Y-83988152D02*
X322908008Y-84083390D01*
X322908008Y-84083390D02*
X322860389Y-84131009D01*
X322860389Y-84131009D02*
X322765151Y-84178628D01*
X322765151Y-84178628D02*
X322384199Y-84178628D01*
X323812770Y-83988152D02*
X323812770Y-84797676D01*
X323812770Y-84797676D02*
X323765151Y-84892914D01*
X323765151Y-84892914D02*
X323717532Y-84940533D01*
X323717532Y-84940533D02*
X323622294Y-84988152D01*
X323622294Y-84988152D02*
X323479437Y-84988152D01*
X323479437Y-84988152D02*
X323384199Y-84940533D01*
X323812770Y-84607200D02*
X323717532Y-84654819D01*
X323717532Y-84654819D02*
X323527056Y-84654819D01*
X323527056Y-84654819D02*
X323431818Y-84607200D01*
X323431818Y-84607200D02*
X323384199Y-84559580D01*
X323384199Y-84559580D02*
X323336580Y-84464342D01*
X323336580Y-84464342D02*
X323336580Y-84178628D01*
X323336580Y-84178628D02*
X323384199Y-84083390D01*
X323384199Y-84083390D02*
X323431818Y-84035771D01*
X323431818Y-84035771D02*
X323527056Y-83988152D01*
X323527056Y-83988152D02*
X323717532Y-83988152D01*
X323717532Y-83988152D02*
X323812770Y-84035771D01*
X324288961Y-84654819D02*
X324288961Y-83654819D01*
X324288961Y-83654819D02*
X324527056Y-83654819D01*
X324527056Y-83654819D02*
X324669913Y-83702438D01*
X324669913Y-83702438D02*
X324765151Y-83797676D01*
X324765151Y-83797676D02*
X324812770Y-83892914D01*
X324812770Y-83892914D02*
X324860389Y-84083390D01*
X324860389Y-84083390D02*
X324860389Y-84226247D01*
X324860389Y-84226247D02*
X324812770Y-84416723D01*
X324812770Y-84416723D02*
X324765151Y-84511961D01*
X324765151Y-84511961D02*
X324669913Y-84607200D01*
X324669913Y-84607200D02*
X324527056Y-84654819D01*
X324527056Y-84654819D02*
X324288961Y-84654819D01*
X325288961Y-83988152D02*
X325288961Y-84654819D01*
X325288961Y-84083390D02*
X325336580Y-84035771D01*
X325336580Y-84035771D02*
X325431818Y-83988152D01*
X325431818Y-83988152D02*
X325574675Y-83988152D01*
X325574675Y-83988152D02*
X325669913Y-84035771D01*
X325669913Y-84035771D02*
X325717532Y-84131009D01*
X325717532Y-84131009D02*
X325717532Y-84654819D01*
X133788961Y-45554819D02*
X133312771Y-45554819D01*
X133312771Y-45554819D02*
X133265152Y-46031009D01*
X133265152Y-46031009D02*
X133312771Y-45983390D01*
X133312771Y-45983390D02*
X133408009Y-45935771D01*
X133408009Y-45935771D02*
X133646104Y-45935771D01*
X133646104Y-45935771D02*
X133741342Y-45983390D01*
X133741342Y-45983390D02*
X133788961Y-46031009D01*
X133788961Y-46031009D02*
X133836580Y-46126247D01*
X133836580Y-46126247D02*
X133836580Y-46364342D01*
X133836580Y-46364342D02*
X133788961Y-46459580D01*
X133788961Y-46459580D02*
X133741342Y-46507200D01*
X133741342Y-46507200D02*
X133646104Y-46554819D01*
X133646104Y-46554819D02*
X133408009Y-46554819D01*
X133408009Y-46554819D02*
X133312771Y-46507200D01*
X133312771Y-46507200D02*
X133265152Y-46459580D01*
X41849080Y-64604819D02*
X42420508Y-64604819D01*
X42134794Y-65604819D02*
X42134794Y-64604819D01*
X42706223Y-65319104D02*
X43182413Y-65319104D01*
X42610985Y-65604819D02*
X42944318Y-64604819D01*
X42944318Y-64604819D02*
X43277651Y-65604819D01*
X43944318Y-65081009D02*
X44087175Y-65128628D01*
X44087175Y-65128628D02*
X44134794Y-65176247D01*
X44134794Y-65176247D02*
X44182413Y-65271485D01*
X44182413Y-65271485D02*
X44182413Y-65414342D01*
X44182413Y-65414342D02*
X44134794Y-65509580D01*
X44134794Y-65509580D02*
X44087175Y-65557200D01*
X44087175Y-65557200D02*
X43991937Y-65604819D01*
X43991937Y-65604819D02*
X43610985Y-65604819D01*
X43610985Y-65604819D02*
X43610985Y-64604819D01*
X43610985Y-64604819D02*
X43944318Y-64604819D01*
X43944318Y-64604819D02*
X44039556Y-64652438D01*
X44039556Y-64652438D02*
X44087175Y-64700057D01*
X44087175Y-64700057D02*
X44134794Y-64795295D01*
X44134794Y-64795295D02*
X44134794Y-64890533D01*
X44134794Y-64890533D02*
X44087175Y-64985771D01*
X44087175Y-64985771D02*
X44039556Y-65033390D01*
X44039556Y-65033390D02*
X43944318Y-65081009D01*
X43944318Y-65081009D02*
X43610985Y-65081009D01*
X190605628Y-45983390D02*
X190510390Y-45935771D01*
X190510390Y-45935771D02*
X190462771Y-45888152D01*
X190462771Y-45888152D02*
X190415152Y-45792914D01*
X190415152Y-45792914D02*
X190415152Y-45745295D01*
X190415152Y-45745295D02*
X190462771Y-45650057D01*
X190462771Y-45650057D02*
X190510390Y-45602438D01*
X190510390Y-45602438D02*
X190605628Y-45554819D01*
X190605628Y-45554819D02*
X190796104Y-45554819D01*
X190796104Y-45554819D02*
X190891342Y-45602438D01*
X190891342Y-45602438D02*
X190938961Y-45650057D01*
X190938961Y-45650057D02*
X190986580Y-45745295D01*
X190986580Y-45745295D02*
X190986580Y-45792914D01*
X190986580Y-45792914D02*
X190938961Y-45888152D01*
X190938961Y-45888152D02*
X190891342Y-45935771D01*
X190891342Y-45935771D02*
X190796104Y-45983390D01*
X190796104Y-45983390D02*
X190605628Y-45983390D01*
X190605628Y-45983390D02*
X190510390Y-46031009D01*
X190510390Y-46031009D02*
X190462771Y-46078628D01*
X190462771Y-46078628D02*
X190415152Y-46173866D01*
X190415152Y-46173866D02*
X190415152Y-46364342D01*
X190415152Y-46364342D02*
X190462771Y-46459580D01*
X190462771Y-46459580D02*
X190510390Y-46507200D01*
X190510390Y-46507200D02*
X190605628Y-46554819D01*
X190605628Y-46554819D02*
X190796104Y-46554819D01*
X190796104Y-46554819D02*
X190891342Y-46507200D01*
X190891342Y-46507200D02*
X190938961Y-46459580D01*
X190938961Y-46459580D02*
X190986580Y-46364342D01*
X190986580Y-46364342D02*
X190986580Y-46173866D01*
X190986580Y-46173866D02*
X190938961Y-46078628D01*
X190938961Y-46078628D02*
X190891342Y-46031009D01*
X190891342Y-46031009D02*
X190796104Y-45983390D01*
X137980033Y-102704819D02*
X138313366Y-103704819D01*
X138313366Y-103704819D02*
X138646699Y-102704819D01*
X148100270Y-83702438D02*
X148005032Y-83654819D01*
X148005032Y-83654819D02*
X147862175Y-83654819D01*
X147862175Y-83654819D02*
X147719318Y-83702438D01*
X147719318Y-83702438D02*
X147624080Y-83797676D01*
X147624080Y-83797676D02*
X147576461Y-83892914D01*
X147576461Y-83892914D02*
X147528842Y-84083390D01*
X147528842Y-84083390D02*
X147528842Y-84226247D01*
X147528842Y-84226247D02*
X147576461Y-84416723D01*
X147576461Y-84416723D02*
X147624080Y-84511961D01*
X147624080Y-84511961D02*
X147719318Y-84607200D01*
X147719318Y-84607200D02*
X147862175Y-84654819D01*
X147862175Y-84654819D02*
X147957413Y-84654819D01*
X147957413Y-84654819D02*
X148100270Y-84607200D01*
X148100270Y-84607200D02*
X148147889Y-84559580D01*
X148147889Y-84559580D02*
X148147889Y-84226247D01*
X148147889Y-84226247D02*
X147957413Y-84226247D01*
X233563366Y-103609580D02*
X233610985Y-103657200D01*
X233610985Y-103657200D02*
X233563366Y-103704819D01*
X233563366Y-103704819D02*
X233515747Y-103657200D01*
X233515747Y-103657200D02*
X233563366Y-103609580D01*
X233563366Y-103609580D02*
X233563366Y-103704819D01*
X119572889Y-103609580D02*
X119525270Y-103657200D01*
X119525270Y-103657200D02*
X119382413Y-103704819D01*
X119382413Y-103704819D02*
X119287175Y-103704819D01*
X119287175Y-103704819D02*
X119144318Y-103657200D01*
X119144318Y-103657200D02*
X119049080Y-103561961D01*
X119049080Y-103561961D02*
X119001461Y-103466723D01*
X119001461Y-103466723D02*
X118953842Y-103276247D01*
X118953842Y-103276247D02*
X118953842Y-103133390D01*
X118953842Y-103133390D02*
X119001461Y-102942914D01*
X119001461Y-102942914D02*
X119049080Y-102847676D01*
X119049080Y-102847676D02*
X119144318Y-102752438D01*
X119144318Y-102752438D02*
X119287175Y-102704819D01*
X119287175Y-102704819D02*
X119382413Y-102704819D01*
X119382413Y-102704819D02*
X119525270Y-102752438D01*
X119525270Y-102752438D02*
X119572889Y-102800057D01*
X162125866Y-65128628D02*
X162125866Y-65604819D01*
X161792533Y-64604819D02*
X162125866Y-65128628D01*
X162125866Y-65128628D02*
X162459199Y-64604819D01*
X219180628Y-64604819D02*
X219371104Y-64604819D01*
X219371104Y-64604819D02*
X219466342Y-64652438D01*
X219466342Y-64652438D02*
X219561580Y-64747676D01*
X219561580Y-64747676D02*
X219609199Y-64938152D01*
X219609199Y-64938152D02*
X219609199Y-65271485D01*
X219609199Y-65271485D02*
X219561580Y-65461961D01*
X219561580Y-65461961D02*
X219466342Y-65557200D01*
X219466342Y-65557200D02*
X219371104Y-65604819D01*
X219371104Y-65604819D02*
X219180628Y-65604819D01*
X219180628Y-65604819D02*
X219085390Y-65557200D01*
X219085390Y-65557200D02*
X218990152Y-65461961D01*
X218990152Y-65461961D02*
X218942533Y-65271485D01*
X218942533Y-65271485D02*
X218942533Y-64938152D01*
X218942533Y-64938152D02*
X218990152Y-64747676D01*
X218990152Y-64747676D02*
X219085390Y-64652438D01*
X219085390Y-64652438D02*
X219180628Y-64604819D01*
X262185985Y-83654819D02*
X262090747Y-83845295D01*
X76115152Y-45650057D02*
X76162771Y-45602438D01*
X76162771Y-45602438D02*
X76258009Y-45554819D01*
X76258009Y-45554819D02*
X76496104Y-45554819D01*
X76496104Y-45554819D02*
X76591342Y-45602438D01*
X76591342Y-45602438D02*
X76638961Y-45650057D01*
X76638961Y-45650057D02*
X76686580Y-45745295D01*
X76686580Y-45745295D02*
X76686580Y-45840533D01*
X76686580Y-45840533D02*
X76638961Y-45983390D01*
X76638961Y-45983390D02*
X76067533Y-46554819D01*
X76067533Y-46554819D02*
X76686580Y-46554819D01*
X71400271Y-84369104D02*
X71876461Y-84369104D01*
X71305033Y-84654819D02*
X71638366Y-83654819D01*
X71638366Y-83654819D02*
X71971699Y-84654819D01*
X276235390Y-65938152D02*
X276473485Y-65938152D01*
X276473485Y-65938152D02*
X276473485Y-64509580D01*
X276473485Y-64509580D02*
X276235390Y-64509580D01*
X157577949Y-122707200D02*
X157720806Y-122754819D01*
X157720806Y-122754819D02*
X157958901Y-122754819D01*
X157958901Y-122754819D02*
X158054139Y-122707200D01*
X158054139Y-122707200D02*
X158101758Y-122659580D01*
X158101758Y-122659580D02*
X158149377Y-122564342D01*
X158149377Y-122564342D02*
X158149377Y-122469104D01*
X158149377Y-122469104D02*
X158101758Y-122373866D01*
X158101758Y-122373866D02*
X158054139Y-122326247D01*
X158054139Y-122326247D02*
X157958901Y-122278628D01*
X157958901Y-122278628D02*
X157768425Y-122231009D01*
X157768425Y-122231009D02*
X157673187Y-122183390D01*
X157673187Y-122183390D02*
X157625568Y-122135771D01*
X157625568Y-122135771D02*
X157577949Y-122040533D01*
X157577949Y-122040533D02*
X157577949Y-121945295D01*
X157577949Y-121945295D02*
X157625568Y-121850057D01*
X157625568Y-121850057D02*
X157673187Y-121802438D01*
X157673187Y-121802438D02*
X157768425Y-121754819D01*
X157768425Y-121754819D02*
X158006520Y-121754819D01*
X158006520Y-121754819D02*
X158149377Y-121802438D01*
X158577949Y-122754819D02*
X158577949Y-121754819D01*
X158577949Y-121754819D02*
X158958901Y-121754819D01*
X158958901Y-121754819D02*
X159054139Y-121802438D01*
X159054139Y-121802438D02*
X159101758Y-121850057D01*
X159101758Y-121850057D02*
X159149377Y-121945295D01*
X159149377Y-121945295D02*
X159149377Y-122088152D01*
X159149377Y-122088152D02*
X159101758Y-122183390D01*
X159101758Y-122183390D02*
X159054139Y-122231009D01*
X159054139Y-122231009D02*
X158958901Y-122278628D01*
X158958901Y-122278628D02*
X158577949Y-122278628D01*
X159530330Y-122469104D02*
X160006520Y-122469104D01*
X159435092Y-122754819D02*
X159768425Y-121754819D01*
X159768425Y-121754819D02*
X160101758Y-122754819D01*
X161006520Y-122659580D02*
X160958901Y-122707200D01*
X160958901Y-122707200D02*
X160816044Y-122754819D01*
X160816044Y-122754819D02*
X160720806Y-122754819D01*
X160720806Y-122754819D02*
X160577949Y-122707200D01*
X160577949Y-122707200D02*
X160482711Y-122611961D01*
X160482711Y-122611961D02*
X160435092Y-122516723D01*
X160435092Y-122516723D02*
X160387473Y-122326247D01*
X160387473Y-122326247D02*
X160387473Y-122183390D01*
X160387473Y-122183390D02*
X160435092Y-121992914D01*
X160435092Y-121992914D02*
X160482711Y-121897676D01*
X160482711Y-121897676D02*
X160577949Y-121802438D01*
X160577949Y-121802438D02*
X160720806Y-121754819D01*
X160720806Y-121754819D02*
X160816044Y-121754819D01*
X160816044Y-121754819D02*
X160958901Y-121802438D01*
X160958901Y-121802438D02*
X161006520Y-121850057D01*
X161435092Y-122231009D02*
X161768425Y-122231009D01*
X161911282Y-122754819D02*
X161435092Y-122754819D01*
X161435092Y-122754819D02*
X161435092Y-121754819D01*
X161435092Y-121754819D02*
X161911282Y-121754819D01*
X57636580Y-46554819D02*
X57065152Y-46554819D01*
X57350866Y-46554819D02*
X57350866Y-45554819D01*
X57350866Y-45554819D02*
X57255628Y-45697676D01*
X57255628Y-45697676D02*
X57160390Y-45792914D01*
X57160390Y-45792914D02*
X57065152Y-45840533D01*
X209560390Y-46554819D02*
X209750866Y-46554819D01*
X209750866Y-46554819D02*
X209846104Y-46507200D01*
X209846104Y-46507200D02*
X209893723Y-46459580D01*
X209893723Y-46459580D02*
X209988961Y-46316723D01*
X209988961Y-46316723D02*
X210036580Y-46126247D01*
X210036580Y-46126247D02*
X210036580Y-45745295D01*
X210036580Y-45745295D02*
X209988961Y-45650057D01*
X209988961Y-45650057D02*
X209941342Y-45602438D01*
X209941342Y-45602438D02*
X209846104Y-45554819D01*
X209846104Y-45554819D02*
X209655628Y-45554819D01*
X209655628Y-45554819D02*
X209560390Y-45602438D01*
X209560390Y-45602438D02*
X209512771Y-45650057D01*
X209512771Y-45650057D02*
X209465152Y-45745295D01*
X209465152Y-45745295D02*
X209465152Y-45983390D01*
X209465152Y-45983390D02*
X209512771Y-46078628D01*
X209512771Y-46078628D02*
X209560390Y-46126247D01*
X209560390Y-46126247D02*
X209655628Y-46173866D01*
X209655628Y-46173866D02*
X209846104Y-46173866D01*
X209846104Y-46173866D02*
X209941342Y-46126247D01*
X209941342Y-46126247D02*
X209988961Y-46078628D01*
X209988961Y-46078628D02*
X210036580Y-45983390D01*
X80830033Y-102704819D02*
X81496699Y-102704819D01*
X81496699Y-102704819D02*
X80830033Y-103704819D01*
X80830033Y-103704819D02*
X81496699Y-103704819D01*
X39586877Y-84559580D02*
X39539258Y-84607200D01*
X39539258Y-84607200D02*
X39396401Y-84654819D01*
X39396401Y-84654819D02*
X39301163Y-84654819D01*
X39301163Y-84654819D02*
X39158306Y-84607200D01*
X39158306Y-84607200D02*
X39063068Y-84511961D01*
X39063068Y-84511961D02*
X39015449Y-84416723D01*
X39015449Y-84416723D02*
X38967830Y-84226247D01*
X38967830Y-84226247D02*
X38967830Y-84083390D01*
X38967830Y-84083390D02*
X39015449Y-83892914D01*
X39015449Y-83892914D02*
X39063068Y-83797676D01*
X39063068Y-83797676D02*
X39158306Y-83702438D01*
X39158306Y-83702438D02*
X39301163Y-83654819D01*
X39301163Y-83654819D02*
X39396401Y-83654819D01*
X39396401Y-83654819D02*
X39539258Y-83702438D01*
X39539258Y-83702438D02*
X39586877Y-83750057D01*
X39967830Y-84369104D02*
X40444020Y-84369104D01*
X39872592Y-84654819D02*
X40205925Y-83654819D01*
X40205925Y-83654819D02*
X40539258Y-84654819D01*
X40872592Y-84654819D02*
X40872592Y-83654819D01*
X40872592Y-83654819D02*
X41253544Y-83654819D01*
X41253544Y-83654819D02*
X41348782Y-83702438D01*
X41348782Y-83702438D02*
X41396401Y-83750057D01*
X41396401Y-83750057D02*
X41444020Y-83845295D01*
X41444020Y-83845295D02*
X41444020Y-83988152D01*
X41444020Y-83988152D02*
X41396401Y-84083390D01*
X41396401Y-84083390D02*
X41348782Y-84131009D01*
X41348782Y-84131009D02*
X41253544Y-84178628D01*
X41253544Y-84178628D02*
X40872592Y-84178628D01*
X41824973Y-84607200D02*
X41967830Y-84654819D01*
X41967830Y-84654819D02*
X42205925Y-84654819D01*
X42205925Y-84654819D02*
X42301163Y-84607200D01*
X42301163Y-84607200D02*
X42348782Y-84559580D01*
X42348782Y-84559580D02*
X42396401Y-84464342D01*
X42396401Y-84464342D02*
X42396401Y-84369104D01*
X42396401Y-84369104D02*
X42348782Y-84273866D01*
X42348782Y-84273866D02*
X42301163Y-84226247D01*
X42301163Y-84226247D02*
X42205925Y-84178628D01*
X42205925Y-84178628D02*
X42015449Y-84131009D01*
X42015449Y-84131009D02*
X41920211Y-84083390D01*
X41920211Y-84083390D02*
X41872592Y-84035771D01*
X41872592Y-84035771D02*
X41824973Y-83940533D01*
X41824973Y-83940533D02*
X41824973Y-83845295D01*
X41824973Y-83845295D02*
X41872592Y-83750057D01*
X41872592Y-83750057D02*
X41920211Y-83702438D01*
X41920211Y-83702438D02*
X42015449Y-83654819D01*
X42015449Y-83654819D02*
X42253544Y-83654819D01*
X42253544Y-83654819D02*
X42396401Y-83702438D01*
X294118723Y-46031009D02*
X294261580Y-46078628D01*
X294261580Y-46078628D02*
X294309199Y-46126247D01*
X294309199Y-46126247D02*
X294356818Y-46221485D01*
X294356818Y-46221485D02*
X294356818Y-46364342D01*
X294356818Y-46364342D02*
X294309199Y-46459580D01*
X294309199Y-46459580D02*
X294261580Y-46507200D01*
X294261580Y-46507200D02*
X294166342Y-46554819D01*
X294166342Y-46554819D02*
X293785390Y-46554819D01*
X293785390Y-46554819D02*
X293785390Y-45554819D01*
X293785390Y-45554819D02*
X294118723Y-45554819D01*
X294118723Y-45554819D02*
X294213961Y-45602438D01*
X294213961Y-45602438D02*
X294261580Y-45650057D01*
X294261580Y-45650057D02*
X294309199Y-45745295D01*
X294309199Y-45745295D02*
X294309199Y-45840533D01*
X294309199Y-45840533D02*
X294261580Y-45935771D01*
X294261580Y-45935771D02*
X294213961Y-45983390D01*
X294213961Y-45983390D02*
X294118723Y-46031009D01*
X294118723Y-46031009D02*
X293785390Y-46031009D01*
X294737771Y-46269104D02*
X295213961Y-46269104D01*
X294642533Y-46554819D02*
X294975866Y-45554819D01*
X294975866Y-45554819D02*
X295309199Y-46554819D01*
X296213961Y-46459580D02*
X296166342Y-46507200D01*
X296166342Y-46507200D02*
X296023485Y-46554819D01*
X296023485Y-46554819D02*
X295928247Y-46554819D01*
X295928247Y-46554819D02*
X295785390Y-46507200D01*
X295785390Y-46507200D02*
X295690152Y-46411961D01*
X295690152Y-46411961D02*
X295642533Y-46316723D01*
X295642533Y-46316723D02*
X295594914Y-46126247D01*
X295594914Y-46126247D02*
X295594914Y-45983390D01*
X295594914Y-45983390D02*
X295642533Y-45792914D01*
X295642533Y-45792914D02*
X295690152Y-45697676D01*
X295690152Y-45697676D02*
X295785390Y-45602438D01*
X295785390Y-45602438D02*
X295928247Y-45554819D01*
X295928247Y-45554819D02*
X296023485Y-45554819D01*
X296023485Y-45554819D02*
X296166342Y-45602438D01*
X296166342Y-45602438D02*
X296213961Y-45650057D01*
X296642533Y-46554819D02*
X296642533Y-45554819D01*
X297213961Y-46554819D02*
X296785390Y-45983390D01*
X297213961Y-45554819D02*
X296642533Y-46126247D01*
X266519914Y-46031009D02*
X267281819Y-46031009D01*
X267281819Y-46316723D02*
X266519914Y-46316723D01*
X90402652Y-84607200D02*
X90545509Y-84654819D01*
X90545509Y-84654819D02*
X90783604Y-84654819D01*
X90783604Y-84654819D02*
X90878842Y-84607200D01*
X90878842Y-84607200D02*
X90926461Y-84559580D01*
X90926461Y-84559580D02*
X90974080Y-84464342D01*
X90974080Y-84464342D02*
X90974080Y-84369104D01*
X90974080Y-84369104D02*
X90926461Y-84273866D01*
X90926461Y-84273866D02*
X90878842Y-84226247D01*
X90878842Y-84226247D02*
X90783604Y-84178628D01*
X90783604Y-84178628D02*
X90593128Y-84131009D01*
X90593128Y-84131009D02*
X90497890Y-84083390D01*
X90497890Y-84083390D02*
X90450271Y-84035771D01*
X90450271Y-84035771D02*
X90402652Y-83940533D01*
X90402652Y-83940533D02*
X90402652Y-83845295D01*
X90402652Y-83845295D02*
X90450271Y-83750057D01*
X90450271Y-83750057D02*
X90497890Y-83702438D01*
X90497890Y-83702438D02*
X90593128Y-83654819D01*
X90593128Y-83654819D02*
X90831223Y-83654819D01*
X90831223Y-83654819D02*
X90974080Y-83702438D01*
X37110390Y-46031009D02*
X37443723Y-46031009D01*
X37586580Y-46554819D02*
X37110390Y-46554819D01*
X37110390Y-46554819D02*
X37110390Y-45554819D01*
X37110390Y-45554819D02*
X37586580Y-45554819D01*
X37967533Y-46507200D02*
X38110390Y-46554819D01*
X38110390Y-46554819D02*
X38348485Y-46554819D01*
X38348485Y-46554819D02*
X38443723Y-46507200D01*
X38443723Y-46507200D02*
X38491342Y-46459580D01*
X38491342Y-46459580D02*
X38538961Y-46364342D01*
X38538961Y-46364342D02*
X38538961Y-46269104D01*
X38538961Y-46269104D02*
X38491342Y-46173866D01*
X38491342Y-46173866D02*
X38443723Y-46126247D01*
X38443723Y-46126247D02*
X38348485Y-46078628D01*
X38348485Y-46078628D02*
X38158009Y-46031009D01*
X38158009Y-46031009D02*
X38062771Y-45983390D01*
X38062771Y-45983390D02*
X38015152Y-45935771D01*
X38015152Y-45935771D02*
X37967533Y-45840533D01*
X37967533Y-45840533D02*
X37967533Y-45745295D01*
X37967533Y-45745295D02*
X38015152Y-45650057D01*
X38015152Y-45650057D02*
X38062771Y-45602438D01*
X38062771Y-45602438D02*
X38158009Y-45554819D01*
X38158009Y-45554819D02*
X38396104Y-45554819D01*
X38396104Y-45554819D02*
X38538961Y-45602438D01*
X39538961Y-46459580D02*
X39491342Y-46507200D01*
X39491342Y-46507200D02*
X39348485Y-46554819D01*
X39348485Y-46554819D02*
X39253247Y-46554819D01*
X39253247Y-46554819D02*
X39110390Y-46507200D01*
X39110390Y-46507200D02*
X39015152Y-46411961D01*
X39015152Y-46411961D02*
X38967533Y-46316723D01*
X38967533Y-46316723D02*
X38919914Y-46126247D01*
X38919914Y-46126247D02*
X38919914Y-45983390D01*
X38919914Y-45983390D02*
X38967533Y-45792914D01*
X38967533Y-45792914D02*
X39015152Y-45697676D01*
X39015152Y-45697676D02*
X39110390Y-45602438D01*
X39110390Y-45602438D02*
X39253247Y-45554819D01*
X39253247Y-45554819D02*
X39348485Y-45554819D01*
X39348485Y-45554819D02*
X39491342Y-45602438D01*
X39491342Y-45602438D02*
X39538961Y-45650057D01*
X299809794Y-64509580D02*
X300666937Y-65795295D01*
X228753247Y-45554819D02*
X228848485Y-45554819D01*
X228848485Y-45554819D02*
X228943723Y-45602438D01*
X228943723Y-45602438D02*
X228991342Y-45650057D01*
X228991342Y-45650057D02*
X229038961Y-45745295D01*
X229038961Y-45745295D02*
X229086580Y-45935771D01*
X229086580Y-45935771D02*
X229086580Y-46173866D01*
X229086580Y-46173866D02*
X229038961Y-46364342D01*
X229038961Y-46364342D02*
X228991342Y-46459580D01*
X228991342Y-46459580D02*
X228943723Y-46507200D01*
X228943723Y-46507200D02*
X228848485Y-46554819D01*
X228848485Y-46554819D02*
X228753247Y-46554819D01*
X228753247Y-46554819D02*
X228658009Y-46507200D01*
X228658009Y-46507200D02*
X228610390Y-46459580D01*
X228610390Y-46459580D02*
X228562771Y-46364342D01*
X228562771Y-46364342D02*
X228515152Y-46173866D01*
X228515152Y-46173866D02*
X228515152Y-45935771D01*
X228515152Y-45935771D02*
X228562771Y-45745295D01*
X228562771Y-45745295D02*
X228610390Y-45650057D01*
X228610390Y-45650057D02*
X228658009Y-45602438D01*
X228658009Y-45602438D02*
X228753247Y-45554819D01*
X87283306Y-122469104D02*
X87759496Y-122469104D01*
X87188068Y-122754819D02*
X87521401Y-121754819D01*
X87521401Y-121754819D02*
X87854734Y-122754819D01*
X88664258Y-122754819D02*
X88188068Y-122754819D01*
X88188068Y-122754819D02*
X88188068Y-121754819D01*
X88854735Y-121754819D02*
X89426163Y-121754819D01*
X89140449Y-122754819D02*
X89140449Y-121754819D01*
X322217533Y-103704819D02*
X322217533Y-102704819D01*
X322217533Y-103181009D02*
X322788961Y-103181009D01*
X322788961Y-103704819D02*
X322788961Y-102704819D01*
X323455628Y-102704819D02*
X323646104Y-102704819D01*
X323646104Y-102704819D02*
X323741342Y-102752438D01*
X323741342Y-102752438D02*
X323836580Y-102847676D01*
X323836580Y-102847676D02*
X323884199Y-103038152D01*
X323884199Y-103038152D02*
X323884199Y-103371485D01*
X323884199Y-103371485D02*
X323836580Y-103561961D01*
X323836580Y-103561961D02*
X323741342Y-103657200D01*
X323741342Y-103657200D02*
X323646104Y-103704819D01*
X323646104Y-103704819D02*
X323455628Y-103704819D01*
X323455628Y-103704819D02*
X323360390Y-103657200D01*
X323360390Y-103657200D02*
X323265152Y-103561961D01*
X323265152Y-103561961D02*
X323217533Y-103371485D01*
X323217533Y-103371485D02*
X323217533Y-103038152D01*
X323217533Y-103038152D02*
X323265152Y-102847676D01*
X323265152Y-102847676D02*
X323360390Y-102752438D01*
X323360390Y-102752438D02*
X323455628Y-102704819D01*
X324312771Y-103704819D02*
X324312771Y-102704819D01*
X324312771Y-102704819D02*
X324646104Y-103419104D01*
X324646104Y-103419104D02*
X324979437Y-102704819D01*
X324979437Y-102704819D02*
X324979437Y-103704819D01*
X325455628Y-103181009D02*
X325788961Y-103181009D01*
X325931818Y-103704819D02*
X325455628Y-103704819D01*
X325455628Y-103704819D02*
X325455628Y-102704819D01*
X325455628Y-102704819D02*
X325931818Y-102704819D01*
X284998484Y-122754819D02*
X284522294Y-122754819D01*
X284522294Y-122754819D02*
X284522294Y-121754819D01*
X285331818Y-122231009D02*
X285665151Y-122231009D01*
X285808008Y-122754819D02*
X285331818Y-122754819D01*
X285331818Y-122754819D02*
X285331818Y-121754819D01*
X285331818Y-121754819D02*
X285808008Y-121754819D01*
X286569913Y-122231009D02*
X286236580Y-122231009D01*
X286236580Y-122754819D02*
X286236580Y-121754819D01*
X286236580Y-121754819D02*
X286712770Y-121754819D01*
X286950866Y-121754819D02*
X287522294Y-121754819D01*
X287236580Y-122754819D02*
X287236580Y-121754819D01*
X214560985Y-103657200D02*
X214560985Y-103704819D01*
X214560985Y-103704819D02*
X214513366Y-103800057D01*
X214513366Y-103800057D02*
X214465747Y-103847676D01*
X322717532Y-122754819D02*
X322384199Y-122278628D01*
X322146104Y-122754819D02*
X322146104Y-121754819D01*
X322146104Y-121754819D02*
X322527056Y-121754819D01*
X322527056Y-121754819D02*
X322622294Y-121802438D01*
X322622294Y-121802438D02*
X322669913Y-121850057D01*
X322669913Y-121850057D02*
X322717532Y-121945295D01*
X322717532Y-121945295D02*
X322717532Y-122088152D01*
X322717532Y-122088152D02*
X322669913Y-122183390D01*
X322669913Y-122183390D02*
X322622294Y-122231009D01*
X322622294Y-122231009D02*
X322527056Y-122278628D01*
X322527056Y-122278628D02*
X322146104Y-122278628D01*
X323146104Y-122754819D02*
X323146104Y-121754819D01*
X324146103Y-121802438D02*
X324050865Y-121754819D01*
X324050865Y-121754819D02*
X323908008Y-121754819D01*
X323908008Y-121754819D02*
X323765151Y-121802438D01*
X323765151Y-121802438D02*
X323669913Y-121897676D01*
X323669913Y-121897676D02*
X323622294Y-121992914D01*
X323622294Y-121992914D02*
X323574675Y-122183390D01*
X323574675Y-122183390D02*
X323574675Y-122326247D01*
X323574675Y-122326247D02*
X323622294Y-122516723D01*
X323622294Y-122516723D02*
X323669913Y-122611961D01*
X323669913Y-122611961D02*
X323765151Y-122707200D01*
X323765151Y-122707200D02*
X323908008Y-122754819D01*
X323908008Y-122754819D02*
X324003246Y-122754819D01*
X324003246Y-122754819D02*
X324146103Y-122707200D01*
X324146103Y-122707200D02*
X324193722Y-122659580D01*
X324193722Y-122659580D02*
X324193722Y-122326247D01*
X324193722Y-122326247D02*
X324003246Y-122326247D01*
X324622294Y-122754819D02*
X324622294Y-121754819D01*
X324622294Y-122231009D02*
X325193722Y-122231009D01*
X325193722Y-122754819D02*
X325193722Y-121754819D01*
X325527056Y-121754819D02*
X326098484Y-121754819D01*
X325812770Y-122754819D02*
X325812770Y-121754819D01*
X171317533Y-45554819D02*
X171984199Y-45554819D01*
X171984199Y-45554819D02*
X171555628Y-46554819D01*
X109476461Y-84654819D02*
X109476461Y-83654819D01*
X109476461Y-83654819D02*
X109714556Y-83654819D01*
X109714556Y-83654819D02*
X109857413Y-83702438D01*
X109857413Y-83702438D02*
X109952651Y-83797676D01*
X109952651Y-83797676D02*
X110000270Y-83892914D01*
X110000270Y-83892914D02*
X110047889Y-84083390D01*
X110047889Y-84083390D02*
X110047889Y-84226247D01*
X110047889Y-84226247D02*
X110000270Y-84416723D01*
X110000270Y-84416723D02*
X109952651Y-84511961D01*
X109952651Y-84511961D02*
X109857413Y-84607200D01*
X109857413Y-84607200D02*
X109714556Y-84654819D01*
X109714556Y-84654819D02*
X109476461Y-84654819D01*
X128931223Y-84131009D02*
X128597890Y-84131009D01*
X128597890Y-84654819D02*
X128597890Y-83654819D01*
X128597890Y-83654819D02*
X129074080Y-83654819D01*
X224347889Y-84654819D02*
X223871699Y-84654819D01*
X223871699Y-84654819D02*
X223871699Y-83654819D01*
X291023187Y-84131009D02*
X291356520Y-84131009D01*
X291499377Y-84654819D02*
X291023187Y-84654819D01*
X291023187Y-84654819D02*
X291023187Y-83654819D01*
X291023187Y-83654819D02*
X291499377Y-83654819D01*
X291927949Y-84654819D02*
X291927949Y-83654819D01*
X291927949Y-83654819D02*
X292499377Y-84654819D01*
X292499377Y-84654819D02*
X292499377Y-83654819D01*
X292832711Y-83654819D02*
X293404139Y-83654819D01*
X293118425Y-84654819D02*
X293118425Y-83654819D01*
X293737473Y-84131009D02*
X294070806Y-84131009D01*
X294213663Y-84654819D02*
X293737473Y-84654819D01*
X293737473Y-84654819D02*
X293737473Y-83654819D01*
X293737473Y-83654819D02*
X294213663Y-83654819D01*
X295213663Y-84654819D02*
X294880330Y-84178628D01*
X294642235Y-84654819D02*
X294642235Y-83654819D01*
X294642235Y-83654819D02*
X295023187Y-83654819D01*
X295023187Y-83654819D02*
X295118425Y-83702438D01*
X295118425Y-83702438D02*
X295166044Y-83750057D01*
X295166044Y-83750057D02*
X295213663Y-83845295D01*
X295213663Y-83845295D02*
X295213663Y-83988152D01*
X295213663Y-83988152D02*
X295166044Y-84083390D01*
X295166044Y-84083390D02*
X295118425Y-84131009D01*
X295118425Y-84131009D02*
X295023187Y-84178628D01*
X295023187Y-84178628D02*
X294642235Y-84178628D01*
X230324973Y-122231009D02*
X229991640Y-122231009D01*
X229991640Y-122754819D02*
X229991640Y-121754819D01*
X229991640Y-121754819D02*
X230467830Y-121754819D01*
X230848783Y-122754819D02*
X230848783Y-121754819D01*
X230848783Y-121754819D02*
X231420211Y-122754819D01*
X231420211Y-122754819D02*
X231420211Y-121754819D01*
X231848783Y-121850057D02*
X231896402Y-121802438D01*
X231896402Y-121802438D02*
X231991640Y-121754819D01*
X231991640Y-121754819D02*
X232229735Y-121754819D01*
X232229735Y-121754819D02*
X232324973Y-121802438D01*
X232324973Y-121802438D02*
X232372592Y-121850057D01*
X232372592Y-121850057D02*
X232420211Y-121945295D01*
X232420211Y-121945295D02*
X232420211Y-122040533D01*
X232420211Y-122040533D02*
X232372592Y-122183390D01*
X232372592Y-122183390D02*
X231801164Y-122754819D01*
X231801164Y-122754819D02*
X232420211Y-122754819D01*
X95117533Y-45554819D02*
X95736580Y-45554819D01*
X95736580Y-45554819D02*
X95403247Y-45935771D01*
X95403247Y-45935771D02*
X95546104Y-45935771D01*
X95546104Y-45935771D02*
X95641342Y-45983390D01*
X95641342Y-45983390D02*
X95688961Y-46031009D01*
X95688961Y-46031009D02*
X95736580Y-46126247D01*
X95736580Y-46126247D02*
X95736580Y-46364342D01*
X95736580Y-46364342D02*
X95688961Y-46459580D01*
X95688961Y-46459580D02*
X95641342Y-46507200D01*
X95641342Y-46507200D02*
X95546104Y-46554819D01*
X95546104Y-46554819D02*
X95260390Y-46554819D01*
X95260390Y-46554819D02*
X95165152Y-46507200D01*
X95165152Y-46507200D02*
X95117533Y-46459580D01*
X304215152Y-102704819D02*
X304215152Y-103514342D01*
X304215152Y-103514342D02*
X304262771Y-103609580D01*
X304262771Y-103609580D02*
X304310390Y-103657200D01*
X304310390Y-103657200D02*
X304405628Y-103704819D01*
X304405628Y-103704819D02*
X304596104Y-103704819D01*
X304596104Y-103704819D02*
X304691342Y-103657200D01*
X304691342Y-103657200D02*
X304738961Y-103609580D01*
X304738961Y-103609580D02*
X304786580Y-103514342D01*
X304786580Y-103514342D02*
X304786580Y-102704819D01*
X305262771Y-103704819D02*
X305262771Y-102704819D01*
X305262771Y-102704819D02*
X305643723Y-102704819D01*
X305643723Y-102704819D02*
X305738961Y-102752438D01*
X305738961Y-102752438D02*
X305786580Y-102800057D01*
X305786580Y-102800057D02*
X305834199Y-102895295D01*
X305834199Y-102895295D02*
X305834199Y-103038152D01*
X305834199Y-103038152D02*
X305786580Y-103133390D01*
X305786580Y-103133390D02*
X305738961Y-103181009D01*
X305738961Y-103181009D02*
X305643723Y-103228628D01*
X305643723Y-103228628D02*
X305262771Y-103228628D01*
X200225866Y-65604819D02*
X200225866Y-64604819D01*
X277069020Y-103704819D02*
X276735687Y-103228628D01*
X276497592Y-103704819D02*
X276497592Y-102704819D01*
X276497592Y-102704819D02*
X276878544Y-102704819D01*
X276878544Y-102704819D02*
X276973782Y-102752438D01*
X276973782Y-102752438D02*
X277021401Y-102800057D01*
X277021401Y-102800057D02*
X277069020Y-102895295D01*
X277069020Y-102895295D02*
X277069020Y-103038152D01*
X277069020Y-103038152D02*
X277021401Y-103133390D01*
X277021401Y-103133390D02*
X276973782Y-103181009D01*
X276973782Y-103181009D02*
X276878544Y-103228628D01*
X276878544Y-103228628D02*
X276497592Y-103228628D01*
X277449973Y-103657200D02*
X277592830Y-103704819D01*
X277592830Y-103704819D02*
X277830925Y-103704819D01*
X277830925Y-103704819D02*
X277926163Y-103657200D01*
X277926163Y-103657200D02*
X277973782Y-103609580D01*
X277973782Y-103609580D02*
X278021401Y-103514342D01*
X278021401Y-103514342D02*
X278021401Y-103419104D01*
X278021401Y-103419104D02*
X277973782Y-103323866D01*
X277973782Y-103323866D02*
X277926163Y-103276247D01*
X277926163Y-103276247D02*
X277830925Y-103228628D01*
X277830925Y-103228628D02*
X277640449Y-103181009D01*
X277640449Y-103181009D02*
X277545211Y-103133390D01*
X277545211Y-103133390D02*
X277497592Y-103085771D01*
X277497592Y-103085771D02*
X277449973Y-102990533D01*
X277449973Y-102990533D02*
X277449973Y-102895295D01*
X277449973Y-102895295D02*
X277497592Y-102800057D01*
X277497592Y-102800057D02*
X277545211Y-102752438D01*
X277545211Y-102752438D02*
X277640449Y-102704819D01*
X277640449Y-102704819D02*
X277878544Y-102704819D01*
X277878544Y-102704819D02*
X278021401Y-102752438D01*
X278449973Y-103704819D02*
X278449973Y-102704819D01*
X278449973Y-103181009D02*
X279021401Y-103181009D01*
X279021401Y-103704819D02*
X279021401Y-102704819D01*
X279497592Y-103704819D02*
X279497592Y-102704819D01*
X280307115Y-103181009D02*
X279973782Y-103181009D01*
X279973782Y-103704819D02*
X279973782Y-102704819D01*
X279973782Y-102704819D02*
X280449972Y-102704819D01*
X280688068Y-102704819D02*
X281259496Y-102704819D01*
X280973782Y-103704819D02*
X280973782Y-102704819D01*
X176127652Y-103704819D02*
X176127652Y-102704819D01*
X176127652Y-102704819D02*
X176699080Y-103704819D01*
X176699080Y-103704819D02*
X176699080Y-102704819D01*
X39705925Y-122659580D02*
X39658306Y-122707200D01*
X39658306Y-122707200D02*
X39515449Y-122754819D01*
X39515449Y-122754819D02*
X39420211Y-122754819D01*
X39420211Y-122754819D02*
X39277354Y-122707200D01*
X39277354Y-122707200D02*
X39182116Y-122611961D01*
X39182116Y-122611961D02*
X39134497Y-122516723D01*
X39134497Y-122516723D02*
X39086878Y-122326247D01*
X39086878Y-122326247D02*
X39086878Y-122183390D01*
X39086878Y-122183390D02*
X39134497Y-121992914D01*
X39134497Y-121992914D02*
X39182116Y-121897676D01*
X39182116Y-121897676D02*
X39277354Y-121802438D01*
X39277354Y-121802438D02*
X39420211Y-121754819D01*
X39420211Y-121754819D02*
X39515449Y-121754819D01*
X39515449Y-121754819D02*
X39658306Y-121802438D01*
X39658306Y-121802438D02*
X39705925Y-121850057D01*
X39991640Y-121754819D02*
X40563068Y-121754819D01*
X40277354Y-122754819D02*
X40277354Y-121754819D01*
X41467830Y-122754819D02*
X41134497Y-122278628D01*
X40896402Y-122754819D02*
X40896402Y-121754819D01*
X40896402Y-121754819D02*
X41277354Y-121754819D01*
X41277354Y-121754819D02*
X41372592Y-121802438D01*
X41372592Y-121802438D02*
X41420211Y-121850057D01*
X41420211Y-121850057D02*
X41467830Y-121945295D01*
X41467830Y-121945295D02*
X41467830Y-122088152D01*
X41467830Y-122088152D02*
X41420211Y-122183390D01*
X41420211Y-122183390D02*
X41372592Y-122231009D01*
X41372592Y-122231009D02*
X41277354Y-122278628D01*
X41277354Y-122278628D02*
X40896402Y-122278628D01*
X42372592Y-122754819D02*
X41896402Y-122754819D01*
X41896402Y-122754819D02*
X41896402Y-121754819D01*
X322360390Y-65604819D02*
X322360390Y-64604819D01*
X322360390Y-64604819D02*
X322741342Y-64604819D01*
X322741342Y-64604819D02*
X322836580Y-64652438D01*
X322836580Y-64652438D02*
X322884199Y-64700057D01*
X322884199Y-64700057D02*
X322931818Y-64795295D01*
X322931818Y-64795295D02*
X322931818Y-64938152D01*
X322931818Y-64938152D02*
X322884199Y-65033390D01*
X322884199Y-65033390D02*
X322836580Y-65081009D01*
X322836580Y-65081009D02*
X322741342Y-65128628D01*
X322741342Y-65128628D02*
X322360390Y-65128628D01*
X323788961Y-64938152D02*
X323788961Y-65747676D01*
X323788961Y-65747676D02*
X323741342Y-65842914D01*
X323741342Y-65842914D02*
X323693723Y-65890533D01*
X323693723Y-65890533D02*
X323598485Y-65938152D01*
X323598485Y-65938152D02*
X323455628Y-65938152D01*
X323455628Y-65938152D02*
X323360390Y-65890533D01*
X323788961Y-65557200D02*
X323693723Y-65604819D01*
X323693723Y-65604819D02*
X323503247Y-65604819D01*
X323503247Y-65604819D02*
X323408009Y-65557200D01*
X323408009Y-65557200D02*
X323360390Y-65509580D01*
X323360390Y-65509580D02*
X323312771Y-65414342D01*
X323312771Y-65414342D02*
X323312771Y-65128628D01*
X323312771Y-65128628D02*
X323360390Y-65033390D01*
X323360390Y-65033390D02*
X323408009Y-64985771D01*
X323408009Y-64985771D02*
X323503247Y-64938152D01*
X323503247Y-64938152D02*
X323693723Y-64938152D01*
X323693723Y-64938152D02*
X323788961Y-64985771D01*
X324265152Y-64604819D02*
X324265152Y-65414342D01*
X324265152Y-65414342D02*
X324312771Y-65509580D01*
X324312771Y-65509580D02*
X324360390Y-65557200D01*
X324360390Y-65557200D02*
X324455628Y-65604819D01*
X324455628Y-65604819D02*
X324646104Y-65604819D01*
X324646104Y-65604819D02*
X324741342Y-65557200D01*
X324741342Y-65557200D02*
X324788961Y-65509580D01*
X324788961Y-65509580D02*
X324836580Y-65414342D01*
X324836580Y-65414342D02*
X324836580Y-64604819D01*
X325312771Y-64938152D02*
X325312771Y-65938152D01*
X325312771Y-64985771D02*
X325408009Y-64938152D01*
X325408009Y-64938152D02*
X325598485Y-64938152D01*
X325598485Y-64938152D02*
X325693723Y-64985771D01*
X325693723Y-64985771D02*
X325741342Y-65033390D01*
X325741342Y-65033390D02*
X325788961Y-65128628D01*
X325788961Y-65128628D02*
X325788961Y-65414342D01*
X325788961Y-65414342D02*
X325741342Y-65509580D01*
X325741342Y-65509580D02*
X325693723Y-65557200D01*
X325693723Y-65557200D02*
X325598485Y-65604819D01*
X325598485Y-65604819D02*
X325408009Y-65604819D01*
X325408009Y-65604819D02*
X325312771Y-65557200D01*
X99880033Y-102704819D02*
X100546699Y-103704819D01*
X100546699Y-102704819D02*
X99880033Y-103704819D01*
X152791342Y-45554819D02*
X152600866Y-45554819D01*
X152600866Y-45554819D02*
X152505628Y-45602438D01*
X152505628Y-45602438D02*
X152458009Y-45650057D01*
X152458009Y-45650057D02*
X152362771Y-45792914D01*
X152362771Y-45792914D02*
X152315152Y-45983390D01*
X152315152Y-45983390D02*
X152315152Y-46364342D01*
X152315152Y-46364342D02*
X152362771Y-46459580D01*
X152362771Y-46459580D02*
X152410390Y-46507200D01*
X152410390Y-46507200D02*
X152505628Y-46554819D01*
X152505628Y-46554819D02*
X152696104Y-46554819D01*
X152696104Y-46554819D02*
X152791342Y-46507200D01*
X152791342Y-46507200D02*
X152838961Y-46459580D01*
X152838961Y-46459580D02*
X152886580Y-46364342D01*
X152886580Y-46364342D02*
X152886580Y-46126247D01*
X152886580Y-46126247D02*
X152838961Y-46031009D01*
X152838961Y-46031009D02*
X152791342Y-45983390D01*
X152791342Y-45983390D02*
X152696104Y-45935771D01*
X152696104Y-45935771D02*
X152505628Y-45935771D01*
X152505628Y-45935771D02*
X152410390Y-45983390D01*
X152410390Y-45983390D02*
X152362771Y-46031009D01*
X152362771Y-46031009D02*
X152315152Y-46126247D01*
X186081223Y-83654819D02*
X186081223Y-84369104D01*
X186081223Y-84369104D02*
X186033604Y-84511961D01*
X186033604Y-84511961D02*
X185938366Y-84607200D01*
X185938366Y-84607200D02*
X185795509Y-84654819D01*
X185795509Y-84654819D02*
X185700271Y-84654819D01*
X257566342Y-65938152D02*
X257328247Y-65938152D01*
X257328247Y-65938152D02*
X257328247Y-64509580D01*
X257328247Y-64509580D02*
X257566342Y-64509580D01*
X85497295Y-64604819D02*
X85735390Y-65604819D01*
X85735390Y-65604819D02*
X85925866Y-64890533D01*
X85925866Y-64890533D02*
X86116342Y-65604819D01*
X86116342Y-65604819D02*
X86354438Y-64604819D01*
X247469914Y-46173866D02*
X248231819Y-46173866D01*
X124335389Y-65604819D02*
X124002056Y-65128628D01*
X123763961Y-65604819D02*
X123763961Y-64604819D01*
X123763961Y-64604819D02*
X124144913Y-64604819D01*
X124144913Y-64604819D02*
X124240151Y-64652438D01*
X124240151Y-64652438D02*
X124287770Y-64700057D01*
X124287770Y-64700057D02*
X124335389Y-64795295D01*
X124335389Y-64795295D02*
X124335389Y-64938152D01*
X124335389Y-64938152D02*
X124287770Y-65033390D01*
X124287770Y-65033390D02*
X124240151Y-65081009D01*
X124240151Y-65081009D02*
X124144913Y-65128628D01*
X124144913Y-65128628D02*
X123763961Y-65128628D01*
X114691342Y-45888152D02*
X114691342Y-46554819D01*
X114453247Y-45507200D02*
X114215152Y-46221485D01*
X114215152Y-46221485D02*
X114834199Y-46221485D01*
X238063961Y-65604819D02*
X238063961Y-64604819D01*
X238063961Y-64604819D02*
X238444913Y-64604819D01*
X238444913Y-64604819D02*
X238540151Y-64652438D01*
X238540151Y-64652438D02*
X238587770Y-64700057D01*
X238587770Y-64700057D02*
X238635389Y-64795295D01*
X238635389Y-64795295D02*
X238635389Y-64938152D01*
X238635389Y-64938152D02*
X238587770Y-65033390D01*
X238587770Y-65033390D02*
X238540151Y-65081009D01*
X238540151Y-65081009D02*
X238444913Y-65128628D01*
X238444913Y-65128628D02*
X238063961Y-65128628D01*
X303119914Y-122754819D02*
X303119914Y-121754819D01*
X303119914Y-121754819D02*
X303358009Y-121754819D01*
X303358009Y-121754819D02*
X303500866Y-121802438D01*
X303500866Y-121802438D02*
X303596104Y-121897676D01*
X303596104Y-121897676D02*
X303643723Y-121992914D01*
X303643723Y-121992914D02*
X303691342Y-122183390D01*
X303691342Y-122183390D02*
X303691342Y-122326247D01*
X303691342Y-122326247D02*
X303643723Y-122516723D01*
X303643723Y-122516723D02*
X303596104Y-122611961D01*
X303596104Y-122611961D02*
X303500866Y-122707200D01*
X303500866Y-122707200D02*
X303358009Y-122754819D01*
X303358009Y-122754819D02*
X303119914Y-122754819D01*
X304310390Y-121754819D02*
X304500866Y-121754819D01*
X304500866Y-121754819D02*
X304596104Y-121802438D01*
X304596104Y-121802438D02*
X304691342Y-121897676D01*
X304691342Y-121897676D02*
X304738961Y-122088152D01*
X304738961Y-122088152D02*
X304738961Y-122421485D01*
X304738961Y-122421485D02*
X304691342Y-122611961D01*
X304691342Y-122611961D02*
X304596104Y-122707200D01*
X304596104Y-122707200D02*
X304500866Y-122754819D01*
X304500866Y-122754819D02*
X304310390Y-122754819D01*
X304310390Y-122754819D02*
X304215152Y-122707200D01*
X304215152Y-122707200D02*
X304119914Y-122611961D01*
X304119914Y-122611961D02*
X304072295Y-122421485D01*
X304072295Y-122421485D02*
X304072295Y-122088152D01*
X304072295Y-122088152D02*
X304119914Y-121897676D01*
X304119914Y-121897676D02*
X304215152Y-121802438D01*
X304215152Y-121802438D02*
X304310390Y-121754819D01*
X305072295Y-121754819D02*
X305310390Y-122754819D01*
X305310390Y-122754819D02*
X305500866Y-122040533D01*
X305500866Y-122040533D02*
X305691342Y-122754819D01*
X305691342Y-122754819D02*
X305929438Y-121754819D01*
X306310390Y-122754819D02*
X306310390Y-121754819D01*
X306310390Y-121754819D02*
X306881818Y-122754819D01*
X306881818Y-122754819D02*
X306881818Y-121754819D01*
X243135985Y-84607200D02*
X243135985Y-84654819D01*
X243135985Y-84654819D02*
X243088366Y-84750057D01*
X243088366Y-84750057D02*
X243040747Y-84797676D01*
X243088366Y-84035771D02*
X243135985Y-84083390D01*
X243135985Y-84083390D02*
X243088366Y-84131009D01*
X243088366Y-84131009D02*
X243040747Y-84083390D01*
X243040747Y-84083390D02*
X243088366Y-84035771D01*
X243088366Y-84035771D02*
X243088366Y-84131009D01*
X142790152Y-64604819D02*
X143361580Y-64604819D01*
X143075866Y-65604819D02*
X143075866Y-64604819D01*
X157434794Y-103181009D02*
X157577651Y-103228628D01*
X157577651Y-103228628D02*
X157625270Y-103276247D01*
X157625270Y-103276247D02*
X157672889Y-103371485D01*
X157672889Y-103371485D02*
X157672889Y-103514342D01*
X157672889Y-103514342D02*
X157625270Y-103609580D01*
X157625270Y-103609580D02*
X157577651Y-103657200D01*
X157577651Y-103657200D02*
X157482413Y-103704819D01*
X157482413Y-103704819D02*
X157101461Y-103704819D01*
X157101461Y-103704819D02*
X157101461Y-102704819D01*
X157101461Y-102704819D02*
X157434794Y-102704819D01*
X157434794Y-102704819D02*
X157530032Y-102752438D01*
X157530032Y-102752438D02*
X157577651Y-102800057D01*
X157577651Y-102800057D02*
X157625270Y-102895295D01*
X157625270Y-102895295D02*
X157625270Y-102990533D01*
X157625270Y-102990533D02*
X157577651Y-103085771D01*
X157577651Y-103085771D02*
X157530032Y-103133390D01*
X157530032Y-103133390D02*
X157434794Y-103181009D01*
X157434794Y-103181009D02*
X157101461Y-103181009D01*
X195130033Y-103704819D02*
X195130033Y-102704819D01*
X195130033Y-102704819D02*
X195463366Y-103419104D01*
X195463366Y-103419104D02*
X195796699Y-102704819D01*
X195796699Y-102704819D02*
X195796699Y-103704819D01*
X48469020Y-103704819D02*
X47992830Y-103704819D01*
X47992830Y-103704819D02*
X47992830Y-102704819D01*
X48754735Y-103657200D02*
X48897592Y-103704819D01*
X48897592Y-103704819D02*
X49135687Y-103704819D01*
X49135687Y-103704819D02*
X49230925Y-103657200D01*
X49230925Y-103657200D02*
X49278544Y-103609580D01*
X49278544Y-103609580D02*
X49326163Y-103514342D01*
X49326163Y-103514342D02*
X49326163Y-103419104D01*
X49326163Y-103419104D02*
X49278544Y-103323866D01*
X49278544Y-103323866D02*
X49230925Y-103276247D01*
X49230925Y-103276247D02*
X49135687Y-103228628D01*
X49135687Y-103228628D02*
X48945211Y-103181009D01*
X48945211Y-103181009D02*
X48849973Y-103133390D01*
X48849973Y-103133390D02*
X48802354Y-103085771D01*
X48802354Y-103085771D02*
X48754735Y-102990533D01*
X48754735Y-102990533D02*
X48754735Y-102895295D01*
X48754735Y-102895295D02*
X48802354Y-102800057D01*
X48802354Y-102800057D02*
X48849973Y-102752438D01*
X48849973Y-102752438D02*
X48945211Y-102704819D01*
X48945211Y-102704819D02*
X49183306Y-102704819D01*
X49183306Y-102704819D02*
X49326163Y-102752438D01*
X49754735Y-103704819D02*
X49754735Y-102704819D01*
X49754735Y-103181009D02*
X50326163Y-103181009D01*
X50326163Y-103704819D02*
X50326163Y-102704819D01*
X50802354Y-103704819D02*
X50802354Y-102704819D01*
X51611877Y-103181009D02*
X51278544Y-103181009D01*
X51278544Y-103704819D02*
X51278544Y-102704819D01*
X51278544Y-102704819D02*
X51754734Y-102704819D01*
X51992830Y-102704819D02*
X52564258Y-102704819D01*
X52278544Y-103704819D02*
X52278544Y-102704819D01*
X104761580Y-65081009D02*
X105094913Y-65081009D01*
X105237770Y-65604819D02*
X104761580Y-65604819D01*
X104761580Y-65604819D02*
X104761580Y-64604819D01*
X104761580Y-64604819D02*
X105237770Y-64604819D01*
X67256818Y-65700057D02*
X67161580Y-65652438D01*
X67161580Y-65652438D02*
X67066342Y-65557200D01*
X67066342Y-65557200D02*
X66923485Y-65414342D01*
X66923485Y-65414342D02*
X66828247Y-65366723D01*
X66828247Y-65366723D02*
X66733009Y-65366723D01*
X66780628Y-65604819D02*
X66685390Y-65557200D01*
X66685390Y-65557200D02*
X66590152Y-65461961D01*
X66590152Y-65461961D02*
X66542533Y-65271485D01*
X66542533Y-65271485D02*
X66542533Y-64938152D01*
X66542533Y-64938152D02*
X66590152Y-64747676D01*
X66590152Y-64747676D02*
X66685390Y-64652438D01*
X66685390Y-64652438D02*
X66780628Y-64604819D01*
X66780628Y-64604819D02*
X66971104Y-64604819D01*
X66971104Y-64604819D02*
X67066342Y-64652438D01*
X67066342Y-64652438D02*
X67161580Y-64747676D01*
X67161580Y-64747676D02*
X67209199Y-64938152D01*
X67209199Y-64938152D02*
X67209199Y-65271485D01*
X67209199Y-65271485D02*
X67161580Y-65461961D01*
X67161580Y-65461961D02*
X67066342Y-65557200D01*
X67066342Y-65557200D02*
X66971104Y-65604819D01*
X66971104Y-65604819D02*
X66780628Y-65604819D01*
D11*
%TO.C,Logo*%
G36*
X85731553Y-111887378D02*
G01*
X85731553Y-112318931D01*
X84868446Y-112318931D01*
X84005339Y-112318931D01*
X84005339Y-111887378D01*
X84005339Y-111455824D01*
X84868446Y-111455824D01*
X85731553Y-111455824D01*
X85731553Y-111887378D01*
G37*
G36*
X110391747Y-110037863D02*
G01*
X110391747Y-112935436D01*
X112117961Y-112935436D01*
X113844174Y-112935436D01*
X113844174Y-113428640D01*
X113844174Y-113921844D01*
X111624757Y-113921844D01*
X109405339Y-113921844D01*
X109405339Y-110531067D01*
X109405339Y-107140290D01*
X109898543Y-107140290D01*
X110391747Y-107140290D01*
X110391747Y-110037863D01*
G37*
G36*
X141093689Y-109421358D02*
G01*
X143559708Y-111885065D01*
X143559708Y-109512678D01*
X143559708Y-107140290D01*
X144052912Y-107140290D01*
X144546116Y-107140290D01*
X144546116Y-110654368D01*
X144545067Y-111556586D01*
X144542101Y-112373082D01*
X144537495Y-113072935D01*
X144531522Y-113625222D01*
X144524457Y-113999023D01*
X144516575Y-114163416D01*
X144514901Y-114168446D01*
X144423180Y-114084824D01*
X144179755Y-113848715D01*
X143807043Y-113482255D01*
X143327464Y-113007579D01*
X142763438Y-112446824D01*
X142137384Y-111822124D01*
X142048881Y-111733642D01*
X139614077Y-109298838D01*
X139614077Y-111610341D01*
X139614077Y-113921844D01*
X139120873Y-113921844D01*
X138627670Y-113921844D01*
X138627670Y-110439747D01*
X138627670Y-106957651D01*
X141093689Y-109421358D01*
G37*
G36*
X120684322Y-69530958D02*
G01*
X120869972Y-69588385D01*
X121249093Y-69640262D01*
X121770525Y-69684897D01*
X122383105Y-69720600D01*
X123035671Y-69745676D01*
X123677060Y-69758436D01*
X124256111Y-69757187D01*
X124721661Y-69740237D01*
X125022548Y-69705895D01*
X125101826Y-69677035D01*
X125266247Y-69591179D01*
X125369110Y-69679922D01*
X125421445Y-69967566D01*
X125434466Y-70409874D01*
X125417024Y-70875896D01*
X125353932Y-71128840D01*
X125229040Y-71200459D01*
X125061929Y-71142328D01*
X124845627Y-71090364D01*
X124438817Y-71044859D01*
X123897551Y-71007859D01*
X123277886Y-70981414D01*
X122635873Y-70967569D01*
X122027569Y-70968375D01*
X121509025Y-70985878D01*
X121276054Y-71004013D01*
X120815307Y-71037756D01*
X120546883Y-70995733D01*
X120419550Y-70840843D01*
X120382080Y-70535988D01*
X120380809Y-70355691D01*
X120412297Y-69884214D01*
X120495094Y-69588982D01*
X120618817Y-69498211D01*
X120684322Y-69530958D01*
G37*
G36*
X45577385Y-109161827D02*
G01*
X45805147Y-109344123D01*
X45824397Y-109614269D01*
X45763721Y-109782225D01*
X45597561Y-110015540D01*
X45420998Y-110026771D01*
X44979907Y-109898632D01*
X44626439Y-109953580D01*
X44392156Y-110099456D01*
X44141353Y-110427684D01*
X44044228Y-110839397D01*
X44108074Y-111242573D01*
X44281310Y-111498365D01*
X44571483Y-111642613D01*
X44953127Y-111697457D01*
X45313560Y-111657713D01*
X45510314Y-111554927D01*
X45658796Y-111486865D01*
X45822458Y-111625514D01*
X45839306Y-111647403D01*
X45997882Y-111930418D01*
X45960797Y-112147824D01*
X45709266Y-112344415D01*
X45504611Y-112445553D01*
X45095372Y-112611131D01*
X44782851Y-112664250D01*
X44450164Y-112615676D01*
X44253639Y-112560795D01*
X43769356Y-112303834D01*
X43353484Y-111882325D01*
X43083830Y-111378144D01*
X43062698Y-111307571D01*
X43007449Y-110678935D01*
X43163241Y-110100316D01*
X43494777Y-109610388D01*
X43966756Y-109247826D01*
X44543879Y-109051304D01*
X45124626Y-109048456D01*
X45577385Y-109161827D01*
G37*
G36*
X97155750Y-92842366D02*
G01*
X97404408Y-92866330D01*
X97496101Y-92922765D01*
X97475620Y-93025168D01*
X97456054Y-93063597D01*
X97410411Y-93258810D01*
X97361662Y-93653901D01*
X97314060Y-94202256D01*
X97271856Y-94857260D01*
X97248371Y-95340695D01*
X97218831Y-96151809D01*
X97209318Y-96748703D01*
X97220825Y-97163025D01*
X97254344Y-97426422D01*
X97310865Y-97570540D01*
X97318549Y-97580495D01*
X97373245Y-97678616D01*
X97307315Y-97735666D01*
X97080045Y-97762352D01*
X96650722Y-97769382D01*
X96600188Y-97769417D01*
X96147330Y-97765705D01*
X95894127Y-97743329D01*
X95793640Y-97685433D01*
X95798926Y-97575157D01*
X95827720Y-97491989D01*
X95882573Y-97230005D01*
X95931524Y-96788510D01*
X95972920Y-96220144D01*
X96005107Y-95577543D01*
X96026433Y-94913347D01*
X96035244Y-94280191D01*
X96029888Y-93730715D01*
X96008711Y-93317556D01*
X95970059Y-93093352D01*
X95966121Y-93085077D01*
X95911737Y-92956427D01*
X95950697Y-92882344D01*
X96127785Y-92847821D01*
X96487781Y-92837852D01*
X96705339Y-92837378D01*
X97155750Y-92842366D01*
G37*
G36*
X79813106Y-108249999D02*
G01*
X79813106Y-108743203D01*
X78765048Y-108743203D01*
X77716990Y-108743203D01*
X77717372Y-109328883D01*
X77717753Y-109914562D01*
X78325784Y-109915271D01*
X78951558Y-110019336D01*
X79458462Y-110302276D01*
X79838303Y-110722594D01*
X80082886Y-111238794D01*
X80184016Y-111809378D01*
X80133497Y-112392850D01*
X79923136Y-112947714D01*
X79544738Y-113432472D01*
X79084733Y-113758467D01*
X78489345Y-113988003D01*
X77905975Y-114015209D01*
X77298140Y-113863081D01*
X76943579Y-113708249D01*
X76671052Y-113540616D01*
X76631783Y-113505985D01*
X76518087Y-113349737D01*
X76548724Y-113179070D01*
X76659084Y-112994812D01*
X76872141Y-112766021D01*
X77078838Y-112757771D01*
X77710748Y-112978237D01*
X78197377Y-113030893D01*
X78556507Y-112927536D01*
X78927722Y-112602195D01*
X79112770Y-112188912D01*
X79126366Y-111742775D01*
X78983228Y-111318876D01*
X78698069Y-110972304D01*
X78285608Y-110758149D01*
X77965755Y-110716019D01*
X77680180Y-110763027D01*
X77322804Y-110877884D01*
X77281476Y-110894678D01*
X76853883Y-111073338D01*
X76853883Y-109415067D01*
X76853883Y-107756795D01*
X78333495Y-107756795D01*
X79813106Y-107756795D01*
X79813106Y-108249999D01*
G37*
G36*
X71347945Y-107919304D02*
G01*
X71880430Y-108303619D01*
X72277480Y-108861726D01*
X72359259Y-109049643D01*
X72484902Y-109604767D01*
X72436020Y-110187751D01*
X72203491Y-110823580D01*
X71778193Y-111537236D01*
X71154297Y-112349756D01*
X70665871Y-112935436D01*
X71663761Y-112935436D01*
X72661650Y-112935436D01*
X72661650Y-113428640D01*
X72661650Y-113921844D01*
X70543220Y-113921844D01*
X68424790Y-113921844D01*
X69473400Y-112842960D01*
X70168673Y-112101354D01*
X70688466Y-111481871D01*
X71052258Y-110955622D01*
X71279525Y-110493716D01*
X71389744Y-110067265D01*
X71399193Y-109986468D01*
X71403786Y-109557649D01*
X71300293Y-109247320D01*
X71196940Y-109097185D01*
X70827990Y-108804326D01*
X70379304Y-108694753D01*
X69927724Y-108768922D01*
X69550093Y-109027287D01*
X69500620Y-109087128D01*
X69372164Y-109413681D01*
X69343910Y-109844189D01*
X69418941Y-110255935D01*
X69468420Y-110369650D01*
X69530816Y-110577151D01*
X69438542Y-110776309D01*
X69295681Y-110932208D01*
X68987046Y-111240844D01*
X68651188Y-110733329D01*
X68393580Y-110139129D01*
X68353832Y-109513234D01*
X68517929Y-108907901D01*
X68871858Y-108375386D01*
X69391274Y-107973503D01*
X70058029Y-107737807D01*
X70725366Y-107725220D01*
X71347945Y-107919304D01*
G37*
G36*
X54791829Y-107892386D02*
G01*
X55329297Y-108247277D01*
X55737437Y-108747384D01*
X55974005Y-109358916D01*
X56016019Y-109767607D01*
X55934741Y-110211294D01*
X55712221Y-110768515D01*
X55380436Y-111377282D01*
X54971358Y-111975604D01*
X54715949Y-112288106D01*
X54147381Y-112935436D01*
X55143351Y-112935436D01*
X56139320Y-112935436D01*
X56139320Y-113428640D01*
X56139320Y-113921844D01*
X54081785Y-113921844D01*
X52024251Y-113921844D01*
X52386397Y-113521639D01*
X52648781Y-113234470D01*
X53008024Y-112844836D01*
X53392524Y-112430362D01*
X53445590Y-112373380D01*
X54072498Y-111656148D01*
X54511564Y-111043649D01*
X54780716Y-110504711D01*
X54897883Y-110008160D01*
X54906310Y-109833575D01*
X54831241Y-109294770D01*
X54598141Y-108938908D01*
X54195177Y-108755955D01*
X53611650Y-108735777D01*
X53266642Y-108875881D01*
X53004421Y-109183536D01*
X52852270Y-109586019D01*
X52837474Y-110010606D01*
X52987318Y-110384575D01*
X52991143Y-110389671D01*
X53085491Y-110562799D01*
X53029176Y-110715646D01*
X52833838Y-110902385D01*
X52594821Y-111083318D01*
X52425431Y-111107582D01*
X52269585Y-110952230D01*
X52071203Y-110594314D01*
X52068626Y-110589264D01*
X51861442Y-109942822D01*
X51879512Y-109309714D01*
X52102890Y-108729515D01*
X52511630Y-108241803D01*
X53085784Y-107886155D01*
X53497892Y-107753413D01*
X54167279Y-107716501D01*
X54791829Y-107892386D01*
G37*
G36*
X62994837Y-107839270D02*
G01*
X63651178Y-108142304D01*
X64182287Y-108625271D01*
X64574027Y-109264769D01*
X64812262Y-110037393D01*
X64882856Y-110919740D01*
X64771671Y-111888407D01*
X64761802Y-111935354D01*
X64492759Y-112644237D01*
X64040613Y-113229498D01*
X63448123Y-113662488D01*
X62758052Y-113914558D01*
X62013160Y-113957061D01*
X61790953Y-113925714D01*
X61097733Y-113675174D01*
X60518814Y-113208722D01*
X60060829Y-112532303D01*
X59937714Y-112264861D01*
X59806423Y-111775608D01*
X59736088Y-111142554D01*
X59731388Y-110636679D01*
X60743341Y-110636679D01*
X60752986Y-111325001D01*
X60910939Y-111929625D01*
X61196268Y-112422808D01*
X61588043Y-112776808D01*
X62065332Y-112963885D01*
X62607204Y-112956295D01*
X63085482Y-112785130D01*
X63355615Y-112523629D01*
X63574632Y-112073277D01*
X63722980Y-111489797D01*
X63781103Y-110828912D01*
X63781272Y-110802371D01*
X63706697Y-110024842D01*
X63484842Y-109412941D01*
X63126799Y-108982338D01*
X62643662Y-108748698D01*
X62299624Y-108709575D01*
X61765137Y-108792972D01*
X61355868Y-109058269D01*
X61045060Y-109528127D01*
X60902935Y-109892401D01*
X60743341Y-110636679D01*
X59731388Y-110636679D01*
X59729762Y-110461608D01*
X59790497Y-109828677D01*
X59851145Y-109544659D01*
X60162142Y-108836492D01*
X60650016Y-108286524D01*
X61286329Y-107916357D01*
X62042644Y-107747594D01*
X62227401Y-107739574D01*
X62994837Y-107839270D01*
G37*
G36*
X97301341Y-42012928D02*
G01*
X97913989Y-42124694D01*
X98246602Y-42251250D01*
X98910575Y-42718767D01*
X99371115Y-43322454D01*
X99620054Y-44048980D01*
X99664563Y-44565048D01*
X99579939Y-45257236D01*
X99306679Y-45843616D01*
X98834669Y-46370439D01*
X98249549Y-46749164D01*
X97520895Y-46992854D01*
X96719377Y-47088659D01*
X95915665Y-47023726D01*
X95624380Y-46954233D01*
X95160355Y-46722376D01*
X94692006Y-46328803D01*
X94289475Y-45846887D01*
X94022904Y-45350002D01*
X93988713Y-45243203D01*
X93907406Y-44524378D01*
X95204533Y-44524378D01*
X95222096Y-44873300D01*
X95370642Y-45340109D01*
X95702141Y-45718435D01*
X96161135Y-45982822D01*
X96692167Y-46107816D01*
X97239778Y-46067961D01*
X97564745Y-45948570D01*
X98003606Y-45603817D01*
X98288510Y-45130058D01*
X98410074Y-44589731D01*
X98358914Y-44045280D01*
X98125646Y-43559146D01*
X97952245Y-43370186D01*
X97691549Y-43169450D01*
X97423922Y-43064819D01*
X97052847Y-43026910D01*
X96814365Y-43023786D01*
X96377876Y-43036668D01*
X96091242Y-43098338D01*
X95858128Y-43243332D01*
X95644951Y-43443009D01*
X95378689Y-43760303D01*
X95240355Y-44092102D01*
X95204533Y-44524378D01*
X93907406Y-44524378D01*
X93903635Y-44491042D01*
X94043900Y-43762188D01*
X94388983Y-43098955D01*
X94918360Y-42543657D01*
X95462571Y-42204702D01*
X95977461Y-42051291D01*
X96623108Y-41987913D01*
X97301341Y-42012928D01*
G37*
G36*
X121986702Y-107254814D02*
G01*
X122729841Y-107555259D01*
X123394306Y-108034732D01*
X123943934Y-108693910D01*
X124147703Y-109056559D01*
X124430261Y-109883378D01*
X124491010Y-110704977D01*
X124353515Y-111493849D01*
X124041341Y-112222491D01*
X123578052Y-112863396D01*
X122987213Y-113389060D01*
X122292388Y-113771978D01*
X121517141Y-113984643D01*
X120685038Y-113999552D01*
X120030593Y-113862162D01*
X119203491Y-113485462D01*
X118530351Y-112939744D01*
X118027130Y-112260131D01*
X117709782Y-111481747D01*
X117622250Y-110843719D01*
X118648330Y-110843719D01*
X118813018Y-111509477D01*
X119144029Y-112091449D01*
X119616523Y-112558680D01*
X120205660Y-112880218D01*
X120886601Y-113025110D01*
X121634506Y-112962403D01*
X121762433Y-112930010D01*
X122399497Y-112637841D01*
X122893332Y-112182441D01*
X123234766Y-111607560D01*
X123414629Y-110956948D01*
X123423749Y-110274353D01*
X123252955Y-109603526D01*
X122893076Y-108988216D01*
X122644917Y-108720222D01*
X122059908Y-108327369D01*
X121400438Y-108134689D01*
X120716957Y-108133187D01*
X120059916Y-108313872D01*
X119479767Y-108667751D01*
X119026961Y-109185831D01*
X118917283Y-109384653D01*
X118674806Y-110125126D01*
X118648330Y-110843719D01*
X117622250Y-110843719D01*
X117594263Y-110639717D01*
X117696528Y-109769166D01*
X117900857Y-109173730D01*
X118356612Y-108414256D01*
X118950672Y-107829740D01*
X119646874Y-107420859D01*
X120409055Y-107188292D01*
X121201052Y-107132718D01*
X121986702Y-107254814D01*
G37*
G36*
X102170530Y-107172321D02*
G01*
X102930782Y-107371117D01*
X103634026Y-107748066D01*
X104245262Y-108306115D01*
X104716169Y-109021285D01*
X105019914Y-109881565D01*
X105094874Y-110748781D01*
X104952883Y-111586498D01*
X104605781Y-112358281D01*
X104065404Y-113027694D01*
X103343590Y-113558303D01*
X103221029Y-113623352D01*
X102617276Y-113845418D01*
X101920986Y-113974253D01*
X101241941Y-113995679D01*
X100815205Y-113934072D01*
X99993473Y-113604474D01*
X99302882Y-113092498D01*
X98764324Y-112435583D01*
X98398691Y-111671166D01*
X98226875Y-110836685D01*
X98244233Y-110485784D01*
X99277110Y-110485784D01*
X99339994Y-111203498D01*
X99544940Y-111775274D01*
X99888184Y-112242003D01*
X100475014Y-112705599D01*
X101150327Y-112967276D01*
X101862804Y-113021157D01*
X102561129Y-112861363D01*
X103037634Y-112602780D01*
X103569521Y-112094499D01*
X103909045Y-111489037D01*
X104063535Y-110828868D01*
X104040320Y-110156466D01*
X103846730Y-109514306D01*
X103490094Y-108944861D01*
X102977740Y-108490607D01*
X102317000Y-108194018D01*
X102274916Y-108182713D01*
X101530100Y-108104035D01*
X100834988Y-108242405D01*
X100225915Y-108569911D01*
X99739216Y-109058636D01*
X99411225Y-109680667D01*
X99278279Y-110408089D01*
X99277110Y-110485784D01*
X98244233Y-110485784D01*
X98269768Y-109969577D01*
X98371846Y-109555656D01*
X98739149Y-108747446D01*
X99259442Y-108099700D01*
X99897727Y-107615366D01*
X100619003Y-107297393D01*
X101388271Y-107148729D01*
X102170530Y-107172321D01*
G37*
G36*
X151639496Y-107109682D02*
G01*
X151783554Y-107430581D01*
X151993501Y-107909272D01*
X152254486Y-108510990D01*
X152551661Y-109200968D01*
X152870175Y-109944441D01*
X153195178Y-110706645D01*
X153511820Y-111452813D01*
X153805253Y-112148181D01*
X154060625Y-112757983D01*
X154263087Y-113247454D01*
X154397789Y-113581828D01*
X154418972Y-113636680D01*
X154467960Y-113808525D01*
X154407775Y-113892133D01*
X154185970Y-113918924D01*
X153944763Y-113920784D01*
X153362136Y-113919724D01*
X153053191Y-113088502D01*
X152744247Y-112257281D01*
X151492523Y-112222268D01*
X150240799Y-112187255D01*
X149890302Y-113053030D01*
X149539805Y-113918805D01*
X149030053Y-113920324D01*
X148520300Y-113921844D01*
X149613135Y-111332523D01*
X150591462Y-111332523D01*
X151452770Y-111332523D01*
X151877724Y-111324864D01*
X152185436Y-111304712D01*
X152313459Y-111276304D01*
X152314077Y-111274083D01*
X152271199Y-111136397D01*
X152160173Y-110837870D01*
X152007412Y-110444791D01*
X151839328Y-110023446D01*
X151682335Y-109640124D01*
X151562845Y-109361114D01*
X151509129Y-109253905D01*
X151451604Y-109304208D01*
X151335484Y-109529317D01*
X151152707Y-109946849D01*
X150895211Y-110574424D01*
X150825966Y-110746844D01*
X150591462Y-111332523D01*
X149613135Y-111332523D01*
X150005470Y-110402941D01*
X150373899Y-109539264D01*
X150714458Y-108758610D01*
X151015008Y-108087417D01*
X151263414Y-107552123D01*
X151447537Y-107179168D01*
X151555242Y-106994991D01*
X151576177Y-106981339D01*
X151639496Y-107109682D01*
G37*
G36*
X91073175Y-42981265D02*
G01*
X91620157Y-42993597D01*
X92068791Y-43012185D01*
X92366234Y-43034303D01*
X92459952Y-43052832D01*
X92454051Y-43189246D01*
X92380767Y-43478860D01*
X92316515Y-43680122D01*
X92193257Y-44016910D01*
X92096582Y-44159359D01*
X91978649Y-44148233D01*
X91857886Y-44070934D01*
X91489001Y-43930768D01*
X90979607Y-43886767D01*
X90414961Y-43935891D01*
X89880318Y-44075095D01*
X89709721Y-44147588D01*
X89193839Y-44479131D01*
X88894633Y-44888040D01*
X88784851Y-45415461D01*
X88783330Y-45546353D01*
X88853630Y-46111523D01*
X89068085Y-46522862D01*
X89462165Y-46847901D01*
X89469277Y-46852253D01*
X90022480Y-47053218D01*
X90643586Y-47055000D01*
X91277138Y-46871945D01*
X91867676Y-46518399D01*
X92266817Y-46128598D01*
X92636733Y-45679825D01*
X93033887Y-46076978D01*
X93431041Y-46474132D01*
X93002899Y-46848972D01*
X92331158Y-47387562D01*
X91726217Y-47756284D01*
X91122969Y-47993629D01*
X91015798Y-48023708D01*
X90352247Y-48162413D01*
X89803892Y-48177005D01*
X89272637Y-48067144D01*
X89122330Y-48017136D01*
X88530565Y-47686416D01*
X88029308Y-47176657D01*
X87662512Y-46550986D01*
X87474131Y-45872531D01*
X87458454Y-45627411D01*
X87574754Y-44936264D01*
X87905611Y-44282693D01*
X88419084Y-43711434D01*
X89083233Y-43267221D01*
X89175366Y-43222804D01*
X89477503Y-43101626D01*
X89793523Y-43026093D01*
X90189962Y-42987735D01*
X90733358Y-42978084D01*
X91073175Y-42981265D01*
G37*
G36*
X45271103Y-107707874D02*
G01*
X45651997Y-107755346D01*
X45966409Y-107859034D01*
X46296990Y-108034100D01*
X47003885Y-108574389D01*
X47516943Y-109225623D01*
X47837836Y-109951905D01*
X47968240Y-110717336D01*
X47909829Y-111486019D01*
X47664275Y-112222054D01*
X47233254Y-112889544D01*
X46618439Y-113452590D01*
X46028640Y-113788859D01*
X45389137Y-113974189D01*
X44642633Y-114030265D01*
X43893471Y-113954900D01*
X43476665Y-113842357D01*
X43072326Y-113640752D01*
X42647940Y-113342840D01*
X42485594Y-113199463D01*
X41934247Y-112507510D01*
X41595835Y-111733824D01*
X41471927Y-110918028D01*
X41480900Y-110838368D01*
X42329611Y-110838368D01*
X42437185Y-111618441D01*
X42749748Y-112276811D01*
X43252064Y-112791121D01*
X43887798Y-113124726D01*
X44426197Y-113270637D01*
X44914144Y-113276989D01*
X45456521Y-113154172D01*
X46061540Y-112851277D01*
X46565481Y-112363533D01*
X46930880Y-111744348D01*
X47120268Y-111047129D01*
X47138349Y-110756748D01*
X47083261Y-110443689D01*
X46941782Y-110028315D01*
X46818177Y-109752032D01*
X46390336Y-109146707D01*
X45819721Y-108713199D01*
X45153125Y-108473180D01*
X44437343Y-108448324D01*
X44131604Y-108507710D01*
X43422492Y-108812932D01*
X42870838Y-109293111D01*
X42500644Y-109917202D01*
X42335914Y-110654164D01*
X42329611Y-110838368D01*
X41480900Y-110838368D01*
X41564095Y-110099743D01*
X41873910Y-109318592D01*
X42307806Y-108715336D01*
X42833559Y-108219590D01*
X43381190Y-107904604D01*
X44021795Y-107740543D01*
X44733980Y-107697279D01*
X45271103Y-107707874D01*
G37*
G36*
X132734030Y-107171348D02*
G01*
X133310978Y-107333726D01*
X133633103Y-107476866D01*
X133774979Y-107607990D01*
X133789427Y-107795644D01*
X133766761Y-107925174D01*
X133664601Y-108275670D01*
X133504513Y-108418678D01*
X133227724Y-108383262D01*
X133008737Y-108300052D01*
X132373911Y-108148177D01*
X131662863Y-108156601D01*
X130974268Y-108314658D01*
X130455245Y-108576060D01*
X129931722Y-109087991D01*
X129591879Y-109726075D01*
X129447041Y-110440098D01*
X129508530Y-111179844D01*
X129730576Y-111789583D01*
X130131943Y-112318320D01*
X130695786Y-112715603D01*
X131362478Y-112957142D01*
X132072394Y-113018647D01*
X132560277Y-112942342D01*
X133079126Y-112802630D01*
X133079126Y-112190878D01*
X133079126Y-111579125D01*
X132462621Y-111579125D01*
X131846116Y-111579125D01*
X131846116Y-111085921D01*
X131846116Y-110592718D01*
X133021514Y-110592718D01*
X134196911Y-110592718D01*
X134162048Y-111979853D01*
X134127184Y-113366989D01*
X133556343Y-113650346D01*
X132832669Y-113899110D01*
X132012768Y-114004700D01*
X131200009Y-113960776D01*
X130662866Y-113827897D01*
X129846954Y-113422949D01*
X129190310Y-112860912D01*
X128760364Y-112237952D01*
X128599760Y-111877780D01*
X128506358Y-111520200D01*
X128463792Y-111076935D01*
X128455339Y-110592718D01*
X128465287Y-110043478D01*
X128507826Y-109651513D01*
X128602000Y-109327867D01*
X128766855Y-108983586D01*
X128821097Y-108884314D01*
X129101357Y-108451863D01*
X129426383Y-108053750D01*
X129618646Y-107868050D01*
X130272273Y-107471975D01*
X131059893Y-107216524D01*
X131905736Y-107112659D01*
X132734030Y-107171348D01*
G37*
G36*
X119564195Y-78347596D02*
G01*
X119870870Y-78551013D01*
X120317973Y-78809442D01*
X120855736Y-79098257D01*
X121434389Y-79392831D01*
X122004161Y-79668538D01*
X122515282Y-79900751D01*
X122917983Y-80064844D01*
X123162493Y-80136192D01*
X123181359Y-80137378D01*
X123360191Y-80168609D01*
X123438282Y-80281340D01*
X123409274Y-80504121D01*
X123266808Y-80865505D01*
X123004525Y-81394044D01*
X122826849Y-81729205D01*
X122367198Y-82561295D01*
X121986998Y-83192025D01*
X121668524Y-83646685D01*
X121394048Y-83950562D01*
X121145843Y-84128944D01*
X121143944Y-84129919D01*
X120589948Y-84317491D01*
X119968121Y-84383621D01*
X119410443Y-84314276D01*
X118751187Y-84023452D01*
X118181886Y-83588836D01*
X117744177Y-83057615D01*
X117479695Y-82476977D01*
X117419903Y-82058377D01*
X117458590Y-81814493D01*
X118549296Y-81814493D01*
X118640858Y-82155836D01*
X118877389Y-82497140D01*
X118912042Y-82537177D01*
X119406906Y-82949875D01*
X119952753Y-83143542D01*
X120510504Y-83110782D01*
X120933980Y-82919855D01*
X121112759Y-82736431D01*
X121354341Y-82402008D01*
X121609571Y-81985309D01*
X121635450Y-81939061D01*
X122090317Y-81118312D01*
X120729460Y-80435816D01*
X120127311Y-80135968D01*
X119703318Y-79951075D01*
X119412703Y-79890666D01*
X119210693Y-79964273D01*
X119052510Y-80181426D01*
X118893380Y-80551655D01*
X118778915Y-80850984D01*
X118597162Y-81402935D01*
X118549296Y-81814493D01*
X117458590Y-81814493D01*
X117487336Y-81633272D01*
X117680765Y-81037800D01*
X117986880Y-80305078D01*
X118392373Y-79468227D01*
X118674827Y-78935413D01*
X119163147Y-78041701D01*
X119564195Y-78347596D01*
G37*
G36*
X116593867Y-84061063D02*
G01*
X116906263Y-84174449D01*
X117283558Y-84398820D01*
X117761758Y-84752530D01*
X118376872Y-85253934D01*
X118502918Y-85359611D01*
X118978530Y-85752422D01*
X119391229Y-86080010D01*
X119702604Y-86312855D01*
X119874247Y-86421434D01*
X119890054Y-86425727D01*
X119995391Y-86468937D01*
X119956056Y-86615576D01*
X119759756Y-86891163D01*
X119538089Y-87156257D01*
X119067621Y-87701836D01*
X118521189Y-87106353D01*
X117909238Y-86480998D01*
X117329191Y-85966637D01*
X116811999Y-85586752D01*
X116388611Y-85364824D01*
X116161400Y-85316019D01*
X115763585Y-85425936D01*
X115375087Y-85712209D01*
X115054755Y-86109617D01*
X114861442Y-86552940D01*
X114830582Y-86790875D01*
X114844452Y-87013391D01*
X114907318Y-87209012D01*
X115051063Y-87422121D01*
X115307569Y-87697102D01*
X115708719Y-88078339D01*
X115847815Y-88206955D01*
X116293175Y-88597506D01*
X116708984Y-88926462D01*
X117042639Y-89154179D01*
X117213885Y-89236514D01*
X117562721Y-89328058D01*
X117049280Y-89911359D01*
X116690533Y-90290640D01*
X116455473Y-90468881D01*
X116333665Y-90451980D01*
X116310194Y-90329116D01*
X116223775Y-90187490D01*
X115987563Y-89918744D01*
X115636124Y-89559537D01*
X115204024Y-89146531D01*
X115135197Y-89082948D01*
X114495289Y-88472963D01*
X114038287Y-87973840D01*
X113748815Y-87549825D01*
X113611495Y-87165165D01*
X113610952Y-86784105D01*
X113731807Y-86370892D01*
X113852456Y-86100367D01*
X114118841Y-85684395D01*
X114513784Y-85225769D01*
X114977146Y-84780167D01*
X115448789Y-84403266D01*
X115868577Y-84150744D01*
X116019743Y-84093828D01*
X116310363Y-84040308D01*
X116593867Y-84061063D01*
G37*
G36*
X106791236Y-91038712D02*
G01*
X106782111Y-91141989D01*
X106792354Y-91342214D01*
X106882526Y-91705793D01*
X107033539Y-92183457D01*
X107226309Y-92725933D01*
X107441747Y-93283950D01*
X107660767Y-93808238D01*
X107864284Y-94249524D01*
X108033210Y-94558537D01*
X108148459Y-94686007D01*
X108155322Y-94686892D01*
X108370911Y-94634842D01*
X108698264Y-94506115D01*
X109048811Y-94341852D01*
X109333978Y-94183191D01*
X109460683Y-94080592D01*
X109601457Y-93955993D01*
X109749211Y-94050439D01*
X109919171Y-94375276D01*
X109946806Y-94442786D01*
X110090104Y-94825867D01*
X110118730Y-95041730D01*
X110014822Y-95149963D01*
X109760517Y-95210152D01*
X109714502Y-95217714D01*
X109364417Y-95306594D01*
X108859777Y-95474928D01*
X108260415Y-95698356D01*
X107626162Y-95952521D01*
X107016851Y-96213064D01*
X106492314Y-96455626D01*
X106112383Y-96655850D01*
X105997203Y-96731072D01*
X105609939Y-97021620D01*
X105349872Y-96417078D01*
X105182263Y-96018972D01*
X105112948Y-95796514D01*
X105143120Y-95698672D01*
X105273969Y-95674414D01*
X105367233Y-95673910D01*
X105669726Y-95632975D01*
X106041442Y-95528515D01*
X106406694Y-95389646D01*
X106689799Y-95245484D01*
X106815072Y-95125145D01*
X106816019Y-95116554D01*
X106767779Y-94909685D01*
X106638143Y-94538515D01*
X106449733Y-94055723D01*
X106225172Y-93513991D01*
X105987085Y-92966000D01*
X105758094Y-92464432D01*
X105560824Y-92061967D01*
X105417896Y-91811286D01*
X105374481Y-91759768D01*
X105253975Y-91663937D01*
X105231903Y-91590267D01*
X105343333Y-91506033D01*
X105623332Y-91378506D01*
X105914119Y-91256149D01*
X106390690Y-91070556D01*
X106674897Y-90999151D01*
X106791236Y-91038712D01*
G37*
G36*
X87241909Y-90399761D02*
G01*
X87988177Y-90731236D01*
X88748801Y-91212763D01*
X89141188Y-91521348D01*
X89776552Y-92057374D01*
X89471329Y-92447376D01*
X89200776Y-92738116D01*
X88985958Y-92805183D01*
X88777434Y-92647957D01*
X88629126Y-92436768D01*
X88224729Y-91984984D01*
X87670535Y-91611430D01*
X87059469Y-91368425D01*
X86615890Y-91303263D01*
X86261491Y-91313441D01*
X86090463Y-91372703D01*
X86040684Y-91506770D01*
X86039805Y-91541767D01*
X86124258Y-91722521D01*
X86388471Y-91978111D01*
X86848730Y-92323014D01*
X87149514Y-92528175D01*
X87821842Y-93011390D01*
X88282324Y-93432153D01*
X88548870Y-93817596D01*
X88639389Y-94194852D01*
X88571789Y-94591053D01*
X88550381Y-94650485D01*
X88347841Y-95017316D01*
X88080943Y-95316201D01*
X88057447Y-95334537D01*
X87604582Y-95543984D01*
X87034048Y-95627486D01*
X86445236Y-95576136D01*
X86188097Y-95502016D01*
X85507409Y-95163271D01*
X84744553Y-94618165D01*
X84271799Y-94215403D01*
X83736802Y-93736519D01*
X84207455Y-93348567D01*
X84678107Y-92960616D01*
X84903009Y-93398995D01*
X85206014Y-93803232D01*
X85646326Y-94166402D01*
X86156136Y-94452412D01*
X86667632Y-94625166D01*
X87113004Y-94648569D01*
X87208394Y-94626121D01*
X87424968Y-94498786D01*
X87434330Y-94312796D01*
X87230412Y-94059231D01*
X86807146Y-93729176D01*
X86428717Y-93480209D01*
X85952168Y-93168198D01*
X85529099Y-92869909D01*
X85222106Y-92630427D01*
X85129174Y-92544161D01*
X84856172Y-92089762D01*
X84783994Y-91571603D01*
X84903168Y-91054724D01*
X85204222Y-90604162D01*
X85439841Y-90410833D01*
X85932681Y-90229041D01*
X86545057Y-90228856D01*
X87241909Y-90399761D01*
G37*
G36*
X91187621Y-107140978D02*
G01*
X91751700Y-107154532D01*
X92273396Y-107190097D01*
X92666954Y-107241036D01*
X92765178Y-107263073D01*
X93202622Y-107477721D01*
X93617351Y-107834213D01*
X93929550Y-108253241D01*
X94042231Y-108532046D01*
X94055589Y-109034042D01*
X93909798Y-109568456D01*
X93640878Y-110016969D01*
X93566612Y-110094396D01*
X93261036Y-110381470D01*
X93768791Y-110832063D01*
X94072769Y-111127832D01*
X94233374Y-111390210D01*
X94306307Y-111731352D01*
X94326448Y-111954920D01*
X94286406Y-112621131D01*
X94049331Y-113144058D01*
X93605389Y-113540946D01*
X93342841Y-113679703D01*
X93036894Y-113792663D01*
X92676710Y-113865058D01*
X92201374Y-113904529D01*
X91549970Y-113918718D01*
X91434223Y-113919136D01*
X90047087Y-113921844D01*
X90047087Y-113058737D01*
X91033495Y-113058737D01*
X91653960Y-113058737D01*
X92121418Y-113021472D01*
X92565560Y-112927712D01*
X92701742Y-112880192D01*
X93118508Y-112607216D01*
X93320189Y-112241170D01*
X93293355Y-111809777D01*
X93261839Y-111723977D01*
X93046439Y-111400048D01*
X92697770Y-111197759D01*
X92177185Y-111100609D01*
X91767499Y-111085921D01*
X91033495Y-111085921D01*
X91033495Y-112072329D01*
X91033495Y-113058737D01*
X90047087Y-113058737D01*
X90047087Y-112072329D01*
X90047087Y-110531067D01*
X90047087Y-110099514D01*
X91033495Y-110099514D01*
X91717255Y-110099514D01*
X92158425Y-110077553D01*
X92449651Y-109992388D01*
X92685196Y-109815099D01*
X92703662Y-109796866D01*
X92955789Y-109399593D01*
X93006310Y-109113106D01*
X92902178Y-108656175D01*
X92599014Y-108334317D01*
X92110671Y-108158131D01*
X91717255Y-108126698D01*
X91033495Y-108126698D01*
X91033495Y-109113106D01*
X91033495Y-110099514D01*
X90047087Y-110099514D01*
X90047087Y-109113106D01*
X90047087Y-107140290D01*
X91187621Y-107140978D01*
G37*
G36*
X71039967Y-61342002D02*
G01*
X71231362Y-61404279D01*
X71610054Y-61512919D01*
X72124333Y-61653543D01*
X72722492Y-61811776D01*
X72832002Y-61840222D01*
X73451819Y-62009618D01*
X74007673Y-62177775D01*
X74443581Y-62326645D01*
X74703559Y-62438180D01*
X74722641Y-62449730D01*
X75077400Y-62824293D01*
X75284259Y-63365686D01*
X75340278Y-64041244D01*
X75242518Y-64818299D01*
X75007307Y-65613356D01*
X74658098Y-66294663D01*
X74204010Y-66753237D01*
X73645806Y-66988577D01*
X72984250Y-67000183D01*
X72908252Y-66988304D01*
X72656981Y-66940579D01*
X72234333Y-66855655D01*
X71710125Y-66747677D01*
X71390390Y-66680762D01*
X70850711Y-66578021D01*
X70382103Y-66508635D01*
X70049486Y-66481213D01*
X69941604Y-66488638D01*
X69784977Y-66503609D01*
X69717617Y-66416729D01*
X69737453Y-66188746D01*
X69842414Y-65780406D01*
X69894808Y-65601311D01*
X70019712Y-65231318D01*
X70123031Y-65067374D01*
X70229803Y-65073375D01*
X70250251Y-65088825D01*
X70466090Y-65189780D01*
X70858814Y-65306485D01*
X71369459Y-65427945D01*
X71939059Y-65543168D01*
X72508647Y-65641162D01*
X73019260Y-65710933D01*
X73411932Y-65741489D01*
X73627697Y-65721836D01*
X73632667Y-65719401D01*
X73924340Y-65446233D01*
X74140168Y-65025316D01*
X74264947Y-64533483D01*
X74283477Y-64047571D01*
X74180555Y-63644411D01*
X74073311Y-63492297D01*
X73848011Y-63362502D01*
X73442245Y-63211406D01*
X72919260Y-63054475D01*
X72342299Y-62907176D01*
X71774606Y-62784978D01*
X71279425Y-62703347D01*
X70920001Y-62677752D01*
X70804260Y-62692790D01*
X70657208Y-62723621D01*
X70586613Y-62667682D01*
X70586781Y-62480547D01*
X70652018Y-62117790D01*
X70700889Y-61886337D01*
X70795354Y-61516585D01*
X70889601Y-61346643D01*
X71011758Y-61331354D01*
X71039967Y-61342002D01*
G37*
G36*
X71363831Y-73845793D02*
G01*
X71835055Y-74328370D01*
X71517621Y-74408041D01*
X71239501Y-74530713D01*
X70996192Y-74720116D01*
X70851026Y-74914949D01*
X70858414Y-75046115D01*
X71026910Y-75102377D01*
X71338437Y-75135163D01*
X71432671Y-75137835D01*
X71754939Y-75155955D01*
X71891047Y-75237600D01*
X71870127Y-75438986D01*
X71749474Y-75749101D01*
X71569133Y-76103330D01*
X71389927Y-76226749D01*
X71161573Y-76129731D01*
X70927842Y-75918581D01*
X70682405Y-75681203D01*
X70551700Y-75604335D01*
X70476731Y-75673473D01*
X70427798Y-75795634D01*
X70392765Y-76135582D01*
X70445752Y-76385953D01*
X70534085Y-76635790D01*
X70565534Y-76754628D01*
X70459231Y-76798542D01*
X70202038Y-76808159D01*
X69886529Y-76788392D01*
X69605280Y-76744157D01*
X69470260Y-76696481D01*
X69369994Y-76583598D01*
X69427720Y-76411908D01*
X69501085Y-76301031D01*
X69653537Y-75988486D01*
X69702427Y-75741365D01*
X69675201Y-75560190D01*
X69545276Y-75524639D01*
X69332524Y-75575242D01*
X69077359Y-75625100D01*
X68961538Y-75601735D01*
X68960937Y-75597460D01*
X68930676Y-75422326D01*
X68888110Y-75248416D01*
X68880368Y-75052156D01*
X69034178Y-74943019D01*
X69198046Y-74899541D01*
X69460411Y-74818738D01*
X69576093Y-74737149D01*
X69576384Y-74733163D01*
X69487796Y-74551768D01*
X69282621Y-74307176D01*
X69039732Y-74086548D01*
X68919840Y-74007625D01*
X68800090Y-73919279D01*
X68838023Y-73822622D01*
X69060949Y-73670351D01*
X69142665Y-73621659D01*
X69554006Y-73412644D01*
X69808730Y-73373598D01*
X69930273Y-73505989D01*
X69949029Y-73672183D01*
X69995796Y-74007822D01*
X70111138Y-74275090D01*
X70257617Y-74404684D01*
X70337957Y-74392124D01*
X70466749Y-74236147D01*
X70630007Y-73944532D01*
X70680259Y-73837513D01*
X70892608Y-73363217D01*
X71363831Y-73845793D01*
G37*
G36*
X123334064Y-57211280D02*
G01*
X123497431Y-57250583D01*
X123511446Y-57344788D01*
X123465988Y-57441893D01*
X123364569Y-57756241D01*
X123338349Y-57996747D01*
X123404684Y-58249408D01*
X123589085Y-58299133D01*
X123869649Y-58146016D01*
X124038804Y-57993764D01*
X124262366Y-57806167D01*
X124423418Y-57796708D01*
X124566232Y-57986658D01*
X124703434Y-58313106D01*
X124789198Y-58645900D01*
X124714952Y-58807683D01*
X124485616Y-58825899D01*
X124157259Y-58855389D01*
X123953626Y-58930268D01*
X123777193Y-59061491D01*
X123808324Y-59205781D01*
X123854369Y-59265355D01*
X124087838Y-59458082D01*
X124355016Y-59602974D01*
X124693622Y-59745348D01*
X124273242Y-60152797D01*
X123945050Y-60410701D01*
X123714949Y-60462159D01*
X123597346Y-60306716D01*
X123584951Y-60174454D01*
X123498595Y-59925881D01*
X123350590Y-59742145D01*
X123157436Y-59621630D01*
X123018125Y-59688980D01*
X122907660Y-59967419D01*
X122853125Y-60204289D01*
X122755739Y-60503678D01*
X122597577Y-60601987D01*
X122331700Y-60511694D01*
X122136165Y-60394908D01*
X121879850Y-60217455D01*
X121742670Y-60096403D01*
X121735437Y-60080901D01*
X121820489Y-59972753D01*
X122032025Y-59774978D01*
X122105339Y-59712146D01*
X122407661Y-59409021D01*
X122482482Y-59200778D01*
X122330210Y-59088465D01*
X121951256Y-59073130D01*
X121858738Y-59080775D01*
X121507881Y-59105433D01*
X121284579Y-59103726D01*
X121242233Y-59089412D01*
X121273777Y-58894676D01*
X121350741Y-58594478D01*
X121446620Y-58277130D01*
X121534908Y-58030944D01*
X121586239Y-57943203D01*
X121722068Y-58015883D01*
X121849029Y-58118548D01*
X122116822Y-58281837D01*
X122382767Y-58378517D01*
X122636291Y-58397279D01*
X122719743Y-58271924D01*
X122637656Y-57984607D01*
X122536133Y-57774983D01*
X122392622Y-57461096D01*
X122399780Y-57289336D01*
X122589844Y-57217508D01*
X122972784Y-57203397D01*
X123334064Y-57211280D01*
G37*
G36*
X74184806Y-82894745D02*
G01*
X74549326Y-83033082D01*
X74926180Y-83223645D01*
X75068661Y-83380447D01*
X74972814Y-83498773D01*
X74948457Y-83508891D01*
X74772978Y-83659029D01*
X74587815Y-83931174D01*
X74576096Y-83953364D01*
X74381531Y-84329611D01*
X74762706Y-84329611D01*
X75119787Y-84288355D01*
X75382377Y-84201972D01*
X75524468Y-84146930D01*
X75595079Y-84213487D01*
X75618845Y-84450463D01*
X75620873Y-84674625D01*
X75603277Y-85109464D01*
X75536898Y-85327706D01*
X75401350Y-85357716D01*
X75207338Y-85250015D01*
X74931623Y-85120181D01*
X74646793Y-85073397D01*
X74439833Y-85114882D01*
X74387864Y-85200824D01*
X74458608Y-85451935D01*
X74620546Y-85748186D01*
X74798237Y-85952935D01*
X74806020Y-85958214D01*
X74876104Y-86087449D01*
X74729687Y-86218122D01*
X74395979Y-86330704D01*
X74188931Y-86370831D01*
X73681746Y-86451858D01*
X73742240Y-85822288D01*
X73758619Y-85410981D01*
X73695895Y-85226430D01*
X73538060Y-85263081D01*
X73269106Y-85515383D01*
X73171394Y-85624271D01*
X72936900Y-85879523D01*
X72774623Y-86034373D01*
X72739247Y-86055824D01*
X72644979Y-85958966D01*
X72492194Y-85725011D01*
X72329691Y-85438891D01*
X72206267Y-85185537D01*
X72168446Y-85062369D01*
X72275058Y-84978660D01*
X72514783Y-84946116D01*
X72792477Y-84899906D01*
X73062826Y-84788800D01*
X73250318Y-84654078D01*
X73279440Y-84537023D01*
X73274068Y-84531026D01*
X73130423Y-84447846D01*
X72840307Y-84311130D01*
X72666224Y-84235278D01*
X72123730Y-84004880D01*
X72569101Y-83519915D01*
X72828885Y-83248369D01*
X72976066Y-83142630D01*
X73058568Y-83181302D01*
X73103036Y-83281553D01*
X73249540Y-83559073D01*
X73456447Y-83816457D01*
X73660624Y-83986665D01*
X73789282Y-84010281D01*
X73853193Y-83857827D01*
X73890613Y-83550119D01*
X73894660Y-83397577D01*
X73909208Y-83046886D01*
X73988233Y-82889125D01*
X74184806Y-82894745D01*
G37*
G36*
X120683608Y-52927543D02*
G01*
X120663452Y-53299823D01*
X120715807Y-53603814D01*
X120821279Y-53888211D01*
X121124232Y-53595867D01*
X121375208Y-53324147D01*
X121554124Y-53080460D01*
X121554457Y-53079875D01*
X121644556Y-52968764D01*
X121747927Y-53001025D01*
X121910330Y-53204639D01*
X122016836Y-53362605D01*
X122210585Y-53664753D01*
X122331603Y-53871513D01*
X122351941Y-53919556D01*
X122244843Y-53973320D01*
X121982104Y-54039159D01*
X121932778Y-54048763D01*
X121544465Y-54167874D01*
X121345475Y-54328420D01*
X121356089Y-54503231D01*
X121504498Y-54622460D01*
X121847001Y-54774251D01*
X122067814Y-54847596D01*
X122352943Y-54923851D01*
X122024497Y-55385469D01*
X121808373Y-55661107D01*
X121640333Y-55826165D01*
X121595609Y-55847086D01*
X121475671Y-55748912D01*
X121321371Y-55510736D01*
X121311610Y-55492125D01*
X121101063Y-55194505D01*
X120877480Y-55042421D01*
X120699433Y-55074676D01*
X120654182Y-55233225D01*
X120628180Y-55543770D01*
X120625728Y-55682685D01*
X120606708Y-56005757D01*
X120558773Y-56194206D01*
X120533252Y-56214281D01*
X120375465Y-56165438D01*
X120077242Y-56044119D01*
X119885922Y-55959477D01*
X119568288Y-55802955D01*
X119450310Y-55699350D01*
X119500939Y-55614474D01*
X119546847Y-55586154D01*
X119754651Y-55393497D01*
X119950742Y-55101152D01*
X120138857Y-54737378D01*
X119757681Y-54737378D01*
X119400601Y-54778633D01*
X119138010Y-54865017D01*
X118998654Y-54919374D01*
X118927692Y-54856291D01*
X118902335Y-54627381D01*
X118899514Y-54358621D01*
X118909362Y-53990517D01*
X118952156Y-53818893D01*
X119047768Y-53793977D01*
X119115291Y-53818218D01*
X119422157Y-53914873D01*
X119750184Y-53967328D01*
X120014951Y-53968385D01*
X120132036Y-53910844D01*
X120132524Y-53904967D01*
X120068211Y-53737212D01*
X119906442Y-53456505D01*
X119825136Y-53332421D01*
X119658998Y-53078141D01*
X119615728Y-52923366D01*
X119727444Y-52821480D01*
X120026261Y-52725869D01*
X120290576Y-52656838D01*
X120756881Y-52535670D01*
X120683608Y-52927543D01*
G37*
G36*
X71070170Y-78565820D02*
G01*
X71205191Y-78945721D01*
X71370659Y-79245326D01*
X71524958Y-79392695D01*
X71551330Y-79397572D01*
X71650966Y-79290445D01*
X71769115Y-79020273D01*
X71815829Y-78873543D01*
X71914805Y-78545350D01*
X71987434Y-78333906D01*
X72003224Y-78300645D01*
X72116949Y-78334105D01*
X72367284Y-78473230D01*
X72555635Y-78592919D01*
X72850761Y-78798835D01*
X72962163Y-78922637D01*
X72917164Y-79009774D01*
X72835569Y-79058579D01*
X72588284Y-79241640D01*
X72348030Y-79494595D01*
X72192688Y-79729640D01*
X72171188Y-79807613D01*
X72279695Y-79860635D01*
X72558935Y-79881541D01*
X72754126Y-79876385D01*
X73106513Y-79866015D01*
X73275363Y-79906952D01*
X73322771Y-80028653D01*
X73319323Y-80144499D01*
X73269935Y-80442766D01*
X73178210Y-80739400D01*
X73072289Y-80968097D01*
X72980309Y-81062555D01*
X72944066Y-81028716D01*
X72794915Y-80864954D01*
X72517677Y-80683567D01*
X72217988Y-80545579D01*
X72041471Y-80507281D01*
X71973418Y-80607564D01*
X71976697Y-80846865D01*
X72037241Y-81132858D01*
X72140984Y-81373218D01*
X72181436Y-81425873D01*
X72283815Y-81593225D01*
X72191139Y-81692601D01*
X71883732Y-81735913D01*
X71662051Y-81740290D01*
X71295500Y-81730274D01*
X71125246Y-81686855D01*
X71101341Y-81589981D01*
X71124635Y-81524514D01*
X71235360Y-81183320D01*
X71280773Y-80871870D01*
X71254120Y-80668360D01*
X71201835Y-80630582D01*
X70953597Y-80687286D01*
X70677370Y-80820180D01*
X70475320Y-80973439D01*
X70432252Y-81051101D01*
X70381803Y-81034790D01*
X70265160Y-80840666D01*
X70192210Y-80692232D01*
X69962148Y-80199028D01*
X70356317Y-80101245D01*
X70774388Y-79991045D01*
X70978077Y-79902315D01*
X70993165Y-79800544D01*
X70845433Y-79651222D01*
X70750485Y-79573640D01*
X70472244Y-79379361D01*
X70255497Y-79278734D01*
X70226456Y-79274883D01*
X70082538Y-79208806D01*
X70124059Y-79035507D01*
X70334654Y-78789501D01*
X70536791Y-78620270D01*
X70992264Y-78274521D01*
X71070170Y-78565820D01*
G37*
G36*
X112725600Y-87887380D02*
G01*
X112795306Y-88144043D01*
X112875819Y-88463174D01*
X112944832Y-88755861D01*
X112980040Y-88933192D01*
X112981068Y-88946347D01*
X112872012Y-88991177D01*
X112601643Y-89016154D01*
X112518689Y-89017756D01*
X112066268Y-89079460D01*
X111596033Y-89241242D01*
X111141045Y-89475704D01*
X110734367Y-89755448D01*
X110409062Y-90053078D01*
X110198191Y-90341195D01*
X110134817Y-90592403D01*
X110252002Y-90779303D01*
X110339486Y-90823576D01*
X110528000Y-90803617D01*
X110882949Y-90688882D01*
X111351879Y-90498176D01*
X111726622Y-90326309D01*
X112422117Y-90012006D01*
X112953124Y-89826990D01*
X113363443Y-89768526D01*
X113696872Y-89833879D01*
X113997208Y-90020316D01*
X114164757Y-90174077D01*
X114496179Y-90649063D01*
X114603403Y-91161683D01*
X114501226Y-91688791D01*
X114204442Y-92207241D01*
X113727850Y-92693886D01*
X113086244Y-93125579D01*
X112294421Y-93479175D01*
X111988105Y-93579136D01*
X111520260Y-93717722D01*
X111236843Y-93791130D01*
X111085160Y-93801901D01*
X111012519Y-93752578D01*
X110966227Y-93645703D01*
X110959793Y-93628750D01*
X110904023Y-93362904D01*
X110884951Y-93073895D01*
X110907047Y-92838931D01*
X111021395Y-92737482D01*
X111300086Y-92714239D01*
X111353946Y-92714077D01*
X111852563Y-92639889D01*
X112374682Y-92441925D01*
X112864975Y-92157081D01*
X113268113Y-91822257D01*
X113528767Y-91474349D01*
X113597572Y-91217837D01*
X113548340Y-91054601D01*
X113384038Y-91001932D01*
X113079758Y-91064365D01*
X112610593Y-91246434D01*
X112068767Y-91496144D01*
X111532904Y-91731467D01*
X111008990Y-91924639D01*
X110582723Y-92045320D01*
X110457343Y-92066658D01*
X110104363Y-92086970D01*
X109857034Y-92020569D01*
X109605649Y-91826033D01*
X109470320Y-91694009D01*
X109128758Y-91213012D01*
X109019990Y-90701897D01*
X109134211Y-90174794D01*
X109461617Y-89645833D01*
X109992401Y-89129144D01*
X110716759Y-88638857D01*
X111624885Y-88189101D01*
X112010097Y-88034047D01*
X112369538Y-87898396D01*
X112616771Y-87806926D01*
X112689003Y-87782100D01*
X112725600Y-87887380D01*
G37*
G36*
X102745313Y-42549185D02*
G01*
X103282038Y-42588248D01*
X103710603Y-42667495D01*
X104134452Y-42815199D01*
X104657028Y-43059632D01*
X104710236Y-43086238D01*
X105147186Y-43314272D01*
X105485832Y-43507846D01*
X105675677Y-43637310D01*
X105699112Y-43666825D01*
X105628748Y-43803965D01*
X105442143Y-44051083D01*
X105323473Y-44191039D01*
X104940635Y-44627067D01*
X104695313Y-44315190D01*
X104334079Y-43989366D01*
X103849801Y-43728738D01*
X103309513Y-43550727D01*
X102780246Y-43472750D01*
X102329035Y-43512226D01*
X102075892Y-43634514D01*
X101937029Y-43758987D01*
X101876039Y-43863338D01*
X101918632Y-43965312D01*
X102090515Y-44082653D01*
X102417397Y-44233105D01*
X102924987Y-44434411D01*
X103610194Y-44693502D01*
X104323579Y-45005949D01*
X104812906Y-45331606D01*
X105100595Y-45691421D01*
X105209069Y-46106340D01*
X105211289Y-46189301D01*
X105122623Y-46784721D01*
X104852253Y-47224388D01*
X104471585Y-47493254D01*
X104008473Y-47634686D01*
X103403130Y-47693784D01*
X102747123Y-47666642D01*
X102275223Y-47586933D01*
X102011330Y-47497524D01*
X101605985Y-47331884D01*
X101137651Y-47125362D01*
X100684792Y-46913305D01*
X100325869Y-46731060D01*
X100170548Y-46638772D01*
X100203515Y-46526546D01*
X100341864Y-46278438D01*
X100452805Y-46104161D01*
X100783931Y-45603796D01*
X101148369Y-45968234D01*
X101645803Y-46322704D01*
X102287347Y-46576259D01*
X102980618Y-46697869D01*
X103324312Y-46699090D01*
X103693841Y-46657617D01*
X103881763Y-46574382D01*
X103952818Y-46418873D01*
X103955506Y-46401603D01*
X103929364Y-46221725D01*
X103760251Y-46065709D01*
X103400652Y-45889674D01*
X102930726Y-45703492D01*
X102448740Y-45533640D01*
X102291646Y-45484467D01*
X101854512Y-45300339D01*
X101421374Y-45036231D01*
X101336063Y-44970186D01*
X101068875Y-44722774D01*
X100939620Y-44488775D01*
X100899553Y-44159098D01*
X100897572Y-43988886D01*
X100921508Y-43579475D01*
X101026968Y-43291832D01*
X101264432Y-43003088D01*
X101329820Y-42936781D01*
X101552776Y-42722629D01*
X101739969Y-42596943D01*
X101963879Y-42539874D01*
X102296990Y-42531575D01*
X102745313Y-42549185D01*
G37*
G36*
X103422329Y-81497365D02*
G01*
X104289630Y-81526327D01*
X104596602Y-81541375D01*
X105436516Y-81592394D01*
X106053971Y-81644635D01*
X106473097Y-81701595D01*
X106718026Y-81766771D01*
X106812889Y-81843661D01*
X106816019Y-81863042D01*
X106728339Y-81996428D01*
X106501387Y-82226644D01*
X106262866Y-82436998D01*
X105709712Y-82899377D01*
X105966229Y-83172427D01*
X106121360Y-83401814D01*
X106204901Y-83720452D01*
X106236425Y-84204586D01*
X106236848Y-84226621D01*
X106263115Y-84646527D01*
X106317515Y-84963025D01*
X106379358Y-85096183D01*
X106398969Y-85238511D01*
X106229658Y-85463342D01*
X105947949Y-85655103D01*
X105526611Y-85776944D01*
X105181600Y-85825688D01*
X104703407Y-85883571D01*
X104269300Y-85946105D01*
X104041747Y-85986327D01*
X103368371Y-86106305D01*
X102869368Y-86140320D01*
X102487337Y-86086631D01*
X102164877Y-85943493D01*
X102140725Y-85928622D01*
X101878438Y-85730199D01*
X101839544Y-85599326D01*
X101872441Y-85569752D01*
X101912316Y-85458137D01*
X101734054Y-85289632D01*
X101661874Y-85241440D01*
X101097871Y-84754150D01*
X100649248Y-84124665D01*
X100473917Y-83735492D01*
X100368378Y-83369762D01*
X100391831Y-83174751D01*
X100559891Y-83102183D01*
X100680562Y-83096601D01*
X100803370Y-83045251D01*
X103003938Y-83045251D01*
X103046496Y-83149364D01*
X103187641Y-83278905D01*
X103518375Y-83415970D01*
X103952282Y-83462603D01*
X104358693Y-83406666D01*
X104401566Y-83391662D01*
X104582574Y-83245526D01*
X104558868Y-83079017D01*
X104354165Y-82964669D01*
X104257524Y-82951143D01*
X103886349Y-82943905D01*
X103495695Y-82961229D01*
X103173100Y-82996545D01*
X103006100Y-83043281D01*
X103003938Y-83045251D01*
X100803370Y-83045251D01*
X100862944Y-83020341D01*
X100875788Y-82889869D01*
X100754563Y-82746160D01*
X100432396Y-82602925D01*
X99919793Y-82457953D01*
X99278992Y-82273848D01*
X98797960Y-82080407D01*
X98507034Y-81891968D01*
X98431553Y-81754646D01*
X98549146Y-81685909D01*
X98879291Y-81625274D01*
X99388033Y-81573914D01*
X100041419Y-81533005D01*
X100805495Y-81503721D01*
X101646307Y-81487237D01*
X102529903Y-81484727D01*
X103422329Y-81497365D01*
G37*
G36*
X83872152Y-45717430D02*
G01*
X83882038Y-45856241D01*
X83994637Y-46066193D01*
X84327834Y-46366593D01*
X84874731Y-46752714D01*
X85628431Y-47219830D01*
X86582034Y-47763216D01*
X86991877Y-47986825D01*
X87474211Y-48253000D01*
X87864459Y-48479327D01*
X88118404Y-48639435D01*
X88194061Y-48703783D01*
X88097710Y-48795810D01*
X87840340Y-48973761D01*
X87475051Y-49201222D01*
X87426941Y-49229845D01*
X87029568Y-49461627D01*
X86794733Y-49577747D01*
X86673105Y-49588730D01*
X86615351Y-49505100D01*
X86589538Y-49408497D01*
X86435990Y-49144535D01*
X86206840Y-48953565D01*
X86036659Y-48875233D01*
X85867359Y-48863968D01*
X85640357Y-48935188D01*
X85297075Y-49104310D01*
X84978952Y-49276723D01*
X84530696Y-49530213D01*
X84256339Y-49716869D01*
X84110243Y-49882175D01*
X84046770Y-50071618D01*
X84028663Y-50223817D01*
X84041200Y-50571755D01*
X84165188Y-50736728D01*
X84182789Y-50744279D01*
X84350590Y-50866418D01*
X84375242Y-50930955D01*
X84280801Y-51043932D01*
X84045194Y-51232486D01*
X83739991Y-51447479D01*
X83436765Y-51639770D01*
X83207089Y-51760219D01*
X83141298Y-51778154D01*
X83108572Y-51661367D01*
X83061711Y-51335694D01*
X83004887Y-50838174D01*
X82942273Y-50205844D01*
X82878042Y-49475739D01*
X82867617Y-49348934D01*
X82795102Y-48494113D01*
X82732401Y-47853092D01*
X82723406Y-47781930D01*
X83766787Y-47781930D01*
X83787409Y-48127213D01*
X83816323Y-48397538D01*
X83900178Y-49068693D01*
X84413994Y-48762290D01*
X84723556Y-48558699D01*
X84928431Y-48388296D01*
X84969008Y-48332294D01*
X84896095Y-48204983D01*
X84664853Y-48003964D01*
X84416463Y-47832161D01*
X84068787Y-47637774D01*
X83840902Y-47563772D01*
X83777594Y-47591002D01*
X83766787Y-47781930D01*
X82723406Y-47781930D01*
X82674308Y-47393527D01*
X82615619Y-47083073D01*
X82551129Y-46889387D01*
X82475633Y-46780123D01*
X82450942Y-46759613D01*
X82304019Y-46626979D01*
X82351492Y-46515768D01*
X82471336Y-46420641D01*
X82716978Y-46258340D01*
X83078289Y-46042594D01*
X83296359Y-45919742D01*
X83632571Y-45739743D01*
X83806749Y-45674230D01*
X83872152Y-45717430D01*
G37*
G36*
X117154224Y-48829275D02*
G01*
X117173301Y-49062517D01*
X117238290Y-49406447D01*
X117344494Y-49622424D01*
X117462803Y-49755707D01*
X117564264Y-49736765D01*
X117708563Y-49538987D01*
X117775587Y-49430214D01*
X117942389Y-49114996D01*
X118031402Y-48865763D01*
X118035947Y-48825569D01*
X118110318Y-48787712D01*
X118316747Y-48927449D01*
X118467961Y-49065533D01*
X118775449Y-49411249D01*
X118888507Y-49656827D01*
X118802923Y-49787588D01*
X118680348Y-49805339D01*
X118419634Y-49873655D01*
X118169340Y-50009752D01*
X117974608Y-50164044D01*
X117971845Y-50269270D01*
X118103821Y-50379655D01*
X118386259Y-50497247D01*
X118738129Y-50545145D01*
X119014043Y-50562783D01*
X119144531Y-50605836D01*
X119146116Y-50611707D01*
X119086663Y-50789130D01*
X118942407Y-51080363D01*
X118764506Y-51393560D01*
X118604115Y-51636877D01*
X118531373Y-51715415D01*
X118423037Y-51690097D01*
X118406310Y-51608876D01*
X118313253Y-51421093D01*
X118084439Y-51197434D01*
X118035899Y-51161287D01*
X117786198Y-51000117D01*
X117658852Y-50985152D01*
X117589341Y-51095963D01*
X117558738Y-51341658D01*
X117579334Y-51698526D01*
X117591307Y-51782876D01*
X117632930Y-52084565D01*
X117642471Y-52247764D01*
X117637136Y-52257849D01*
X117508062Y-52228184D01*
X117219754Y-52169002D01*
X117063798Y-52138071D01*
X116726297Y-52063350D01*
X116507387Y-51999092D01*
X116471474Y-51980535D01*
X116496407Y-51854024D01*
X116621579Y-51601922D01*
X116672992Y-51514633D01*
X116882331Y-51108164D01*
X116911864Y-50870460D01*
X116761608Y-50801537D01*
X116431582Y-50901413D01*
X116166910Y-51031799D01*
X115719025Y-51271850D01*
X115646390Y-51000973D01*
X115593446Y-50680074D01*
X115572072Y-50325030D01*
X115587217Y-50058502D01*
X115663768Y-49988698D01*
X115808884Y-50047603D01*
X116086295Y-50139378D01*
X116403747Y-50171387D01*
X116671899Y-50144092D01*
X116801405Y-50057956D01*
X116803398Y-50042456D01*
X116722694Y-49879199D01*
X116520688Y-49630711D01*
X116433495Y-49539768D01*
X116205883Y-49301572D01*
X116075556Y-49144679D01*
X116063592Y-49120205D01*
X116164814Y-49024383D01*
X116408605Y-48890494D01*
X116705153Y-48758574D01*
X116964647Y-48668658D01*
X117096383Y-48659813D01*
X117154224Y-48829275D01*
G37*
G36*
X120793947Y-71971180D02*
G01*
X120817494Y-71993998D01*
X120981698Y-72064877D01*
X121337629Y-72167641D01*
X121834159Y-72291367D01*
X122420157Y-72425134D01*
X123044493Y-72558019D01*
X123656037Y-72679103D01*
X124203659Y-72777461D01*
X124636228Y-72842173D01*
X124883920Y-72862620D01*
X125128972Y-72881141D01*
X125266827Y-72966489D01*
X125309288Y-73163347D01*
X125268152Y-73516396D01*
X125176629Y-73971003D01*
X125080535Y-74342545D01*
X124981576Y-74515608D01*
X124850827Y-74536935D01*
X124830042Y-74531018D01*
X124631318Y-74571660D01*
X124253343Y-74753467D01*
X123712612Y-75067617D01*
X123099983Y-75456503D01*
X122570507Y-75808061D01*
X122128326Y-76111778D01*
X121808183Y-76342978D01*
X121644820Y-76476986D01*
X121631893Y-76499206D01*
X121792097Y-76564517D01*
X122130757Y-76653642D01*
X122582449Y-76753868D01*
X123081746Y-76852487D01*
X123563223Y-76936785D01*
X123961455Y-76994053D01*
X124211017Y-77011579D01*
X124246865Y-77007252D01*
X124382673Y-76994232D01*
X124439125Y-77086230D01*
X124432328Y-77337954D01*
X124408444Y-77556055D01*
X124331339Y-78059499D01*
X124236226Y-78343070D01*
X124106301Y-78433494D01*
X123924762Y-78357495D01*
X123910868Y-78347500D01*
X123672961Y-78237436D01*
X123247792Y-78100170D01*
X122691350Y-77949018D01*
X122059624Y-77797295D01*
X121408602Y-77658316D01*
X120794275Y-77545395D01*
X120272631Y-77471849D01*
X120196500Y-77464155D01*
X119388311Y-77388685D01*
X119471376Y-76944342D01*
X119579753Y-76420532D01*
X119677693Y-76101558D01*
X119783113Y-75947289D01*
X119913929Y-75917595D01*
X119928770Y-75919874D01*
X120103361Y-75871652D01*
X120421379Y-75713590D01*
X120841312Y-75472986D01*
X121321653Y-75177140D01*
X121820891Y-74853348D01*
X122297517Y-74528910D01*
X122710023Y-74231123D01*
X123016897Y-73987287D01*
X123176632Y-73824700D01*
X123185337Y-73778217D01*
X123022674Y-73713444D01*
X122679910Y-73628791D01*
X122221582Y-73535452D01*
X121712226Y-73444623D01*
X121216378Y-73367497D01*
X120798575Y-73315270D01*
X120523351Y-73299136D01*
X120464416Y-73306238D01*
X120293210Y-73327358D01*
X120271365Y-73190944D01*
X120292267Y-73092035D01*
X120362287Y-72770419D01*
X120439221Y-72376141D01*
X120446080Y-72338591D01*
X120531306Y-72001383D01*
X120638682Y-71886872D01*
X120793947Y-71971180D01*
G37*
G36*
X79618996Y-49113867D02*
G01*
X80057702Y-49313742D01*
X80398949Y-49635110D01*
X80580054Y-50011875D01*
X80594013Y-50142008D01*
X80613891Y-50377454D01*
X80718340Y-50498432D01*
X80974577Y-50559116D01*
X81135994Y-50578795D01*
X81710131Y-50747721D01*
X82120792Y-51087294D01*
X82345687Y-51565975D01*
X82362525Y-52152226D01*
X82338750Y-52280584D01*
X82239204Y-52469852D01*
X82013446Y-52775158D01*
X81691229Y-53165038D01*
X81302304Y-53608031D01*
X80876422Y-54072675D01*
X80443335Y-54527508D01*
X80032795Y-54941067D01*
X79674554Y-55281890D01*
X79398361Y-55518515D01*
X79233970Y-55619480D01*
X79201178Y-55598557D01*
X79113751Y-55443598D01*
X78878960Y-55158381D01*
X78532294Y-54778103D01*
X78109248Y-54337963D01*
X77645314Y-53873156D01*
X77175985Y-53418881D01*
X76879266Y-53142891D01*
X78826699Y-53142891D01*
X78906367Y-53313321D01*
X79097766Y-53560615D01*
X79329490Y-53805884D01*
X79530130Y-53970238D01*
X79600320Y-53997572D01*
X79740808Y-53912556D01*
X79998125Y-53685938D01*
X80325192Y-53360359D01*
X80451127Y-53226941D01*
X80863066Y-52748726D01*
X81095780Y-52388482D01*
X81168078Y-52121570D01*
X81072613Y-51786715D01*
X80826239Y-51609548D01*
X80493797Y-51628325D01*
X80402043Y-51669607D01*
X80181331Y-51822227D01*
X79874275Y-52076044D01*
X79533397Y-52381941D01*
X79211217Y-52690802D01*
X78960254Y-52953507D01*
X78833028Y-53120941D01*
X78826699Y-53142891D01*
X76879266Y-53142891D01*
X76736753Y-53010334D01*
X76363110Y-52682713D01*
X76090550Y-52471214D01*
X75990776Y-52414872D01*
X75880852Y-52364709D01*
X75836425Y-52296453D01*
X75877447Y-52182685D01*
X76023874Y-51995986D01*
X76052475Y-51965779D01*
X77522380Y-51965779D01*
X77611772Y-52099323D01*
X77652191Y-52144579D01*
X77867190Y-52330827D01*
X78017387Y-52394659D01*
X78163661Y-52312184D01*
X78429078Y-52093097D01*
X78763288Y-51779907D01*
X78861384Y-51682103D01*
X79301889Y-51183971D01*
X79529569Y-50796124D01*
X79543290Y-50521480D01*
X79370360Y-50372960D01*
X79135144Y-50385500D01*
X78801588Y-50576213D01*
X78355247Y-50955018D01*
X77972159Y-51333098D01*
X77679496Y-51641193D01*
X77537262Y-51832578D01*
X77522380Y-51965779D01*
X76052475Y-51965779D01*
X76295658Y-51708936D01*
X76712753Y-51294116D01*
X77038835Y-50974663D01*
X77734130Y-50306156D01*
X78287668Y-49803174D01*
X78723298Y-49448518D01*
X79064867Y-49224989D01*
X79336222Y-49115388D01*
X79561211Y-49102517D01*
X79618996Y-49113867D01*
G37*
G36*
X74823527Y-54091720D02*
G01*
X75181846Y-54311476D01*
X75351927Y-54421670D01*
X75824184Y-54710735D01*
X76375145Y-55023742D01*
X76956802Y-55336276D01*
X77521152Y-55623919D01*
X78020187Y-55862255D01*
X78405903Y-56026868D01*
X78630294Y-56093340D01*
X78639283Y-56093688D01*
X78803224Y-56162378D01*
X78784405Y-56376140D01*
X78641747Y-56652881D01*
X78367472Y-57105440D01*
X78192460Y-57380752D01*
X78082197Y-57508731D01*
X78002166Y-57519289D01*
X77917851Y-57442341D01*
X77836355Y-57350879D01*
X77637252Y-57188078D01*
X77308566Y-56969072D01*
X76905958Y-56725200D01*
X76485086Y-56487796D01*
X76101609Y-56288198D01*
X75811187Y-56157743D01*
X75669479Y-56127768D01*
X75667164Y-56129598D01*
X75702394Y-56252924D01*
X75842464Y-56546696D01*
X76066125Y-56969433D01*
X76352126Y-57479657D01*
X76412055Y-57583575D01*
X76707499Y-58105841D01*
X76944577Y-58548619D01*
X77102056Y-58870410D01*
X77158702Y-59029711D01*
X77156293Y-59038205D01*
X77016523Y-59066316D01*
X76678187Y-59099117D01*
X76189176Y-59132874D01*
X75597383Y-59163856D01*
X75475659Y-59169189D01*
X73857335Y-59237863D01*
X74990969Y-59834715D01*
X75479753Y-60077094D01*
X75900073Y-60258002D01*
X76197678Y-60355635D01*
X76304291Y-60362614D01*
X76459475Y-60369506D01*
X76483980Y-60427231D01*
X76429704Y-60604150D01*
X76293816Y-60896979D01*
X76116723Y-61231612D01*
X75938835Y-61533940D01*
X75800559Y-61729858D01*
X75754238Y-61765533D01*
X75637413Y-61674370D01*
X75542600Y-61545211D01*
X75380586Y-61402948D01*
X75043064Y-61180371D01*
X74577347Y-60902829D01*
X74030745Y-60595669D01*
X73450569Y-60284241D01*
X72884131Y-59993893D01*
X72378741Y-59749972D01*
X71981712Y-59577827D01*
X71740354Y-59502807D01*
X71728529Y-59501721D01*
X71500577Y-59474453D01*
X71428727Y-59444327D01*
X71486405Y-59326835D01*
X71639723Y-59050222D01*
X71858979Y-58667739D01*
X71928525Y-58548269D01*
X72181678Y-58127342D01*
X72351309Y-57890954D01*
X72470859Y-57806547D01*
X72573769Y-57841562D01*
X72615488Y-57879426D01*
X72759399Y-57965397D01*
X73014152Y-58021933D01*
X73421160Y-58053858D01*
X74021838Y-58065994D01*
X74221776Y-58066504D01*
X75640986Y-58066504D01*
X75361427Y-57604125D01*
X74909037Y-56884047D01*
X74501239Y-56289859D01*
X74159974Y-55851599D01*
X73907187Y-55599303D01*
X73885856Y-55584281D01*
X73609986Y-55401110D01*
X73958506Y-54791817D01*
X74215575Y-54346440D01*
X74403417Y-54092460D01*
X74585059Y-54013134D01*
X74823527Y-54091720D01*
G37*
G36*
X90580609Y-91780117D02*
G01*
X90786687Y-91861081D01*
X91188629Y-91978846D01*
X91740573Y-92121420D01*
X92396657Y-92276814D01*
X92937398Y-92396257D01*
X93619894Y-92543760D01*
X94212743Y-92674567D01*
X94676318Y-92779715D01*
X94970995Y-92850243D01*
X95058879Y-92876030D01*
X95042321Y-93000698D01*
X94962591Y-93277499D01*
X94912880Y-93427123D01*
X94786971Y-93851393D01*
X94650072Y-94408398D01*
X94512461Y-95043103D01*
X94384416Y-95700475D01*
X94276214Y-96325479D01*
X94198134Y-96863081D01*
X94160455Y-97258245D01*
X94165291Y-97430094D01*
X94186748Y-97669399D01*
X94143762Y-97757802D01*
X93998512Y-97728557D01*
X93655497Y-97655346D01*
X93157731Y-97547470D01*
X92548229Y-97414231D01*
X92143204Y-97325193D01*
X91456970Y-97181866D01*
X90826214Y-97064530D01*
X90303255Y-96981854D01*
X89940415Y-96942506D01*
X89831310Y-96942146D01*
X89580840Y-96936451D01*
X89450843Y-96830901D01*
X89425767Y-96582538D01*
X89490062Y-96148406D01*
X89508997Y-96051857D01*
X89594330Y-95786059D01*
X89722722Y-95724921D01*
X89786424Y-95744797D01*
X90058773Y-95836266D01*
X90492183Y-95955665D01*
X91018045Y-96086999D01*
X91567750Y-96214270D01*
X92072688Y-96321483D01*
X92464251Y-96392642D01*
X92651820Y-96412867D01*
X92891280Y-96366356D01*
X93014911Y-96178693D01*
X93054089Y-96020084D01*
X93082193Y-95724315D01*
X93042918Y-95544462D01*
X93038677Y-95540047D01*
X92854799Y-95459047D01*
X92507486Y-95365955D01*
X92078227Y-95277393D01*
X91648510Y-95209981D01*
X91299827Y-95180343D01*
X91274028Y-95180096D01*
X91038668Y-95155759D01*
X90933090Y-95048718D01*
X90941368Y-94807927D01*
X91036983Y-94420313D01*
X91129572Y-94131810D01*
X91232492Y-94037506D01*
X91417200Y-94092690D01*
X91498674Y-94131435D01*
X91804004Y-94248812D01*
X92206115Y-94365244D01*
X92632072Y-94464745D01*
X93008941Y-94531327D01*
X93263787Y-94549003D01*
X93325689Y-94531915D01*
X93385389Y-94380979D01*
X93441382Y-94104976D01*
X93481452Y-93796671D01*
X93493380Y-93548832D01*
X93467671Y-93453883D01*
X93326971Y-93430536D01*
X92999871Y-93367660D01*
X92541391Y-93276000D01*
X92204854Y-93207281D01*
X91630185Y-93099103D01*
X91090659Y-93015067D01*
X90668406Y-92967241D01*
X90526718Y-92960679D01*
X90222764Y-92948011D01*
X90057248Y-92916469D01*
X90047087Y-92905097D01*
X90070825Y-92762796D01*
X90131556Y-92459480D01*
X90179881Y-92230319D01*
X90264085Y-91872118D01*
X90340443Y-91711914D01*
X90448183Y-91705639D01*
X90580609Y-91780117D01*
G37*
G36*
X103423772Y-92326921D02*
G01*
X103417233Y-92585826D01*
X103412356Y-92621601D01*
X103413586Y-92866185D01*
X103450962Y-93298407D01*
X103516486Y-93863288D01*
X103602158Y-94505849D01*
X103699980Y-95171108D01*
X103801951Y-95804087D01*
X103900074Y-96349806D01*
X103986349Y-96753285D01*
X104039481Y-96931972D01*
X104068525Y-97030008D01*
X104042595Y-97106724D01*
X103929335Y-97170809D01*
X103696386Y-97230947D01*
X103311392Y-97295827D01*
X102741996Y-97374135D01*
X102074053Y-97459615D01*
X101182432Y-97562975D01*
X100503233Y-97618923D01*
X100007106Y-97628608D01*
X99664699Y-97593177D01*
X99541262Y-97558642D01*
X99126045Y-97290174D01*
X98863273Y-96885468D01*
X98756270Y-96404689D01*
X98788452Y-96097840D01*
X99962772Y-96097840D01*
X99975170Y-96291424D01*
X100031287Y-96407166D01*
X100121125Y-96547847D01*
X100241900Y-96626529D01*
X100451680Y-96653548D01*
X100808533Y-96639239D01*
X101173398Y-96610463D01*
X101666534Y-96558127D01*
X102080815Y-96493878D01*
X102340770Y-96429907D01*
X102369393Y-96417276D01*
X102517187Y-96226343D01*
X102550996Y-95940454D01*
X102485021Y-95653575D01*
X102333466Y-95459671D01*
X102219668Y-95426698D01*
X101792888Y-95458901D01*
X101289230Y-95542874D01*
X100790233Y-95659660D01*
X100377437Y-95790305D01*
X100138841Y-95910433D01*
X99962772Y-96097840D01*
X98788452Y-96097840D01*
X98808362Y-95908007D01*
X99022873Y-95455587D01*
X99403128Y-95107598D01*
X99405740Y-95106051D01*
X99657765Y-94936539D01*
X99784360Y-94810980D01*
X99787864Y-94797746D01*
X99700864Y-94667880D01*
X99473996Y-94428385D01*
X99158456Y-94125542D01*
X98805440Y-93805629D01*
X98466144Y-93514925D01*
X98191765Y-93299708D01*
X98033498Y-93206257D01*
X98026314Y-93205393D01*
X97918084Y-93178267D01*
X97999304Y-93114996D01*
X98219028Y-93034412D01*
X98526311Y-92955348D01*
X98857210Y-92898251D01*
X99263495Y-92840414D01*
X99592297Y-92782429D01*
X99695388Y-92758499D01*
X99867472Y-92776265D01*
X99911165Y-92959751D01*
X99998910Y-93197513D01*
X100225614Y-93523538D01*
X100536480Y-93880381D01*
X100876711Y-94210597D01*
X101191509Y-94456741D01*
X101426077Y-94561370D01*
X101439487Y-94561908D01*
X101887859Y-94521625D01*
X102140797Y-94386811D01*
X102241374Y-94125605D01*
X102248471Y-93963531D01*
X102200518Y-93540995D01*
X102089901Y-93088617D01*
X102069075Y-93027049D01*
X101969305Y-92718720D01*
X101926638Y-92528138D01*
X101929765Y-92503891D01*
X102058247Y-92464871D01*
X102345194Y-92400962D01*
X102705984Y-92328760D01*
X103055996Y-92264865D01*
X103310607Y-92225875D01*
X103372669Y-92220873D01*
X103423772Y-92326921D01*
G37*
G36*
X121362615Y-51225172D02*
G01*
X121604043Y-51478073D01*
X121922051Y-51837462D01*
X122299385Y-52287603D01*
X122386549Y-52394659D01*
X123192088Y-53457042D01*
X124018808Y-54669050D01*
X124812663Y-55945463D01*
X125519605Y-57201058D01*
X125866259Y-57881553D01*
X126645737Y-59584747D01*
X127274006Y-61197925D01*
X127762919Y-62774203D01*
X128124327Y-64366698D01*
X128370082Y-66028527D01*
X128512036Y-67812806D01*
X128562040Y-69772651D01*
X128562438Y-69965048D01*
X128467913Y-72594399D01*
X128177170Y-75100443D01*
X127681821Y-77519665D01*
X126973478Y-79888547D01*
X126043750Y-82243574D01*
X125443849Y-83528154D01*
X124207697Y-85820843D01*
X122833540Y-87936760D01*
X121288020Y-89922436D01*
X119537774Y-91824398D01*
X119387972Y-91974271D01*
X117353261Y-93827161D01*
X115176335Y-95484777D01*
X112872083Y-96939986D01*
X110455396Y-98185654D01*
X107941164Y-99214647D01*
X105344275Y-100019831D01*
X102679621Y-100594074D01*
X100871607Y-100845219D01*
X100397186Y-100881459D01*
X99737720Y-100910840D01*
X98946346Y-100932997D01*
X98076198Y-100947568D01*
X97180410Y-100954187D01*
X96312117Y-100952492D01*
X95524454Y-100942119D01*
X94870556Y-100922704D01*
X94403557Y-100893883D01*
X94362621Y-100889777D01*
X91898064Y-100511514D01*
X89509417Y-99907858D01*
X87182931Y-99073813D01*
X84904862Y-98004387D01*
X82661460Y-96694583D01*
X82464077Y-96566887D01*
X81190199Y-95700369D01*
X80056149Y-94856044D01*
X79101673Y-94063884D01*
X78888349Y-93870647D01*
X78271844Y-93300344D01*
X78888349Y-93749580D01*
X79730974Y-94346075D01*
X80634455Y-94955508D01*
X81530939Y-95533858D01*
X82352572Y-96037104D01*
X82881848Y-96340414D01*
X85306963Y-97533916D01*
X87816812Y-98501811D01*
X90393903Y-99242256D01*
X93020744Y-99753406D01*
X95679841Y-100033417D01*
X98353703Y-100080447D01*
X101024838Y-99892651D01*
X103675754Y-99468185D01*
X106282914Y-98807032D01*
X108773440Y-97926986D01*
X111181526Y-96822441D01*
X113489539Y-95506833D01*
X115679844Y-93993596D01*
X117734806Y-92296166D01*
X119636791Y-90427980D01*
X121368164Y-88402471D01*
X122911290Y-86233077D01*
X123029792Y-86047863D01*
X124296921Y-83829746D01*
X125381521Y-81467605D01*
X126272058Y-78995104D01*
X126956998Y-76445907D01*
X127424808Y-73853677D01*
X127541763Y-72878726D01*
X127608334Y-71944864D01*
X127638618Y-70841860D01*
X127634701Y-69637184D01*
X127598669Y-68398305D01*
X127532605Y-67192693D01*
X127438597Y-66087816D01*
X127318728Y-65151146D01*
X127299276Y-65033009D01*
X126715138Y-62316300D01*
X125905656Y-59699597D01*
X124870029Y-57181044D01*
X123607458Y-54758787D01*
X122117144Y-52430972D01*
X121507815Y-51593203D01*
X121270368Y-51262774D01*
X121178523Y-51101785D01*
X121215023Y-51094496D01*
X121362615Y-51225172D01*
G37*
G36*
X98357230Y-38863495D02*
G01*
X99949132Y-38937258D01*
X101394797Y-39070361D01*
X102790246Y-39276063D01*
X104231500Y-39567623D01*
X105274757Y-39818661D01*
X107884435Y-40605887D01*
X110405321Y-41621023D01*
X112826254Y-42857918D01*
X115136069Y-44310417D01*
X117323606Y-45972366D01*
X118787104Y-47267366D01*
X119220155Y-47680536D01*
X119474927Y-47937720D01*
X119549774Y-48038221D01*
X119443049Y-47981343D01*
X119153104Y-47766389D01*
X118678294Y-47392661D01*
X118228692Y-47031067D01*
X116379794Y-45669277D01*
X114336831Y-44408215D01*
X112137110Y-43263287D01*
X109817939Y-42249901D01*
X107416623Y-41383466D01*
X104970471Y-40679387D01*
X102516790Y-40153073D01*
X101020873Y-39924427D01*
X100216234Y-39849301D01*
X99231570Y-39801459D01*
X98131882Y-39780317D01*
X96982166Y-39785291D01*
X95847422Y-39815796D01*
X94792648Y-39871249D01*
X93882843Y-39951064D01*
X93561165Y-39991489D01*
X90802346Y-40496844D01*
X88159326Y-41219895D01*
X85631588Y-42160891D01*
X83218613Y-43320080D01*
X80919884Y-44697714D01*
X78734882Y-46294040D01*
X76663091Y-48109309D01*
X76623854Y-48146846D01*
X74720319Y-50137195D01*
X73024701Y-52258560D01*
X71540466Y-54504071D01*
X70271080Y-56866858D01*
X69220008Y-59340052D01*
X68390718Y-61916782D01*
X67786674Y-64590180D01*
X67546624Y-66138178D01*
X67462086Y-66989847D01*
X67401881Y-68016249D01*
X67366648Y-69146660D01*
X67357028Y-70310352D01*
X67373659Y-71436600D01*
X67417181Y-72454675D01*
X67482379Y-73242669D01*
X67803257Y-75344199D01*
X68298398Y-77542308D01*
X68948612Y-79780644D01*
X69734708Y-82002856D01*
X70637495Y-84152592D01*
X71637782Y-86173501D01*
X72260832Y-87274074D01*
X72856255Y-88215762D01*
X73563541Y-89243938D01*
X74320587Y-90273033D01*
X75065292Y-91217479D01*
X75470669Y-91696844D01*
X75830006Y-92116243D01*
X76026161Y-92363334D01*
X76066759Y-92443679D01*
X75959423Y-92362840D01*
X75711777Y-92126380D01*
X75331445Y-91739862D01*
X74879173Y-91265290D01*
X73172388Y-89286789D01*
X71627525Y-87154833D01*
X70258842Y-84897662D01*
X69080599Y-82543516D01*
X68107056Y-80120634D01*
X67352472Y-77657257D01*
X66867032Y-75397897D01*
X66508623Y-72588453D01*
X66394094Y-69808178D01*
X66521731Y-67063936D01*
X66889824Y-64362593D01*
X67496661Y-61711014D01*
X68340529Y-59116065D01*
X69419716Y-56584610D01*
X70732511Y-54123515D01*
X72277202Y-51739645D01*
X73017649Y-50733006D01*
X73650467Y-49954759D01*
X74422857Y-49084990D01*
X75278298Y-48181703D01*
X76160266Y-47302905D01*
X77012238Y-46506601D01*
X77765699Y-45860461D01*
X80024466Y-44191236D01*
X82387672Y-42741908D01*
X84845056Y-41515964D01*
X87386355Y-40516891D01*
X90001308Y-39748175D01*
X92679653Y-39213304D01*
X95411127Y-38915765D01*
X98185468Y-38859045D01*
X98357230Y-38863495D01*
G37*
G36*
X96891164Y-49621661D02*
G01*
X97670624Y-49667965D01*
X97691747Y-49669400D01*
X98273075Y-49710500D01*
X98750420Y-49752533D01*
X99168594Y-49806017D01*
X99572408Y-49881470D01*
X100006674Y-49989409D01*
X100516203Y-50140351D01*
X101145805Y-50344814D01*
X101940293Y-50613315D01*
X102438835Y-50783571D01*
X104068016Y-51441117D01*
X105519853Y-52245597D01*
X106829242Y-53218382D01*
X107635684Y-53966349D01*
X108359735Y-54727047D01*
X108956532Y-55437388D01*
X109447083Y-56140459D01*
X109852391Y-56879349D01*
X110193465Y-57697145D01*
X110491310Y-58636934D01*
X110766932Y-59741805D01*
X111007215Y-60882034D01*
X111176040Y-61764367D01*
X111342267Y-62692308D01*
X111493293Y-63591251D01*
X111616519Y-64386590D01*
X111689663Y-64922776D01*
X111774517Y-65573609D01*
X111862668Y-66181954D01*
X111943894Y-66681113D01*
X112007973Y-67004386D01*
X112009868Y-67012050D01*
X112072949Y-67562755D01*
X112035092Y-68252692D01*
X112026043Y-68323575D01*
X111972669Y-68884295D01*
X112007882Y-69300780D01*
X112157682Y-69667323D01*
X112448071Y-70078216D01*
X112541901Y-70194307D01*
X112903152Y-70677620D01*
X113095556Y-71070032D01*
X113138243Y-71440255D01*
X113050344Y-71857004D01*
X113025668Y-71931923D01*
X112814838Y-72364484D01*
X112456740Y-72810899D01*
X112085287Y-73171080D01*
X111726792Y-73484916D01*
X111434057Y-73721687D01*
X111256912Y-73841715D01*
X111233842Y-73849028D01*
X111134017Y-73943044D01*
X111131553Y-73969247D01*
X111236367Y-74032953D01*
X111497722Y-74016191D01*
X111508002Y-74014175D01*
X111764908Y-73978648D01*
X111842192Y-74057092D01*
X111803072Y-74294685D01*
X111191422Y-76714502D01*
X110819764Y-77979611D01*
X110621065Y-78670634D01*
X110429681Y-79419074D01*
X110273482Y-80112255D01*
X110209809Y-80445630D01*
X109969408Y-81593118D01*
X109647614Y-82644662D01*
X109207994Y-83709922D01*
X108940553Y-84266080D01*
X108261773Y-85518818D01*
X107555002Y-86589151D01*
X106769841Y-87540255D01*
X105855890Y-88435306D01*
X105117730Y-89058131D01*
X104633023Y-89442281D01*
X104239135Y-89726997D01*
X103884806Y-89927984D01*
X103518774Y-90060946D01*
X103089777Y-90141586D01*
X102546553Y-90185609D01*
X101837841Y-90208718D01*
X101329126Y-90218758D01*
X99233009Y-90257674D01*
X98304441Y-89845905D01*
X97177953Y-89303358D01*
X96115705Y-88695689D01*
X95075858Y-87992970D01*
X94016572Y-87165274D01*
X92896009Y-86182673D01*
X92002976Y-85338452D01*
X91032822Y-84385813D01*
X90222073Y-83558823D01*
X89542897Y-82822645D01*
X88967464Y-82142447D01*
X88467940Y-81483392D01*
X88016494Y-80810646D01*
X87585294Y-80089375D01*
X87146509Y-79284742D01*
X87108555Y-79212503D01*
X86753816Y-78597854D01*
X86419279Y-78163869D01*
X86069104Y-77858909D01*
X85069228Y-77046883D01*
X84272909Y-76165693D01*
X84067909Y-75876745D01*
X83657667Y-75154699D01*
X83250100Y-74250399D01*
X82863342Y-73223712D01*
X82515531Y-72134512D01*
X82224803Y-71042666D01*
X82009293Y-70008046D01*
X81887139Y-69090522D01*
X81869334Y-68680210D01*
X82293349Y-68680210D01*
X82301830Y-68944882D01*
X82333240Y-69267566D01*
X82415194Y-69891624D01*
X82512092Y-70301319D01*
X82639654Y-70528886D01*
X82813598Y-70606563D01*
X82976911Y-70587643D01*
X83301087Y-70506280D01*
X83219996Y-71196243D01*
X83187621Y-71574295D01*
X83208398Y-71879407D01*
X83307106Y-72161903D01*
X83508525Y-72472106D01*
X83837434Y-72860341D01*
X84266794Y-73322143D01*
X84671974Y-73762011D01*
X84938629Y-74097782D01*
X85103592Y-74398743D01*
X85203695Y-74734182D01*
X85275771Y-75173387D01*
X85284260Y-75236164D01*
X85291868Y-75554229D01*
X85223504Y-75699831D01*
X85100524Y-75641603D01*
X85053398Y-75575242D01*
X84918025Y-75441642D01*
X84842969Y-75503570D01*
X84864980Y-75711083D01*
X84894621Y-75791019D01*
X85190001Y-76286243D01*
X85656062Y-76747043D01*
X86089966Y-77062457D01*
X86638978Y-77426108D01*
X86912559Y-77169092D01*
X87137161Y-76867904D01*
X87249098Y-76582737D01*
X87227904Y-76257712D01*
X87052580Y-75806046D01*
X86898881Y-75513591D01*
X86664088Y-75053786D01*
X86551090Y-74705106D01*
X86534875Y-74380538D01*
X86544455Y-74280582D01*
X86562973Y-73963430D01*
X86488597Y-73757733D01*
X86271426Y-73564856D01*
X86134260Y-73469786D01*
X85751412Y-73102516D01*
X85379522Y-72558065D01*
X85155410Y-72113458D01*
X85849892Y-72113458D01*
X86054357Y-72584835D01*
X86110405Y-72661041D01*
X86355680Y-72920003D01*
X86534685Y-72962061D01*
X86684658Y-72794136D01*
X86697393Y-72770145D01*
X86860210Y-72326493D01*
X86910575Y-71891808D01*
X86864803Y-71506174D01*
X86844681Y-71458671D01*
X92135876Y-71458671D01*
X92148376Y-71564692D01*
X92259270Y-71794889D01*
X92463609Y-72164916D01*
X92663496Y-72492718D01*
X92847443Y-72854368D01*
X92954290Y-73170873D01*
X93137377Y-73644583D01*
X93415131Y-74029592D01*
X93732489Y-74252465D01*
X93775575Y-74266184D01*
X94000216Y-74418655D01*
X94267913Y-74726834D01*
X94530718Y-75117238D01*
X94740680Y-75516380D01*
X94849848Y-75850774D01*
X94855825Y-75921717D01*
X94916824Y-76262986D01*
X95004522Y-76477280D01*
X95070137Y-76703181D01*
X95137173Y-77115640D01*
X95197531Y-77654799D01*
X95241097Y-78226213D01*
X95291946Y-78950114D01*
X95358885Y-79720580D01*
X95431836Y-80428149D01*
X95479467Y-80815533D01*
X95545201Y-81418900D01*
X95602215Y-82159244D01*
X95642973Y-82926943D01*
X95657487Y-83404853D01*
X95682232Y-84046486D01*
X95728273Y-84654562D01*
X95788678Y-85154425D01*
X95846388Y-85439319D01*
X95976681Y-85788690D01*
X96169196Y-86194303D01*
X96388714Y-86594385D01*
X96600016Y-86927162D01*
X96767883Y-87130860D01*
X96830540Y-87165533D01*
X96973927Y-87238490D01*
X97198543Y-87412135D01*
X97445346Y-87588605D01*
X97625775Y-87658737D01*
X97786930Y-87749772D01*
X98000340Y-87974063D01*
X98040648Y-88026604D01*
X98280910Y-88304165D01*
X98568596Y-88525442D01*
X98943085Y-88705293D01*
X99443758Y-88858573D01*
X100109994Y-89000140D01*
X100981174Y-89144848D01*
X101020873Y-89150917D01*
X101518377Y-89232457D01*
X101984770Y-89318287D01*
X102253883Y-89375107D01*
X102869932Y-89476160D01*
X103396391Y-89440018D01*
X103946546Y-89252999D01*
X104179331Y-89142554D01*
X104545505Y-88924985D01*
X104985147Y-88612042D01*
X105455724Y-88240755D01*
X105914703Y-87848155D01*
X106319551Y-87471273D01*
X106627734Y-87147138D01*
X106796719Y-86912781D01*
X106816019Y-86846986D01*
X106912527Y-86690095D01*
X106987779Y-86672329D01*
X107176692Y-86572609D01*
X107232968Y-86480974D01*
X107252861Y-86346086D01*
X107215335Y-86345868D01*
X107166428Y-86266256D01*
X107133374Y-86002248D01*
X107124271Y-85704942D01*
X107130679Y-85311393D01*
X107167452Y-85108597D01*
X107260912Y-85040734D01*
X107432524Y-85051299D01*
X107695896Y-85127716D01*
X107815029Y-85214042D01*
X107899158Y-85170746D01*
X108058275Y-84946917D01*
X108268513Y-84587943D01*
X108506007Y-84139215D01*
X108746892Y-83646120D01*
X108967302Y-83154047D01*
X109143373Y-82708385D01*
X109165262Y-82646083D01*
X109298786Y-82193327D01*
X109442087Y-81605050D01*
X109569312Y-80989748D01*
X109598141Y-80829659D01*
X109719674Y-80241835D01*
X109897787Y-79521950D01*
X110106430Y-78770291D01*
X110277192Y-78215412D01*
X110526691Y-77393057D01*
X110681600Y-76740169D01*
X110753367Y-76203576D01*
X110761650Y-75965169D01*
X110761650Y-75205339D01*
X109975696Y-75205339D01*
X109462632Y-75176391D01*
X108965571Y-75101740D01*
X108692183Y-75029790D01*
X108374080Y-74935108D01*
X108165839Y-74905729D01*
X108133285Y-74915581D01*
X107994659Y-74906302D01*
X107736167Y-74802777D01*
X107696707Y-74782877D01*
X107375069Y-74631073D01*
X107223045Y-74621895D01*
X107198144Y-74772176D01*
X107230820Y-74967451D01*
X107213028Y-75431389D01*
X107016955Y-75893444D01*
X106768429Y-76180078D01*
X106629115Y-76244124D01*
X106445838Y-76195349D01*
X106161260Y-76012103D01*
X105995773Y-75888334D01*
X105543497Y-75591310D01*
X105202048Y-75495168D01*
X104935958Y-75602266D01*
X104709760Y-75914966D01*
X104678923Y-75975970D01*
X104514001Y-76263101D01*
X104373205Y-76425081D01*
X104339845Y-76438349D01*
X104232766Y-76529301D01*
X104254541Y-76762945D01*
X104391875Y-77080467D01*
X104534951Y-77301455D01*
X104730323Y-77617910D01*
X104836687Y-77890654D01*
X104843204Y-77945785D01*
X104937227Y-78176903D01*
X105183134Y-78280036D01*
X105526679Y-78262561D01*
X105913618Y-78131856D01*
X106289704Y-77895301D01*
X106470763Y-77724409D01*
X106748936Y-77477451D01*
X106947489Y-77404434D01*
X107030340Y-77498477D01*
X106961403Y-77752702D01*
X106931521Y-77812247D01*
X106530917Y-78419145D01*
X106034630Y-78944730D01*
X105493270Y-79348942D01*
X104957447Y-79591722D01*
X104617120Y-79644174D01*
X104245137Y-79580078D01*
X103817645Y-79418844D01*
X103663649Y-79337637D01*
X103286841Y-79150192D01*
X102774915Y-78938290D01*
X102230245Y-78743885D01*
X102158771Y-78720946D01*
X101493807Y-78493020D01*
X101034679Y-78279960D01*
X100745319Y-78048728D01*
X100589658Y-77766287D01*
X100531627Y-77399598D01*
X100527670Y-77226895D01*
X100558744Y-76716055D01*
X100671203Y-76273028D01*
X100893897Y-75837163D01*
X101255678Y-75347811D01*
X101624132Y-74922018D01*
X102016026Y-74462951D01*
X102252200Y-74121930D01*
X102361100Y-73852999D01*
X102377184Y-73705453D01*
X102349985Y-73445976D01*
X102244290Y-73377438D01*
X102161407Y-73395060D01*
X100875280Y-73849401D01*
X99972815Y-74235502D01*
X99155406Y-74538037D01*
X98265547Y-74732202D01*
X97366959Y-74814050D01*
X96523363Y-74779631D01*
X95798480Y-74624997D01*
X95520346Y-74511373D01*
X95204957Y-74310659D01*
X95000140Y-74038448D01*
X94854801Y-73671853D01*
X94668609Y-73248195D01*
X94377405Y-72853137D01*
X93937338Y-72421442D01*
X93569045Y-72111018D01*
X93187052Y-71819690D01*
X93166753Y-71805626D01*
X94403782Y-71805626D01*
X94404029Y-71806274D01*
X94554204Y-71974642D01*
X94738154Y-71974458D01*
X94850968Y-71816421D01*
X94855825Y-71760189D01*
X94793985Y-71520589D01*
X94721780Y-71438019D01*
X94535990Y-71430092D01*
X94405108Y-71581465D01*
X94403782Y-71805626D01*
X93166753Y-71805626D01*
X92830951Y-71572968D01*
X92540334Y-71396364D01*
X92354792Y-71315387D01*
X92313918Y-71355550D01*
X92329761Y-71385608D01*
X92356466Y-71497415D01*
X92244058Y-71476765D01*
X92135876Y-71458671D01*
X86844681Y-71458671D01*
X86739211Y-71209676D01*
X86550114Y-71042399D01*
X86313828Y-71044427D01*
X86070044Y-71228883D01*
X85854527Y-71640384D01*
X85849892Y-72113458D01*
X85155410Y-72113458D01*
X85050321Y-71904976D01*
X84795539Y-71211793D01*
X84646908Y-70547061D01*
X84621844Y-70202747D01*
X84599986Y-69763981D01*
X84514453Y-69473696D01*
X84335308Y-69236087D01*
X84312558Y-69212999D01*
X84033484Y-69004448D01*
X83845527Y-69017400D01*
X83761850Y-69249020D01*
X83758738Y-69332253D01*
X83679655Y-69684360D01*
X83480728Y-69933855D01*
X83219435Y-70011733D01*
X83195733Y-70008140D01*
X82980946Y-69844725D01*
X82790562Y-69439082D01*
X82772330Y-69383650D01*
X82629521Y-69009004D01*
X82479223Y-68722130D01*
X82418292Y-68644985D01*
X82330415Y-68593092D01*
X82293349Y-68680210D01*
X81869334Y-68680210D01*
X81866233Y-68608737D01*
X81907618Y-67854143D01*
X82044627Y-67256574D01*
X82306722Y-66735494D01*
X82723364Y-66210367D01*
X82757097Y-66173525D01*
X82781753Y-66144160D01*
X83432870Y-66144160D01*
X83460545Y-66320832D01*
X83640215Y-66618358D01*
X83979476Y-67045982D01*
X84485925Y-67612950D01*
X85167157Y-68328509D01*
X85539947Y-68708730D01*
X86005074Y-69170729D01*
X86334349Y-69472167D01*
X86557376Y-69635339D01*
X86703759Y-69682540D01*
X86788745Y-69649215D01*
X86931538Y-69414518D01*
X86964563Y-69225557D01*
X86938620Y-68788294D01*
X86837791Y-68433609D01*
X86627580Y-68103778D01*
X86273488Y-67741080D01*
X85869735Y-67393681D01*
X85128579Y-66796406D01*
X84544199Y-66365577D01*
X84099724Y-66092543D01*
X83778284Y-65968655D01*
X83563006Y-65985261D01*
X83437021Y-66133710D01*
X83432870Y-66144160D01*
X82781753Y-66144160D01*
X83052053Y-65822243D01*
X83284593Y-65489412D01*
X83374448Y-65317449D01*
X83418873Y-65108108D01*
X83478576Y-64691426D01*
X83541102Y-64172338D01*
X84516746Y-64172338D01*
X84553494Y-64289318D01*
X84740016Y-64489658D01*
X84847455Y-64580994D01*
X85130762Y-64825450D01*
X85514022Y-65179051D01*
X85924803Y-65574603D01*
X86018814Y-65667690D01*
X86392632Y-66007159D01*
X86914445Y-66436957D01*
X87532623Y-66918859D01*
X88195536Y-67414641D01*
X88851553Y-67886079D01*
X89449045Y-68294947D01*
X89936380Y-68603022D01*
X90128936Y-68710603D01*
X90498743Y-68858718D01*
X90927873Y-68975252D01*
X90976105Y-68984548D01*
X91449652Y-69102326D01*
X91851781Y-69291482D01*
X92256074Y-69596253D01*
X92693423Y-70017025D01*
X93007500Y-70326001D01*
X93258101Y-70549717D01*
X93394120Y-70642758D01*
X93398065Y-70643203D01*
X93523095Y-70547949D01*
X93618477Y-70404707D01*
X93713606Y-70103490D01*
X93746116Y-69797706D01*
X93727204Y-69613527D01*
X93642788Y-69459943D01*
X93451347Y-69299855D01*
X93111361Y-69096162D01*
X92731676Y-68891274D01*
X92156167Y-68562443D01*
X92036944Y-68475133D01*
X98678155Y-68475133D01*
X98780935Y-68700049D01*
X99031371Y-68924419D01*
X99342608Y-69071426D01*
X99356310Y-69074908D01*
X99711473Y-69141067D01*
X99982955Y-69118357D01*
X100211390Y-69043342D01*
X100444492Y-68897020D01*
X100527670Y-68746050D01*
X100424235Y-68518537D01*
X100166783Y-68269340D01*
X99834593Y-68056681D01*
X99506945Y-67938786D01*
X99417308Y-67930582D01*
X99063875Y-68011200D01*
X98789765Y-68212195D01*
X98678169Y-68472279D01*
X98678155Y-68475133D01*
X92036944Y-68475133D01*
X91732482Y-68252167D01*
X91380276Y-67895874D01*
X91175551Y-67640673D01*
X90826795Y-67226928D01*
X90451158Y-66850406D01*
X90157199Y-66612558D01*
X89852517Y-66425937D01*
X89656652Y-66370562D01*
X89480142Y-66431059D01*
X89398187Y-66482113D01*
X89272591Y-66549502D01*
X89136941Y-66565616D01*
X88951467Y-66514441D01*
X88676396Y-66379960D01*
X88271957Y-66146157D01*
X87701125Y-65798701D01*
X86914441Y-65326956D01*
X86194079Y-64916343D01*
X85567543Y-64580907D01*
X85062339Y-64334696D01*
X84705971Y-64191759D01*
X84525943Y-64166141D01*
X84516746Y-64172338D01*
X83541102Y-64172338D01*
X83549108Y-64105873D01*
X83626015Y-63389919D01*
X83704846Y-62582035D01*
X83753939Y-62038092D01*
X83854651Y-60934074D01*
X83948718Y-60034909D01*
X84043995Y-59299272D01*
X84148339Y-58685841D01*
X84211630Y-58407898D01*
X91152327Y-58407898D01*
X91192538Y-59276685D01*
X91394677Y-60008247D01*
X91412188Y-60047354D01*
X91602084Y-60403046D01*
X91811577Y-60604598D01*
X92134143Y-60733145D01*
X92234316Y-60760959D01*
X92757492Y-60945311D01*
X93326127Y-61215874D01*
X93868237Y-61531198D01*
X94311837Y-61849835D01*
X94566256Y-62103690D01*
X94746433Y-62421285D01*
X94929902Y-62858727D01*
X95022721Y-63139633D01*
X95163621Y-63543946D01*
X95315838Y-63860363D01*
X95409434Y-63983917D01*
X95566544Y-64188639D01*
X95595631Y-64298308D01*
X95653492Y-64508201D01*
X95794309Y-64803946D01*
X95809467Y-64830759D01*
X95923468Y-65049287D01*
X95945512Y-65219640D01*
X95859241Y-65421701D01*
X95648292Y-65735354D01*
X95614323Y-65783574D01*
X95205342Y-66363801D01*
X95548865Y-66637717D01*
X95767939Y-66829663D01*
X95810304Y-66958225D01*
X95698248Y-67105664D01*
X95680493Y-67123528D01*
X95392250Y-67443468D01*
X95126060Y-67791156D01*
X94930921Y-68097205D01*
X94855825Y-68291354D01*
X94939569Y-68349524D01*
X95194707Y-68238822D01*
X95256553Y-68202508D01*
X95818320Y-67933338D01*
X96577842Y-67673569D01*
X97486323Y-67437704D01*
X98493204Y-67240539D01*
X99019017Y-67142770D01*
X99449775Y-67043454D01*
X99729640Y-66956560D01*
X99804843Y-66912385D01*
X99943799Y-66911729D01*
X100257648Y-67022316D01*
X100709166Y-67229618D01*
X101005447Y-67381044D01*
X101850910Y-67889785D01*
X102494457Y-68432647D01*
X102980514Y-69055038D01*
X103338652Y-69765713D01*
X103527958Y-70284223D01*
X103590129Y-70657366D01*
X103520249Y-70953960D01*
X103313404Y-71242821D01*
X103226521Y-71335565D01*
X102842848Y-71731415D01*
X103368322Y-72112066D01*
X103681775Y-72327025D01*
X103915128Y-72465044D01*
X103988800Y-72492718D01*
X104075977Y-72599485D01*
X104161809Y-72859897D01*
X104169299Y-72893446D01*
X104336797Y-73503135D01*
X104526080Y-73895095D01*
X104725968Y-74063330D01*
X104925278Y-74001844D01*
X105112827Y-73704641D01*
X105204020Y-73448228D01*
X105326242Y-73111250D01*
X105443464Y-72899554D01*
X105494527Y-72862620D01*
X105643705Y-72774663D01*
X105845399Y-72562255D01*
X105851640Y-72554368D01*
X106071942Y-72337687D01*
X106264043Y-72246131D01*
X106265776Y-72246116D01*
X106476145Y-72132920D01*
X106626162Y-71828416D01*
X106691667Y-71385225D01*
X106692718Y-71316272D01*
X106675404Y-71024321D01*
X106602882Y-70926186D01*
X106476941Y-70955702D01*
X106189773Y-71047327D01*
X105922087Y-71106189D01*
X105673633Y-71115292D01*
X105587343Y-70997959D01*
X105583009Y-70925764D01*
X105678386Y-70382914D01*
X105839075Y-70011172D01*
X106695063Y-70011172D01*
X106745309Y-70140142D01*
X106800922Y-70149999D01*
X106961614Y-70065641D01*
X107062621Y-69965048D01*
X107300759Y-69818747D01*
X107515395Y-69780096D01*
X107890780Y-69710677D01*
X108262784Y-69537387D01*
X108531998Y-69312674D01*
X108591844Y-69212154D01*
X108634092Y-69024927D01*
X108547632Y-68937264D01*
X108291587Y-68933315D01*
X107977025Y-68973747D01*
X107478478Y-69113963D01*
X107095541Y-69395766D01*
X107046572Y-69447634D01*
X106800443Y-69766157D01*
X106695063Y-70011172D01*
X105839075Y-70011172D01*
X105937995Y-69782328D01*
X106322054Y-69204802D01*
X106563277Y-68934872D01*
X106854166Y-68666388D01*
X107158178Y-68446856D01*
X107532930Y-68244565D01*
X108036036Y-68027802D01*
X108614022Y-67806105D01*
X109408304Y-67489710D01*
X109974215Y-67216344D01*
X110324940Y-66979396D01*
X110388379Y-66916441D01*
X110751244Y-66639717D01*
X111034536Y-66574271D01*
X111375808Y-66574271D01*
X111303953Y-65248786D01*
X111231058Y-64369754D01*
X111105770Y-63349723D01*
X110940859Y-62265669D01*
X110749099Y-61194570D01*
X110543261Y-60213407D01*
X110336118Y-59399155D01*
X110329710Y-59377058D01*
X110155093Y-58835007D01*
X109941480Y-58257366D01*
X109709666Y-57690872D01*
X109480448Y-57182261D01*
X109274620Y-56778268D01*
X109112977Y-56525629D01*
X109033362Y-56463591D01*
X108877350Y-56375343D01*
X108634843Y-56154098D01*
X108366007Y-55865109D01*
X108131011Y-55573629D01*
X107990023Y-55344908D01*
X107981693Y-55323057D01*
X107854000Y-55160500D01*
X107680849Y-55107866D01*
X107564423Y-55185372D01*
X107555825Y-55238809D01*
X107625326Y-55412888D01*
X107798601Y-55685626D01*
X107864077Y-55774476D01*
X108057081Y-56045441D01*
X108164455Y-56230992D01*
X108172330Y-56259453D01*
X108093328Y-56349409D01*
X107905136Y-56301500D01*
X107680971Y-56143811D01*
X107577159Y-56031155D01*
X107322958Y-55811141D01*
X107134580Y-55798542D01*
X106901859Y-55760795D01*
X106678250Y-55548447D01*
X106410658Y-55312219D01*
X106207213Y-55289789D01*
X106083779Y-55301636D01*
X105931435Y-55244667D01*
X105717116Y-55094379D01*
X105407756Y-54826269D01*
X104970290Y-54415833D01*
X104774952Y-54228398D01*
X104512024Y-53997234D01*
X104241336Y-53824577D01*
X103898632Y-53681566D01*
X103419657Y-53539338D01*
X103006643Y-53434089D01*
X102409762Y-53292850D01*
X101970519Y-53211551D01*
X101609042Y-53183785D01*
X101245460Y-53203150D01*
X100826161Y-53259246D01*
X100369609Y-53316889D01*
X100006058Y-53341478D01*
X99805661Y-53328627D01*
X99794800Y-53323704D01*
X99614011Y-53320233D01*
X99313480Y-53403426D01*
X99225338Y-53437976D01*
X98917802Y-53544748D01*
X98710946Y-53577157D01*
X98684217Y-53569765D01*
X98528711Y-53580510D01*
X98220601Y-53666502D01*
X97926685Y-53771374D01*
X97438021Y-53929549D01*
X96934844Y-54045497D01*
X96705339Y-54077517D01*
X96200810Y-54125462D01*
X95675861Y-54181105D01*
X95595631Y-54190281D01*
X95105662Y-54237971D01*
X94606717Y-54273119D01*
X94522737Y-54277214D01*
X94144303Y-54330432D01*
X93925418Y-54472476D01*
X93856252Y-54577025D01*
X93686948Y-54792913D01*
X93385790Y-55092261D01*
X93017981Y-55410259D01*
X92427303Y-55890743D01*
X92000369Y-56255829D01*
X91706350Y-56541626D01*
X91514418Y-56784244D01*
X91393744Y-57019791D01*
X91313501Y-57284376D01*
X91276556Y-57449999D01*
X91152327Y-58407898D01*
X84211630Y-58407898D01*
X84269606Y-58153293D01*
X84415652Y-57660304D01*
X84594334Y-57165550D01*
X84756893Y-56762692D01*
X85141400Y-55934341D01*
X85584983Y-55181976D01*
X86129049Y-54447131D01*
X86749181Y-53745786D01*
X87463695Y-53745786D01*
X87466191Y-53750970D01*
X87575859Y-53669498D01*
X87810731Y-53453674D01*
X88124548Y-53146390D01*
X88197572Y-53072815D01*
X88504755Y-52754412D01*
X88720718Y-52516218D01*
X88808149Y-52399843D01*
X88805653Y-52394659D01*
X88695985Y-52476132D01*
X88461113Y-52691955D01*
X88147296Y-52999239D01*
X88074271Y-53072815D01*
X87767089Y-53391218D01*
X87551126Y-53629411D01*
X87463695Y-53745786D01*
X86749181Y-53745786D01*
X86815007Y-53671339D01*
X87295719Y-53178056D01*
X87817936Y-52665610D01*
X88241567Y-52283171D01*
X88636371Y-51980549D01*
X89072110Y-51707555D01*
X89618545Y-51413998D01*
X90050105Y-51196371D01*
X90736690Y-50867304D01*
X91365081Y-50600896D01*
X91992176Y-50379784D01*
X92674874Y-50186604D01*
X93470075Y-50003993D01*
X94434677Y-49814588D01*
X94794174Y-49748665D01*
X95306622Y-49666215D01*
X95779827Y-49618853D01*
X96284453Y-49604646D01*
X96891164Y-49621661D01*
G37*
D12*
%TO.C,SW15*%
X317950000Y-36100000D02*
X317950000Y-32000000D01*
X317950000Y-44200000D02*
X317950000Y-40100000D01*
X320350000Y-44200000D02*
X317950000Y-44200000D01*
X325150000Y-44200000D02*
X322550000Y-44200000D01*
X329750000Y-32000000D02*
X317950000Y-32000000D01*
X329750000Y-36100000D02*
X329750000Y-32000000D01*
X329750000Y-40100000D02*
X329750000Y-44200000D01*
X329750000Y-44200000D02*
X327350000Y-44200000D01*
X325850000Y-38100000D02*
G75*
G02*
X321850000Y-38100000I-2000000J0D01*
G01*
X321850000Y-38100000D02*
G75*
G02*
X325850000Y-38100000I2000000J0D01*
G01*
X324090000Y-32531892D02*
X323610000Y-32531892D01*
X323850000Y-32201892D01*
X324090000Y-32531892D01*
G36*
X324090000Y-32531892D02*
G01*
X323610000Y-32531892D01*
X323850000Y-32201892D01*
X324090000Y-32531892D01*
G37*
%TO.C,SW68*%
X123900000Y-115000000D02*
X123900000Y-117000000D01*
X124950000Y-113700000D02*
X125400000Y-113250000D01*
X124950000Y-118300000D02*
X125400000Y-118750000D01*
X125400000Y-113250000D02*
X127900000Y-113250000D01*
X125400000Y-118750000D02*
X127900000Y-118750000D01*
X128350000Y-113700000D02*
X127900000Y-113250000D01*
X128350000Y-118300000D02*
X127900000Y-118750000D01*
X129400000Y-115000000D02*
X129400000Y-117000000D01*
%TO.C,SW69*%
X134600000Y-115000000D02*
X134600000Y-117000000D01*
X135650000Y-113700000D02*
X136100000Y-113250000D01*
X135650000Y-118300000D02*
X136100000Y-118750000D01*
X136100000Y-113250000D02*
X138600000Y-113250000D01*
X136100000Y-118750000D02*
X138600000Y-118750000D01*
X139050000Y-113700000D02*
X138600000Y-113250000D01*
X139050000Y-118300000D02*
X138600000Y-118750000D01*
X140100000Y-115000000D02*
X140100000Y-117000000D01*
%TO.C,SW39*%
D13*
X197787500Y-83200000D02*
X211787500Y-83200000D01*
X211787500Y-69200000D01*
X197787500Y-69200000D01*
X197787500Y-83200000D01*
%TO.C,SW55*%
X245412500Y-102250000D02*
X259412500Y-102250000D01*
X259412500Y-88250000D01*
X245412500Y-88250000D01*
X245412500Y-102250000D01*
%TO.C,SW60*%
X57293750Y-121300000D02*
X71293750Y-121300000D01*
X71293750Y-107300000D01*
X57293750Y-107300000D01*
X57293750Y-121300000D01*
%TO.C,SW23*%
X173975000Y-64150000D02*
X187975000Y-64150000D01*
X187975000Y-50150000D01*
X173975000Y-50150000D01*
X173975000Y-64150000D01*
%TO.C,SW64*%
X247793750Y-121300000D02*
X261793750Y-121300000D01*
X261793750Y-107300000D01*
X247793750Y-107300000D01*
X247793750Y-121300000D01*
%TO.C,SW37*%
X159687500Y-83200000D02*
X173687500Y-83200000D01*
X173687500Y-69200000D01*
X159687500Y-69200000D01*
X159687500Y-83200000D01*
%TO.C,SW44*%
X316850000Y-83200000D02*
X330850000Y-83200000D01*
X330850000Y-69200000D01*
X316850000Y-69200000D01*
X316850000Y-83200000D01*
%TO.C,SW6*%
X126350000Y-45100000D02*
X140350000Y-45100000D01*
X140350000Y-31100000D01*
X126350000Y-31100000D01*
X126350000Y-45100000D01*
%TO.C,SW16*%
X35862500Y-64150000D02*
X49862500Y-64150000D01*
X49862500Y-50150000D01*
X35862500Y-50150000D01*
X35862500Y-64150000D01*
%TO.C,SW9*%
X183500000Y-45100000D02*
X197500000Y-45100000D01*
X197500000Y-31100000D01*
X183500000Y-31100000D01*
X183500000Y-45100000D01*
%TO.C,SW49*%
X131112500Y-102250000D02*
X145112500Y-102250000D01*
X145112500Y-88250000D01*
X131112500Y-88250000D01*
X131112500Y-102250000D01*
%TO.C,SW36*%
X140637500Y-83200000D02*
X154637500Y-83200000D01*
X154637500Y-69200000D01*
X140637500Y-69200000D01*
X140637500Y-83200000D01*
%TO.C,SW54*%
X226362500Y-102250000D02*
X240362500Y-102250000D01*
X240362500Y-88250000D01*
X226362500Y-88250000D01*
X226362500Y-102250000D01*
%TO.C,SW48*%
X112062500Y-102250000D02*
X126062500Y-102250000D01*
X126062500Y-88250000D01*
X112062500Y-88250000D01*
X112062500Y-102250000D01*
%TO.C,SW22*%
X154925000Y-64150000D02*
X168925000Y-64150000D01*
X168925000Y-50150000D01*
X154925000Y-50150000D01*
X154925000Y-64150000D01*
%TO.C,SW25*%
X212075000Y-64150000D02*
X226075000Y-64150000D01*
X226075000Y-50150000D01*
X212075000Y-50150000D01*
X212075000Y-64150000D01*
%TO.C,SW42*%
X254937500Y-83200000D02*
X268937500Y-83200000D01*
X268937500Y-69200000D01*
X254937500Y-69200000D01*
X254937500Y-83200000D01*
%TO.C,SW3*%
X69200000Y-45100000D02*
X83200000Y-45100000D01*
X83200000Y-31100000D01*
X69200000Y-31100000D01*
X69200000Y-45100000D01*
%TO.C,SW32*%
X64437500Y-83200000D02*
X78437500Y-83200000D01*
X78437500Y-69200000D01*
X64437500Y-69200000D01*
X64437500Y-83200000D01*
%TO.C,SW28*%
X269225000Y-64150000D02*
X283225000Y-64150000D01*
X283225000Y-50150000D01*
X269225000Y-50150000D01*
X269225000Y-64150000D01*
%TO.C,SW62*%
X152543750Y-121300000D02*
X166543750Y-121300000D01*
X166543750Y-107300000D01*
X152543750Y-107300000D01*
X152543750Y-121300000D01*
%TO.C,SW2*%
X50150000Y-45100000D02*
X64150000Y-45100000D01*
X64150000Y-31100000D01*
X50150000Y-31100000D01*
X50150000Y-45100000D01*
%TO.C,SW10*%
X202550000Y-45100000D02*
X216550000Y-45100000D01*
X216550000Y-31100000D01*
X202550000Y-31100000D01*
X202550000Y-45100000D01*
%TO.C,SW46*%
X73962500Y-102250000D02*
X87962500Y-102250000D01*
X87962500Y-88250000D01*
X73962500Y-88250000D01*
X73962500Y-102250000D01*
%TO.C,SW31*%
X33481250Y-83200000D02*
X47481250Y-83200000D01*
X47481250Y-69200000D01*
X33481250Y-69200000D01*
X33481250Y-83200000D01*
%TO.C,SW14*%
X288275000Y-45100000D02*
X302275000Y-45100000D01*
X302275000Y-31100000D01*
X288275000Y-31100000D01*
X288275000Y-45100000D01*
%TO.C,SW13*%
X259700000Y-45100000D02*
X273700000Y-45100000D01*
X273700000Y-31100000D01*
X259700000Y-31100000D01*
X259700000Y-45100000D01*
%TO.C,SW33*%
X83487500Y-83200000D02*
X97487500Y-83200000D01*
X97487500Y-69200000D01*
X83487500Y-69200000D01*
X83487500Y-83200000D01*
%TO.C,SW1*%
X31100000Y-45100000D02*
X45100000Y-45100000D01*
X45100000Y-31100000D01*
X31100000Y-31100000D01*
X31100000Y-45100000D01*
%TO.C,SW29*%
X293037500Y-64150000D02*
X307037500Y-64150000D01*
X307037500Y-50150000D01*
X293037500Y-50150000D01*
X293037500Y-64150000D01*
%TO.C,SW11*%
X221600000Y-45100000D02*
X235600000Y-45100000D01*
X235600000Y-31100000D01*
X221600000Y-31100000D01*
X221600000Y-45100000D01*
%TO.C,SW61*%
X81106250Y-121300000D02*
X95106250Y-121300000D01*
X95106250Y-107300000D01*
X81106250Y-107300000D01*
X81106250Y-121300000D01*
%TO.C,SW58*%
X316850000Y-102250000D02*
X330850000Y-102250000D01*
X330850000Y-88250000D01*
X316850000Y-88250000D01*
X316850000Y-102250000D01*
%TO.C,SW65*%
X278750000Y-121300000D02*
X292750000Y-121300000D01*
X292750000Y-107300000D01*
X278750000Y-107300000D01*
X278750000Y-121300000D01*
%TO.C,SW53*%
X207312500Y-102250000D02*
X221312500Y-102250000D01*
X221312500Y-88250000D01*
X207312500Y-88250000D01*
X207312500Y-102250000D01*
%TO.C,SW67*%
X316850000Y-121300000D02*
X330850000Y-121300000D01*
X330850000Y-107300000D01*
X316850000Y-107300000D01*
X316850000Y-121300000D01*
%TO.C,SW8*%
X164450000Y-45100000D02*
X178450000Y-45100000D01*
X178450000Y-31100000D01*
X164450000Y-31100000D01*
X164450000Y-45100000D01*
%TO.C,SW34*%
X102537500Y-83200000D02*
X116537500Y-83200000D01*
X116537500Y-69200000D01*
X102537500Y-69200000D01*
X102537500Y-83200000D01*
%TO.C,SW35*%
X121587500Y-83200000D02*
X135587500Y-83200000D01*
X135587500Y-69200000D01*
X121587500Y-69200000D01*
X121587500Y-83200000D01*
%TO.C,SW40*%
X216837500Y-83200000D02*
X230837500Y-83200000D01*
X230837500Y-69200000D01*
X216837500Y-69200000D01*
X216837500Y-83200000D01*
%TO.C,SW43*%
X285893750Y-83200000D02*
X299893750Y-83200000D01*
X299893750Y-69200000D01*
X285893750Y-69200000D01*
X285893750Y-83200000D01*
%TO.C,SW63*%
X223981250Y-121300000D02*
X237981250Y-121300000D01*
X237981250Y-107300000D01*
X223981250Y-107300000D01*
X223981250Y-121300000D01*
%TO.C,SW4*%
X88250000Y-45100000D02*
X102250000Y-45100000D01*
X102250000Y-31100000D01*
X88250000Y-31100000D01*
X88250000Y-45100000D01*
%TO.C,SW57*%
X297800000Y-102250000D02*
X311800000Y-102250000D01*
X311800000Y-88250000D01*
X297800000Y-88250000D01*
X297800000Y-102250000D01*
%TO.C,SW24*%
X193025000Y-64150000D02*
X207025000Y-64150000D01*
X207025000Y-50150000D01*
X193025000Y-50150000D01*
X193025000Y-64150000D01*
%TO.C,SW56*%
X271606250Y-102250000D02*
X285606250Y-102250000D01*
X285606250Y-88250000D01*
X271606250Y-88250000D01*
X271606250Y-102250000D01*
%TO.C,SW51*%
X169212500Y-102250000D02*
X183212500Y-102250000D01*
X183212500Y-88250000D01*
X169212500Y-88250000D01*
X169212500Y-102250000D01*
%TO.C,SW59*%
X33481250Y-121300000D02*
X47481250Y-121300000D01*
X47481250Y-107300000D01*
X33481250Y-107300000D01*
X33481250Y-121300000D01*
%TO.C,SW30*%
X316850000Y-64150000D02*
X330850000Y-64150000D01*
X330850000Y-50150000D01*
X316850000Y-50150000D01*
X316850000Y-64150000D01*
%TO.C,SW47*%
X93012500Y-102250000D02*
X107012500Y-102250000D01*
X107012500Y-88250000D01*
X93012500Y-88250000D01*
X93012500Y-102250000D01*
%TO.C,SW7*%
X145400000Y-45100000D02*
X159400000Y-45100000D01*
X159400000Y-31100000D01*
X145400000Y-31100000D01*
X145400000Y-45100000D01*
%TO.C,SW38*%
X178737500Y-83200000D02*
X192737500Y-83200000D01*
X192737500Y-69200000D01*
X178737500Y-69200000D01*
X178737500Y-83200000D01*
%TO.C,SW27*%
X250175000Y-64150000D02*
X264175000Y-64150000D01*
X264175000Y-50150000D01*
X250175000Y-50150000D01*
X250175000Y-64150000D01*
%TO.C,SW18*%
X78725000Y-64150000D02*
X92725000Y-64150000D01*
X92725000Y-50150000D01*
X78725000Y-50150000D01*
X78725000Y-64150000D01*
%TO.C,SW12*%
X240650000Y-45100000D02*
X254650000Y-45100000D01*
X254650000Y-31100000D01*
X240650000Y-31100000D01*
X240650000Y-45100000D01*
%TO.C,SW20*%
X116825000Y-64150000D02*
X130825000Y-64150000D01*
X130825000Y-50150000D01*
X116825000Y-50150000D01*
X116825000Y-64150000D01*
%TO.C,SW5*%
X107300000Y-45100000D02*
X121300000Y-45100000D01*
X121300000Y-31100000D01*
X107300000Y-31100000D01*
X107300000Y-45100000D01*
%TO.C,SW26*%
X231125000Y-64150000D02*
X245125000Y-64150000D01*
X245125000Y-50150000D01*
X231125000Y-50150000D01*
X231125000Y-64150000D01*
%TO.C,SW66*%
X297800000Y-121300000D02*
X311800000Y-121300000D01*
X311800000Y-107300000D01*
X297800000Y-107300000D01*
X297800000Y-121300000D01*
%TO.C,SW41*%
X235887500Y-83200000D02*
X249887500Y-83200000D01*
X249887500Y-69200000D01*
X235887500Y-69200000D01*
X235887500Y-83200000D01*
%TO.C,SW21*%
X135875000Y-64150000D02*
X149875000Y-64150000D01*
X149875000Y-50150000D01*
X135875000Y-50150000D01*
X135875000Y-64150000D01*
%TO.C,SW50*%
X150162500Y-102250000D02*
X164162500Y-102250000D01*
X164162500Y-88250000D01*
X150162500Y-88250000D01*
X150162500Y-102250000D01*
%TO.C,SW52*%
X188262500Y-102250000D02*
X202262500Y-102250000D01*
X202262500Y-88250000D01*
X188262500Y-88250000D01*
X188262500Y-102250000D01*
%TO.C,SW45*%
X43006250Y-102250000D02*
X57006250Y-102250000D01*
X57006250Y-88250000D01*
X43006250Y-88250000D01*
X43006250Y-102250000D01*
%TO.C,SW19*%
X97775000Y-64150000D02*
X111775000Y-64150000D01*
X111775000Y-50150000D01*
X97775000Y-50150000D01*
X97775000Y-64150000D01*
%TO.C,SW17*%
X59675000Y-64150000D02*
X73675000Y-64150000D01*
X73675000Y-50150000D01*
X59675000Y-50150000D01*
X59675000Y-64150000D01*
%TD*%
M02*
