%TF.GenerationSoftware,KiCad,Pcbnew,9.0.2*%
%TF.CreationDate,2025-06-21T23:15:30+02:00*%
%TF.ProjectId,MOD65,4d4f4436-352e-46b6-9963-61645f706362,2*%
%TF.SameCoordinates,Original*%
%TF.FileFunction,Plated,1,2,PTH,Mixed*%
%TF.FilePolarity,Positive*%
%FSLAX46Y46*%
G04 Gerber Fmt 4.6, Leading zero omitted, Abs format (unit mm)*
G04 Created by KiCad (PCBNEW 9.0.2) date 2025-06-21 23:15:30*
%MOMM*%
%LPD*%
G01*
G04 APERTURE LIST*
%TA.AperFunction,ViaDrill*%
%ADD10C,0.300000*%
%TD*%
%TA.AperFunction,ComponentDrill*%
%ADD11C,1.000000*%
%TD*%
G04 aperture for slot hole*
%TA.AperFunction,ComponentDrill*%
%ADD12C,1.500000*%
%TD*%
%TA.AperFunction,ComponentDrill*%
%ADD13C,3.000000*%
%TD*%
G04 APERTURE END LIST*
D10*
X35375000Y-32350000D03*
X37756250Y-70450000D03*
X37756250Y-108550000D03*
X40900000Y-99001473D03*
X43196282Y-104161911D03*
X43206250Y-110050000D03*
X45460000Y-35750000D03*
X45587500Y-52900000D03*
X47841250Y-73850000D03*
X50222500Y-54800000D03*
X51060000Y-43180000D03*
X52731250Y-91000000D03*
X54425000Y-32350000D03*
X54500000Y-83500000D03*
X55500000Y-83500000D03*
X56500000Y-83500000D03*
X57388750Y-99750000D03*
X57388750Y-100550003D03*
X57388750Y-101350006D03*
X57388750Y-102200000D03*
X57388750Y-103000003D03*
X57500000Y-83500000D03*
X57988750Y-95600000D03*
X58203750Y-119380000D03*
X60585000Y-62230000D03*
X61568750Y-108550000D03*
X65347500Y-81280000D03*
X68712500Y-70450000D03*
X69400000Y-52900000D03*
X70110000Y-43180000D03*
X73475000Y-32350000D03*
X74872500Y-100330000D03*
X79635000Y-62230000D03*
X82016250Y-119380000D03*
X83687500Y-91000000D03*
X84397500Y-81280000D03*
X85381250Y-108550000D03*
X87762500Y-70450000D03*
X88450000Y-52900000D03*
X89160000Y-43180000D03*
X92525000Y-32350000D03*
X93922500Y-100330000D03*
X98685000Y-62230000D03*
X102737500Y-91000000D03*
X103447500Y-81280000D03*
X106812500Y-70450000D03*
X107500000Y-52900000D03*
X108210000Y-43180000D03*
X111575000Y-32350000D03*
X112972500Y-100330000D03*
X117735000Y-62230000D03*
X121787500Y-91000000D03*
X122497500Y-81280000D03*
X123500000Y-114100000D03*
X125862500Y-70450000D03*
X126550000Y-52900000D03*
X127260000Y-43180000D03*
X129800000Y-114100000D03*
X130625000Y-32350000D03*
X132022500Y-100330000D03*
X134200000Y-114100000D03*
X136785000Y-62230000D03*
X140500000Y-114100000D03*
X140837500Y-91000000D03*
X141547500Y-81280000D03*
X144912500Y-70450000D03*
X145600000Y-52900000D03*
X146310000Y-43180000D03*
X149675000Y-32350000D03*
X151072500Y-100330000D03*
X153453750Y-119380000D03*
X155150000Y-116300000D03*
X155835000Y-62230000D03*
X156818750Y-108550000D03*
X159887500Y-91000000D03*
X160597500Y-81280000D03*
X162268750Y-108550000D03*
X162268750Y-110050000D03*
X163962500Y-70450000D03*
X164650000Y-52900000D03*
X165360000Y-43180000D03*
X165950000Y-121400000D03*
X166903750Y-111950000D03*
X168725000Y-32350000D03*
X170122500Y-100330000D03*
X172250000Y-117500000D03*
X174155000Y-113750000D03*
X174885000Y-62230000D03*
X178600000Y-111100000D03*
X178900000Y-105750000D03*
X178937500Y-91000000D03*
X179647500Y-81280000D03*
X180100000Y-115600000D03*
X181100000Y-104050000D03*
X183012500Y-70450000D03*
X183100000Y-103950000D03*
X183700000Y-52900000D03*
X184410000Y-43180000D03*
X184550000Y-121400000D03*
X185087500Y-105850000D03*
X186521427Y-121400000D03*
X186698048Y-115373239D03*
X186900000Y-112750000D03*
X187775000Y-32350000D03*
X188492854Y-121400000D03*
X188691986Y-110250000D03*
X188700000Y-107950000D03*
X188703053Y-115372363D03*
X189062500Y-103950000D03*
X189172500Y-100330000D03*
X190464281Y-121362500D03*
X191050000Y-103950000D03*
X192435708Y-121362500D03*
X193700000Y-116350000D03*
X193935000Y-62230000D03*
X194407135Y-121400000D03*
X195500000Y-111500000D03*
X196378562Y-119500000D03*
X196378562Y-121400000D03*
X197469821Y-113150000D03*
X197987500Y-91000000D03*
X198349989Y-121400000D03*
X198409910Y-113150000D03*
X198697500Y-81280000D03*
X199350000Y-113150000D03*
X202062500Y-70450000D03*
X202750000Y-52900000D03*
X203460000Y-43180000D03*
X206825000Y-32350000D03*
X208222500Y-100330000D03*
X212985000Y-62230000D03*
X217037500Y-91000000D03*
X217747500Y-81280000D03*
X221112500Y-70450000D03*
X221800000Y-52900000D03*
X222510000Y-43180000D03*
X224076250Y-110050000D03*
X224076250Y-111077723D03*
X224076250Y-111950000D03*
X224891250Y-119380000D03*
X225875000Y-32350000D03*
X227272500Y-100330000D03*
X228256250Y-108550000D03*
X232035000Y-62230000D03*
X236087500Y-91000000D03*
X236797500Y-81280000D03*
X240162500Y-70450000D03*
X240850000Y-52900000D03*
X241560000Y-43180000D03*
X244925000Y-32350000D03*
X246322500Y-100330000D03*
X248703750Y-119380000D03*
X251085000Y-62230000D03*
X252068750Y-108550000D03*
X255137500Y-91000000D03*
X255847500Y-81280000D03*
X259212500Y-70450000D03*
X259900000Y-52900000D03*
X260610000Y-43180000D03*
X261300000Y-93500000D03*
X261300000Y-94500000D03*
X262500000Y-93500000D03*
X263100000Y-94029154D03*
X263700000Y-93500000D03*
X263975000Y-32350000D03*
X264304553Y-94023946D03*
X264909103Y-93500000D03*
X266450000Y-94300000D03*
X266490000Y-100400000D03*
X267437500Y-96812500D03*
X268350000Y-87850000D03*
X268350000Y-94300000D03*
X268390000Y-100400000D03*
X270135000Y-62230000D03*
X270560477Y-70813136D03*
X271160477Y-71350000D03*
X271804501Y-70875412D03*
X272448527Y-71350000D03*
X272516250Y-100330000D03*
X272550000Y-70495415D03*
X273175000Y-86400000D03*
X273746826Y-70950000D03*
X274175000Y-86400000D03*
X275175000Y-86400000D03*
X276175000Y-86400000D03*
X278950000Y-52900000D03*
X279660000Y-119380000D03*
X281331250Y-91000000D03*
X283025000Y-108550000D03*
X286803750Y-81280000D03*
X289185000Y-43180000D03*
X289785000Y-56371473D03*
X289785515Y-57219485D03*
X290168750Y-70450000D03*
X290200000Y-66500000D03*
X292550000Y-32350000D03*
X293947500Y-62230000D03*
X298710000Y-100330000D03*
X298710000Y-119380000D03*
X302075000Y-108550000D03*
X302762500Y-52900000D03*
X307525000Y-91000000D03*
X313550000Y-66500000D03*
X317760000Y-62230000D03*
X317760000Y-81280000D03*
X317760000Y-100330000D03*
X317760000Y-119380000D03*
X320174265Y-32624265D03*
X321112500Y-89487500D03*
X321125000Y-37350000D03*
X321125000Y-51400000D03*
X321125000Y-70450000D03*
X321125000Y-108550000D03*
X326575000Y-51400000D03*
X326575000Y-52900000D03*
X326575000Y-70450000D03*
X326575000Y-71950000D03*
X326575000Y-89500000D03*
X326575000Y-91000000D03*
X326575000Y-108550000D03*
X326575000Y-110050000D03*
D11*
%TO.C,SW15*%
X321350000Y-30600000D03*
X321350000Y-45100000D03*
X323850000Y-30600000D03*
X326350000Y-30600000D03*
X326350000Y-45100000D03*
D12*
X318250000Y-38750000D02*
X318250000Y-37450000D01*
X329450000Y-38750000D02*
X329450000Y-37450000D01*
D13*
%TO.C,SW1*%
X35560000Y-43180000D03*
%TO.C,SW31*%
X37941250Y-81280000D03*
%TO.C,SW59*%
X37941250Y-119380000D03*
%TO.C,SW16*%
X40322500Y-62230000D03*
%TO.C,SW1*%
X41910000Y-40640000D03*
%TO.C,SW31*%
X44291250Y-78740000D03*
%TO.C,SW59*%
X44291250Y-116840000D03*
%TO.C,SW16*%
X46672500Y-59690000D03*
%TO.C,SW45*%
X47466250Y-100330000D03*
X53816250Y-97790000D03*
%TO.C,SW2*%
X54610000Y-43180000D03*
X60960000Y-40640000D03*
%TO.C,SW60*%
X61753750Y-119380000D03*
%TO.C,SW17*%
X64135000Y-62230000D03*
%TO.C,SW60*%
X68103750Y-116840000D03*
%TO.C,SW32*%
X68897500Y-81280000D03*
%TO.C,SW17*%
X70485000Y-59690000D03*
%TO.C,SW3*%
X73660000Y-43180000D03*
%TO.C,SW32*%
X75247500Y-78740000D03*
%TO.C,SW46*%
X78422500Y-100330000D03*
%TO.C,SW3*%
X80010000Y-40640000D03*
%TO.C,SW18*%
X83185000Y-62230000D03*
%TO.C,SW46*%
X84772500Y-97790000D03*
%TO.C,SW61*%
X85566250Y-119380000D03*
%TO.C,SW33*%
X87947500Y-81280000D03*
%TO.C,SW18*%
X89535000Y-59690000D03*
%TO.C,SW61*%
X91916250Y-116840000D03*
%TO.C,SW4*%
X92710000Y-43180000D03*
%TO.C,SW33*%
X94297500Y-78740000D03*
%TO.C,SW47*%
X97472500Y-100330000D03*
%TO.C,SW4*%
X99060000Y-40640000D03*
%TO.C,SW19*%
X102235000Y-62230000D03*
%TO.C,SW47*%
X103822500Y-97790000D03*
%TO.C,SW34*%
X106997500Y-81280000D03*
%TO.C,SW19*%
X108585000Y-59690000D03*
%TO.C,SW5*%
X111760000Y-43180000D03*
%TO.C,SW34*%
X113347500Y-78740000D03*
%TO.C,SW48*%
X116522500Y-100330000D03*
%TO.C,SW5*%
X118110000Y-40640000D03*
%TO.C,SW20*%
X121285000Y-62230000D03*
%TO.C,SW48*%
X122872500Y-97790000D03*
%TO.C,SW35*%
X126047500Y-81280000D03*
%TO.C,SW20*%
X127635000Y-59690000D03*
%TO.C,SW6*%
X130810000Y-43180000D03*
%TO.C,SW35*%
X132397500Y-78740000D03*
%TO.C,SW49*%
X135572500Y-100330000D03*
%TO.C,SW6*%
X137160000Y-40640000D03*
%TO.C,SW21*%
X140335000Y-62230000D03*
%TO.C,SW49*%
X141922500Y-97790000D03*
%TO.C,SW36*%
X145097500Y-81280000D03*
%TO.C,SW21*%
X146685000Y-59690000D03*
%TO.C,SW7*%
X149860000Y-43180000D03*
%TO.C,SW36*%
X151447500Y-78740000D03*
%TO.C,SW50*%
X154622500Y-100330000D03*
%TO.C,SW7*%
X156210000Y-40640000D03*
%TO.C,SW62*%
X157003750Y-119380000D03*
%TO.C,SW22*%
X159385000Y-62230000D03*
%TO.C,SW50*%
X160972500Y-97790000D03*
%TO.C,SW62*%
X163353750Y-116840000D03*
%TO.C,SW37*%
X164147500Y-81280000D03*
%TO.C,SW22*%
X165735000Y-59690000D03*
%TO.C,SW8*%
X168910000Y-43180000D03*
%TO.C,SW37*%
X170497500Y-78740000D03*
%TO.C,SW51*%
X173672500Y-100330000D03*
%TO.C,SW8*%
X175260000Y-40640000D03*
%TO.C,SW23*%
X178435000Y-62230000D03*
%TO.C,SW51*%
X180022500Y-97790000D03*
%TO.C,SW38*%
X183197500Y-81280000D03*
%TO.C,SW23*%
X184785000Y-59690000D03*
%TO.C,SW9*%
X187960000Y-43180000D03*
%TO.C,SW38*%
X189547500Y-78740000D03*
%TO.C,SW52*%
X192722500Y-100330000D03*
%TO.C,SW9*%
X194310000Y-40640000D03*
%TO.C,SW24*%
X197485000Y-62230000D03*
%TO.C,SW52*%
X199072500Y-97790000D03*
%TO.C,SW39*%
X202247500Y-81280000D03*
%TO.C,SW24*%
X203835000Y-59690000D03*
%TO.C,SW10*%
X207010000Y-43180000D03*
%TO.C,SW39*%
X208597500Y-78740000D03*
%TO.C,SW53*%
X211772500Y-100330000D03*
%TO.C,SW10*%
X213360000Y-40640000D03*
%TO.C,SW25*%
X216535000Y-62230000D03*
%TO.C,SW53*%
X218122500Y-97790000D03*
%TO.C,SW40*%
X221297500Y-81280000D03*
%TO.C,SW25*%
X222885000Y-59690000D03*
%TO.C,SW11*%
X226060000Y-43180000D03*
%TO.C,SW40*%
X227647500Y-78740000D03*
%TO.C,SW63*%
X228441250Y-119380000D03*
%TO.C,SW54*%
X230822500Y-100330000D03*
%TO.C,SW11*%
X232410000Y-40640000D03*
%TO.C,SW63*%
X234791250Y-116840000D03*
%TO.C,SW26*%
X235585000Y-62230000D03*
%TO.C,SW54*%
X237172500Y-97790000D03*
%TO.C,SW41*%
X240347500Y-81280000D03*
%TO.C,SW26*%
X241935000Y-59690000D03*
%TO.C,SW12*%
X245110000Y-43180000D03*
%TO.C,SW41*%
X246697500Y-78740000D03*
%TO.C,SW55*%
X249872500Y-100330000D03*
%TO.C,SW12*%
X251460000Y-40640000D03*
%TO.C,SW64*%
X252253750Y-119380000D03*
%TO.C,SW27*%
X254635000Y-62230000D03*
%TO.C,SW55*%
X256222500Y-97790000D03*
%TO.C,SW64*%
X258603750Y-116840000D03*
%TO.C,SW42*%
X259397500Y-81280000D03*
%TO.C,SW27*%
X260985000Y-59690000D03*
%TO.C,SW13*%
X264160000Y-43180000D03*
%TO.C,SW42*%
X265747500Y-78740000D03*
%TO.C,SW13*%
X270510000Y-40640000D03*
%TO.C,SW28*%
X273685000Y-62230000D03*
%TO.C,SW56*%
X276066250Y-100330000D03*
%TO.C,SW28*%
X280035000Y-59690000D03*
%TO.C,SW56*%
X282416250Y-97790000D03*
%TO.C,SW65*%
X283210000Y-119380000D03*
X289560000Y-116840000D03*
%TO.C,SW43*%
X290353750Y-81280000D03*
%TO.C,SW14*%
X292735000Y-43180000D03*
%TO.C,SW43*%
X296703750Y-78740000D03*
%TO.C,SW29*%
X297497500Y-62230000D03*
%TO.C,SW14*%
X299085000Y-40640000D03*
%TO.C,SW57*%
X302260000Y-100330000D03*
%TO.C,SW66*%
X302260000Y-119380000D03*
%TO.C,SW29*%
X303847500Y-59690000D03*
%TO.C,SW57*%
X308610000Y-97790000D03*
%TO.C,SW66*%
X308610000Y-116840000D03*
%TO.C,SW30*%
X321310000Y-62230000D03*
%TO.C,SW44*%
X321310000Y-81280000D03*
%TO.C,SW58*%
X321310000Y-100330000D03*
%TO.C,SW67*%
X321310000Y-119380000D03*
%TO.C,SW30*%
X327660000Y-59690000D03*
%TO.C,SW44*%
X327660000Y-78740000D03*
%TO.C,SW58*%
X327660000Y-97790000D03*
%TO.C,SW67*%
X327660000Y-116840000D03*
M02*
